<svg xmlns="http://www.w3.org/2000/svg" viewBox="0 0 283.47 283.46"><defs><style>.cls-1,.cls-2{fill:#1d1d1b;}.cls-2{font-size:60px;font-family:Verdana-Bold, Verdana;font-weight:700;}</style></defs><title>15-30</title><g id="_15-30" data-name="15-30"><path class="cls-1" d="M262.27,283.46H21.19A21.21,21.21,0,0,1,0,262.28V21.2A21.22,21.22,0,0,1,21.19,0H262.27a21.22,21.22,0,0,1,21.2,21.2V262.28A21.21,21.21,0,0,1,262.27,283.46ZM259.79,12.38H23.67A12.42,12.42,0,0,0,11.25,24.81V258.67a12.42,12.42,0,0,0,12.42,12.42H259.79a12.43,12.43,0,0,0,12.43-12.42V24.81A12.43,12.43,0,0,0,259.79,12.38Z"/><text class="cls-2" transform="translate(42.02 242.95)">15-30</text><path class="cls-1" d="M188.82,181.57H94.57a1.37,1.37,0,0,1-1.39-1.36v-1.69c0-16.92,4.92-31.53,15-44.61,8.07-10.49,18.18-18.63,28.76-26.61-11-8.22-21.4-16-29.43-25.89A60.94,60.94,0,0,1,97.36,64.32a58.24,58.24,0,0,1-3.73-21.45V41.19A1.35,1.35,0,0,1,95,39.84h93.9a1.36,1.36,0,0,1,1.37,1.35v1.68a58.23,58.23,0,0,1-3.78,21.54,61.52,61.52,0,0,1-10.17,17.17c-8,9.75-18.27,17.56-29.18,25.72,10.07,7.62,20.43,16,28.45,26.53,9.92,13.09,14.7,27.7,14.59,44.71v1.67A1.36,1.36,0,0,1,188.82,181.57ZM142,111.11c-15.92,11.92-35.1,26.59-40.91,51.29,19.77-16.4,30.15-24.63,40.81-24.63s20.95,8.22,40.52,24.6C177.44,139.57,161.2,125.54,142,111.11ZM115,80.7c9.76,3.45,17.7,5,25.7,5,8.37,0,17-1.67,28.85-5.56,9.35-10.49,14-21.38,14.58-34.18H99.82C100.39,59,105.23,70.05,115,80.7Z"/></g><g id="Age"><path class="cls-1" d="M-21.19,283.46H-262.27a21.2,21.2,0,0,1-21.19-21.18V21.2A21.22,21.22,0,0,1-262.27,0H-21.19A21.22,21.22,0,0,1,0,21.2V262.28A21.21,21.21,0,0,1-21.19,283.46ZM-23.68,12.38H-259.79a12.42,12.42,0,0,0-12.43,12.43V258.67a12.42,12.42,0,0,0,12.43,12.42H-23.68a12.42,12.42,0,0,0,12.43-12.42V24.81A12.42,12.42,0,0,0-23.68,12.38Z"/></g></svg>