<svg xmlns="http://www.w3.org/2000/svg" viewBox="0 0 283.46 283.46"><defs><style>.cls-1,.cls-2{fill:#1d1d1b;}.cls-2{font-size:60px;font-family:Verdana-Bold, Verdana;font-weight:700;}</style></defs><title>30-45</title><g id="_30-45" data-name="30-45"><path class="cls-1" d="M192.61,145.94H90.86a20,20,0,0,1-20-20V95.46a20,20,0,0,1,20-20H192.61a20,20,0,0,1,20,20v30.48A20,20,0,0,1,192.61,145.94ZM90.86,79.48a16,16,0,0,0-16,16v30.48a16,16,0,0,0,16,16H192.61a16,16,0,0,0,16-16V95.46a16,16,0,0,0-16-16Z"/><path id="_3" data-name="3" class="cls-1" d="M84.28,92l-1.42,16.1L84.52,110l3.06-2.18,1.34-15.28L86,89.74,84.28,92Z"/><path id="_7" data-name="7" class="cls-1" d="M88.47,108.4l-3.21,2.29,2.86,2.37h13l3.5-2.39-3-2.27Z"/><path id="_7-2" data-name="7" class="cls-1" d="M118.23,108.4,115,110.69l2.86,2.37h13l3.5-2.39-3-2.27Z"/><path id="_6" data-name="6" class="cls-1" d="M105.39,111.89l-3.1,2.12L101,128.55l3,2.91,1.37-2,1.38-15.62-1.39-1.93Z"/><path id="_4" data-name="4" class="cls-1" d="M116.65,89l3.21,3.09h12.8l4.1-3.37-2.27-1.28H119.26L116.65,89Z"/><path id="_3-2" data-name="3" class="cls-1" d="M114,92l-1.42,16.1,1.66,1.85,3.06-2.18,1.34-15.28-2.89-2.79L114,92Z"/><path id="_7-3" data-name="7" class="cls-1" d="M144.06,105.86l-2.3-3.2-2.36,2.86v1l2.39,3.49,2.27-2.95v-1.15Z"/><path id="_7-4" data-name="7" class="cls-1" d="M144.06,114.63l-2.3-3.2-2.36,2.85v1l2.39,3.5,2.27-3v-1.14Z"/><path id="_6-2" data-name="6" class="cls-1" d="M135.08,111.38l-3.25,2.22-1.34,15.23,3.17,3,1.44-2.12,1.44-16.36-1.46-2Z"/><path id="_1" data-name="1" class="cls-1" d="M116.44,129.32l-3.92,3.24,2.74,1.42h15.11l2.56-1.29-3.49-3.37Z"/><path id="_4-2" data-name="4" class="cls-1" d="M150.92,89l3.21,3.09h12.81l4.1-3.37-2.28-1.28H153.55L150.92,89Z"/><path id="_3-3" data-name="3" class="cls-1" d="M148.33,92l-1.42,16.1,1.65,1.85,3.07-2.18L153,92.53l-2.9-2.79L148.33,92Z"/><path id="_5" data-name="5" class="cls-1" d="M171.64,89.55l-3.68,3-1.33,15.16,2.86,2.22,1.79-1.73,1.44-16.44-1.08-2.24Z"/><path id="_6-3" data-name="6" class="cls-1" d="M169.37,111.38l-3.26,2.22-1.34,15.23,3.16,3,1.45-2.12,1.43-16.36-1.44-2Z"/><path id="_2" data-name="2" class="cls-1" d="M148.43,111.43l-2,2.26L145,129.51l1.13,2.3,3.62-3,1.35-15.2-2.69-2.18Z"/><path id="_1-2" data-name="1" class="cls-1" d="M150.73,129.32l-3.93,3.24,2.74,1.42h15.11l2.55-1.29-3.49-3.37Z"/><path id="_4-3" data-name="4" class="cls-1" d="M180.67,89l3.22,3.09h12.8l4.11-3.37-2.27-1.28H183.3L180.67,89Z"/><path id="_3-4" data-name="3" class="cls-1" d="M178.08,92l-1.42,16.1,1.66,1.85,3.07-2.18,1.33-15.28-2.88-2.79L178.08,92Z"/><path id="_5-2" data-name="5" class="cls-1" d="M201.41,89.55l-3.69,3-1.33,15.16,2.87,2.22,1.77-1.73,1.45-16.44-1.07-2.24Z"/><path id="_6-4" data-name="6" class="cls-1" d="M199.13,111.38l-3.26,2.22-1.34,15.23,3.17,3,1.43-2.12,1.45-16.36-1.45-2Z"/><path id="_2-2" data-name="2" class="cls-1" d="M178.19,111.43l-2,2.26-1.39,15.82,1.13,2.3,3.62-3,1.34-15.2-2.68-2.18Z"/><path id="_1-3" data-name="1" class="cls-1" d="M180.47,129.32l-3.91,3.24L179.3,134h15.1l2.57-1.29-3.5-3.37Z"/><path id="_5-3" data-name="5" class="cls-1" d="M107.69,89.55l-3.68,3-1.33,15.16,2.87,2.22,1.77-1.73,1.45-16.44-1.08-2.24Z"/><path class="cls-1" d="M262.27,283.46H21.19A21.21,21.21,0,0,1,0,262.28V21.2A21.22,21.22,0,0,1,21.19,0H262.27a21.22,21.22,0,0,1,21.19,21.2V262.28A21.2,21.2,0,0,1,262.27,283.46ZM259.79,12.38H23.67A12.42,12.42,0,0,0,11.25,24.81V258.67a12.42,12.42,0,0,0,12.42,12.42H259.79a12.42,12.42,0,0,0,12.42-12.42V24.81A12.42,12.42,0,0,0,259.79,12.38Z"/><text class="cls-2" transform="translate(42.02 242.95)">30-45</text></g></svg>