<svg xmlns="http://www.w3.org/2000/svg" viewBox="0 0 283.46 283.46"><defs><style>.cls-1,.cls-2{fill:#1d1d1b;}.cls-2{font-size:60px;font-family:Verdana-Bold, Verdana;font-weight:700;}</style></defs><title>60-90</title><g id="_60-90" data-name="60-90"><path class="cls-1" d="M262.27,283.46H21.19A21.21,21.21,0,0,1,0,262.28V21.2A21.22,21.22,0,0,1,21.19,0H262.27a21.22,21.22,0,0,1,21.19,21.2V262.28A21.2,21.2,0,0,1,262.27,283.46ZM259.79,12.38H23.67A12.42,12.42,0,0,0,11.25,24.81V258.67a12.42,12.42,0,0,0,12.42,12.42H259.79a12.42,12.42,0,0,0,12.42-12.42V24.81A12.42,12.42,0,0,0,259.79,12.38Z"/><text class="cls-2" transform="translate(42.02 242.95)">60-90</text><path class="cls-1" d="M141.72,65.62c-4,0-7.26,3.78-7.26,8.44v29.36H105.1c-4.66,0-8.45,3.26-8.45,7.29s3.79,7.27,8.45,7.27H149V74.06C149,69.4,145.75,65.62,141.72,65.62Z"/><path class="cls-1" d="M141.72,39.84a70.87,70.87,0,1,0,70.88,70.87A70.86,70.86,0,0,0,141.72,39.84Zm0,127.19a56.33,56.33,0,1,1,56.34-56.32A56.32,56.32,0,0,1,141.72,167Z"/></g><g id="_45-60" data-name="45-60"><path class="cls-1" d="M-21.19,283.46H-262.27a21.2,21.2,0,0,1-21.19-21.18V21.2A21.22,21.22,0,0,1-262.27,0H-21.19A21.22,21.22,0,0,1,0,21.2V262.28A21.2,21.2,0,0,1-21.19,283.46ZM-23.68,12.38H-259.79a12.42,12.42,0,0,0-12.43,12.43V258.67a12.42,12.42,0,0,0,12.43,12.42H-23.68a12.43,12.43,0,0,0,12.43-12.42V24.81A12.43,12.43,0,0,0-23.68,12.38Z"/></g></svg>