<svg xmlns="http://www.w3.org/2000/svg" viewBox="0 0 283.46 283.46"><defs><style>.cls-1,.cls-2,.cls-3{fill:#1d1d1b;}.cls-2{fill-rule:evenodd;}.cls-3{font-size:100px;font-family:Verdana-Bold, Verdana;font-weight:700;}</style></defs><title>Age</title><g id="_15-30" data-name="15-30"><path class="cls-1" d="M545.74,283.46H304.66a21.21,21.21,0,0,1-21.2-21.18V21.2A21.22,21.22,0,0,1,304.66,0H545.74a21.22,21.22,0,0,1,21.19,21.2V262.28A21.21,21.21,0,0,1,545.74,283.46ZM543.25,12.38H307.13a12.42,12.42,0,0,0-12.42,12.43V258.67a12.42,12.42,0,0,0,12.42,12.42H543.25a12.43,12.43,0,0,0,12.43-12.42V24.81A12.43,12.43,0,0,0,543.25,12.38Z"/></g><g id="Age"><path class="cls-1" d="M262.27,283.46H21.19A21.21,21.21,0,0,1,0,262.28V21.2A21.22,21.22,0,0,1,21.19,0H262.27a21.22,21.22,0,0,1,21.19,21.2V262.28A21.2,21.2,0,0,1,262.27,283.46ZM259.79,12.38H23.67A12.42,12.42,0,0,0,11.25,24.81V258.67a12.42,12.42,0,0,0,12.42,12.42H259.79a12.42,12.42,0,0,0,12.42-12.42V24.81A12.42,12.42,0,0,0,259.79,12.38Z"/><path class="cls-2" d="M137.09,100A114.34,114.34,0,0,0,110.18,87c-1.78-.6-2.66-1.46-2.83-3.4a34.51,34.51,0,0,0-1.16-6.62,17,17,0,0,0-32.3,0,35.32,35.32,0,0,0-1.17,6.62c-.16,1.94-1,2.8-2.83,3.4A114.08,114.08,0,0,0,43,100c-3.09,2.07-5.31,5.08-4.86,8.84s3.35,6.25,6.87,7.66a14.52,14.52,0,0,0,2.75.67c3.06.54,6.13,1,9.18,1.58,2.71.5,3.22,1.56,2.17,4.16-4,9.81-8,19.63-11.84,29.47-1.86,4.66-3.43,9.43-5.12,14.16-.54,1.53-.11,2.39,1.61,2.34.67,0,1.34.08,2,.08,10.07,0,20.14,0,30.21.12,2.19,0,3.19-.84,4-2.8,2.41-5.61,5-11.14,7.67-16.64.92-1.92,1.59-2.66,2.35-2.25.74-.41,1.41.33,2.33,2.25,2.68,5.5,5.25,11,7.67,16.64.84,2,1.84,2.82,4,2.8,10.07-.12,20.13-.09,30.21-.12.66,0,1.34-.11,2-.08,1.72.05,2.15-.81,1.62-2.34-1.69-4.73-3.28-9.5-5.13-14.16-3.86-9.84-7.89-19.66-11.84-29.47-1-2.6-.55-3.66,2.17-4.16,3.06-.59,6.13-1,9.18-1.58a14.52,14.52,0,0,0,2.75-.67c3.52-1.41,6.41-3.81,6.88-7.66S140.18,102.1,137.09,100Z"/><path class="cls-1" d="M177.44,65.73l-8.75,2.92-16.05,44.19,8.75,3.12L142,169.11H171.6l.42-1.66a22.7,22.7,0,0,1,43.35,0l.42,1.66h29.6L226,116l9-3.12L218.92,68.65l-9-2.92,1.25-1.25,1-1.25c9.46-14.29,1.82-32.76-15.22-35.64l-1.66-.21H193.7c-17.76.15-28.18,19.14-19.39,34.39l1,1.46,1.05,1.25"/><text class="cls-3" transform="translate(62.82 252.57)">8+</text></g><g id="Many"><path class="cls-1" d="M-21.19,283.46H-262.27a21.2,21.2,0,0,1-21.19-21.18V21.2A21.22,21.22,0,0,1-262.27,0H-21.19A21.22,21.22,0,0,1,0,21.2V262.28A21.2,21.2,0,0,1-21.19,283.46ZM-23.67,12.38H-259.79a12.43,12.43,0,0,0-12.43,12.43V258.67a12.43,12.43,0,0,0,12.43,12.42H-23.67a12.42,12.42,0,0,0,12.42-12.42V24.81A12.42,12.42,0,0,0-23.67,12.38Z"/></g></svg>