<svg xmlns="http://www.w3.org/2000/svg" viewBox="0 0 250.1 283.45"><defs><style>.cls-1{fill:#1d1d1b;}</style></defs><title>Air hex</title><g id="Air_hex" data-name="Air hex"><path class="cls-1" d="M249.32,71h0v0A5.67,5.67,0,0,0,247,68.82L127.73.78a6.08,6.08,0,0,0-6,0L3,68.82a6,6,0,0,0-2.2,2.12v0s0,.05-.06.08v0A5.78,5.78,0,0,0,0,74V210.09a5.87,5.87,0,0,0,3,5.1L121.7,282.63a6,6,0,0,0,3,.82h.08a6.09,6.09,0,0,0,3-.82l119.32-67.44a5.9,5.9,0,0,0,3-5.1V74A5.79,5.79,0,0,0,249.32,71ZM178.47,174.21c-1,14.79-13.42,50.88-52.7,50.88-.28,0-.55,0-.83,0s-.57,0-.84,0c-39.28,0-52.69-50.88-52.69-50.88,96.35,56.57,64.69-76.56,36.76-115.85C141.89,86.31,182,121.62,178.47,174.21Z"/><path class="cls-1" d="M98.16,198.58S108.27,218.1,129,218.1s34.19-15,36.69-25.81c6.22-24.8,1.4-51.13-19.08-69.6C152.62,147.81,170.24,213.23,98.16,198.58Z"/></g></svg>