<svg xmlns="http://www.w3.org/2000/svg" viewBox="0 0 182.38 283.46"><defs><style>.cls-1{fill:#1d1d1b;fill-rule:evenodd;}</style></defs><title>Air</title><g id="Air"><path class="cls-1" d="M0,197C163.8,293.14,110,66.81,62.5,0,119.83,47.53,188,107.56,182,197c-1.67,25.15-22.81,86.49-89.6,86.49-.47,0-.93,0-1.4,0s-1,0-1.44,0C22.8,283.46,0,197,0,197Zm98,74.62c35.28,0,58.12-25.5,62.37-43.88,10.57-42.16,2.38-86.93-32.43-118.33,10.14,42.71,40.11,153.92-82.44,129C45.48,238.41,62.67,271.59,98,271.59Z"/></g></svg>