<svg xmlns="http://www.w3.org/2000/svg" viewBox="0 0 245.81 283.46"><defs><style>.cls-1{fill:#1d1d1b;}</style></defs><title>All</title><g id="All"><path class="cls-1" d="M147,22.75l-19-19c-.78-.77-1.56-1.51-2.35-2.24l-.8-.74A2.72,2.72,0,0,0,122.91,0h0A2.7,2.7,0,0,0,121,.75l-.8.74c-.79.73-1.58,1.47-2.36,2.24l-19,19C75.14,46.46,29.55,94.4,17.34,107.26l21.38,0,40.48,0h0a9.69,9.69,0,0,1,7.32,3.36l.39-1.47c5-18.39,12.31-41.83,20.83-59.75a136.44,136.44,0,0,1,10.71-21,5.29,5.29,0,0,1,8.87,0,136.06,136.06,0,0,1,10.69,21c8.52,17.91,15.81,41.37,20.84,59.77.14.49.27,1,.4,1.48a9.67,9.67,0,0,1,7.33-3.37h0l43.79,0h18.05C216.23,94.39,170.64,46.45,147,22.75Z"/><path class="cls-1" d="M114,142c1.37-.41,2.67-.7,3.81-.95l1.19-.27a9.73,9.73,0,0,1,2.21-.25,10.39,10.39,0,0,1,1.68.16,9.09,9.09,0,0,1,3.91.09L128,141c1.16.26,2.47.55,3.83,1a56.23,56.23,0,0,0,16.08,2.48,48.16,48.16,0,0,0,12.38-1.63c-8-36.18-21.37-81.94-35.29-103.29a2.49,2.49,0,0,0-2.07-1.12,2.52,2.52,0,0,0-2.07,1.12c-13.92,21.35-27.24,67.1-35.29,103.29a48.31,48.31,0,0,0,12.4,1.63A55.66,55.66,0,0,0,114,142Z"/><path class="cls-1" d="M181.47,200c-11.67,0-23.55-3.2-35.33-9.5a64.54,64.54,0,0,1-23.24-20.86,64.28,64.28,0,0,1-23.24,20.86C87.89,196.75,76,200,64.34,200a68.44,68.44,0,0,1-31.7-8c14.81,15.58,49.68,52.14,68.72,71.2l17,17c.7.69,1.41,1.35,2.11,2l.72.67a2.4,2.4,0,0,0,1.66.66h0a2.44,2.44,0,0,0,1.67-.66l.71-.67c.71-.65,1.42-1.31,2.12-2l17-17c19-19.06,53.92-55.62,68.73-71.2A68.4,68.4,0,0,1,181.47,200Z"/><path class="cls-1" d="M.18,116.1c.06.28.11.56.17.83l78.86-.07c-7.07,7.08-14.3,14.31-22,22,4.4,2.87,8.24,5.82,12.46,8.06a59.52,59.52,0,0,0,28.24,7.22,65.27,65.27,0,0,0,18.87-2.89c1.44-.44,2.94-.72,4.4-1.06.17.24.33.49.49.73-5,13.55-13.85,24.21-26.59,31-10.53,5.63-20.79,8.35-30.76,8.35-14.49,0-28.39-5.72-41.69-16.54h0a1,1,0,0,0-.22.12L.87,195.4,0,194.53a5.34,5.34,0,0,0,.12-.77q0-37.65,0-75.27c0-.79,0-1.59.07-2.39"/><path class="cls-1" d="M245.63,116.1c-.06.28-.11.56-.18.83l-78.86-.07,22,22c-4.39,2.87-8.23,5.82-12.45,8.06a59.52,59.52,0,0,1-28.24,7.22A65.17,65.17,0,0,1,129,151.23c-1.44-.44-2.94-.72-4.41-1.06-.17.24-.32.49-.49.73,5,13.55,13.86,24.21,26.59,31,10.53,5.63,20.79,8.35,30.77,8.35,14.49,0,28.39-5.72,41.69-16.54h0a.82.82,0,0,1,.21.12l21.57,21.53q.44-.45.87-.87a4.27,4.27,0,0,1-.13-.77q0-37.65,0-75.27c0-.79,0-1.59-.06-2.39"/></g></svg>