<svg xmlns="http://www.w3.org/2000/svg" viewBox="0 0 250.11 283.45"><defs><style>.cls-1{fill:#1d1d1b;}</style></defs><title>Arcane hex</title><g id="Arcane_hex" data-name="Arcane hex"><path class="cls-1" d="M249.32,71h0v0A5.71,5.71,0,0,0,247,68.82L127.73.78a6.08,6.08,0,0,0-6,0L3,68.82a6,6,0,0,0-2.2,2.12v0s0,.05,0,.08l0,0A6,6,0,0,0,0,74V210.09a5.87,5.87,0,0,0,3,5.1L121.7,282.63a6,6,0,0,0,3,.82h.08a6.06,6.06,0,0,0,3-.82l119.32-67.44a5.9,5.9,0,0,0,3-5.1V74A5.79,5.79,0,0,0,249.32,71ZM157.19,225.1H92.87L73,96.21l52-37.84,52,37.84Z"/><polygon class="cls-1" points="99.02 123.92 108.97 211.36 141.12 211.36 151.06 123.92 125.06 105 99.02 123.92"/></g></svg>