<svg xmlns="http://www.w3.org/2000/svg" viewBox="0 0 231.79 283.46"><defs><style>.cls-1{fill:#1d1d1b;}</style></defs><title>Armored</title><g id="Armored"><path class="cls-1" d="M115.07,283.46l-4.22-1.21a38.57,38.57,0,0,1-4.11-1.4c-3.41-1.41-12.71-5.82-17.32-8.1-15-7.44-36.92-19.28-54.68-36.46-11.9-11.5-21-27.55-27.92-49.06a169.47,169.47,0,0,1-4.32-16.4L.65,162.31l5.64-6.64c11.81-13.94,16.3-37,16.59-52.59.22-13.37-5.26-27.69-15.07-39.29L0,54.54l5.82-10.6A242.1,242.1,0,0,0,20.6,11.56L24.87,0h35.4l5,4.61a76.21,76.21,0,0,0,51.38,19.88A76.14,76.14,0,0,0,168.05,4.61L173.12,0h33.8l4.27,11.56A239.68,239.68,0,0,0,226,44l5.78,10.56-7.73,9.25a63.56,63.56,0,0,0-14.89,44.11l0,.7v.46l0,.43c0,.11,0,.25.06.43l.13.74c2.72,20.36,8.16,35.52,16.16,45.06l5.54,6.62-1.81,8.43c-.92,4.24-2.05,8.68-3.46,13.57-5.57,19.41-14.18,35.78-25.6,48.62-14.72,16.57-34.31,27.54-54.74,38.19-6.12,3.19-12.74,6.31-20.81,9.84a25.87,25.87,0,0,1-5.33,1.56Zm2.23-28.86a15.31,15.31,0,0,0,3.1-.87c6.72-2.92,12.21-5.52,17.29-8.18,16.81-8.76,32.86-17.72,44.58-30.94,9-10.1,15.82-23.11,20.27-38.59,1.16-4,2.07-7.65,2.84-11.1l.78-3.6-2.38-2.84c-7.76-9.23-13-23.47-15.49-42.31l-.07-.33a9.73,9.73,0,0,1-.14-1.14l0-.38a2.77,2.77,0,0,1,0-.51v-.3l0-.31a61.81,61.81,0,0,1,14.47-42.89l3.31-4-2.5-4.5a214.71,214.71,0,0,1-13.1-28.71l-1.81-4.94H167.69l-2.16,2a72.55,72.55,0,0,1-49,19,72.55,72.55,0,0,1-49-18.95l-2.15-2h-22L41.6,33.15A214.74,214.74,0,0,1,28.51,61.81L26,66.34l3.34,4C38.9,81.56,44.23,95.62,44,108.82c-.26,15.22-4.6,36.25-15.95,49.66l-2.41,2.84.78,3.63c1.12,5.12,2.24,9.34,3.5,13.32,5.48,17.15,12.66,29.85,21.9,38.79C66.26,231,84.3,240.73,96.65,246.84c4.2,2.09,11.78,5.66,14.3,6.7a27.61,27.61,0,0,0,2.72.93l1.79.52Z"/><path class="cls-1" d="M176.79,118.67a15,15,0,0,1-.22-1.84,9.68,9.68,0,0,1-.08-1.52,65.23,65.23,0,0,1,15.22-45.16A204.92,204.92,0,0,1,179,42.26H167.22a74.94,74.94,0,0,1-50.69,19.61,75,75,0,0,1-50.7-19.61h-13a207.39,207.39,0,0,1-12.7,27.85c9.59,11.35,15.66,26,15.4,40.84-.29,16.7-5.12,37.44-16.64,51,.86,4,1.86,8,3.08,11.87,3.9,12.07,9.48,24.47,18.75,33.44C72.26,218.44,86.66,226.89,101,234c3.82,1.89,10.84,5.21,13,6.08a14.48,14.48,0,0,0,1.76.6,8.58,8.58,0,0,0,1.53-.38c5.34-2.33,10.64-4.76,15.81-7.45,13.94-7.29,29.23-15.54,39.81-27.45,8.46-9.51,14-21.33,17.49-33.48,1-3.29,1.84-6.6,2.54-9.93C183,150.16,178.77,133.42,176.79,118.67Z"/></g></svg>