<svg xmlns="http://www.w3.org/2000/svg" viewBox="0 0 283.46 283.46"><defs><style>.cls-1{fill:#1d1d1b;}</style></defs><title>Artist</title><g id="Artist"><path class="cls-1" d="M270.79,11.45c-10.45-9.76-22.4-14.12-26.69-9.76s.72,15.81,11.16,25.57S277.64,41.4,281.92,37,281.23,21.21,270.79,11.45Z"/><path class="cls-1" d="M86.44,224.47c5.22,3.19,10.84,4.61,14.35,1l21.88-22.26h0c-3.52,3.57-9.94,3.09-14.38-1.06l-26-24.27c-4.45-4.15-5.19-10.36-1.68-13.94L58.76,186.23c-3.51,3.58-2,9.16,1.67,13.94C67.77,209.63,76.05,218.13,86.44,224.47Z"/><path class="cls-1" d="M250.66,32c-11-10.25-16.53-22.18-13.09-27.56a8.08,8.08,0,0,0-1,.91l-151.29,154c-3.52,3.57-2.77,9.79,1.66,13.94l26,24.27c4.44,4.15,10.87,4.63,14.38,1.05l151.29-154a6.69,6.69,0,0,0,.82-1C274,47.06,261.6,42.17,250.66,32Zm-18.6-10.23h0Z"/><polygon class="cls-1" points="146.56 282.25 146.57 282.25 146.56 282.25 146.56 282.25"/><path class="cls-1" d="M29.91,271.84s-24.6,7.52-27.18,1.36c-15.47,9.75,39.05,12.51,55.73,8.47,25.52-7,55.47-22.09,80.12-4.42l3.85,2.71,4.13,2.29C119.83,243,65.36,251,29.91,271.84Z"/><path class="cls-1" d="M43.71,255.6a9.21,9.21,0,0,0,12,.88l32.47-24.79a2.55,2.55,0,0,0,.3-.26c-2-.47-3.7-2-5.8-3.16-10.83-5.91-19-14.51-26-24.31-1.38-1.91-2.92-3.54-3.49-5.52l-.26.31-24,32.7c-2.48,3.37-2.3,8.2,1.42,11.68Z"/><path class="cls-1" d="M29.84,269.17l9.85-10L26.92,247.23,4.25,270.31C-2,276.69,27.93,271.16,29.84,269.17Z"/></g><g id="Designer"><path class="cls-1" d="M-100.65,82.19a102,102,0,0,1,17,1.47l2.69,28.63A73.63,73.63,0,0,1-64.69,119l22.11-18.26a100.57,100.57,0,0,1,24.12,24.06L-36.78,146.9A73.64,73.64,0,0,1-30,163.11l28.58,2.72a100.52,100.52,0,0,1,1.46,17,100.44,100.44,0,0,1-1.46,17L-30,202.58a72.85,72.85,0,0,1-6.74,16.21l18.28,22.13a101.09,101.09,0,0,1-24,24.09l-22.15-18.32a73.21,73.21,0,0,1-16.23,6.73L-83.61,282a102,102,0,0,1-17,1.42,101.18,101.18,0,0,1-17-1.42l-2.71-28.62a72,72,0,0,1-16.2-6.73L-158.71,265a101.13,101.13,0,0,1-24-24.09l18.26-22.13a72.06,72.06,0,0,1-6.71-16.19l-28.58-2.71a101.47,101.47,0,0,1-1.47-17,101.56,101.56,0,0,1,1.47-17l28.56-2.72a73.62,73.62,0,0,1,6.73-16.21l-18.32-22.13a101.65,101.65,0,0,1,24.14-24.08L-136.55,119a72.86,72.86,0,0,1,16.2-6.7l2.71-28.61a101.18,101.18,0,0,1,17-1.47m0,139a38.34,38.34,0,0,0,38.32-38.34,38.31,38.31,0,0,0-38.32-38.3,38.27,38.27,0,0,0-38.28,38.3,38.29,38.29,0,0,0,38.28,38.34"/></g></svg>