<svg xmlns="http://www.w3.org/2000/svg" viewBox="0 0 283.46 283.46"><defs><style>.cls-1{fill:#1d1d1b;}</style></defs><title>Asterisk</title><g id="Asterisk"><path class="cls-1" d="M283.38,142.63l-7.26-52.55A9.33,9.33,0,0,0,266.86,82a9.28,9.28,0,0,0-2.6.37l-97.32,28.2L177.49,10.32A9.34,9.34,0,0,0,168.2,0h-54a9.34,9.34,0,0,0-9.29,10.31L115.4,110.52,20.08,82.4A9.11,9.11,0,0,0,17.44,82a9.33,9.33,0,0,0-9.23,7.92L.11,142.48a9.34,9.34,0,0,0,8.44,10.73l88.52,7.56L39.32,241.53a9.34,9.34,0,0,0,3.07,13.6l48.93,27.16a9.34,9.34,0,0,0,13.13-4.51l36.28-85.28,40.07,85.59a9.38,9.38,0,0,0,5.63,4.93,9.18,9.18,0,0,0,2.83.44,9.37,9.37,0,0,0,4.61-1.21l47.86-27.16a9.33,9.33,0,0,0,2.93-13.64l-59.09-80.68,89.34-7.56a9.34,9.34,0,0,0,8.47-10.58Z"/></g><g id="Star"><path class="cls-1" d="M-.46,109A9.33,9.33,0,0,0-8,102.67L-94.6,90.06l-38.71-78.75a9.33,9.33,0,0,0-8.38-5.22,9.36,9.36,0,0,0-8.39,5.21l-38.74,78.76-86.65,12.61A9.33,9.33,0,0,0-283,109a9.32,9.32,0,0,0,2.35,9.57L-218,179.88l-14.81,86.58a9.34,9.34,0,0,0,3.72,9.14,9.32,9.32,0,0,0,5.49,1.78,9.37,9.37,0,0,0,4.35-1.08l77.53-40.84,77.43,40.84a9.38,9.38,0,0,0,4.36,1.08,9.34,9.34,0,0,0,5.49-1.78,9.34,9.34,0,0,0,3.72-9.14l-14.81-86.57,62.7-61.3A9.34,9.34,0,0,0-.46,109Z"/></g></svg>