<svg xmlns="http://www.w3.org/2000/svg" viewBox="0 0 283.46 283.46"><defs><style>.cls-1{fill:#1d1d1b;}</style></defs><title>Axe</title><g id="Axe"><path class="cls-1" d="M97.75,47C115.68,27.46,141,16.81,173,15.25a52.28,52.28,0,0,1,11.54-9.38,2.58,2.58,0,0,0,1.32-2.8,2.53,2.53,0,0,0-.7-1.32A2.64,2.64,0,0,0,183.63,1C178,.45,172.45.12,167.14,0,130.22-.62,101.6,9.86,82.05,31.15,48.69,67.51,53.58,123.46,53.8,125.81a2.67,2.67,0,0,0,.75,1.59,2.58,2.58,0,0,0,3.81-.19,52,52,0,0,1,11-10C71.36,96.82,78,68.52,97.75,47Z"/><path class="cls-1" d="M283.44,116.32c-.1-5.31-.43-10.87-1-16.49a2.57,2.57,0,0,0-.74-1.56,2.51,2.51,0,0,0-1.33-.71,2.56,2.56,0,0,0-2.79,1.32,51.77,51.77,0,0,1-9.38,11.54c-1.56,32.07-12.21,57.37-31.75,75.3-21.52,19.76-49.82,26.39-70.24,28.43a51.67,51.67,0,0,1-10,10.95,2.52,2.52,0,0,0-.82,2.77,2.47,2.47,0,0,0,.63,1,2.6,2.6,0,0,0,1.58.76c2.36.22,58.31,5.11,94.67-28.26C273.61,181.86,284.09,153.25,283.44,116.32Z"/><path class="cls-1" d="M261.9,115.53a49.39,49.39,0,0,1-14,6.8A53.06,53.06,0,0,1,225.77,124q-13-1.64-27.34-8.89l1.2-1.2a2.69,2.69,0,0,0,0-3.71l-6.88-6.53c7-1.94,18.21-4,24.95-.21a2.57,2.57,0,0,0,2.09.21,2.66,2.66,0,0,0,1.57-1.49l25.62-61a2.66,2.66,0,0,0-.55-2.84,2.26,2.26,0,0,0-.29-.25,2.48,2.48,0,0,0-.25-.3l-.09-.07a.27.27,0,0,0-.07-.08,2.26,2.26,0,0,0-.29-.25,1.87,1.87,0,0,0-.26-.3,2.66,2.66,0,0,0-2.83-.55l-61,25.62a2.66,2.66,0,0,0-1.49,1.57,2.6,2.6,0,0,0,.21,2.1c3.82,6.73,1.73,17.93-.21,25l-6.53-6.88a2.69,2.69,0,0,0-3.71,0L168.41,85c-4.84-9.57-7.8-18.71-8.9-27.35a53,53,0,0,1,1.62-22.15,49.46,49.46,0,0,1,6.8-14c-27.88,2.36-50,12.26-65.79,29.46-17.41,19-24,43.77-26.41,62.59a57.63,57.63,0,0,1,25.88-5.17c2.27,0,4.52.2,6.73.42a111.06,111.06,0,0,1,28.55,7.21L.78,250a2.6,2.6,0,0,0-.08,3.63l13.81,14.59.36.34.34.36L29.8,282.76a2.59,2.59,0,0,0,3.63-.08l134-136.11a111.06,111.06,0,0,1,7.21,28.55c.23,2.22.38,4.47.42,6.73a57.54,57.54,0,0,1-5.17,25.89c18.82-2.4,43.62-9,62.59-26.42C249.65,165.53,259.54,143.41,261.9,115.53Z"/></g><g id="Hammer"><path class="cls-1" d="M-.82,130.85l-4.52-7.18a2.89,2.89,0,0,0-.38-.47l-.06-.06-.15-.14a2.71,2.71,0,0,0-3.78,0l-60.84,60.84a2.72,2.72,0,0,0,0,3.78l.14.15.06.06a2.89,2.89,0,0,0,.47.38l7.19,4.52a3.82,3.82,0,0,0,5.08-.33l56.52-56.53A3.79,3.79,0,0,0-.82,130.85Z"/></g></svg>