<svg xmlns="http://www.w3.org/2000/svg" viewBox="0 0 209.78 283.46"><defs><style>.cls-1{fill:#1d1d1b;}</style></defs><title>Bag</title><g id="Bag"><path class="cls-1" d="M206.31,174.6l-.05-.15c-7-21.62-23-38-37.06-52.56-6.29-6.47-12.2-12.56-16.62-18.47-10.07-11.78-8.5-21.26-7.78-23.88,1.58-5.78,7.8-8.67,20.78-9.65,6.95-.52,10-4,10.56-7,.61-3.41-1.55-6.85-5.51-8.81-18.09,5.24-22.85,17.16-26,25.06l-.48,1.18a1.11,1.11,0,0,1-1,.69,1.18,1.18,0,0,1-.43-.08,1.12,1.12,0,0,1-.6-1.45l.47-1.17c3.14-7.85,8.39-21,27.81-26.47,5.16-2.33,8.33-5.81,8.41-9.27s-2.95-7-8.74-10c-2.42,2.21-4.64,4.21-6.66,6l-1.32,1.19c-13.7,12.35-17.83,16.08-17.83,20.88a1.11,1.11,0,0,1-2.22,0c0-5.79,4.3-9.67,18.57-22.53,2.46-2.22,5.24-4.73,8.35-7.56a6.54,6.54,0,0,0,0-5.86c-1.31-2.36-4.35-4-8.81-4.84-.69,3.59-3.88,7.49-7.55,12-3.42,4.19-7.28,8.9-9.36,13.86a1.11,1.11,0,0,1-1,.68,1,1,0,0,1-.47-.11,1,1,0,0,1-.57-.59,1.09,1.09,0,0,1,0-.85c2.21-5.25,6.18-10.1,9.68-14.39,3.31-4,6.45-7.87,7.08-10.92l-.34,0,.54-1.32a5.59,5.59,0,0,0-.64-5.32C155.3,9.45,146.29,1.46,109.82.09,108.43,0,107,0,105.7,0,84.87,0,76.21,6.32,72.61,11.63a13.42,13.42,0,0,0-2,11.79C84,36.8,90.07,48.17,90.18,60.27c.1,11.67-3.49,26.32-3.53,26.46a1.1,1.1,0,0,1-2,.29,1.1,1.1,0,0,1-.12-.83c0-.15,3.55-14.51,3.45-25.9S82.13,38.15,69.41,25.38C58.26,30.78,52.56,35.09,52,38.55c-.39,2.42,1.68,4.66,4.43,7.33,10.08,5.76,20.39,16.75,19.26,27.3a1.12,1.12,0,0,1-1.11,1h-.12a1.1,1.1,0,0,1-1-1.2c1-9.38-8.39-19.41-17.66-24.86C54.4,49.15,49,53.46,49.2,57c.15,2.44,3.81,3.49,8,4.69,7.05,2,15.8,4.52,15.3,15.16-.68,14.55-9,29.59-25.35,46A207,207,0,0,0,19.44,157,144.18,144.18,0,0,0,5.83,183c-1,2.59-1.88,5.2-2.62,7.75-6.15,21.12-3.45,39.59,8,54.9,12.68,16.9,34.31,26.59,50.05,27.86-18.7-11.59-34.92-33.94-38.95-53.93a1.12,1.12,0,0,1,.86-1.31l.23,0a1.12,1.12,0,0,1,1.08.88c4.19,20.8,22.11,44.29,41.67,54.64,12.39,6.42,25.08,9.67,37.71,9.67a70.76,70.76,0,0,0,27.73-5.62l.27-.11.14,0c18.25-3,40.37-28.7,47.9-49.66a1.12,1.12,0,0,1,1.42-.66,1.1,1.1,0,0,1,.67,1.41c-6.67,18.57-25.26,42-43.24,49.23h.74c45.86,0,68.31-38.1,70.21-75.86C210,196.08,208.89,182.61,206.31,174.6ZM106,85.08a1.13,1.13,0,0,1-1,.73,1.12,1.12,0,0,1-1-1.48c1.67-4.56,2.77-21.44,2.28-26.71a1.11,1.11,0,0,1,1-1.2,1.15,1.15,0,0,1,1.19,1C108.89,63,107.76,80.2,106,85.08Zm29.23-24.67c-2.22,4.57-9.48,20.38-9.75,31.3a1.11,1.11,0,0,1-1.11,1.08h0a1.13,1.13,0,0,1-.79-.34,1.09,1.09,0,0,1-.31-.8c.29-11.36,7.71-27.53,10-32.22a1.13,1.13,0,0,1,1.48-.5,1.11,1.11,0,0,1,.51,1.48Z"/></g></svg>