<svg xmlns="http://www.w3.org/2000/svg" viewBox="0 0 283.46 78.79"><defs><style>.cls-1{fill:#1d1d1b;}</style></defs><title>Banner single</title><g id="Banner_dual" data-name="Banner dual"><path class="cls-1" d="M324.66,64.36v-51H284.58a1.09,1.09,0,0,0-1,.63,1.1,1.1,0,0,0,.13,1.18l22,27.74-22,27.74a1.1,1.1,0,0,0-.13,1.18,1.09,1.09,0,0,0,1,.63h50.55a1.12,1.12,0,0,0,1.12-1.11V70.1h-5.84A5.75,5.75,0,0,1,324.66,64.36Z"/></g><g id="Banner_single" data-name="Banner single"><path class="cls-1" d="M256.91,43.54l26.27-33.09A1.36,1.36,0,0,0,283.33,9a1.32,1.32,0,0,0-1.2-.75H234.32V69.17A6.87,6.87,0,0,1,227.46,76h-7v1.43a1.33,1.33,0,0,0,1.33,1.33h60.3a1.32,1.32,0,0,0,1.2-.75,1.36,1.36,0,0,0-.15-1.41Z"/><rect class="cls-1" width="228.79" height="70.5" rx="1.33" ry="1.33"/></g></svg>