<svg xmlns="http://www.w3.org/2000/svg" viewBox="0 0 283.46 66.05"><defs><style>.cls-1{fill:#1d1d1b;}</style></defs><title>Banner dual</title><g id="Track_single_line" data-name="Track single line"><path class="cls-1" d="M564,16H286.43a3,3,0,0,0-3,3V47.06a3,3,0,0,0,3,3H564a3,3,0,0,0,3-3V19A3,3,0,0,0,564,16ZM314.64,47.2H286.3V18.85h28.34V47.2Zm31.19,0H317.48v-.13h0V19h0v-.13h28.35V47.2Zm31.18,0H348.66v-.13h0V19h0v-.13H377V47.2Zm31.18,0H379.84v-.13h0V19h0v-.13h28.35V47.2Zm31.18,0H411v-.13h0V19h0v-.13h28.35V47.2Zm31.18,0H442.2v-.13h0V19h0v-.13h28.35V47.2Zm31.18,0H473.38v-.13h0V19h0v-.13h28.35V47.2Zm31.18,0H504.57v-.13h0V19h0v-.13h28.34V47.2Zm31.18,0H535.75v-.13h0V19h0v-.13h28.34Z"/></g><g id="Banner_dual" data-name="Banner dual"><path class="cls-1" d="M261.2,36.5l22-27.74a1.1,1.1,0,0,0,.13-1.18,1.09,1.09,0,0,0-1-.63H242.27V58a5.75,5.75,0,0,1-5.75,5.74h-5.84v1.21a1.12,1.12,0,0,0,1.12,1.11h50.55a1.09,1.09,0,0,0,1-.63,1.1,1.1,0,0,0-.13-1.18Z"/><path class="cls-1" d="M41.2,58V7H1.11a1.11,1.11,0,0,0-1,.63A1.12,1.12,0,0,0,.24,8.76l22,27.74L.24,64.24a1.12,1.12,0,0,0-.13,1.18,1.11,1.11,0,0,0,1,.63H51.67a1.11,1.11,0,0,0,1.11-1.11V63.73H47A5.75,5.75,0,0,1,41.2,58Z"/><path class="cls-1" d="M46.95,0H236.52a1.11,1.11,0,0,1,1.11,1.11V58a1.12,1.12,0,0,1-1.12,1.12H46.95A1.11,1.11,0,0,1,45.83,58V1.11A1.11,1.11,0,0,1,46.95,0Z"/></g><g id="Banner_single" data-name="Banner single"><path class="cls-1" d="M-26.56,37.17-.29,4.08A1.34,1.34,0,0,0-.13,2.67a1.33,1.33,0,0,0-1.2-.75H-49.14V62.8A6.87,6.87,0,0,1-56,69.66h-7v1.43a1.32,1.32,0,0,0,1.33,1.33h60.3a1.33,1.33,0,0,0,1.2-.75,1.34,1.34,0,0,0-.16-1.41Z"/></g></svg>