<svg id="Beast" xmlns="http://www.w3.org/2000/svg" viewBox="0 0 226.44 283.46"><defs><style>.cls-1{fill:#1d1d1b;fill-rule:evenodd;}</style></defs><title>Beast</title><path class="cls-1" d="M110.57,264.3c-10.66.13-19.27,3.28-27.42,7.86-2,1.14-4,2.37-5.93,3.62-12.08,7.7-24.23,8.8-36.54.48C28.52,268.05,23,256.42,23.92,242c1.17-19.05,13-29.85,30-35.2,12.5-3.93,20.87-11.2,25.39-23.46,1.81-4.92,4.52-9.51,7-14.14,12-22.06,43.45-18,54.44,1.33,3.15,5.53,5.14,11.75,7.39,17.77,4.47,12.07,12.92,19.61,25.26,22.95,16.24,4.38,26.44,18.48,26,35.8a37.84,37.84,0,0,1-28,35.46c-9,2.31-16.49.2-23.9-4.31-10-6.09-20.09-12.09-32.11-13.43C113.36,264.55,111.39,264.38,110.57,264.3Z"/><path class="cls-1" d="M125.53,56.39c2-7.19,5.6-13.28,11.85-17.58,2.46-1.7,2.65-4.37,3.19-6.94,1.51-7.38,3.07-14.76,4.62-22.14,1.68-2.39-.35-6.21,3.09-7.91,0,.6.07,1.19.13,1.8,1.35,6.29.91,12.82,2.82,19a33.07,33.07,0,0,0,9.17,21.6c8.1,8.76,10.49,20.31,11.9,31.92,1.94,15.91.06,31.26-6.76,45.87a34.26,34.26,0,0,1-7.36,10.46c-7.69,7.39-16.47,7.5-24.08,0-8.4-8.24-11.45-19-13.57-30.15-1.42-7.41-.2-14.79.08-22.19A165.76,165.76,0,0,1,125.53,56.39Z"/><path class="cls-1" d="M57.12,91c-.53-13.49.76-26.69,6.07-39.29,1.56-3.65,3.08-7.54,6-10.13,7-6.16,9.27-14,9.7-22.88,2-6.07,1.12-12.59,3-18.67a121.58,121.58,0,0,1,4.5,22.25c.77,6.26,2.06,11.45,8.24,15.48,8.17,5.34,10.5,15,12.57,24,4.46,19.33,5,38.55-3.74,57.09A36.77,36.77,0,0,1,96.59,129c-8,8.11-17.19,8.12-25.2.06-5.9-5.92-8.76-13.46-11.31-21.17C57.84,102.46,58.25,96.58,57.12,91Z"/><path class="cls-1" d="M0,99.63C.9,92,1.24,84.2,4.21,76.87A18.57,18.57,0,0,1,7.68,71c1-1,2-2.64,3.67-1.76,1.45.76.56,2.4.43,3.64a80.11,80.11,0,0,0,2.65,27.77c.6,2.28,1.9,3.76,4.55,3.53,7.49-.64,13.6,2.6,18.72,7.5,16.67,16,25.19,35.29,22.38,58.64-1.64,13.76-12.67,19.31-24.9,13a37.2,37.2,0,0,1-7.3-5c-10.2-9-16.51-20.43-20.37-33.31-1.85-6.19-2.42-12.57-2.93-19-.53-6.71-3.63-13-3.89-19.8C.61,103.93.23,101.82,0,99.63Z"/><path class="cls-1" d="M226.44,98.86a91.69,91.69,0,0,1-3.47,23c-2.09,7.09-1.06,14.75-3.25,22-4.06,13.39-10.25,25.46-21,34.64-6.26,5.33-13.31,10-22,6.31s-10.59-12.07-10.57-20.3c.08-21.76,8.2-40.18,25-54.37,4.62-3.93,10-6.51,16.33-5.94,2.65.21,3.78-.92,4.58-3.35a72,72,0,0,0,3.21-27.35c-.1-1.45-1.3-3.7,1-4.26,1.65-.41,2.85,1.34,3.83,2.7,3.55,4.81,4.65,10.52,5.62,16.21A102.45,102.45,0,0,1,226.44,98.86Z"/></svg>