<svg xmlns="http://www.w3.org/2000/svg" viewBox="0 0 283.46 152.51"><defs><style>.cls-1{fill:#1d1d1b;}</style></defs><title>Bill</title><g id="Star"><path class="cls-1" d="M566.47,43.54a9.33,9.33,0,0,0-7.54-6.35l-86.6-12.61L433.62-54.17a9.33,9.33,0,0,0-8.39-5.22,9.35,9.35,0,0,0-8.38,5.21L378.11,24.58,291.46,37.19a9.34,9.34,0,0,0-5.19,15.92L349,114.4,334.14,201a9.34,9.34,0,0,0,13.56,9.84L425.23,170l77.43,40.84A9.35,9.35,0,0,0,516.23,201l-14.81-86.57,62.7-61.3A9.34,9.34,0,0,0,566.47,43.54Z"/></g><g id="Bill"><path class="cls-1" d="M141.73,10.22a66,66,0,1,0,66,66A66,66,0,0,0,141.73,10.22Zm21,91.81q-5.35,5.27-15.59,6.52v9.69H136.71v-9.39a59.48,59.48,0,0,1-21.18-4.92V87.27a72.52,72.52,0,0,0,12.65,4.94,43.5,43.5,0,0,0,12,2,14.3,14.3,0,0,0,6.24-1,3.58,3.58,0,0,0,2-3.44A3.51,3.51,0,0,0,147,86.92a22.41,22.41,0,0,0-4.77-2.61q-3.35-1.45-9-3.52a40.62,40.62,0,0,1-10.29-5.29,18.51,18.51,0,0,1-5.7-6.58,20.58,20.58,0,0,1-1.78-9.05q0-8.29,5.32-12.95t16-5.78V34.27H147.1V41A59,59,0,0,1,167.23,46l-6,14.31q-10.5-4.73-18.93-4.72c-2.67,0-4.56.33-5.64,1a3.15,3.15,0,0,0-1.63,2.88,3.54,3.54,0,0,0,1.18,2.74,16.57,16.57,0,0,0,4.09,2.41c1.94.89,4.63,1.91,8.08,3.09q10.49,3.7,15.05,8.45A16.87,16.87,0,0,1,168,88.32Q168,96.77,162.69,102Z"/><path class="cls-1" d="M271.67,0H11.79A11.8,11.8,0,0,0,0,11.79V140.71a11.81,11.81,0,0,0,11.79,11.8H271.67a11.81,11.81,0,0,0,11.79-11.8V11.79A11.8,11.8,0,0,0,271.67,0ZM249.34,19.21a8.33,8.33,0,0,1,4.73-1.72v-2h3.08v2a17.63,17.63,0,0,1,6,1.46l-1.77,4.24a14,14,0,0,0-5.61-1.39,3.4,3.4,0,0,0-1.68.29.93.93,0,0,0-.48.85,1,1,0,0,0,.35.81,4.93,4.93,0,0,0,1.21.72,25.49,25.49,0,0,0,2.4.91A11.6,11.6,0,0,1,262,27.86a5,5,0,0,1,1.36,3.63,5.45,5.45,0,0,1-1.59,4.06,7.76,7.76,0,0,1-4.62,1.94v2.87h-3.08V37.58a18,18,0,0,1-6.28-1.46V31.17a20.9,20.9,0,0,0,3.75,1.47,13,13,0,0,0,3.56.59,4.11,4.11,0,0,0,1.85-.31,1.06,1.06,0,0,0,.59-1,1,1,0,0,0-.43-.83,6.08,6.08,0,0,0-1.41-.77q-1-.43-2.67-1.05A11.83,11.83,0,0,1,250,27.68a5.39,5.39,0,0,1-1.69-1.95,6,6,0,0,1-.53-2.68A4.81,4.81,0,0,1,249.34,19.21Zm-227.65,0a8.3,8.3,0,0,1,4.73-1.72v-2H29.5v2a17.63,17.63,0,0,1,6,1.46L33.7,23.16a14,14,0,0,0-5.61-1.39,3.4,3.4,0,0,0-1.68.29.93.93,0,0,0-.48.85,1,1,0,0,0,.35.81,4.74,4.74,0,0,0,1.21.72c.58.26,1.38.57,2.4.91a11.6,11.6,0,0,1,4.46,2.51,5,5,0,0,1,1.36,3.63,5.45,5.45,0,0,1-1.59,4.06,7.76,7.76,0,0,1-4.62,1.94v2.87H26.42V37.58a18,18,0,0,1-6.28-1.46V31.17a20.9,20.9,0,0,0,3.75,1.47,13,13,0,0,0,3.56.59,4.11,4.11,0,0,0,1.85-.31,1.06,1.06,0,0,0,.59-1,1,1,0,0,0-.43-.83,6.08,6.08,0,0,0-1.41-.77q-1-.43-2.67-1.05a11.83,11.83,0,0,1-3.05-1.57,5.39,5.39,0,0,1-1.69-1.95,6,6,0,0,1-.53-2.68A4.81,4.81,0,0,1,21.69,19.21Zm12.43,113a7.76,7.76,0,0,1-4.62,1.94v2.87H26.42v-2.78a17.77,17.77,0,0,1-6.28-1.46v-4.94a21.66,21.66,0,0,0,3.75,1.46,13,13,0,0,0,3.56.59,4.11,4.11,0,0,0,1.85-.31,1.05,1.05,0,0,0,.59-1,1,1,0,0,0-.43-.84,6.48,6.48,0,0,0-1.41-.77c-.66-.29-1.55-.64-2.67-1a12.15,12.15,0,0,1-3.05-1.57,5.5,5.5,0,0,1-1.69-2,5.93,5.93,0,0,1-.53-2.68,4.81,4.81,0,0,1,1.58-3.84,8.37,8.37,0,0,1,4.73-1.71v-2H29.5v2a17.18,17.18,0,0,1,6,1.46l-1.77,4.24a14,14,0,0,0-5.61-1.4,3.4,3.4,0,0,0-1.68.29.94.94,0,0,0-.48.86,1,1,0,0,0,.35.81,4.77,4.77,0,0,0,1.21.71c.58.26,1.38.57,2.4.92a11.6,11.6,0,0,1,4.46,2.5,5,5,0,0,1,1.36,3.63A5.43,5.43,0,0,1,34.12,132.24Zm227.66,1.06a8.4,8.4,0,0,1-4.73,1.71v2H254v-2a17.52,17.52,0,0,1-6-1.46l1.77-4.24a13.9,13.9,0,0,0,5.61,1.4,3.5,3.5,0,0,0,1.67-.29.94.94,0,0,0,.49-.86,1.05,1.05,0,0,0-.35-.81,5.07,5.07,0,0,0-1.22-.71,24.71,24.71,0,0,0-2.39-.92,11.53,11.53,0,0,1-4.47-2.51,5,5,0,0,1-1.35-3.62,5.5,5.5,0,0,1,1.58-4.07A7.76,7.76,0,0,1,254,115v-2.87h3.09v2.78a17.82,17.82,0,0,1,6.28,1.46v4.94a21.66,21.66,0,0,0-3.75-1.46,12.72,12.72,0,0,0-3.56-.59,4.28,4.28,0,0,0-1.85.3,1.12,1.12,0,0,0-.17,1.86,7.08,7.08,0,0,0,1.42.77c.66.29,1.55.63,2.67,1a12.15,12.15,0,0,1,3.05,1.57,5.49,5.49,0,0,1,1.69,2,6.14,6.14,0,0,1,.53,2.69A4.84,4.84,0,0,1,261.78,133.3ZM275.6,96.88c-1.29-.12-2.6-.19-3.93-.19a44,44,0,0,0-44,44c0,1.33.07,2.64.18,3.93H55.63q.18-1.94.18-3.93a44,44,0,0,0-44-44c-1.32,0-2.63.07-3.93.19V55.63c1.3.11,2.61.18,3.93.18a44,44,0,0,0,44-44q0-2-.18-3.93h172.2c-.11,1.3-.18,2.61-.18,3.93a44,44,0,0,0,44,44c1.33,0,2.64-.07,3.93-.18Z"/></g><g id="Credit"><path class="cls-1" d="M-5.71,38.24-61-12.24a17.51,17.51,0,0,0-11.82-4.58H-265.94A17.54,17.54,0,0,0-283.46.71V151.8a17.54,17.54,0,0,0,17.52,17.52H-17.53A17.54,17.54,0,0,0,0,151.8V51.18A17.55,17.55,0,0,0-5.71,38.24ZM-26.29,143H-257.17V9.47H-76.24l49.95,45.58Z"/></g></svg>