<svg xmlns="http://www.w3.org/2000/svg" viewBox="0 0 283.46 283.46"><defs><style>.cls-1{fill:#1d1d1b;}</style></defs><title>Black 4</title><g id="Black_4" data-name="Black 4"><path id="Black_4-2" data-name="Black 4" class="cls-1" d="M275.14,55.93,68.89.39a11.2,11.2,0,0,0-13.75,8L.38,213.7a11.32,11.32,0,0,0,8,13.83l206.23,55.55a11.25,11.25,0,0,0,13.78-8L283.08,69.77A11.32,11.32,0,0,0,275.14,55.93ZM54.67,209.79a21.46,21.46,0,1,1,26.16-15.18A21.5,21.5,0,0,1,54.67,209.79ZM89.13,80.52A21.46,21.46,0,1,1,115.3,65.34,21.49,21.49,0,0,1,89.13,80.52Zm94.16,163.91a21.46,21.46,0,1,1,26.16-15.18A21.48,21.48,0,0,1,183.29,244.43Zm34.45-129.27A21.47,21.47,0,1,1,243.91,100,21.48,21.48,0,0,1,217.74,115.16Z"/></g></svg>