<svg xmlns="http://www.w3.org/2000/svg" viewBox="0 0 283.47 266.49"><defs><style>.cls-1{fill:#1d1d1b;}</style></defs><title>Black dice</title><g id="Black_dice" data-name="Black dice"><g id="Black_dice-2" data-name="Black dice"><path class="cls-1" d="M136.19,64.7l39.7,10.63L157.25,5.73A7.73,7.73,0,0,0,147.77.27L5.73,38.32A7.72,7.72,0,0,0,.27,47.79L38,188.47a7.73,7.73,0,0,0,9.47,5.47L91,182.25,120,74A13.21,13.21,0,0,1,136.19,64.7ZM27.24,68.49a14.71,14.71,0,1,1,18,10.4A14.72,14.72,0,0,1,27.24,68.49ZM46,121.7a14.7,14.7,0,1,1,20.08-5.37A14.69,14.69,0,0,1,46,121.7Zm23,45.76a14.71,14.71,0,1,1,10.4-18A14.72,14.72,0,0,1,69,167.46ZM115.81,44.75a14.71,14.71,0,1,1,18,10.4A14.69,14.69,0,0,1,115.81,44.75Z"/><path class="cls-1" d="M277.73,110.6l-142-38.06A7.75,7.75,0,0,0,126.21,78L88.52,218.69A7.76,7.76,0,0,0,94,228.18l142,38a7.72,7.72,0,0,0,9.47-5.46l37.7-140.68A7.74,7.74,0,0,0,277.73,110.6Zm-133.81,95a14.71,14.71,0,1,1-10.41-18A14.72,14.72,0,0,1,143.92,205.62ZM167.65,117a14.71,14.71,0,1,1-10.4-18A14.71,14.71,0,0,1,167.65,117Zm64.84,112.31a14.71,14.71,0,1,1-10.4-18A14.7,14.7,0,0,1,232.49,229.35Zm23.73-88.57a14.71,14.71,0,1,1-10.4-18A14.7,14.7,0,0,1,256.22,140.78Z"/></g></g></svg>