<svg xmlns="http://www.w3.org/2000/svg" viewBox="0 0 283.47 283.46"><defs><style>.cls-1{fill:#1d1d1b;}</style></defs><title>Black 2</title><g id="Black_2" data-name="Black 2"><path id="Black_2-2" data-name="Black 2" class="cls-1" d="M275.13,55.93,68.88.39a11.23,11.23,0,0,0-13.76,8L.39,213.7a11.3,11.3,0,0,0,7.94,13.83l206.26,55.55a11.23,11.23,0,0,0,13.75-8L283.08,69.77A11.31,11.31,0,0,0,275.13,55.93Zm-156,46.45a21.32,21.32,0,0,1-29.19-7.86,21.54,21.54,0,0,1,7.83-29.34,21.3,21.3,0,0,1,29.17,7.87A21.52,21.52,0,0,1,119.13,102.38Zm66.57,115.9a21.29,21.29,0,0,1-29.17-7.86,21.39,21.39,0,1,1,29.17,7.86Z"/></g></svg>