<svg xmlns="http://www.w3.org/2000/svg" viewBox="0 0 283.46 283.46"><defs><style>.cls-1{fill:#1d1d1b;}</style></defs><title>Black 6</title><g id="Black_6" data-name="Black 6"><path id="Black_6-2" data-name="Black 6" class="cls-1" d="M275.14,55.93,68.88.39a11.24,11.24,0,0,0-13.76,8L.39,213.7a11.29,11.29,0,0,0,7.93,13.83l206.27,55.55a11.23,11.23,0,0,0,13.75-8L283.07,69.77A11.3,11.3,0,0,0,275.14,55.93ZM228.8,73.68a21.46,21.46,0,1,1-26.15,15.18A21.46,21.46,0,0,1,228.8,73.68ZM54.67,209.79a21.46,21.46,0,1,1,26.16-15.18A21.47,21.47,0,0,1,54.67,209.79Zm12.08-104a21.3,21.3,0,0,1,29.18,7.86A21.54,21.54,0,0,1,88.11,143a21.31,21.31,0,0,1-29.19-7.86A21.54,21.54,0,0,1,66.75,105.82Zm22.37-25.3a21.47,21.47,0,1,1,26.17-15.18A21.49,21.49,0,0,1,89.12,80.52Zm94.15,163.91a21.47,21.47,0,1,1,26.18-15.18A21.48,21.48,0,0,1,183.27,244.43Zm33.45-66.79a21.29,21.29,0,0,1-29.18-7.85,21.54,21.54,0,0,1,7.82-29.33,21.44,21.44,0,0,1,21.36,37.18Z"/></g></svg>