<svg xmlns="http://www.w3.org/2000/svg" viewBox="0 0 283.46 283.46"><defs><style>.cls-1{fill:#1d1d1b;}</style></defs><title>Black 5</title><g id="Black_5" data-name="Black 5"><path id="Black_5-2" data-name="Black 5" class="cls-1" d="M275.12,55.93,68.9.39a11.25,11.25,0,0,0-13.79,8L.38,213.7a11.32,11.32,0,0,0,8,13.83l206.24,55.55a11.22,11.22,0,0,0,13.75-8L283.08,69.77A11.31,11.31,0,0,0,275.12,55.93ZM54.66,209.79a21.47,21.47,0,1,1,26.18-15.17A21.48,21.48,0,0,1,54.66,209.79ZM89.13,80.51a21.46,21.46,0,1,1,26.16-15.17A21.45,21.45,0,0,1,89.13,80.51Zm63.27,79.82a21.27,21.27,0,0,1-29.16-7.87,21.38,21.38,0,1,1,29.16,7.87Zm30.89,84.1a21.46,21.46,0,1,1,26.15-15.18A21.47,21.47,0,0,1,183.29,244.43Zm34.45-129.28A21.46,21.46,0,1,1,243.91,100,21.47,21.47,0,0,1,217.74,115.15Z"/></g></svg>