<svg xmlns="http://www.w3.org/2000/svg" viewBox="0 0 283.46 283.46"><defs><style>.cls-1{fill:#1d1d1b;}</style></defs><title>Black 3</title><g id="Black_3" data-name="Black 3"><path id="Black_3-2" data-name="Black 3" class="cls-1" d="M275.14,55.93,68.89.39a11.24,11.24,0,0,0-13.77,8L.38,213.7a11.3,11.3,0,0,0,8,13.83l206.25,55.55a11.24,11.24,0,0,0,13.77-8L283.07,69.77A11.3,11.3,0,0,0,275.14,55.93ZM116,96.9A21.31,21.31,0,0,1,86.8,89a21.54,21.54,0,0,1,7.82-29.33,21.3,21.3,0,0,1,29.18,7.86A21.54,21.54,0,0,1,116,96.9Zm36.42,63.43a21.29,21.29,0,0,1-29.17-7.86,21.52,21.52,0,0,1,7.81-29.33,21.44,21.44,0,0,1,21.36,37.19Zm36.44,63.43a21.45,21.45,0,1,1,7.82-29.34A21.56,21.56,0,0,1,188.85,223.76Z"/></g></svg>