<svg xmlns="http://www.w3.org/2000/svg" viewBox="0 0 165.93 283.46"><defs><style>.cls-1{fill:#1d1d1b;}</style></defs><title>Bleed</title><g id="Bleed"><path class="cls-1" d="M165.83,204.08c-2.21-29.09-21.26-65.91-39.69-101.53-18.12-35-36.86-71.25-38.33-98A4.83,4.83,0,0,0,83,0h0a4.84,4.84,0,0,0-4.83,4.56c-1.51,26.71-20.23,62.9-38.34,97.89C21.38,138.1,2.31,175,.1,204.07c-1,13.94,6.23,37.06,22.18,54.26,10.63,11.46,29.59,25.13,59.46,25.13h.76l.49,0,.38,0h.79c23.61,0,44.15-8.67,59.39-25.08C159.53,241.19,166.86,218.05,165.83,204.08ZM54.94,259.22c-30-8.83-40.17-38.3-39.27-50.12,2.37-31,35.08-85.33,42.78-113.2C58.45,95.9,34.17,215.21,54.94,259.22Z"/></g></svg>