<svg xmlns="http://www.w3.org/2000/svg" viewBox="0 0 283.46 197.78"><defs><style>.cls-1,.cls-2{fill:#1d1d1b;}.cls-1{fill-rule:evenodd;}</style></defs><title>Book</title><g id="Scroll"><path class="cls-1" d="M283.46,74.66c.15-6.68,1.59-14.24,9.32-18,9.2-4.44,18.09-1.47,25.66,4.18C328.69,68.52,334.32,79.8,339.73,91c.39.79-.26,2.54-1,3.32A215,215,0,0,1,324,110c-1.72,1.6-5.13,2.18-7.67,1.91C296.73,110.06,283.75,95.62,283.46,74.66Z"/></g><g id="Book"><path class="cls-2" d="M283,91.09l-.09-.24a8,8,0,0,0-.91-1.7,8.54,8.54,0,0,0-1.4-1.55,7.53,7.53,0,0,0-2.05-1.25L274,84.49c-.27-.73-.52-1.47-.75-2.23-.35-1.17-.66-2.38-.92-3.61s-.47-2.56-.62-3.85-.26-2.68-.3-4c0-1,0-2,0-2.89s.1-1.76.2-2.63.22-1.59.37-2.34.27-1.17.42-1.71l2.9-1.83,4.31-2.73A5.72,5.72,0,0,0,281,55.53a6,6,0,0,0,.86-1.33,1.3,1.3,0,0,0,.08-.17,6.14,6.14,0,0,0,.44-1.44,6.7,6.7,0,0,0,.11-1.42,7.73,7.73,0,0,0-.38-2.17l-.06-.17a8.16,8.16,0,0,0-2.44-3.52l0-.05a7.45,7.45,0,0,0-2.09-1.21L160.7.6a9.68,9.68,0,0,0-1.79-.48A8.72,8.72,0,0,0,157.48,0H157a7.78,7.78,0,0,0-1.85.31,8,8,0,0,0-1.66.66L5.18,79.66h0a7.31,7.31,0,0,0-1.43,1,8.83,8.83,0,0,0-1.84,2.29,11.9,11.9,0,0,0-1,2.47A16.66,16.66,0,0,0,.31,88,25.41,25.41,0,0,0,0,90.61c0,.93,0,1.89,0,2.89s.09,2,.19,3.09.22,2.17.39,3.3.37,2.3.6,3.49c.32,1.57.68,3.16,1.09,4.73s.85,3.07,1.34,4.57,1,2.95,1.55,4.36,1.14,2.81,1.74,4.1c.32.67.63,1.31,1,1.93s.66,1.27,1,1.86.7,1.2,1.06,1.77.76,1.16,1.13,1.68.82,1.11,1.22,1.59.9,1,1.34,1.48a17,17,0,0,0,1.49,1.35A13.68,13.68,0,0,0,16.82,134l111.61,62.95a6.43,6.43,0,0,0,2.66.85h.47a5.59,5.59,0,0,0,2.81-.74l.31-.2L280.81,98.68a5.58,5.58,0,0,0,1.23-1.1l.1-.12a6,6,0,0,0,.76-1.25A1.89,1.89,0,0,0,283,96a5.55,5.55,0,0,0,.37-1.29,6.48,6.48,0,0,0,.1-1.31A7.3,7.3,0,0,0,283,91.09ZM129.39,161.54c-.14-1.12-.25-2.17-.31-3.15s-.1-2-.09-2.85,0-1.73.11-2.47c0-.44.08-.85.13-1.25L259,69.75c0,.48,0,1,0,1.45.05,1.67.18,3.37.38,5.06s.46,3.29.8,4.91.73,3.16,1.18,4.68c.34,1.14.74,2.3,1.19,3.45l.15.41L133.07,176c-.22-.55-.42-1.1-.62-1.66-.47-1.31-.91-2.69-1.31-4.09s-.73-2.84-1-4.29S129.56,162.94,129.39,161.54Zm-12.71-2.37c.08,1.24.2,2.56.38,3.93.21,1.69.51,3.48.87,5.29.33,1.6.71,3.19,1.14,4.75l-95.37-53-.05,0a2.7,2.7,0,0,1-.28-.31,6.84,6.84,0,0,1-.44-.56,12.84,12.84,0,0,1-.78-1.21c-.3-.49-.6-1-.9-1.63s-.63-1.28-.95-2-.64-1.5-.93-2.25-.63-1.67-.91-2.5-.56-1.74-.83-2.67-.51-1.83-.74-2.78-.43-1.9-.61-2.84c-.24-1.24-.44-2.45-.58-3.6-.08-.62-.14-1.22-.19-1.81l101.58,53.18c-.17.93-.29,1.91-.38,2.93s-.14,2.18-.15,3.47S116.6,157.89,116.68,159.17Z"/></g></svg>