<svg xmlns="http://www.w3.org/2000/svg" viewBox="0 0 193.21 283.46"><defs><style>.cls-1{fill:#1d1d1b;}</style></defs><title>Boss</title><g id="Boss"><path class="cls-1" d="M121.52,274l15.29-5.73c9.64-.41,12.06-2.47,12-17.08v-1.73c0-3.75-.08-8.88,1-12.29a51.61,51.61,0,0,0,2.26-12.49c.39-5.59-.44-7-.71-7.33-.8-.08-2.65,1.7-4,5.13a24.53,24.53,0,0,0-1,5,24.84,24.84,0,0,1-1.71,7.14l-.24.35c-1.15,1.15-2.08,2.26-2.9,3.25-1.57,1.91-2.72,3.29-4.29,3.29a3.41,3.41,0,0,1-2.61-1.57,16.7,16.7,0,0,1-2.54.26c-1.6.1-3,.16-3.79,1.1a10.42,10.42,0,0,0-.06,1.19c-.05,1.32-.09,2.93-1.11,4.08l-.36.4-6,.33-.12-1.24c-.09-1-.49-3.45-2-3.45a3.73,3.73,0,0,0-2.93,2.62l-.34,1-5.24-.67-.3-.65c-.87-1.88-2-2.84-3.27-2.84-1.85,0-4.13,1.88-5.27,3.69l-.41.65-4.16-.3h-.13l-4.21.3-.42-.65c-1.13-1.78-3.37-3.69-5.27-3.69-1.3,0-2.4,1-3.28,2.84l-.3.65-5.21.67-.35-1a3.73,3.73,0,0,0-2.93-2.62c-1.5,0-1.89,2.42-2,3.45l-.12,1.24-6-.33-.36-.4c-1-1.15-1.06-2.79-1.08-4.09a10.5,10.5,0,0,0-.1-1.26c-.75-.86-2.14-.92-3.74-1a16.83,16.83,0,0,1-2.54-.26,3.38,3.38,0,0,1-2.61,1.57c-1.56,0-2.72-1.38-4.31-3.29a42.85,42.85,0,0,0-2.9-3.25l-.25-.35a25.47,25.47,0,0,1-1.68-7.06,22.91,22.91,0,0,0-1-5.05c-1.38-3.43-3.31-5.21-4-5.21,0,0-1.23.82-.78,7.41a50.41,50.41,0,0,0,2.28,12.5c1.1,3.44,1.06,8.62,1,12.39l0,1.62c0,14.61,2.37,16.67,12,17.08l.39.08L71.72,274a35.64,35.64,0,0,1,13.22,5.84c3.12,2.09,5.39,3.6,11,3.6H97.3c5.6,0,7.86-1.51,11-3.62A35.87,35.87,0,0,1,121.52,274Z"/><path class="cls-1" d="M190.43,131.76c-.11.58-.21,1.16-.33,1.73C190.22,132.92,190.32,132.34,190.43,131.76Z"/><path class="cls-1" d="M188.9,139.19c-.11.51-.24,1-.36,1.49C188.66,140.18,188.79,139.71,188.9,139.19Z"/><path class="cls-1" d="M190.1,133.49c-.36,2-.77,3.89-1.2,5.7C189.33,137.37,189.74,135.47,190.1,133.49Z"/><path class="cls-1" d="M191.38,125.53c-.27,2.12-.59,4.19-.95,6.23C190.79,129.72,191.11,127.65,191.38,125.53Z"/><path class="cls-1" d="M191.78,122.16c0,.33-.1.64-.14,1s0,.47,0,.7C191.65,123.25,191.73,122.72,191.78,122.16Z"/><path class="cls-1" d="M191.59,123.81c-.07.58-.13,1.15-.21,1.72C191.46,125,191.52,124.4,191.59,123.81Z"/><path class="cls-1" d="M180.57,202c0-.49.05-.95.07-1.47,0,.18,0,.33,0,.51C180.6,201.37,180.58,201.69,180.57,202Z"/><path class="cls-1" d="M156.72,210.08c4.39,0,6.92.62,7.51,1.86.3.66,2.36,1.61,6.81,1.61a33.58,33.58,0,0,0,3.82-.21c2.48-.32,4-1.75,4.87-4.85a33.87,33.87,0,0,0,.87-7.45c0-.17,0-.33,0-.5s-.06-.55-.09-.83c0,.26.11.6.11.82,0-.23-.1-.57-.11-.84a12.16,12.16,0,0,0-.17-1.46c-1.36-7.61-8.65-22-5.82-29,2.32-5.56,4.2-13.84,10.9-18.2,0-.11.09-.28.13-.38l-.13.38c-6.7,4.36-8.58,12.64-10.91,18.2-2.82,7,4.45,21.41,5.83,29a83.09,83.09,0,0,0-2.59-8.76c-2.51-7.46-5.35-15.94-3.25-21.17.45-1.08.88-2.24,1.33-3.44,1.91-5.17,4.27-11.57,9.89-15.41a125,125,0,0,0,5.9-26.32c1.11-10.18,1-20.72-2.12-28.2a78,78,0,0,0-8.92-15.56,211.81,211.81,0,0,0-10.24,37l-1,5.84-5.77-1.33A85.82,85.82,0,0,0,149.3,119l-7.88-.47,3-7.29,14.35-35-1-1-35,14.38-7.35,3-3.2-6.85L97.38,50.2l-1.6,0L81,85.78l-3.23,6.84-7.32-3-35-14.38-1,1,14.37,35,3,7.31-7.88.47a90.47,90.47,0,0,0-14.31,1.91l-5.74,1.26-1-5.78a207.72,207.72,0,0,0-10.21-37A77.7,77.7,0,0,0,3.7,94.91c-3,7.3-3.26,17.52-2.24,27.48a124,124,0,0,0,6,27c5.64,3.84,8,10.24,9.9,15.4.44,1.21.86,2.37,1.3,3.42,2.12,5.28-.71,13.74-3.21,21.23-1.5,4.45-2.91,8.67-2.84,11.05,0,1.67.11,3.14.25,4.44,0,0,0,0,0,0a22.33,22.33,0,0,0,.34,2.29s0,.07,0,.09c.79,3.9,2.38,5.6,5.17,6a32.45,32.45,0,0,0,3.79.21c4.45,0,6.51-1,6.78-1.59.61-1.26,3.15-1.88,7.54-1.88,5.89,0,13.5,1.36,17.21,5.21a8,8,0,0,1,2.36,6v.32l-.16.26c-1.24,2.25-1.57,4.15-.94,5.22a3.32,3.32,0,0,0,2.88,1.19,17.53,17.53,0,0,0,.74-3.82l.17-1.2c.54-3.7,2.55-5,4.26-5a2.44,2.44,0,0,1,2.59,2.06,21.12,21.12,0,0,1,.51,6.73,6.16,6.16,0,0,1-.83,2.41,2.88,2.88,0,0,0-.54,1.91l.07.31-.08.3a1.13,1.13,0,0,0,0,.59A4.87,4.87,0,0,0,66,233a8,8,0,0,1,2.62.88c.7.41,1.32.82,1.9,1.23,1.43,1,2.36,1.58,3.91,1.47a20.79,20.79,0,0,0,.32-3.44,19.38,19.38,0,0,1,.58-4.82,4.53,4.53,0,0,1,4.37-2.61c2.33,0,4,1.34,4.22,3.33a17.17,17.17,0,0,1-.13,3.1,4.19,4.19,0,0,0,0,1.82c.69,1.72,1.74,2.53,3.23,2.53a5.77,5.77,0,0,0,4-1.83,24.12,24.12,0,0,0,.79-4.66c.31-2.64.44-3.55.89-4.1.89-1.28,2.91-2.4,4-2.23,1.08-.17,3,1,4,2.3.39.5.53,1.39.82,4a23.32,23.32,0,0,0,.85,4.75,5.78,5.78,0,0,0,4,1.79c1.47,0,2.52-.81,3.19-2.46a4.25,4.25,0,0,0,0-1.87,17.84,17.84,0,0,1-.15-3.09c.2-2,1.89-3.36,4.24-3.36,1.7,0,3.72.79,4.38,2.57a20.41,20.41,0,0,1,.59,4.85,20.94,20.94,0,0,0,.31,3.45c1.56.11,2.49-.48,3.91-1.47a19,19,0,0,1,1.9-1.24,8.06,8.06,0,0,1,2.6-.87,4.09,4.09,0,0,0,1.34-.41,1.37,1.37,0,0,0-.06-.57l-.08-.3.07-.3c.14-.57-.12-1.1-.54-1.93a6.15,6.15,0,0,1-.86-2.44,21.55,21.55,0,0,1,.51-6.67,2.48,2.48,0,0,1,2.62-2.07c1.7,0,3.72,1.3,4.25,5l.17,1.21a18,18,0,0,0,.75,3.81,3.29,3.29,0,0,0,2.86-1.18c.64-1.07.3-3-1-5.23l-.14-.26,0-.32a8,8,0,0,1,2.36-6C143.21,211.44,150.83,210.08,156.72,210.08Zm-77.88-45.2c-8.89,10-23,12.87-37.26,8.71-18.73-5.49-16.66-35.26,1.71-36.05,2.17-.07,4.39-.2,6.71-.18,6.88.11,14.15,1,20.16,4.55C87,151.72,86.13,156.56,78.84,164.88ZM104.11,194c-2.25-2-1.87-6.29-6.88-6.25H96c-5,0-4.65,4.27-6.9,6.25-1.59,2.15-10.93,4-7.84-4.21.91-2.13,10.87-19.26,10.73-19,1.28-1.67,2.17-1.81,4-1.81a3.31,3.31,0,0,1,.55,0h.15a3.19,3.19,0,0,1,.54,0c1.85,0,2.74.14,4,1.81-.13-.24,9.83,16.89,10.76,19C115.06,198,105.73,196.16,104.11,194Zm10.25-29.13c-7.28-8.32-8.18-13.16,8.71-23,6-3.58,13.28-4.44,20.16-4.55,2.32,0,4.53.11,6.7.18,18.38.79,20.45,30.56,1.74,36.05C137.37,177.75,123.27,174.87,114.36,164.88Z"/><path class="cls-1" d="M186.89,146.71c-.45,1.44-.89,2.77-1.32,3.9C186,149.48,186.44,148.15,186.89,146.71Z"/><path class="cls-1" d="M188.54,140.68c-.44,1.79-.9,3.5-1.34,5C187.64,144.18,188.1,142.47,188.54,140.68Z"/><path class="cls-1" d="M187.2,145.7c-.1.35-.21.67-.31,1C187,146.37,187.1,146.07,187.2,145.7Z"/><path class="cls-1" d="M64.82,61.2c3.27-5.3,6.27-10.72,9.07-16.23a92.94,92.94,0,0,0-13.71,1.41c-4.15-12.5-4.1-25.44-.1-38.71.44-1.51.74-3.06,1.11-4.58-.27-.17-.53-.34-.77-.51C46.31,7.83,35.22,17,28.13,30.25a74.09,74.09,0,0,0-6.58,16.4c5.26,2.54,10.64,4.86,16.09,7C46.73,56.85,62.11,60.56,64.82,61.2Z"/><path class="cls-1" d="M119.32,45c2.81,5.51,5.82,10.93,9.08,16.23,2.72-.64,18.1-4.35,27.17-7.59q8.2-3.15,16.12-7a76.13,76.13,0,0,0-6.59-16.4C158,17,146.9,7.83,132.82,2.58l-.78.51c.37,1.52.66,3.07,1.11,4.58,4,13.27,4,26.21-.1,38.71A92.94,92.94,0,0,0,119.32,45Z"/><path class="cls-1" d="M128.41,61.2h0l-.22,0Z"/><path class="cls-1" d="M43.58,113.33,27.77,74.89l6.33-6.3,38.48,15.8L92,44.53l9.11,0,19.5,39.83,38.49-15.8,6.27,6.34-15.75,38.4a94.24,94.24,0,0,1,15.17,2.07,214,214,0,0,1,28.39-74.61,212.82,212.82,0,0,1-67.55,27A218.22,218.22,0,0,1,96.6,0a216.79,216.79,0,0,1-29,67.77A214.17,214.17,0,0,1,0,40.79a212.13,212.13,0,0,1,28.41,74.57A98,98,0,0,1,43.58,113.33Z"/></g></svg>