<svg xmlns="http://www.w3.org/2000/svg" viewBox="0 0 188.15 283.46"><defs><style>.cls-1{fill:#1d1d1b;}</style></defs><title>Bottle</title><g id="Bottle"><path class="cls-1" d="M187.68,149.81c-.05-.57-.09-1.13-.15-1.7-.12-1.05-.25-2.08-.4-3.12a1.08,1.08,0,0,0,0-.18c-.22-1.55-.55-3.11-.86-4.65s-.68-3.16-1.09-4.73c-.35-1.32-.68-2.63-1.1-3.93l-.24-.71c0-.15-.1-.3-.15-.45-.47-1.38-1-2.74-1.57-4.11-.33-.82-.7-1.66-1.07-2.49s-.76-1.64-1.16-2.45c-.29-.6-.59-1.19-.91-1.78l0-.11c-.21-.4-.42-.8-.65-1.2s-.3-.6-.47-.9c-.37-.65-.77-1.31-1.17-2s-1-1.57-1.49-2.32c-.17-.25-.38-.47-.55-.72-.8-1.16-1.63-2.34-2.51-3.48-1.06-1.38-2.17-2.77-3.36-4.11s-2.44-2.63-3.77-3.93c.64.66,1.25,1.32,1.84,2q-2-2-4.11-4c-7.42-6.73-23.78-16.15-36.89-19a25.51,25.51,0,0,1-3.27-1.23h.15c-3.61-1.67-5.66-3.93-6.14-7l0-.21a9.46,9.46,0,0,1-.08-1.21v0h0l4.31-44.29h1.06A4.23,4.23,0,0,0,126,21.57v-4a4.22,4.22,0,0,0-4.23-4.23H109.7L111.15,0H77l1.45,13.36H66.37a4.22,4.22,0,0,0-4.23,4.23v4a4.23,4.23,0,0,0,4.23,4.23h1l4.32,44.3a8.09,8.09,0,0,1-2.83,6.35,15.5,15.5,0,0,1-3.43,2.1h.15a25.51,25.51,0,0,1-3.27,1.23c-13.1,2.85-29.47,12.27-36.89,19q-2.17,2-4.14,4c.61-.68,1.22-1.35,1.87-2h0c-1.32,1.3-2.57,2.59-3.76,3.93s-2.3,2.73-3.37,4.11c-.88,1.14-1.71,2.32-2.51,3.48a1.3,1.3,0,0,1-.1.15l-.61.9c-.21.3-.42.61-.62.92s-.28.46-.43.7l-.41.67c-.13.23-.28.45-.41.68l-.28.47c-.14.24-.28.47-.41.71s-.28.46-.41.7c-.23.41-.45.83-.66,1.24l0,0c-.34.65-.68,1.3-1,2-.24.49-.47,1-.7,1.48-.51,1.1-1,2.2-1.45,3.29-.55,1.37-1.09,2.73-1.56,4.11-.14.39-.27.77-.4,1.16-.41,1.3-.74,2.61-1.09,3.93-.42,1.57-.78,3.15-1.1,4.73s-.63,3.1-.86,4.65c0,.24-.05.48-.08.71-.12.86-.22,1.72-.31,2.59-.07.57-.11,1.13-.16,1.7C.19,152.89,0,156,0,159.1c0,.65.07,1.31.08,2s0,1.43,0,2.15c0,.47.06.95.08,1.42.07,1.67.17,3.41.31,5.09.25,2.95.59,5.88,1,8.85a.27.27,0,0,0,0,.09c.14,1,.31,2,.47,2.94.11.71.19,1.43.31,2.15.07.39.17.77.24,1.16.24,1.34.51,2.67.78,4,.07.36.16.71.24,1.07.32,1.55.65,3.09,1,4.64s.73,2.92,1.1,4.38c.46,1.81.91,3.64,1.41,5.44l.24.81c.87,3.16,1.76,6.24,2.74,9.37.07.24.16.48.23.72,1,3.16,2,6.35,3.06,9.47.39,1.17.77,2.32,1.17,3.48,2.74,8,5.62,15.71,8.34,23.16l-.14,0c.74,1.88,1.51,3.86,2.23,5.7,5,12.75,16.75,26.33,33.27,26.33H130c16.53,0,28.28-13.58,33.27-26.33.73-1.84,1.49-3.82,2.24-5.7l-.15,0c2.72-7.45,5.6-15.2,8.34-23.16.34-1,.69-2,1-2.95.06-.17.1-.36.16-.53.83-2.48,1.63-5,2.42-7.51.29-.89.59-1.78.87-2.68,1-3.13,1.86-6.21,2.74-9.37.07-.27.16-.54.23-.81.86-3.11,1.7-6.25,2.43-9.37l.24-1c.31-1.36.57-2.73.86-4.1.07-.36.16-.71.23-1.07.27-1.34.54-2.68.78-4,.07-.39.17-.77.24-1.16.23-1.31.43-2.63.63-3.93.06-.42.09-.84.15-1.25.43-3,.78-5.9,1-8.85.14-1.68.24-3.42.31-5.09,0-.47.07-.95.08-1.42,0-1.19.08-2.39.08-3.58v-.53C188.15,156,188,152.89,187.68,149.81Z"/></g></svg>