<svg xmlns="http://www.w3.org/2000/svg" viewBox="0 0 236.95 283.46"><defs><style>.cls-1{fill:#1d1d1b;fill-rule:evenodd;}</style></defs><title>Break shield</title><g id="Break_shield" data-name="Break shield"><path class="cls-1" d="M159.5,235.4a129,129,0,0,1-40.85,29.87l-.17-.08-.16.08A129.49,129.49,0,0,1,75.08,233a216.23,216.23,0,0,1-31-46.18C26.9,152.33,14.52,111.18,15.77,56.27a278,278,0,0,0,38-6.68l-9.2-14.14A309.32,309.32,0,0,1,3,42.72,3.25,3.25,0,0,0,.11,45.88C-1.18,100.35,9,147.33,32.22,193.72A244.22,244.22,0,0,0,67.4,246.19a149.14,149.14,0,0,0,49.53,37,3.2,3.2,0,0,0,1.36.29,1.06,1.06,0,0,0,.19,0,1.62,1.62,0,0,0,.19,0,3.31,3.31,0,0,0,1.37-.29,148.85,148.85,0,0,0,47.69-35.11Z"/><path class="cls-1" d="M234,42.72c-49.69-5.35-86.76-19.07-113.36-42a3.32,3.32,0,0,0-4.23,0c-14,12-31,21.48-51.07,28.57l9.11,14C91.06,37.2,105.93,29,118.48,18.2c25.84,22.22,61.2,33.63,102.7,38.07,1.26,54.91-11.12,96.06-28.34,130.52a219.34,219.34,0,0,1-19.55,31.83l8.24,12.69a250.15,250.15,0,0,0,23.22-37.59c23.18-46.39,33.38-93.37,32.1-147.84A3.26,3.26,0,0,0,234,42.72Z"/><path class="cls-1" d="M139.51,143.63,129,150.44l38.18,58.77a191.54,191.54,0,0,0,16.93-27.72c15.23-30.38,26.19-66.71,25.06-115.2-36.62-3.92-67.84-14-90.68-33.62-10.62,9.11-23.13,16.1-37.08,21.44Z"/><path class="cls-1" d="M104.08,150.09l10.54-6.83L60.85,60.5a246.65,246.65,0,0,1-33.06,5.79c-1.12,48.49,9.84,84.82,25.07,115.2a189.3,189.3,0,0,0,27.31,40.8,113.82,113.82,0,0,0,38.19,28.48l.12-.06.12.06a113,113,0,0,0,34.71-24.92Z"/></g></svg>