<svg xmlns="http://www.w3.org/2000/svg" viewBox="0 0 283.44 283.44"><defs><style>.cls-1{fill:#1d1d1b;}</style></defs><title>Burn</title><g id="Burn"><path class="cls-1" d="M256.72,128.64c7.27,0,16.18,1.63,26.72,5.63-10.37-17.8-24.34-22.16-37.44-22.16s-25.25,4.53-32,4.53a11.64,11.64,0,0,1-11.82-11.8c0-8.73,5.84-12.71,22.34-12.71a53.58,53.58,0,0,0-25.37-9l-5.07-.35c-.75,0-1.48-.08-2.25-.08a49.5,49.5,0,0,0-21.66,4.86,12.6,12.6,0,0,1-.51-3.39c0-9.08,6.18-19.07,6.18-30.35a29.91,29.91,0,0,0-8.17-20.36c0,15.82-8.74,21.27-17.07,21.27-10.37,0-22-8.73-22-28,0-7.26,1.62-16.16,5.62-26.71-17.8,10.37-22.16,24.34-22.16,37.44s4.53,25.25,4.53,32a11.65,11.65,0,0,1-11.81,11.83c-8.72,0-12.69-5.83-12.69-22.35a53.67,53.67,0,0,0-9,25.37l-.35,5.07c0,.76-.07,1.49-.07,2.26a49.15,49.15,0,0,0,4.86,21.65,12.22,12.22,0,0,1-3.39.52c-9.08,0-19.07-6.19-30.36-6.19a29.9,29.9,0,0,0-20.36,8.18c15.83,0,21.27,8.73,21.27,17.08,0,10.35-8.73,22-28,22-7.27,0-16.18-1.63-26.71-5.63,10.36,17.8,24.35,22.17,37.43,22.17s25.26-4.54,31.95-4.54a11.67,11.67,0,0,1,11.85,11.81c0,8.73-5.85,12.7-22.35,12.7a53.69,53.69,0,0,0,25.37,9.05s6.55.42,7.32.42a49.33,49.33,0,0,0,21.66-4.86,12.6,12.6,0,0,1,.51,3.39c0,9.09-6.18,19.07-6.18,30.35A29.87,29.87,0,0,0,115.73,250c0-15.82,8.73-21.27,17.09-21.27,10.35,0,22,8.73,22,28,0,7.27-1.62,16.17-5.61,26.71C167,273.07,171.33,259.1,171.33,246s-4.53-25.25-4.53-31.95a11.66,11.66,0,0,1,11.79-11.84c8.74,0,12.72,5.83,12.72,22.35a53.73,53.73,0,0,0,9-25.36l.35-5.08c0-.76.08-1.49.08-2.25a49.3,49.3,0,0,0-4.86-21.66,12.22,12.22,0,0,1,3.39-.52c9.07,0,19.07,6.19,30.35,6.19A29.89,29.89,0,0,0,250,167.71c-15.82,0-21.27-8.74-21.27-17.08C228.75,140.27,237.47,128.64,256.72,128.64Zm-76.85,22.92a39.42,39.42,0,0,1-32.58,29.15,34.57,34.57,0,0,0-2.29,12.8c0,7.4,1.9,16.55,6.67,27.05l-.65.08c-16.38-13.07-18-29.09-19.14-40.77a39.41,39.41,0,0,1-29.17-32.56A34,34,0,0,0,89.93,145c-7.62,0-17.08,2-28,7.08,13.23-17.4,29.67-19,41.61-20.2a39.4,39.4,0,0,1,32.58-29.15,34.36,34.36,0,0,0,2.3-12.8c0-7.61-2-17.08-7.08-28,17.41,13.21,19,29.67,20.19,41.61a39.39,39.39,0,0,1,29.16,32.57,34.36,34.36,0,0,0,12.8,2.3c7.61,0,17.07-2,28-7.08C208.27,148.76,191.81,150.37,179.87,151.56Z"/><path class="cls-1" d="M141.72,120.17a21.61,21.61,0,1,0,21.6,21.6A21.6,21.6,0,0,0,141.72,120.17Z"/></g></svg>