<svg xmlns="http://www.w3.org/2000/svg" viewBox="0 0 283.46 230.61"><defs><style>.cls-1{fill:#1d1d1b;}</style></defs><title>Castle</title><g id="City"><path id="City-2" data-name="City" class="cls-1" d="M566.93,91.34V194.09a9.69,9.69,0,0,1-9.67,9.68H293.13a9.69,9.69,0,0,1-9.67-9.68V45.68a9.65,9.65,0,0,1,6.61-9.18l27.38-9.15a9.64,9.64,0,0,1,6.13,0L351,36.5a9.66,9.66,0,0,1,6.6,9.18v61.23h4V99.76a9.67,9.67,0,0,1,4.75-8.34l45.16-26.71a9.74,9.74,0,0,1,9.86,0l45.2,26.71a9.51,9.51,0,0,1,3.34,3.3V91.34a9.7,9.7,0,0,1,5.56-8.76l38.85-18.35a9.64,9.64,0,0,1,8.26,0l38.87,18.35A9.65,9.65,0,0,1,566.93,91.34ZM320.52,46.75l-17.7,5.9V184.41h35.39V52.65l-17.69-5.9m95.86,37.56-35.49,21,0,79.14h71V105.27l-35.51-21m102-.61L489.21,97.47v86.94h58.36V97.47L518.39,83.7"/></g><g id="Castle"><path class="cls-1" d="M283.42,21.83V3.38A3.41,3.41,0,0,0,280,0h-9.17a3.4,3.4,0,0,0-3.42,3.38V18.92h-3.69V3.38A3.39,3.39,0,0,0,260.31,0h-9.17a3.4,3.4,0,0,0-3.42,3.38V18.69H244V3.38A3.38,3.38,0,0,0,240.6,0h-9.18A3.39,3.39,0,0,0,228,3.38V18.69h-3.69V3.38A3.4,3.4,0,0,0,220.92,0h-9.18a3.39,3.39,0,0,0-3.41,3.38V18.69h-3.7V3.38A3.4,3.4,0,0,0,201.22,0H192a3.39,3.39,0,0,0-3.4,3.38V18.92h-3.71V3.38A3.39,3.39,0,0,0,181.51,0h-9.19a3.41,3.41,0,0,0-3.4,3.38V21.83a3.88,3.88,0,0,0,0,.48v9.17a3.37,3.37,0,0,0,3.4,3.38h5.86a20.89,20.89,0,0,0-.5,4.5V90.3h-4.81V75.85A2.88,2.88,0,0,0,170,73h-7.81a2.88,2.88,0,0,0-2.88,2.89V90.3h-3.14V75.85A2.88,2.88,0,0,0,153.24,73h-7.79a2.88,2.88,0,0,0-2.87,2.89V90.3h-3.16V75.85A2.87,2.87,0,0,0,136.53,73h-7.76a2.88,2.88,0,0,0-2.9,2.89V90.3h-3.14V75.85A2.88,2.88,0,0,0,119.84,73h-7.77a2.9,2.9,0,0,0-2.91,2.89V90.3h-3.34V39.36a20.29,20.29,0,0,0-.51-4.5h5.87a3.37,3.37,0,0,0,3.42-3.38V22.31a3.68,3.68,0,0,0-.06-.58V3.38A3.4,3.4,0,0,0,111.13,0H102a3.4,3.4,0,0,0-3.43,3.38V18.92H94.84V3.38A3.39,3.39,0,0,0,91.44,0H82.25a3.38,3.38,0,0,0-3.39,3.38V18.69H75.14V3.38A3.38,3.38,0,0,0,71.74,0h-9.2a3.37,3.37,0,0,0-3.38,3.38V18.69H55.45V3.38A3.39,3.39,0,0,0,52,0H42.86a3.39,3.39,0,0,0-3.41,3.38V18.69H35.76V3.38A3.39,3.39,0,0,0,32.33,0H23.16a3.39,3.39,0,0,0-3.4,3.38V18.92H16V3.38A3.37,3.37,0,0,0,12.66,0H3.47A3.4,3.4,0,0,0,.05,3.38V21.83a3.91,3.91,0,0,0,0,.48v9.17a3.37,3.37,0,0,0,3.39,3.38H9.28a20.29,20.29,0,0,0-.51,4.5V209.9a20.68,20.68,0,0,0,20.66,20.71H85.17c.23,0,.45,0,.68,0s.57,0,.86,0h25.62V156.3a16.25,16.25,0,0,1,16.3-16.25h24.74a16.23,16.23,0,0,1,16.28,16.25v74.31h27.11l.86,0,.69,0H254a20.68,20.68,0,0,0,20.67-20.71V39.36a20.89,20.89,0,0,0-.5-4.5h5.86a3.37,3.37,0,0,0,3.39-3.38V22.31A3.88,3.88,0,0,0,283.42,21.83ZM67.26,172.18A4.26,4.26,0,0,1,63,176.44H51.58a4.24,4.24,0,0,1-4.22-4.26V148.71a4.25,4.25,0,0,1,4.22-4.25H63a4.27,4.27,0,0,1,4.25,4.25Zm0-91.1A4.26,4.26,0,0,1,63,85.33H51.58a4.23,4.23,0,0,1-4.22-4.25V57.59a4.23,4.23,0,0,1,4.22-4.24H63a4.26,4.26,0,0,1,4.25,4.24Zm168.87,91.1a4.24,4.24,0,0,1-4.25,4.26H220.45a4.25,4.25,0,0,1-4.24-4.26V148.71a4.26,4.26,0,0,1,4.24-4.25h11.43a4.25,4.25,0,0,1,4.25,4.25Zm0-91.1a4.24,4.24,0,0,1-4.25,4.25H220.45a4.25,4.25,0,0,1-4.24-4.25V57.59a4.25,4.25,0,0,1,4.24-4.24h11.43a4.24,4.24,0,0,1,4.25,4.24Z"/></g></svg>