<svg xmlns="http://www.w3.org/2000/svg" viewBox="0 0 206.66 278.94"><defs><style>.cls-1{fill:#1d1d1b;}</style></defs><title>City place</title><g id="City_place" data-name="City place"><polygon class="cls-1" points="106.37 0 73.75 14.91 0.3 57.6 32.94 42.69 106.37 0"/><path class="cls-1" d="M100.71,159.23a85.61,85.61,0,0,0-10.34,7.93,20.46,20.46,0,0,0-19.58-14.77,19.08,19.08,0,0,0-2.64.19l0,5.15,2.62,1.51h0a13.63,13.63,0,0,1,11.82,6.86l50.6,29.22,73.45-42.69-65.09-37.57.18-62.58L109.33,0,35.87,42.69,68.31,95.15l0,6.52c.91-3.13,1.74-6.27,2.5-9.44A195.37,195.37,0,0,0,100.71,159.23Z"/><path class="cls-1" d="M133.07,275.79a3.59,3.59,0,0,1-.71,2.34.73.73,0,0,1-.08.09,2,2,0,0,1-.51.42L205.22,236a2.48,2.48,0,0,0,.5-.42l.07-.09a2.31,2.31,0,0,0,.2-.24,3,3,0,0,0,.16-.31,1.08,1.08,0,0,0,.12-.24c0-.08,0-.17.07-.24s0-.15,0-.23a.24.24,0,0,0,0-.09s0,0,0,0a.29.29,0,0,1,0-.09.68.68,0,0,0,0-.21.65.65,0,0,0,0-.2v-.23a.55.55,0,0,0,0-.19v0l.14-77.55-73.45,42.68Z"/><path class="cls-1" d="M4.41,208.34l121.25,70c2.47,1.41,4.46.27,4.47-2.54l.15-77.54L84.4,171.77q.06.6.06,1.2a13.67,13.67,0,1,1-19.28-12.52l0-7.26a20.5,20.5,0,0,0-14,14,91.37,91.37,0,0,0-10.33-7.93,194.3,194.3,0,0,0,24.4-48.14l0-13L32.94,45.63.3,60.54,0,200.66A9.77,9.77,0,0,0,4.41,208.34Z"/></g></svg>