<svg xmlns="http://www.w3.org/2000/svg" viewBox="0 0 283.46 176.92"><defs><style>.cls-1{fill:#1d1d1b;}</style></defs><title>City</title><g id="Map"><path class="cls-1" d="M562.47,173.8c-31.83-9.56-64.32-9.68-97.11-6-14.87,1.65-29.65,4.1-44.41,6.44-8,1.26-16,2.49-24,3.63-2.57.38-29.35,5.55-30.73,3.66-3.1-4.21-9.28-33.56-20.1-23.52-5.09,4.73-6.84,13.13-9.25,19.38-2.69,7-8.34,4-15,3.31a172.63,172.63,0,0,1-32.27-6.86l3.56,4.68V-1.66L287,3c46.92,14.1,94.7,7,142.11-.49,12.37-2,24.75-3.83,37.2-5.31,3.5-.42,12-2.88,14.57-.13a66,66,0,0,1,5.79,8c4.38,6.44,10.41,20.64,18.84,22.78a4.91,4.91,0,0,0,6.14-4.68V-10l-4.85,4.85A198.2,198.2,0,0,1,559.89,3l-3.56-4.67V81.55q2.42-2.43,4.85-4.85H531.85a4.89,4.89,0,0,0-4.67,6.14c2.63,9.74,18.81,17.27,26,23.2,6.83,5.64,3.16,24.67,3.16,33.2v39.24c0,6.25,9.7,6.25,9.7,0V139.24c0-10.21,2.26-23.45-.39-33.27-1.2-4.45-6.91-7.94-10.28-10.52C551,92.1,538,85.69,536.53,80.26l-4.68,6.14h29.33A4.9,4.9,0,0,0,566,81.55V-1.66a4.91,4.91,0,0,0-3.56-4.68,208,208,0,0,0-55.64-8.47A4.88,4.88,0,0,0,502-10V23.16l6.14-4.68c-2.95-.74-7.05-9.31-8.67-11.73-3.39-5.09-6.62-10.39-10.51-15.12-1.91-2.3-4.72-5.82-8.17-5.53-11.7,1-23.34,2.45-35,4.11-52.18,7.45-104.29,19-156.2,3.45a4.9,4.9,0,0,0-6.14,4.68V178.48a4.91,4.91,0,0,0,3.57,4.67,207,207,0,0,0,44.42,8c8,.61,10.89-1.79,13.92-9.11,1.58-3.81,3-7.69,4.45-11.54l1.29-2.95c1.7-2,1-2.55-2.14-1.74,1.42,2,2.19,4.54,3.07,6.79,2.1,5.37,3.92,14.27,9.36,17.46,7.35,4.31,25.32-1.15,33.38-2.25,17.6-2.42,35.13-5.39,52.7-8,37.63-5.61,75.53-7.77,112.41,3.31C565.89,185,568.44,175.59,562.47,173.8Z"/></g><g id="City"><path id="City-2" data-name="City" class="cls-1" d="M283.46,64.49V167.24a9.68,9.68,0,0,1-9.66,9.68H9.67A9.69,9.69,0,0,1,0,167.24V18.83A9.67,9.67,0,0,1,6.6,9.65L34,.51a9.47,9.47,0,0,1,6.13,0L67.5,9.65a9.65,9.65,0,0,1,6.6,9.18V80.06h4V72.91a9.67,9.67,0,0,1,4.75-8.34L128,37.86a9.76,9.76,0,0,1,9.87,0L183,64.57a9.51,9.51,0,0,1,3.34,3.3V64.49a9.72,9.72,0,0,1,5.57-8.76l38.85-18.35a9.73,9.73,0,0,1,8.26,0l38.87,18.35A9.66,9.66,0,0,1,283.46,64.49ZM37.05,19.9,19.36,25.8V157.56H54.75V25.8l-17.7-5.9m95.86,37.56-35.49,21v79.14h71V78.42l-35.51-21m102-.6L205.75,70.63v86.93h58.36V70.63L234.93,56.86"/></g><g id="Castle"><path class="cls-1" d="M0-5V-23.47a3.41,3.41,0,0,0-3.42-3.38h-9.17A3.4,3.4,0,0,0-16-23.47V-7.93h-3.7V-23.47a3.39,3.39,0,0,0-3.4-3.38h-9.17a3.4,3.4,0,0,0-3.42,3.38V-8.16h-3.71V-23.47a3.4,3.4,0,0,0-3.41-3.38H-52a3.4,3.4,0,0,0-3.41,3.38V-8.16h-3.68V-23.47a3.41,3.41,0,0,0-3.42-3.38h-9.18a3.4,3.4,0,0,0-3.41,3.38V-8.16h-3.7V-23.47a3.4,3.4,0,0,0-3.4-3.38h-9.18a3.39,3.39,0,0,0-3.4,3.38V-7.93h-3.71V-23.47a3.4,3.4,0,0,0-3.42-3.38h-9.19a3.41,3.41,0,0,0-3.4,3.38V-5a3.87,3.87,0,0,0,0,.49V4.64A3.38,3.38,0,0,0-111.18,8h5.86a20.83,20.83,0,0,0-.51,4.5V63.46h-4.8V49a2.88,2.88,0,0,0-2.87-2.89h-7.82A2.88,2.88,0,0,0-124.2,49V63.46h-3.13V49a2.88,2.88,0,0,0-2.89-2.89H-138A2.88,2.88,0,0,0-140.89,49V63.46H-144V49a2.87,2.87,0,0,0-2.89-2.89h-7.77A2.88,2.88,0,0,0-157.6,49V63.46h-3.13V49a2.88,2.88,0,0,0-2.89-2.89h-7.77A2.89,2.89,0,0,0-174.3,49V63.46h-3.34V12.52a20.83,20.83,0,0,0-.51-4.5h5.87a3.37,3.37,0,0,0,3.41-3.38V-4.53a3.81,3.81,0,0,0,0-.59V-23.47a3.41,3.41,0,0,0-3.41-3.38h-9.18a3.4,3.4,0,0,0-3.43,3.38V-7.93h-3.68V-23.47a3.39,3.39,0,0,0-3.4-3.38h-9.2a3.39,3.39,0,0,0-3.39,3.38V-8.16h-3.72V-23.47a3.38,3.38,0,0,0-3.4-3.38h-9.2a3.37,3.37,0,0,0-3.37,3.38V-8.16H-228V-23.47a3.39,3.39,0,0,0-3.4-3.38h-9.18A3.39,3.39,0,0,0-244-23.47V-8.16h-3.69V-23.47a3.41,3.41,0,0,0-3.43-3.38h-9.17a3.41,3.41,0,0,0-3.41,3.38V-7.93h-3.71V-23.47a3.38,3.38,0,0,0-3.39-3.38H-280a3.41,3.41,0,0,0-3.41,3.38V-5a2.63,2.63,0,0,0,0,.49V4.64A3.37,3.37,0,0,0-280.08,8h5.89a20.82,20.82,0,0,0-.5,4.5V183.05A20.68,20.68,0,0,0-254,203.77h55.73c.23,0,.46,0,.69,0s.57,0,.85,0h25.63V129.45a16.25,16.25,0,0,1,16.3-16.25h24.73a16.23,16.23,0,0,1,16.28,16.25v74.32h27.11c.29,0,.58,0,.86,0s.46,0,.7,0h55.73A20.69,20.69,0,0,0-8.75,183.05V12.52A20.22,20.22,0,0,0-9.26,8H-3.4A3.38,3.38,0,0,0,0,4.64V-4.53A2.52,2.52,0,0,0,0-5ZM-216.21,145.33a4.26,4.26,0,0,1-4.25,4.27h-11.42a4.24,4.24,0,0,1-4.22-4.27V121.86a4.24,4.24,0,0,1,4.22-4.25h11.42a4.27,4.27,0,0,1,4.25,4.25Zm0-91.09a4.25,4.25,0,0,1-4.25,4.24h-11.42a4.23,4.23,0,0,1-4.22-4.24V30.74a4.23,4.23,0,0,1,4.22-4.24h11.42a4.26,4.26,0,0,1,4.25,4.24Zm168.88,91.09a4.26,4.26,0,0,1-4.25,4.27H-63a4.26,4.26,0,0,1-4.23-4.27V121.86A4.26,4.26,0,0,1-63,117.61h11.44a4.26,4.26,0,0,1,4.25,4.25Zm0-91.09a4.24,4.24,0,0,1-4.25,4.24H-63a4.25,4.25,0,0,1-4.23-4.24V30.74A4.25,4.25,0,0,1-63,26.5h11.44a4.25,4.25,0,0,1,4.25,4.24Z"/></g></svg>