<svg xmlns="http://www.w3.org/2000/svg" viewBox="0 0 206.66 278.94"><defs><style>.cls-1{fill:#1d1d1b;}</style></defs><title>City remove</title><g id="City_remove" data-name="City remove"><polygon class="cls-1" points="106.37 0 73.75 14.91 0.3 57.6 32.94 42.69 106.37 0"/><polygon class="cls-1" points="116.15 129.83 108.54 141.54 122.78 150.78 104.58 178.77 133.21 195.31 206.66 152.62 141.57 115.05 141.64 90.59 116.15 129.83"/><polygon class="cls-1" points="68.31 95.15 68.13 157.73 80.32 164.76 89.11 151.24 84.47 148.23 74.89 142.03 127.78 60.59 137.51 45.6 109.33 0 35.87 42.69 68.31 95.15"/><path class="cls-1" d="M133.07,275.79a3.59,3.59,0,0,1-.71,2.34.73.73,0,0,1-.08.09,2,2,0,0,1-.51.42L205.22,236a2.48,2.48,0,0,0,.5-.42l.07-.09a2.31,2.31,0,0,0,.2-.24,3,3,0,0,0,.16-.31,1.08,1.08,0,0,0,.12-.24c0-.08,0-.17.07-.24s0-.15,0-.23a.24.24,0,0,0,0-.09s0,0,0,0a.29.29,0,0,1,0-.09.68.68,0,0,0,0-.21.65.65,0,0,0,0-.2v-.23a.55.55,0,0,0,0-.19v0l.14-77.55-73.45,42.68Z"/><path class="cls-1" d="M63.29,242.33l62.37,36c2.47,1.41,4.46.27,4.48-2.54l.14-77.54-27.89-16.09Z"/><path class="cls-1" d="M65.18,160.68l.17-62.58L32.94,45.63.3,60.54,0,200.66a9.77,9.77,0,0,0,4.41,7.68l34.63,20,39.08-60.18Z"/></g></svg>