<svg xmlns="http://www.w3.org/2000/svg" viewBox="0 0 206.66 278.94"><defs><style>.cls-1{fill:#1d1d1b;}</style></defs><title>City add</title><g id="City_add" data-name="City add"><polygon class="cls-1" points="106.37 0 73.75 14.91 0.3 57.6 32.94 42.69 106.37 0"/><path class="cls-1" d="M206.66,152.62l-65.09-37.57.18-62.58L109.33,0,35.87,42.69,64.45,88.91H83.81a5,5,0,0,1,5,5v27.53h27.55a5,5,0,0,1,5,5v26.05a5,5,0,0,1-5,5H88.81v12.17l44.4,25.65Z"/><path class="cls-1" d="M133.07,275.79a3.59,3.59,0,0,1-.71,2.34.73.73,0,0,1-.08.09,2,2,0,0,1-.51.42L205.22,236a2.48,2.48,0,0,0,.5-.42l.07-.09a2.31,2.31,0,0,0,.2-.24,3,3,0,0,0,.16-.31,1.08,1.08,0,0,0,.12-.24c0-.08,0-.17.07-.24s0-.15,0-.23a.24.24,0,0,0,0-.09s0,0,0,0a.29.29,0,0,1,0-.09.68.68,0,0,0,0-.21.65.65,0,0,0,0-.2v-.23a.55.55,0,0,0,0-.19v0l.14-77.55-73.45,42.68Z"/><path class="cls-1" d="M88.81,174.32V185a5,5,0,0,1-5,5h-26a5,5,0,0,1-5-5V157.49H25.24a5,5,0,0,1-5-5V126.44a5,5,0,0,1,5-5H52.79V93.91a5,5,0,0,1,5-5h1.88L32.94,45.63.3,60.54,0,200.66a9.77,9.77,0,0,0,4.41,7.68l121.25,70c2.47,1.41,4.46.27,4.47-2.54l.15-77.54Z"/></g></svg>