<svg xmlns="http://www.w3.org/2000/svg" viewBox="0 0 206.66 278.94"><defs><style>.cls-1{fill:#1d1d1b;}</style></defs><title>City move</title><g id="City_move" data-name="City move"><polygon class="cls-1" points="32.94 42.69 106.37 0 73.75 14.91 0.3 57.6 32.94 42.69"/><polygon class="cls-1" points="68.87 139.45 68.18 140.13 68.15 153.13 81.83 139.45 68.22 125.85 68.19 138.76 68.87 139.45"/><polygon class="cls-1" points="141.75 52.47 109.33 0 35.87 42.69 68.31 95.15 68.27 109.37 74.56 103.08 96.37 124.9 96.38 124.88 110.91 139.45 83.69 166.71 133.21 195.31 206.66 152.62 141.57 115.05 141.75 52.47"/><path class="cls-1" d="M133.07,275.79a3.59,3.59,0,0,1-.71,2.34.73.73,0,0,1-.08.09,2,2,0,0,1-.51.42L205.22,236a2.48,2.48,0,0,0,.5-.42l.07-.09a2.31,2.31,0,0,0,.2-.24,3,3,0,0,0,.16-.31,1.08,1.08,0,0,0,.12-.24c0-.08,0-.17.07-.24s0-.15,0-.23a.24.24,0,0,0,0-.09s0,0,0,0a.29.29,0,0,1,0-.09.68.68,0,0,0,0-.21.65.65,0,0,0,0-.2v-.23a.55.55,0,0,0,0-.19v0l.14-77.55-73.45,42.68Z"/><path class="cls-1" d="M60,161.27l5.18-5.19,0-13L41.6,166.74l-10.9-10.9,16.37-16.39L30.71,123.11l10.92-10.92,23.62,23.63,0-12.91L60,117.64l5.3-5.3,0-14.24L32.94,45.63.3,60.54,0,200.66a9.77,9.77,0,0,0,4.41,7.68l121.25,70c2.47,1.41,4.46.27,4.47-2.54l.15-77.54L80.74,169.66l-6.19,6.2Z"/></g></svg>