<svg xmlns="http://www.w3.org/2000/svg" viewBox="0 0 206.66 278.94"><defs><style>.cls-1{fill:#1d1d1b;}</style></defs><title>City return</title><g id="City_return" data-name="City return"><polygon class="cls-1" points="106.37 0 73.75 14.91 0.3 57.6 32.94 42.69 106.37 0"/><path class="cls-1" d="M141.75,52.47,109.33,0,35.87,42.69,68.31,95.15l0,11.9a40.27,40.27,0,0,1,49.32,39.21,39.94,39.94,0,0,1-2.74,14.5l-14.9-3.7a25.05,25.05,0,0,0-31.73-34.22l-.1,34.89,65.08,37.58,73.45-42.69-65.09-37.57Z"/><path class="cls-1" d="M133.07,275.79a3.59,3.59,0,0,1-.71,2.34.73.73,0,0,1-.08.09,2,2,0,0,1-.51.42L205.22,236a2.48,2.48,0,0,0,.5-.42l.07-.09a2.31,2.31,0,0,0,.2-.24,3,3,0,0,0,.16-.31,1.08,1.08,0,0,0,.12-.24c0-.08,0-.17.07-.24s0-.15,0-.23a.24.24,0,0,0,0-.09s0,0,0,0a.29.29,0,0,1,0-.09.68.68,0,0,0,0-.21.65.65,0,0,0,0-.2v-.23a.55.55,0,0,0,0-.19v0l.14-77.55-73.45,42.68Z"/><path class="cls-1" d="M52.53,142.23H64.76L44.4,172.92,24,142.23h13.3a40.21,40.21,0,0,1,28-34.37l0-9.76L32.94,45.63.3,60.54,0,200.66a9.77,9.77,0,0,0,4.41,7.68l121.25,70c2.47,1.41,4.46.27,4.47-2.54l.15-77.54-65.1-37.57.1-36.45A25.23,25.23,0,0,0,52.53,142.23Z"/></g></svg>