<svg xmlns="http://www.w3.org/2000/svg" viewBox="0 0 283.46 227.72"><defs><style>.cls-1{fill:#1d1d1b;}</style></defs><title>Clay</title><g id="Stick"><path class="cls-1" d="M284.44,202.83l7.08,1q10.71,1.53,21.45,3,14.05,2,28.09,3.93-.06-31.19-.13-62.4c-.24-.05-.49-.09-.87-.14l-7.07-1q-10.74-1.5-21.46-3l-28.07-3.95q.06,31.2.1,62.41C283.82,202.72,284.07,202.77,284.44,202.83Z"/></g><g id="Clay"><path class="cls-1" d="M115.1,169.08,114.94,225l168-97.67.07-.06,0-.08.09-.13s0-.06,0-.1.08-.27.11-.35a3.61,3.61,0,0,0,.05-.59l.15-54.78Z"/><path class="cls-1" d="M5.16,97.47l103.94,60a13.12,13.12,0,0,1,5.44,7.07L283.36,66.44a9.07,9.07,0,0,0-3.79-5.61L174.56.2A3.35,3.35,0,0,0,172.8.05Z"/><path class="cls-1" d="M.82,100.09c-.59,0-.65,1-.65,1.43L0,160a8.83,8.83,0,0,0,3.89,6.73l105,60.63a2.48,2.48,0,0,0,1.19.4c.58,0,.65-1,.65-1.41l.16-58.44a8.86,8.86,0,0,0-3.9-6.76L2,100.49A2.4,2.4,0,0,0,.82,100.09Z"/></g></svg>