<svg xmlns="http://www.w3.org/2000/svg" viewBox="0 0 283.46 272.46"><defs><style>.cls-1{fill:#1d1d1b;}</style></defs><title>Coal</title><g id="Coal"><path class="cls-1" d="M10.13,62.17l8.92-28a2,2,0,0,0-.9-2.31,2,2,0,0,0-2.45.39l-12.58,14a2,2,0,0,0-.48,1L0,61.21A2,2,0,0,0,2,63.55H8.25A2,2,0,0,0,10.13,62.17Z"/><path class="cls-1" d="M13.86,56.22a2,2,0,0,0,.53,2,2,2,0,0,0,2.06.4L79,34.56l0,0a2,2,0,0,0-.71-3.81h-.11q-19.43,1.1-38.87,2.16C37.19,33,35,33,32.93,33H22.7a2,2,0,0,0-1.88,1.39l-.05.14c0,.11-.07.23-.12.39q-1.86,5.8-3.71,11.62Z"/><path class="cls-1" d="M14.8,66.58a2,2,0,0,0,.56,1.81A82.1,82.1,0,0,1,22,76.06c1.7,2.14,3.47,4.35,5.49,6.63l28.28,31.85L78.49,140.1c1.23,1.39,3,3,5,5,4.15,3.9,9.31,8.76,11.88,13.23a2,2,0,0,0,1.59,1l9.14.55,38.33,2.31,2.19.13,9.1.55,8.34.51,2,.12,19.09,1.15h.12a2,2,0,0,0,1.23-.43l.34-.27,3.28-2.59.13-.12Q212,144,233.74,126.83l.82-.64L256.26,109l5.36-4.25,7-5.54a2,2,0,0,0,.05-3.06l-1.15-1-10.32-8.45-2.47-2-5.38-4.36c-12-9.73-22.42-18.13-31-31.27L212.52,40Q199.83,20.46,187.13.9a2,2,0,0,0-2.36-.77L16,65.13A2,2,0,0,0,14.8,66.58Z"/><path class="cls-1" d="M282.59,164.09q-2.55-16.38-5.09-32.77l-3.86-24.82a2,2,0,0,0-1.22-1.54,2,2,0,0,0-.72-.13,2,2,0,0,0-1.23.42l-72.79,57.58-.09.08-2.2,1.73-3,2.37a5.8,5.8,0,0,1-1.28.84,2,2,0,0,0-1.14,1.93l.27,3.83.2,2.91v0c0,.59.08,1.19.13,1.78,0,.79.11,1.57.16,2.36q2.37,34,4.75,68a2,2,0,0,0,1.33,1.73l17.69,6,45.33,15.29a2,2,0,0,0,2.33-.86c1.1-1.87,2.21-3.73,3.33-5.6l3.11-5.24q2.92-4.92,5.86-9.85c2.8-4.7,3.1-10.76,3.43-17.18.08-1.58.16-3.21.28-4.83.47-6.15,1.36-12.68,2.31-19.6C282.57,193.4,284.71,177.75,282.59,164.09Z"/><path class="cls-1" d="M50.85,221.11l.33,0c3.07-.53,6.41-1.24,9.94-2,8.41-1.78,17.94-3.8,25.86-3.8.7,0,1.38,0,2,.05h.09a2,2,0,0,0,1.36-.54,2,2,0,0,0,.61-1.43V162.88a2,2,0,0,0-2-2,2,2,0,0,0-.81.17c-.46-.61-1-1.34-1.39-2a48.81,48.81,0,0,0-3.3-4.39L69.31,138.66l-6-6.76L38.09,103.51l-21-23.63-3.89-4.39-6-6.76a2,2,0,0,0-1.47-.66h-.6a2,2,0,0,0-1.41.59,1.94,1.94,0,0,0-.56,1.41c0,1.7.07,3.4.11,5.09q.48,22.19,1,44.39l.51,22.23q.32,13.91.63,27.83a16.89,16.89,0,0,1-.19,3.71,2,2,0,0,0,.5,1.8l12.13,12.59,31.59,32.8A2,2,0,0,0,50.85,221.11Z"/><path class="cls-1" d="M67,248.61,45,226.84a3.36,3.36,0,0,0-.27-.36l-.1-.11a1.5,1.5,0,0,0-.26-.21l-2.81-3.08-19-20.7a2,2,0,0,0-1.45-.64,2,2,0,0,0-1.1.33,2,2,0,0,0-.68,2.48q3.08,6.51,6.19,13l3.59,7.55c3.56,7.48,14,16.38,23.15,24.24,3.66,3.13,7.12,6.09,9.89,8.73a2,2,0,0,0,.68.42l13.83,5a2,2,0,0,0,2.06-3.26Z"/><path class="cls-1" d="M232.2,268.62l-40.12-13.51-50.42-17L94.52,222.18a3.15,3.15,0,0,0-.62-.14h0a1.93,1.93,0,0,0-.53-.07l-.28,0c-2.46.36-6,1.13-10.1,2-6.53,1.42-14.66,3.18-21.9,4a2,2,0,0,0-1.2,3.33l13.69,14.22L97,269.94a2.35,2.35,0,0,0,.47.36c1.05.57,2.21.73,10.36.81l14.91.17,13.17.14,47.77.52,47.85.52h0a2,2,0,0,0,.63-3.84Z"/><path class="cls-1" d="M187,211.86l-2.76-39.69a2,2,0,0,0-1.87-1.83l-.39,0-.45,0-.92-.05h-.1a1.83,1.83,0,0,0-.33,0,63.16,63.16,0,0,1-10.72.83c-7.81,0-16.06-1.09-24-2.14-5.77-.76-11.74-1.54-17.37-1.88l-5.21-.31-6.93-.41-10-.61-6.76-.41H99a2,2,0,0,0-2,2v48.07a2,2,0,0,0,1.27,1.84,1.9,1.9,0,0,0,.29.1l47.35,16q20.39,6.87,40.8,13.74a1.88,1.88,0,0,0,.62.11,2,2,0,0,0,2-2.11l-1.17-16.69q-.4-5.88-.82-11.75Z"/></g></svg>