<svg xmlns="http://www.w3.org/2000/svg" viewBox="0 0 283.47 283.46"><defs><style>.cls-1,.cls-2,.cls-3{fill:#1d1d1b;}.cls-2{font-size:35px;font-family:Verdana-Bold, Verdana;font-weight:700;}.cls-3{fill-rule:evenodd;}</style></defs><title>Complexity rating</title><g id="Complexity_rating" data-name="Complexity rating"><path class="cls-1" d="M262.27,283.46H21.19A21.22,21.22,0,0,1,0,262.28V21.19A21.22,21.22,0,0,1,21.19,0H262.27a21.22,21.22,0,0,1,21.2,21.19V262.28A21.22,21.22,0,0,1,262.27,283.46ZM259.79,12.38H23.67A12.42,12.42,0,0,0,11.25,24.81V258.67a12.42,12.42,0,0,0,12.42,12.42H259.79a12.43,12.43,0,0,0,12.43-12.42V24.81A12.43,12.43,0,0,0,259.79,12.38Z"/><text class="cls-2" transform="translate(31.65 243.21)">Complexity</text><text class="cls-2" transform="translate(104.78 199.94)">5/5</text><path class="cls-3" d="M82.68,98.89l21-21c2.54-2.34,7.23-.45,7.44,3.78a13.44,13.44,0,1,0,13.39-13.39c-4.23-.2-6.12-4.9-3.78-7.44l21-21,21,21c2.55,2.34,7.24.45,7.45-3.78a13.44,13.44,0,1,1,13.39,13.39c-4.24.21-6.13,4.9-3.79,7.44l21,21-21,21c-2.35,2.54-.46,7.23,3.77,7.44a13.44,13.44,0,1,1-13.38,13.39c-.21-4.23-4.9-6.13-7.45-3.78l-21,21Z"/></g></svg>