<svg xmlns="http://www.w3.org/2000/svg" viewBox="0 0 99.21 283.46"><defs><style>.cls-1{fill:#1d1d1b;}</style></defs><title>Convert</title><g id="Convert"><path class="cls-1" d="M62.13,279.91q18.18-66.56,36.33-133.13a18.33,18.33,0,0,0,.75-5.05h0a18.28,18.28,0,0,0-.75-5Q80.29,70.11,62.13,3.54A4.74,4.74,0,0,0,57.63,0H4.7A4.18,4.18,0,0,0,1.14,1.76,4.44,4.44,0,0,0,.2,6.11Q1.94,12.53,3.7,19q11.4,41.78,22.79,83.53,4.61,16.85,9.19,33.7.66,2.44,1.34,4.87c0,.08,0,.34-.06.67h0c0,.33,0,.58.06.66q-.68,2.45-1.34,4.87Q31.09,164.12,26.49,181,15.09,222.72,3.7,264.5,1.94,270.92.2,277.35a4.41,4.41,0,0,0,.94,4.34,4.19,4.19,0,0,0,3.56,1.77H57.63A4.74,4.74,0,0,0,62.13,279.91Z"/></g></svg>