<svg xmlns="http://www.w3.org/2000/svg" viewBox="0 0 283.46 186.14"><defs><style>.cls-1{fill:#1d1d1b;}</style></defs><title>Credit</title><g id="Bill"><path class="cls-1" d="M555.14,16.82H295.26a11.81,11.81,0,0,0-11.8,11.79V157.53a11.8,11.8,0,0,0,11.8,11.79H555.14a11.8,11.8,0,0,0,11.79-11.79V28.61A11.8,11.8,0,0,0,555.14,16.82ZM532.8,36a8.4,8.4,0,0,1,4.73-1.71v-2h3.08v2a17.52,17.52,0,0,1,6,1.46L544.81,40a13.9,13.9,0,0,0-5.61-1.4,3.5,3.5,0,0,0-1.67.29.94.94,0,0,0-.49.86,1.05,1.05,0,0,0,.35.81,5.14,5.14,0,0,0,1.21.72c.58.26,1.38.56,2.4.91a11.66,11.66,0,0,1,4.47,2.51,5,5,0,0,1,1.35,3.62,5.49,5.49,0,0,1-1.58,4.07,7.76,7.76,0,0,1-4.63,1.93v2.88h-3.08V54.39a17.61,17.61,0,0,1-6.28-1.46V48A20.9,20.9,0,0,0,535,49.46a13.1,13.1,0,0,0,3.56.59,4.26,4.26,0,0,0,1.85-.31,1.11,1.11,0,0,0,.17-1.85,6.81,6.81,0,0,0-1.42-.78c-.66-.28-1.55-.63-2.67-1a11.83,11.83,0,0,1-3-1.57,5.49,5.49,0,0,1-1.69-2,6.09,6.09,0,0,1-.53-2.68A4.88,4.88,0,0,1,532.8,36ZM305.15,36a8.4,8.4,0,0,1,4.73-1.71v-2H313v2a17.52,17.52,0,0,1,6,1.46L317.16,40a13.9,13.9,0,0,0-5.61-1.4,3.5,3.5,0,0,0-1.67.29.94.94,0,0,0-.49.86,1.05,1.05,0,0,0,.35.81,4.93,4.93,0,0,0,1.21.72c.58.26,1.38.56,2.4.91a11.66,11.66,0,0,1,4.47,2.51,5,5,0,0,1,1.35,3.62,5.49,5.49,0,0,1-1.58,4.07A7.76,7.76,0,0,1,313,54.3v2.88h-3.08V54.39a17.61,17.61,0,0,1-6.28-1.46V48a20.9,20.9,0,0,0,3.75,1.47,13.1,13.1,0,0,0,3.56.59,4.26,4.26,0,0,0,1.85-.31,1.11,1.11,0,0,0,.17-1.85,6.81,6.81,0,0,0-1.42-.78c-.66-.28-1.55-.63-2.67-1a11.83,11.83,0,0,1-3-1.57,5.49,5.49,0,0,1-1.69-2,6.09,6.09,0,0,1-.53-2.68A4.88,4.88,0,0,1,305.15,36Zm12.44,113A7.76,7.76,0,0,1,313,151v2.87h-3.08v-2.78a17.82,17.82,0,0,1-6.28-1.46v-4.95a20.9,20.9,0,0,0,3.75,1.47,13.1,13.1,0,0,0,3.56.59,4.11,4.11,0,0,0,1.85-.31,1.11,1.11,0,0,0,.17-1.85,6.42,6.42,0,0,0-1.42-.77q-1-.44-2.67-1.05a11.53,11.53,0,0,1-3-1.57,5.49,5.49,0,0,1-1.69-1.95,6.09,6.09,0,0,1-.53-2.68,4.84,4.84,0,0,1,1.58-3.84,8.33,8.33,0,0,1,4.73-1.72v-2H313v2a17.27,17.27,0,0,1,6,1.45l-1.77,4.25a13.74,13.74,0,0,0-5.61-1.4,3.38,3.38,0,0,0-1.67.29.92.92,0,0,0-.49.85,1.09,1.09,0,0,0,.35.82A5,5,0,0,0,311,138c.58.26,1.38.57,2.4.91a11.66,11.66,0,0,1,4.47,2.51,5,5,0,0,1,1.35,3.63A5.48,5.48,0,0,1,317.59,149.06Zm227.65,1.06a8.4,8.4,0,0,1-4.73,1.71v2h-3.08v-2a17.58,17.58,0,0,1-6-1.46l1.77-4.24a14,14,0,0,0,5.61,1.4,3.52,3.52,0,0,0,1.68-.29,1,1,0,0,0,.48-.86,1,1,0,0,0-.35-.81,5,5,0,0,0-1.21-.71c-.58-.27-1.38-.57-2.4-.92a11.47,11.47,0,0,1-4.46-2.51,5,5,0,0,1-1.36-3.62,5.47,5.47,0,0,1,1.59-4.07,7.7,7.7,0,0,1,4.62-1.93V129h3.08v2.78a17.56,17.56,0,0,1,6.28,1.46v4.94a21.68,21.68,0,0,0-3.75-1.47,13,13,0,0,0-3.56-.58,4.28,4.28,0,0,0-1.85.3,1.06,1.06,0,0,0-.59,1,1,1,0,0,0,.43.83,6.42,6.42,0,0,0,1.41.78c.66.29,1.55.63,2.67,1a12.15,12.15,0,0,1,3.05,1.57,5.39,5.39,0,0,1,1.69,2,6,6,0,0,1,.53,2.69A4.84,4.84,0,0,1,545.24,150.12Zm13.83-36.43c-1.3-.11-2.61-.18-3.93-.18a44,44,0,0,0-44,44c0,1.33.07,2.64.19,3.93H339.09c.12-1.29.19-2.6.19-3.93a44,44,0,0,0-44-44c-1.33,0-2.64.07-3.93.18V72.45c1.29.11,2.6.18,3.93.18a44,44,0,0,0,44-44c0-1.33-.07-2.64-.19-3.93H511.3c-.12,1.29-.19,2.6-.19,3.93a44,44,0,0,0,44,44c1.32,0,2.63-.07,3.93-.18Z"/></g><g id="Credit"><path class="cls-1" d="M277.75,55.06,222.43,4.58A17.49,17.49,0,0,0,210.62,0H17.53A17.54,17.54,0,0,0,0,17.53V168.62a17.54,17.54,0,0,0,17.53,17.52H265.94a17.54,17.54,0,0,0,17.52-17.52V68A17.55,17.55,0,0,0,277.75,55.06ZM257.17,159.85H26.29V26.29H207.22l50,45.58Z"/><path class="cls-1" d="M150.62,81.61q-6.88-2.34-10.76-4.1a22.47,22.47,0,0,1-5.45-3.22,4.71,4.71,0,0,1-1.56-3.63A4.22,4.22,0,0,1,135,66.81c1.45-.86,4-1.3,7.53-1.3q11.22,0,25.18,6.28l7.95-19a78.51,78.51,0,0,0-26.79-6.55v-9H135.05v9.16Q120.89,47.8,113.8,54t-7.08,17.24a27.37,27.37,0,0,0,2.37,12.06,24.72,24.72,0,0,0,7.58,8.75,54.28,54.28,0,0,0,13.7,7.05c5,1.82,9,3.38,12,4.67a29.26,29.26,0,0,1,6.34,3.48,4.66,4.66,0,0,1,1.91,3.74,4.75,4.75,0,0,1-2.64,4.58q-2.64,1.36-8.32,1.37a58.26,58.26,0,0,1-16-2.64,97,97,0,0,1-16.84-6.58v22.18a79.62,79.62,0,0,0,28.2,6.55V149h13.83v-12.9q13.63-1.67,20.75-8.68t7.12-18.24q0-10-6.09-16.27T150.62,81.61Z"/></g></svg>