<svg xmlns="http://www.w3.org/2000/svg" viewBox="0 0 132.81 283.46"><defs><style>.cls-1{fill:#1d1d1b;fill-rule:evenodd;}</style></defs><title>Cross</title><g id="Cross"><path class="cls-1" d="M55.42,127.06c-.86-.94-1.7-1.89-2.56-2.81-8.32-9.06-17-17.93-24.89-27.33C19.07,86.43,13.83,74,11.42,60.45c-2.06-11.33-1.5-22.51,4.33-32.82C25.3,10.7,40.51,2,59.26.3A63.12,63.12,0,0,1,107,15.21a40.47,40.47,0,0,1,14.33,27.05c2,17.36-2.8,33.46-12.18,48A167.4,167.4,0,0,1,79.77,124a34.06,34.06,0,0,0-2.42,2.53c.12.23.23.5.35.73,3.85-.21,7.74-.15,11.52-.65,11.76-1.53,22.49-6,32.58-12,2.23-1.31,3.56-1,4.45,1.23a121.37,121.37,0,0,1,4.65,12.3,55.25,55.25,0,0,1,.72,25.86c-.75,3.81-1.7,4.42-5.37,3.81-14-2.37-28-4.79-42-7.16-5.5-.95-5.47-.95-4.72,4.83,1.89,15,3.82,29.93,5.68,44.88q3.16,25.15,6.23,50.36c1.1,9.08,2.11,18.24,3.24,27.38.22,1.83-.3,2.8-2.26,3-7.54.81-15.08,2.35-22.62,2.35-9.36-.06-18.75-1.34-28.1-2.12-2.25-.19-3.06-1.34-2.76-3.65.67-4.42,1.13-8.88,1.65-13.35,2-17.32,4-34.7,6.21-52,2.4-19.92,4.92-39.8,7.39-59.67.28-2.24-.52-3-2.67-2.57-.58.12-1.13.29-1.7.41-13.65,2.57-27.29,5-40.87,7.75-6,1.23-6.3,1.25-7.6-4.78a53.63,53.63,0,0,1,4.11-35.35c2.41-5.19,2.34-5.28,7.5-2.62,10.52,5.33,21.4,9.65,33.05,11.68,3,.51,6,.67,8.93,1C55.11,127.76,55.24,127.42,55.42,127.06Zm31-87.51c-2.31-2.39-5-3.51-7.7-4.59a32.27,32.27,0,0,0-27.39.83c-8.72,4.35-11.73,11-9.47,20.53A47.6,47.6,0,0,0,52,76c3.57,4.26,7.47,8.22,11.18,12.37,1.6,1.78,3.32,1.69,5,.26,9.26-7.87,17.11-16.79,21.31-28.47a32.21,32.21,0,0,0,1.18-4.29C91,54.45,91,53,91.15,52,91,47.07,89.81,43.06,86.42,39.55Z"/></g></svg>