<svg xmlns="http://www.w3.org/2000/svg" viewBox="0 0 242.68 278.94"><defs><style>.cls-1{fill:#1d1d1b;}</style></defs><title>Cube move</title><g id="Cube_move" data-name="Cube move"><polygon class="cls-1" points="148.88 126.85 161.44 139.45 125.08 175.86 123.22 173.98 123.22 278.94 242.68 210.59 242.68 72.72 148.88 126.85"/><polygon class="cls-1" points="123.22 148.59 132.36 139.45 130.42 137.5 123.22 141.66 123.22 148.59"/><polygon class="cls-1" points="118.85 152.96 118.85 141.66 117.8 141.05 92.14 166.74 81.24 155.84 97.6 139.45 81.25 123.11 83.31 121.05 0 72.73 0 210.6 118.85 278.94 118.85 169.6 110.54 161.27 118.85 152.96"/><polygon class="cls-1" points="113.43 133.47 121.03 137.88 127.22 134.31 110.54 117.64 125.09 103.08 145.66 123.67 240.49 68.94 121.03 0 2.17 68.94 86.5 117.85 92.16 112.19 113.43 133.47"/></g></svg>