<svg xmlns="http://www.w3.org/2000/svg" viewBox="0 0 242.68 278.94"><defs><style>.cls-1{fill:#1d1d1b;}</style></defs><title>Cube place</title><g id="Cube_place" data-name="Cube place"><path class="cls-1" d="M136.37,134.07a196.3,196.3,0,0,0,14.87,25.16,86.4,86.4,0,0,0-10.34,7.93,20.49,20.49,0,0,0-17.68-14.68v6.9a13.73,13.73,0,0,1,0,27.18v92.38l119.46-68.35V72.72Z"/><path class="cls-1" d="M107.65,173a13.72,13.72,0,0,1,11.2-13.5v-6.91a20.4,20.4,0,0,0-17.07,14.6,91.47,91.47,0,0,0-10.34-7.93,196.38,196.38,0,0,0,14.74-24.92L0,72.73V210.6l118.85,68.34V186.47A13.71,13.71,0,0,1,107.65,173Z"/><path class="cls-1" d="M134.48,130.12l106-61.18L121,0,2.17,68.94l105.91,61.43a199.81,199.81,0,0,0,13.24-38.14A197.92,197.92,0,0,0,134.48,130.12Z"/></g></svg>