<svg xmlns="http://www.w3.org/2000/svg" viewBox="0 0 242.68 278.94"><defs><style>.cls-1{fill:#1d1d1b;}</style></defs><title>Cube add</title><g id="Cube_add" data-name="Cube add"><path class="cls-1" d="M158.25,121.44h10.91a5,5,0,0,1,5,5v26a5,5,0,0,1-5,5H141.61V185a5,5,0,0,1-5,5H123.22v88.92l119.46-68.35V72.72Z"/><path class="cls-1" d="M105.6,185V157.48H78a5,5,0,0,1-5-5v-26a5,5,0,0,1,5-5h6L0,72.72V210.6l118.85,68.34V190H110.6A5,5,0,0,1,105.6,185Z"/><path class="cls-1" d="M105.6,93.91a5,5,0,0,1,5-5h26a5,5,0,0,1,5,5v27.53h7.9l91-52.5L121,0,2.17,68.94l90.52,52.5H105.6Z"/></g></svg>