<svg xmlns="http://www.w3.org/2000/svg" viewBox="0 0 242.68 278.94"><defs><style>.cls-1{fill:#1d1d1b;}</style></defs><title>Cube return</title><g id="Cube_return" data-name="Cube return"><path class="cls-1" d="M159.15,120.93a40.1,40.1,0,0,1,6.25,39.83l-14.9-3.7a24.73,24.73,0,0,0-4.7-28.43l-22.58,13V278.94l119.46-68.35V72.72Z"/><path class="cls-1" d="M115.29,142.23,94.93,172.92,74.55,142.23h13.3a40,40,0,0,1,4.94-15.68L0,72.73V210.6l118.85,68.34V141.66l-13-7.53a25.07,25.07,0,0,0-2.81,8.1Z"/><path class="cls-1" d="M108.32,130.5,121,137.88l21.22-12.25a25.05,25.05,0,0,0-33.93,4.87Z"/><path class="cls-1" d="M127.9,106a40.12,40.12,0,0,1,28.25,11.6l84.34-48.68L121,0,2.17,68.94l93,53.92A40.19,40.19,0,0,1,127.9,106Z"/></g></svg>