<svg xmlns="http://www.w3.org/2000/svg" viewBox="0 0 249.46 283.46"><defs><style>.cls-1{fill:#1d1d1b;}</style></defs><title>Cube</title><g id="Cube"><path class="cls-1" d="M248,78.24a2.95,2.95,0,0,0-2.93,0L129.33,145a3,3,0,0,0-1.46,2.55v133a2.94,2.94,0,0,0,1.46,2.54,3,3,0,0,0,1.47.39,2.89,2.89,0,0,0,1.46-.38L248,216.88a2.94,2.94,0,0,0,1.48-2.55V80.79A3,3,0,0,0,248,78.24Z"/><path class="cls-1" d="M119.48,145,4.41,78.28a2.85,2.85,0,0,0-1.47-.4A2.93,2.93,0,0,0,0,80.82V214.34a2.92,2.92,0,0,0,1.47,2.54l115.08,66.17a2.9,2.9,0,0,0,1.46.39A2.93,2.93,0,0,0,121,280.5V147.56A2.94,2.94,0,0,0,119.48,145Z"/><path class="cls-1" d="M243.06,69.72a3,3,0,0,0-1.47-2.55L125.88.39A2.94,2.94,0,0,0,124.41,0a2.9,2.9,0,0,0-1.47.4L7.82,67.18a2.93,2.93,0,0,0,0,5.08L122.94,139a3,3,0,0,0,1.47.39,2.94,2.94,0,0,0,1.47-.39L241.59,72.26A2.92,2.92,0,0,0,243.06,69.72Z"/></g></svg>