<svg xmlns="http://www.w3.org/2000/svg" viewBox="0 0 242.68 278.94"><defs><style>.cls-1{fill:#1d1d1b;}</style></defs><title>Cube minus</title><g id="Cube_minus" data-name="Cube minus"><path class="cls-1" d="M158.24,121.45h10.92a5,5,0,0,1,5,5v26a5,5,0,0,1-5,5H123.22V278.94l119.46-68.35V72.72Z"/><path class="cls-1" d="M73,152.49v-26a5,5,0,0,1,5-5h6L0,72.72V210.6l118.85,68.34V157.49H78A5,5,0,0,1,73,152.49Z"/><polygon class="cls-1" points="240.49 68.94 121.03 0 2.17 68.94 92.7 121.45 149.5 121.45 240.49 68.94"/></g></svg>