<svg xmlns="http://www.w3.org/2000/svg" viewBox="0 0 193.67 283.46"><defs><style>.cls-1{fill:#1d1d1b;}</style></defs><title>Cylinder</title><g id="Cylinder"><path class="cls-1" d="M169.54,98.76c-19.35,11.27-45.07,17.47-72.42,17.47S44,110,24.54,98.77C13.59,92.44,5.3,84.92,0,76.65V228.52c0,14.37,10,28,28,38.45,18.45,10.64,43,16.49,69.12,16.49s50.72-5.88,69.07-16.57c17.76-10.31,27.53-23.85,27.52-38.12,0-.09,0-.17,0-.25h0V77C188.43,85.09,180.29,92.51,169.54,98.76Z"/><path class="cls-1" d="M165.71,16.55C147.26,5.88,122.69,0,96.54,0s-50.66,5.88-69,16.54C9.77,26.88,0,40.43,0,54.7S10.05,82.51,28,92.85c18.46,10.67,43,16.55,69.17,16.55s50.66-5.88,69-16.55C183.89,82.52,193.68,69,193.66,54.7S183.61,26.88,165.71,16.55Z"/></g></svg>