<svg xmlns="http://www.w3.org/2000/svg" viewBox="0 0 283.46 281.41"><defs><style>.cls-1{fill:#1d1d1b;}</style></defs><title>Dagger</title><g id="Dagger"><path class="cls-1" d="M3.89,277.54a13.3,13.3,0,1,0,0-18.79A13.25,13.25,0,0,0,3.89,277.54ZM17.48,264a5.91,5.91,0,1,1-8.37,0A5.91,5.91,0,0,1,17.48,264Z"/><path class="cls-1" d="M50.86,218.6l.26.26a5.24,5.24,0,0,0-.88.83L26.18,243.75a8.46,8.46,0,0,0-.12,12.07,8.63,8.63,0,0,0,12.2,0l24.07-24.07a7.78,7.78,0,0,0,.78-.94l.21.24a8.38,8.38,0,0,0,11.84-11.86L62.72,206.73A8.39,8.39,0,0,0,50.86,218.6Z"/><path class="cls-1" d="M36.54,170.77l.05,0a4,4,0,0,0,1,1.79l71.86,71.78a4.39,4.39,0,0,0,4.2,1.33,4.19,4.19,0,0,0,.69.81,6.15,6.15,0,0,0,8.7,0l1-1a6.16,6.16,0,1,0-8.71-8.72l-.18.18-19-19A5.66,5.66,0,0,0,99,216.46a4.93,4.93,0,0,0,0-6.94l-24-23.92a4.94,4.94,0,0,0-7,0,4.6,4.6,0,0,0-1.35,2.81L47.29,169l.35-.36a6.37,6.37,0,1,0-9-9l-2.1,2.09A6.37,6.37,0,0,0,36.54,170.77Z"/><path class="cls-1" d="M110,138.33c0,.23.63,23.31-12.1,26.74-.56,0-13.77.87-21.78,11a1.08,1.08,0,0,0-.2.83,1,1,0,0,0,.47.71,130.16,130.16,0,0,1,16.31,12.83,1,1,0,0,0,1.45,0L183,104.17,96.69,193.11a1.06,1.06,0,0,0,0,1.45c4.12,4.42,6.95,8.57,8.4,12.34a1.09,1.09,0,0,0,.65.63,1.14,1.14,0,0,0,.9-.11c.31-.21,8.05-5.21,11.93-18.18.07-.17,7.26-16.37,19.4-15.3a16.45,16.45,0,0,1,6.66,2.18,1,1,0,0,0,1.19-.12,1,1,0,0,0,.31-1.15c0-.11-3.48-10.14,3.25-15.64C268.4,34.6,277.17,24.28,283.43,1.33a1.06,1.06,0,0,0-.28-1,.08.08,0,0,0,0,0A1.06,1.06,0,0,0,282,.07c-.37.15-37.36,15.06-60.12,40.75l-95.33,93.32c-.07.05-5.9,4.64-11.76,4.14a9.21,9.21,0,0,1-3.31-.93,1,1,0,0,0-1,.06A1.06,1.06,0,0,0,110,138.33Z"/></g></svg>