<svg xmlns="http://www.w3.org/2000/svg" viewBox="0 0 250.12 283.46"><defs><style>.cls-1{fill:#1d1d1b;}</style></defs><title>Death hex</title><g id="Death_hex" data-name="Death hex"><path class="cls-1" d="M106.69,126.75c-4.17-2.5-9.27-3.11-14-3.17-1.59,0-3.17.06-4.66.12-12.75.55-14.2,21.23-1.2,25,9.92,2.88,19.72.9,25.92-6C117.79,136.92,118.4,133.56,106.69,126.75Z"/><path class="cls-1" d="M128.26,146.81a2.72,2.72,0,0,0-2.76-1.26,2.06,2.06,0,0,0-.37,0H125a2.55,2.55,0,0,0-.41,0,2.75,2.75,0,0,0-2.76,1.26c.1-.17-6.82,11.74-7.47,13.22-2.14,5.72,4.34,4.41,5.44,2.91,1.59-1.38,1.31-4.36,4.79-4.32h.89c3.45,0,3.21,2.94,4.8,4.32,1.1,1.5,7.58,2.81,5.44-2.91C135.09,158.55,128.16,146.64,128.26,146.81Z"/><path class="cls-1" d="M162.11,123.7c-1.52-.06-3.07-.14-4.66-.12-4.78.06-9.85.67-14,3.17-11.72,6.81-11.1,10.17-6,16,6.17,6.94,16,8.92,25.92,6C176.31,144.93,174.9,124.25,162.11,123.7Z"/><path class="cls-1" d="M249.33,71h0v0a5.78,5.78,0,0,0-2.25-2.17L127.74.78a6.1,6.1,0,0,0-6,0L3,68.82A6.05,6.05,0,0,0,.83,70.94v0l0,.08v0A5.89,5.89,0,0,0,0,74V210.1a5.9,5.9,0,0,0,3,5.1l118.72,67.44a5.88,5.88,0,0,0,3,.82h.06a6,6,0,0,0,3-.82L247.13,215.2a5.92,5.92,0,0,0,3-5.1V74A5.86,5.86,0,0,0,249.33,71Zm-85.42,113a37.86,37.86,0,0,1-1.59,8.75c-.83,2.59-.66,6.81-.66,9.33,0,10.39-1.83,12.27-9.06,12.58l-10.24,3.89c-9.68,2.22-9,6.5-16.86,6.5h-.89c-7.83,0-7.14-4.28-16.86-6.5l-10.23-3.89c-7.24-.31-9.1-2.19-9.06-12.58,0-2.52.17-6.74-.66-9.33a34.93,34.93,0,0,1-1.59-8.75c-.31-4.34.42-5.94,1.39-6s2.61,1.86,3.55,4.12c.82,2.08.75,6,1.82,8.23,3.14,3.14,4,5.88,5.76,3,1.69.62,4.09-.14,5.34,1.38.51.53-.07,2.61.79,3.58l2.89.15c.45-4.75,4.18-3.39,5.07-.77l2.38-.31c2.17-4.64,6.06-1.65,7.41.48l2.41-.17h.07l2.41.17c1.35-2.13,5.24-5.12,7.38-.48l2.42.31c.92-2.62,4.62-4,5.06.77l2.9-.15c.86-1,.27-3.05.79-3.58,1.24-1.52,3.65-.76,5.34-1.38,1.79,2.86,2.62.12,5.72-3,1.11-2.24,1-6.15,1.86-8.23.9-2.26,2.45-4.18,3.56-4.12C163.49,178.11,164.21,179.71,163.91,184.05Zm22.88-51c-4.65,3-6,8.77-7.58,12.64-2.18,5.42,4.34,17.21,4.24,21.77-.14,5.91-1.07,9.15-4.72,9.63s-7.52,0-8.18-1.46-17.13-1.67-16.89,6c1.87,3.33,1.07,5.71-2.27,5.71-.82,0-1-2-1.31-4.2-.48-3.4-2.93-2.92-2.93-2a12.89,12.89,0,0,0-.34,4.38c.06,1.13,1.2,2,.93,3.25.48,2-1.69,1.41-3.07,2.24-1.86,1.07-2.69,2.26-4.83,1.93-1-.14-.48-4.51-1-6.2s-4-1.67-4.2.29c-.11,1.66.41,2.83,0,3.67-1.45,3.59-5.2,2.1-6.41.66-.66-.83-.76-5.52-1.14-6-.58-.79-1.72-1.38-2-1.19H125c-.24-.19-1.42.4-2,1.19-.42.48-.52,5.17-1.17,6-1.21,1.44-5,2.93-6.42-.66-.37-.84.14-2,0-3.67-.17-2-3.54-1.88-4.16-.29s-.07,6.06-1,6.2c-2.13.33-3-.86-4.82-1.93-1.38-.83-3.56-.21-3.07-2.24-.28-1.26.86-2.12.93-3.25a13.18,13.18,0,0,0-.34-4.38c0-.9-2.45-1.38-2.93,2-.32,2.17-.49,4.2-1.31,4.2-3.35,0-4.14-2.38-2.31-5.71.27-7.68-16.17-7.41-16.86-6s-4.41,1.86-8.13,1.46-4.62-3.72-4.76-9.63c-.1-4.56,6.41-16.35,4.24-21.77-1.62-3.87-2.9-9.63-7.59-12.64-2.92-7.69-7.33-28-2.82-39,10.55-25.33,36.09-35.88,61.8-35.72h0c.89,0,1.8.07,2.69.1h.11c.86,0,1.75-.09,2.65-.1h0c25.72-.16,51.26,10.39,61.8,35.72C194.13,105,189.72,125.37,186.79,133.06Z"/></g></svg>