<svg xmlns="http://www.w3.org/2000/svg" viewBox="0 0 226.09 283.46"><defs><style>.cls-1{fill:#1d1d1b;}</style></defs><title>Death</title><g id="Death"><path class="cls-1" d="M179.09,213.68a64.25,64.25,0,0,1-2.7,14.88c-1.41,4.39-1.12,11.57-1.12,15.85.07,17.67-3.1,20.86-15.41,21.39l-17.4,6.62c-16.46,3.78-15.35,11-28.66,11h-1.52c-13.31,0-12.13-7.26-28.65-11l-17.4-6.62c-12.31-.53-15.47-3.72-15.41-21.39,0-4.28.29-11.46-1.12-15.85A58.49,58.49,0,0,1,47,213.68c-.54-7.38.7-10.11,2.35-10.23,1.87-.09,4.44,3.17,6,7,1.41,3.54,1.28,10.19,3.1,14,5.33,5.33,6.74,10,9.79,5.12,2.87,1.06,7-.23,9.08,2.35.87.91-.12,4.45,1.35,6.09l4.92.26c.76-8.08,7.09-5.76,8.61-1.31l4.05-.53c3.68-7.88,10.3-2.81,12.6.82L113,237h.13l4.09.29c2.29-3.63,8.91-8.7,12.54-.82l4.11.53c1.58-4.45,7.86-6.77,8.61,1.31l4.93-.26c1.46-1.64.47-5.18,1.34-6.09,2.11-2.58,6.22-1.29,9.08-2.35,3.05,4.87,4.46.21,9.73-5.12,1.88-3.81,1.76-10.46,3.17-14,1.52-3.84,4.15-7.1,6-7C178.38,203.57,179.61,206.3,179.09,213.68Z"/><path class="cls-1" d="M222.79,60.74C204.87,17.67,161.45-.26,117.73,0h-.06c-1.52,0-3,.12-4.51.17H113c-1.51-.05-3-.14-4.57-.17h-.06C64.64-.26,21.22,17.67,3.29,60.74c-7.67,18.57-.18,53.17,4.8,66.24,8,5.13,10.14,14.91,12.9,21.51,3.68,9.19-7.38,29.24-7.21,37,.24,10,1.82,15.55,8.08,16.38,6.34.67,12.73,0,13.83-2.49s29.13-2.85,28.67,10.22c-3.11,5.66-1.76,9.7,3.92,9.7,1.4,0,1.69-3.45,2.22-7.14.83-5.78,5-5,5-3.43a21.89,21.89,0,0,1,.59,7.44c-.11,1.93-2.06,3.4-1.58,5.53-.83,3.46,2.87,2.4,5.21,3.81,3.17,1.82,4.57,3.84,8.2,3.28,1.65-.23.83-7.67,1.77-10.54,1-2.7,6.79-2.84,7.08.5.23,2.81-.64,4.8,0,6.23,2.47,6.1,8.86,3.58,10.9,1.12,1.11-1.41,1.29-9.38,2-10.2.93-1.34,2.94-2.34,3.34-2h.18c.41-.32,2.35.68,3.34,2,.65.82.82,8.79,1.94,10.2,2,2.46,8.44,5,10.89-1.12.65-1.43-.23-3.42-.05-6.23.35-3.34,6.15-3.2,7.15-.5.93,2.87.11,10.31,1.75,10.54,3.64.56,5-1.46,8.21-3.28,2.34-1.41,6-.35,5.22-3.81.46-2.13-1.48-3.6-1.59-5.53a21.89,21.89,0,0,1,.59-7.44c0-1.53,4.16-2.35,5,3.43.53,3.69.82,7.14,2.22,7.14,5.69,0,7-4,3.86-9.7-.4-13.07,27.55-12.6,28.71-10.22s7.46,3.16,13.91,2.49c6.21-.83,7.79-6.33,8-16.38.18-7.76-10.9-27.81-7.2-37,2.75-6.6,5-16.38,12.89-21.51C223,113.91,230.48,79.31,222.79,60.74ZM92.06,143.39C81.52,155.19,64.88,158.56,48,153.67c-22.1-6.5-19.64-41.66,2-42.6,2.52-.09,5.22-.23,7.91-.21,8.09.12,16.77,1.15,23.85,5.39C101.73,127.83,100.68,133.54,92.06,143.39ZM122,177.78c-2.69-2.34-2.28-7.41-8.15-7.35h-1.52c-5.92-.06-5.44,5-8.15,7.35-1.87,2.56-12.88,4.78-9.25-4.94,1.11-2.52,12.88-22.77,12.71-22.48,1.47-2,2.58-2.14,4.69-2.14a4.94,4.94,0,0,1,.7,0h.18a4.16,4.16,0,0,1,.64,0c2.17,0,3.23.18,4.7,2.14-.18-.29,11.6,20,12.71,22.48C134.85,182.56,123.83,180.34,122,177.78Zm56.14-24.11c-16.88,4.89-33.58,1.52-44.06-10.28-8.62-9.85-9.68-15.56,10.25-27.14,7.08-4.24,15.71-5.27,23.84-5.39,2.7,0,5.34.12,7.92.21C197.78,112,200.18,147.17,178.09,153.67Z"/></g></svg>