<svg xmlns="http://www.w3.org/2000/svg" viewBox="0 0 209.45 283.46"><defs><style>.cls-1{fill:#1d1d1b;}</style></defs><title>Deck</title><g id="Deck"><path class="cls-1" d="M203.18,24.37V260.14a17.08,17.08,0,0,1-17.06,17.06H24.37a11.82,11.82,0,0,0,10.44,6.26h162.8a11.84,11.84,0,0,0,11.84-11.84V34.81A11.83,11.83,0,0,0,203.18,24.37Z"/><path class="cls-1" d="M191.7,12.88V248.65a17.08,17.08,0,0,1-17.06,17.06H12.88A11.83,11.83,0,0,0,23.33,272H186.12A11.84,11.84,0,0,0,198,260.14V23.32A11.84,11.84,0,0,0,191.7,12.88Z"/><path class="cls-1" d="M174.64,0a11.83,11.83,0,0,1,11.83,11.84V248.65a11.83,11.83,0,0,1-11.83,11.84H11.84A11.84,11.84,0,0,1,0,248.65V11.84A11.84,11.84,0,0,1,11.84,0h162.8"/></g></svg>