<svg xmlns="http://www.w3.org/2000/svg" viewBox="0 0 283.46 83.77"><defs><style>.cls-1{fill:#1d1d1b;}</style></defs><title>Desert</title><g id="Water"><path class="cls-1" d="M347.47,134.29c-22.81,0-43.06-9-61.9-27.65l-2.11-2.08V70.49l12.13,12c16,15.82,33,23.53,51.89,23.53,24.25,0,48.69-12.08,74.57-24.85,26.2-12.94,53.28-26.32,80.88-26.32,22.81,0,43.05,9,61.88,27.64l2.12,2.08v34.07l-12.13-12c-16-15.82-33-23.52-51.89-23.52-24.26,0-48.68,12.08-74.57,24.84-26.2,13-53.29,26.33-80.86,26.33Z"/><path class="cls-1" d="M347.46,81.64c-22.8,0-43-9-61.89-27.65l-2.11-2.09V17.82l12.13,12c16,15.85,33,23.53,51.89,23.53,24.25,0,48.68-12.06,74.56-24.84,26.2-12.95,53.29-26.32,80.87-26.32,22.83,0,43.07,9,61.9,27.63l2.12,2.1V66L554.8,54c-16-15.84-33-23.53-51.89-23.53-24.26,0-48.69,12.07-74.57,24.85-26.2,12.93-53.29,26.31-80.86,26.33Z"/><path class="cls-1" d="M347.47,29c-22.81,0-43.06-9-61.9-27.63L283.46-.76V-34.84l12.13,12C311.62-7,328.59.66,347.48.66c24.25,0,48.68-12.08,74.56-24.85,26.21-12.93,53.29-26.33,80.87-26.33,22.83,0,43.07,9.05,61.9,27.66l2.12,2.08V13.3l-12.13-12c-16-15.82-33-23.53-51.89-23.53-24.26,0-48.68,12.06-74.57,24.84C402.14,15.58,375.05,29,347.48,29Z"/></g><g id="Desert"><path class="cls-1" d="M282.14,83.77H.76A13,13,0,0,1,8.42,67.23C41,55.12,70.88,38.63,100.82,21.17c16.85-9.84,34.52-20,54.44-21.07a15.06,15.06,0,0,1,2.05-.1,13.12,13.12,0,0,1,2.48.2C179.29,1.89,193,16,206.33,29.28c19.81,19.61,40.32,33.63,68.46,38C283.28,68.54,285.11,77.26,282.14,83.77ZM19.87,75.41H170.41c-9.92-8.69-21.52-18.52-23.68-27.47-2.26-9.34,3.8-19.63,13.33-35.87C135.49,12.07,76.14,47.75,19.87,75.41Z"/></g><g id="Hills"><path id="Country" class="cls-1" d="M-130-30.17A130.62,130.62,0,0,0-222.84,9c-1.21,1.23-2.66,3.55-4.24,4.23-1.85.84-3.69,1.72-5.51,2.68a97.7,97.7,0,0,0-10,6.05,95.84,95.84,0,0,0-17.34,15.47A94.94,94.94,0,0,0-281.14,78.9a101.2,101.2,0,0,0-2.32,22.36c0,6.93,8,10.47,13.73,11.76a53.91,53.91,0,0,0,12.28.9H-43.29c7.15,0,14.3,0,21.45,0,7,0,16.66-1.82,20.64-8.36C.17,103.33,0,100.91,0,98.41q0-5.8-.62-11.56a129.35,129.35,0,0,0-12-42.91A131.31,131.31,0,0,0-72.94-17,129.73,129.73,0,0,0-130-30.17Zm-128.59,130a69.94,69.94,0,0,1,21.19-50,70.37,70.37,0,0,1,53.24-19.65A69.58,69.58,0,0,1-148.8,42.59a71.76,71.76,0,0,0-26.87,40.35,73,73,0,0,0-1.9,12.66c0,.37-.15,4.2-.15,4.2h-80.86Zm105.78,0A46.66,46.66,0,0,1-131,60.56a46.56,46.56,0,0,1,48-.67A46.69,46.69,0,0,1-60.34,95.64a41.23,41.23,0,0,1,.2,4.16H-152.8Zm117.52,0A71.94,71.94,0,0,0-82.9,32.61a71.32,71.32,0,0,0-21.25-4,71.71,71.71,0,0,0-14,.92c-1.19.2-2.37.41-3.56.69-.58.11-1.17.25-1.73.39-.81.19-.81,0-1.37-.57-1.55-1.43-3.17-2.81-4.81-4.12A94.61,94.61,0,0,0-176.94,5.83,105.58,105.58,0,0,1-79.52,7.65,106.09,106.09,0,0,1-27.78,75.3a104.8,104.8,0,0,1,2.89,24.5Z"/></g></svg>