<svg xmlns="http://www.w3.org/2000/svg" viewBox="0 0 283.46 283.46"><defs><style>.cls-1{fill:#1d1d1b;}</style></defs><title>Designer</title><g id="Artist"><path class="cls-1" d="M313.37,271.84s-24.6,7.52-27.17,1.36c-15.47,9.75,39.05,12.51,55.72,8.47,25.53-7,55.48-22.09,80.12-4.42L425.9,280l4.12,2.29C403.3,243,348.82,251,313.37,271.84Z"/></g><g id="Designer"><path class="cls-1" d="M26.76,99.65,0,89.22A100.16,100.16,0,0,1,9.36,56.45l28.22,5.23A72.41,72.41,0,0,1,48.5,48L36.94,21.66A101.65,101.65,0,0,1,66.76,5.12L83,28.77a72.84,72.84,0,0,1,17.44-2L110.9,0a102.34,102.34,0,0,1,16.74,3.24v0a99.31,99.31,0,0,1,16,6.08L138.36,37.6a72.64,72.64,0,0,1,13.75,10.88L178.42,37A100.8,100.8,0,0,1,195,66.76l-5.67,3.89c-2.17-.12-4.33-.28-6.5-.28h0a114.8,114.8,0,0,0-19,1.62l-8.94,1.51-.84,9-2,21c-1.19.45-2.38.94-3.53,1.44l-10.43-8.61a38.28,38.28,0,1,0-48.6,40.59,39.29,39.29,0,0,0,6.84,1.21l8.59,10.37c-.5,1.17-1,2.38-1.46,3.56l-20.92,2-9,.86L72,163.81a115.06,115.06,0,0,0-1.64,19.05,113.27,113.27,0,0,0,.94,13.53,103.71,103.71,0,0,1-14.84-5.62l5.25-28.27A72.39,72.39,0,0,1,48,151.59L21.64,163.11a101.27,101.27,0,0,1-16.5-29.77l23.63-16.25A70.88,70.88,0,0,1,26.76,99.65Z"/><path class="cls-1" d="M182.82,82.19a101.84,101.84,0,0,1,17,1.47l2.69,28.63A73.51,73.51,0,0,1,218.78,119l22.1-18.26A100.61,100.61,0,0,1,265,124.77L246.69,146.9a73.62,73.62,0,0,1,6.73,16.21L282,165.83a100.05,100.05,0,0,1,0,34.06l-28.58,2.69a72.82,72.82,0,0,1-6.73,16.21L265,240.92A101.13,101.13,0,0,1,240.92,265l-22.14-18.32a73.09,73.09,0,0,1-16.24,6.73L199.85,282a102.65,102.65,0,0,1-34,0l-2.71-28.62a72.12,72.12,0,0,1-16.19-6.73L124.75,265a101.09,101.09,0,0,1-24-24.09L119,218.79a72.09,72.09,0,0,1-6.72-16.19l-28.58-2.71a100.05,100.05,0,0,1,0-34.06l28.56-2.72A73.64,73.64,0,0,1,119,146.9l-18.32-22.13a101.47,101.47,0,0,1,24.14-24.08L146.92,119a73,73,0,0,1,16.19-6.7l2.71-28.61a101.3,101.3,0,0,1,17-1.47m0,139a38.32,38.32,0,1,0-38.28-38.34,38.34,38.34,0,0,0,38.28,38.34"/></g></svg>