<svg xmlns="http://www.w3.org/2000/svg" viewBox="0 0 236.95 283.46"><defs><style>.cls-1{fill:#1d1d1b;fill-rule:evenodd;}</style></defs><title>Destroy shield</title><g id="Destroy_shield" data-name="Destroy shield"><path class="cls-1" d="M52.86,181.49a191.84,191.84,0,0,0,12.23,21.13l44.28-68.14-46-70.74,6.41-4.16L69,58.32a232.87,232.87,0,0,1-41.22,8C26.67,114.78,37.62,151.12,52.86,181.49Z"/><path class="cls-1" d="M173.53,63.74l-46,70.73,44.28,68.15a190.33,190.33,0,0,0,12.24-21.13c15.23-30.37,26.2-66.71,25.06-115.2a232,232,0,0,1-41.22-8l-.83,1.27Z"/><path class="cls-1" d="M151.94,59.81l3.67-5.67c-14-5.35-26.49-12.33-37.14-21.46-10.63,9.13-23.16,16.11-37.13,21.46L85,59.81,78.6,64l39.87,61.39L158.35,64Z"/><path class="cls-1" d="M151.94,209.17l6.41-4.15-39.88-61.39L78.6,205,85,209.17l-6.89,10.62c.69.82,1.35,1.7,2,2.5a113.88,113.88,0,0,0,38.18,28.48l.12-.05a.33.33,0,0,1,.12.05,113.82,113.82,0,0,0,38.19-28.48c.7-.8,1.35-1.68,2.05-2.5Z"/><path class="cls-1" d="M175,47.42a264.79,264.79,0,0,0,46.17,8.85c1.27,54.92-11.11,96.06-28.34,130.52a220.9,220.9,0,0,1-19.63,32l8.23,12.68a249.86,249.86,0,0,0,23.32-37.72c23.17-46.39,33.38-93.36,32.09-147.84a3.26,3.26,0,0,0-2.9-3.16,298,298,0,0,1-49.8-9.36Z"/><path class="cls-1" d="M165,229.22c-1,1.24-2,2.55-3.09,3.75a129.52,129.52,0,0,1-43.22,32.3c-.07,0-.12-.06-.18-.08l-.15.08A129.49,129.49,0,0,1,75.08,233c-1.06-1.2-2-2.51-3.09-3.75L63.8,241.83c1.21,1.44,2.36,3,3.61,4.36a148.77,148.77,0,0,0,49.52,37,3.31,3.31,0,0,0,1.35.29c.07,0,.14,0,.19,0s.13,0,.2,0a3.39,3.39,0,0,0,1.36-.29,148.87,148.87,0,0,0,49.52-37c1.24-1.4,2.39-2.92,3.6-4.36Z"/><path class="cls-1" d="M74.34,43.37C91,37.23,105.9,29,118.47,18.21c12.59,10.81,27.45,19,44.14,25.15l9.11-14C151.59,22.26,134.59,12.81,120.6.76A3.31,3.31,0,0,0,118.47,0a3.28,3.28,0,0,0-2.11.76c-14,12.05-31,21.5-51.12,28.59Z"/><path class="cls-1" d="M55.51,231.43l8.24-12.68a220.85,220.85,0,0,1-19.64-32C26.9,152.33,14.52,111.19,15.77,56.27a264.2,264.2,0,0,0,46.15-8.85L52.8,33.36A297,297,0,0,1,3,42.72,3.25,3.25,0,0,0,.11,45.88C-1.18,100.36,9,147.33,32.22,193.72A249.11,249.11,0,0,0,55.51,231.43Z"/></g></svg>