<svg id="Dice" xmlns="http://www.w3.org/2000/svg" viewBox="0 0 283.46 198.85"><defs><style>.cls-1{fill:#1d1d1b;}</style></defs><title>Dice</title><g id="Black_throw" data-name="Black throw"><path class="cls-1" d="M97.18,135.81l26-96.38A13.87,13.87,0,0,1,125.87,34L69.73,57.86a6,6,0,0,0-3.17,7L92,160.42a4.3,4.3,0,0,0,5.87,3.16l11.26-4.77-9.21-8.76C96.05,146.38,96,140.08,97.18,135.81ZM94.55,83.42c-4.76,2-9.75-.66-11.17-6s1.28-11.3,6-13.32,9.75.68,11.17,6S99.3,81.41,94.55,83.42Z"/><polygon class="cls-1" points="172.31 64.81 172.31 64.81 160.12 53.24 172.31 64.81"/><path class="cls-1" d="M161.59,24.53c-.74-2.81-3.37-4.23-5.87-3.16l-10.48,4.45,17.26,2.12Z"/><polygon class="cls-1" points="154.26 47.66 160.12 53.24 154.26 47.66 154.26 47.66"/><polygon class="cls-1" points="133.93 30.61 133.93 30.61 133.94 30.61 133.93 30.61"/><path class="cls-1" d="M151.55,12.62,99.62.11C98.1-.25,94.84.3,92.35,1.37l-86,36.48c-2.5,1.07-3.29,2.23-1.76,2.59L56.53,53c1.52.38,4.78-.18,7.28-1.24l86-36.5C152.29,14.14,153.08,13,151.55,12.62ZM40.17,35.24c-4.76,2-11,3.08-13.85,2.39s-1.4-2.9,3.35-4.92,11-3.09,13.85-2.38S44.92,33.22,40.17,35.24Zm32.69,7.88c-4.75,2-11,3.08-13.84,2.39s-1.4-2.9,3.35-4.92,10.95-3.1,13.85-2.39S77.62,41.09,72.86,43.12Zm15-18.28c-.65,1-2.34,2-4.54,3A35.6,35.6,0,0,1,75.7,30c-5.41.92-8.73.12-7.42-1.8.65-1,2.35-2,4.54-2.95a34.64,34.64,0,0,1,7.62-2.2C85.85,22.13,89.17,22.93,87.86,24.84Zm5.93-12.37c-4.75,2-11,3.09-13.85,2.4S78.54,12,83.29,10s10.95-3.1,13.85-2.41S98.53,10.46,93.79,12.47Zm32.69,7.88c-4.75,2-11,3.1-13.85,2.38s-1.39-2.9,3.35-4.91,11-3.08,13.85-2.38S131.23,18.34,126.48,20.35Z"/><path class="cls-1" d="M71.46,141.64c1.42,5.34.22,9.08-2.68,8.39s-6.39-5.58-7.81-10.92-.22-9.09,2.68-8.4,6.4,5.6,7.81,10.93m-16-60.16c1.42,5.32.22,9.08-2.68,8.37S46.38,84.28,45,79s-.22-9.09,2.68-8.41S54,76.15,55.46,81.48m-.34,56.21a12.27,12.27,0,0,1,.27,6.46c-1,3.28-4.36,2.48-7.41-1.78a22.85,22.85,0,0,1-3.36-7.2,12.35,12.35,0,0,1-.28-6.45c1-3.29,4.37-2.49,7.42,1.79a22.65,22.65,0,0,1,3.36,7.18m-16-60.17A12.36,12.36,0,0,1,39.39,84c-1,3.27-4.37,2.47-7.42-1.8A22.77,22.77,0,0,1,28.62,75a12.32,12.32,0,0,1-.28-6.47c1.05-3.27,4.37-2.47,7.42,1.8a22.72,22.72,0,0,1,3.35,7.18m-.34,56.24c1.42,5.34.22,9.1-2.68,8.39s-6.4-5.59-7.81-10.92-.22-9.09,2.68-8.38,6.39,5.58,7.81,10.91m-16-60.16c1.41,5.32.21,9.08-2.68,8.38s-6.4-5.59-7.82-10.92S12.05,62,15,62.69s6.4,5.57,7.82,10.91M.32,51.2,26,147.68c.75,2.8,2.59,5.37,4.11,5.74L82,165.92c1.53.37,2.16-1.61,1.41-4.4L57.76,65c-.74-2.8-2.58-5.37-4.11-5.74L1.73,46.79C.2,46.41-.43,48.4.32,51.2"/><path class="cls-1" d="M179.53,176.47c-5.12-.64-8.1-5.46-6.67-10.78s6.76-9.15,11.89-8.51,8.1,5.45,6.67,10.78-6.76,9.14-11.89,8.51m57.82,7.09c-5.12-.62-8.11-5.45-6.67-10.78s6.75-9.13,11.87-8.51,8.12,5.46,6.68,10.79-6.75,9.14-11.88,8.5m-41.59-67.2c-5.12-.63-8.11-5.45-6.67-10.78s6.76-9.14,11.88-8.5,8.11,5.45,6.67,10.77-6.75,9.14-11.88,8.51m57.81,7.1c-5.12-.62-8.1-5.46-6.66-10.78s6.75-9.13,11.87-8.51,8.1,5.46,6.67,10.79-6.76,9.13-11.88,8.5m26.2-30.26L187.06,81.82a6.05,6.05,0,0,0-6.25,4.48L155,181.76c-.76,2.81.81,5.35,3.51,5.68l92.71,11.38a6.05,6.05,0,0,0,6.25-4.48l25.76-95.46a4.29,4.29,0,0,0-3.5-5.68"/><path class="cls-1" d="M197.13,70.61C192,70,186.11,67.8,184,65.75s.24-3.2,5.37-2.58S200.35,66,202.5,68s-.24,3.21-5.37,2.57M255,77.71c-5.12-.63-11-2.8-13.18-4.85s.24-3.21,5.36-2.59,11,2.8,13.18,4.86-.24,3.21-5.36,2.58M213.86,62.58a36.75,36.75,0,0,1-7.72-1.89c-5.14-1.91-7.61-4.26-5.53-5.27a11.4,11.4,0,0,1,5.42-.28,35.44,35.44,0,0,1,7.7,1.9c5.15,1.89,7.63,4.24,5.53,5.26a11.44,11.44,0,0,1-5.4.28m-41.1-15.14c-5.12-.63-11-2.8-13.19-4.85s.24-3.21,5.37-2.59,11,2.8,13.18,4.86-.23,3.2-5.36,2.58m57.81,7.11c-5.12-.64-11-2.82-13.18-4.87s.24-3.21,5.36-2.57,11,2.8,13.19,4.85-.24,3.21-5.37,2.59m4.31-10.35L142.17,32.82c-2.69-.34-3.95.27-2.82,1.34L178.07,71c1.13,1.09,4.24,2.23,6.94,2.56l92.7,11.38c2.69.34,4-.27,2.83-1.35L241.82,46.76c-1.14-1.1-4.24-2.24-6.94-2.56"/><path class="cls-1" d="M146.66,155.23c-1.43,5.33-4.35,8-6.51,5.93s-2.75-8-1.31-13.35,4.35-8,6.52-5.93,2.74,8,1.3,13.35m16.23-60.1c-1.44,5.32-4.35,8-6.51,5.92s-2.75-8-1.31-13.35,4.35-8,6.51-5.93,2.75,8,1.31,13.36m-28.41,48.53a12.33,12.33,0,0,1-3,5.73c-2.54,2.31-5,0-5.53-5.26a22.8,22.8,0,0,1,.69-7.91,12.41,12.41,0,0,1,3-5.73c2.56-2.32,5,0,5.54,5.26a23,23,0,0,1-.69,7.91M150.7,83.54a12.18,12.18,0,0,1-3,5.74c-2.54,2.31-5,0-5.53-5.26a22.81,22.81,0,0,1,.7-7.91,12.15,12.15,0,0,1,3-5.73c2.54-2.32,5,.05,5.53,5.26a22.73,22.73,0,0,1-.7,7.9m-28.41,48.52c-1.44,5.33-4.35,8-6.52,5.94s-2.74-8-1.3-13.37,4.35-8,6.51-5.92,2.75,8,1.31,13.35M138.51,72c-1.43,5.33-4.35,8-6.51,5.92s-2.75-8-1.31-13.36,4.36-8,6.51-5.91,2.75,8,1.31,13.35m-8.24-30.62-26,96.38c-.75,2.8-.44,5.95.69,7l38.72,36.8c1.13,1.09,2.67-.31,3.42-3.1l26-96.4c.75-2.8.44-5.94-.7-7L133.7,38.22c-1.14-1.09-2.67.32-3.43,3.12"/></g></svg>