<svg xmlns="http://www.w3.org/2000/svg" viewBox="0 0 283.46 251.32"><defs><style>.cls-1{fill:#1d1d1b;}</style></defs><title>Die</title><g id="Die"><g id="Black_die" data-name="Black die"><path class="cls-1" d="M167.39,217.44c-7.2,3.05-14.77-1-16.92-9.1s1.95-17.09,9.14-20.14,14.77,1,16.92,9.08-1.95,17.11-9.14,20.16M248.57,183c-7.19,3.06-14.76-1-16.91-9.08s2-17.08,9.14-20.14,14.76,1,16.91,9.09-1.94,17.08-9.14,20.13M143.16,126.34c-7.2,3-14.77-1-16.92-9.1s2-17.09,9.14-20.14,14.77,1,16.92,9.07-2,17.12-9.14,20.17m81.18-34.47c-7.19,3-14.75-1-16.9-9.09s1.94-17.08,9.13-20.13,14.77,1,16.91,9.07-1.94,17.09-9.14,20.15m11.45-59.5L105.59,87.62c-3.78,1.63-5.93,6.36-4.8,10.61l38.48,144.7c1.13,4.25,5.11,6.37,8.89,4.78l130.21-55.27c3.77-1.6,5.93-6.36,4.79-10.61L244.68,37.16c-1.13-4.25-5.11-6.4-8.89-4.79"/><path class="cls-1" d="M110.32,65.29c-7.19,3.06-16.58,4.69-21,3.62s-2.11-4.38,5.09-7.44,16.58-4.68,21-3.63,2.11,4.39-5.09,7.45m81.19-34.45c-7.19,3.05-16.57,4.66-21,3.6s-2.11-4.39,5.07-7.44,16.58-4.66,21-3.61,2.11,4.39-5.08,7.45M126.16,42.11a52.84,52.84,0,0,1-11.54,3.33c-8.19,1.42-13.22.21-11.23-2.68,1-1.47,3.55-3.06,6.88-4.48a53.3,53.3,0,0,1,11.53-3.36C130,33.53,135,34.73,133,37.63c-1,1.47-3.55,3-6.88,4.48M60.82,53.38c-7.2,3-16.59,4.66-21,3.61s-2.12-4.39,5.08-7.44,16.58-4.69,21-3.61,2.11,4.38-5.08,7.44M142,18.9c-7.19,3.05-16.57,4.69-21,3.61s-2.11-4.38,5.07-7.44,16.59-4.66,21-3.61,2.11,4.39-5.09,7.44M139.82,2.06,9.63,57.34C5.85,59,4.65,60.7,7,61.26L85.58,80.19c2.31.56,7.26-.27,11-1.9L226.81,23c3.78-1.61,5-3.36,2.67-3.91L150.85.17c-2.31-.56-7.25.3-11,1.89"/><path class="cls-1" d="M108.21,214.48c2.14,8.07.33,13.75-4.06,12.71s-9.68-8.45-11.83-16.53S92,196.9,96.38,198s9.68,8.45,11.83,16.53M84,123.39c2.14,8.06.33,13.73-4.06,12.68s-9.68-8.44-11.83-16.51-.33-13.77,4.06-12.72,9.68,8.48,11.83,16.55m-.53,85.12c1,3.75,1.21,7.3.42,9.77-1.58,5-6.61,3.75-11.23-2.68a34.48,34.48,0,0,1-5.07-10.92c-1-3.73-1.22-7.28-.43-9.76,1.59-5,6.61-3.76,11.24,2.72a34.13,34.13,0,0,1,5.07,10.87M59.22,117.4c1,3.74,1.21,7.29.42,9.78-1.58,4.95-6.61,3.74-11.23-2.69a34.48,34.48,0,0,1-5.07-10.92c-1-3.74-1.22-7.28-.43-9.77,1.59-5,6.62-3.74,11.24,2.72a34.28,34.28,0,0,1,5.07,10.88m-.52,85.16c2.15,8.08.33,13.75-4.06,12.69S45,206.8,42.81,198.73,42.48,185,46.87,186s9.69,8.46,11.83,16.54m-24.23-91.1c2.14,8.06.33,13.75-4.06,12.68s-9.68-8.45-11.83-16.51-.33-13.77,4.06-12.71,9.68,8.46,11.83,16.54M.47,77.54,39.33,223.63c1.13,4.24,3.92,8.14,6.22,8.69l78.64,18.94c2.3.55,3.26-2.44,2.13-6.67L87.46,98.49c-1.12-4.24-3.91-8.14-6.22-8.69l-78.63-19C.3,70.28-.65,73.28.47,77.54"/></g></g></svg>