<svg xmlns="http://www.w3.org/2000/svg" viewBox="0 0 228.48 278.94"><defs><style>.cls-1{fill:#1d1d1b;}</style></defs><title>DiscCube add</title><g id="DiscCube_add" data-name="DiscCube add"><path class="cls-1" d="M132.25,106.54v14.91H159.8a5,5,0,0,1,5,5v26a5,5,0,0,1-5,5H132.25V185a5,5,0,0,1-5,5H115.78v38.45l97.86-56V59.57Z"/><path class="cls-1" d="M96.23,185V157.49H68.68a5,5,0,0,1-5-5v-26a5,5,0,0,1,5-5H96.23V106.78L14.85,59.57v113l97.35,56V190h-11A5,5,0,0,1,96.23,185Z"/><path class="cls-1" d="M101.23,88.91h26a5,5,0,0,1,5,5v8.5l79.6-45.94L114,0,16.62,56.47l79.61,46.17V93.91A5,5,0,0,1,101.23,88.91Z"/><path class="cls-1" d="M195.32,224.8c-44.49,25.88-116.84,25.88-161.6.07C11.34,211.9.06,195,0,178H0v36.75H.19c.94,16.26,12,32.37,33.53,44.76,44.76,25.87,117.11,25.85,161.6-.05,21.28-12.36,32.22-28.46,33-44.71h.16V178C228.54,195,217.51,211.89,195.32,224.8Z"/><path class="cls-1" d="M217.07,148.23v26.26L114,233.46l-102.56-59V147.92C-7.18,172,.56,201.22,34.78,221c44.19,25.48,115.57,25.41,159.46-.1C228,201.28,235.63,172.21,217.07,148.23Z"/></g></svg>