<svg xmlns="http://www.w3.org/2000/svg" viewBox="0 0 283.46 204.89"><defs><style>.cls-1{fill:#1d1d1b;}</style></defs><title>Disc</title><g id="Disc"><path class="cls-1" d="M40.92,136.34c27,15.57,62.94,24.15,101.17,24.15s74.24-8.62,101.1-24.27c26-15.09,40.3-34.9,40.27-55.8s-14.56-41-40.92-56.2C215.54,8.6,179.58,0,141.3,0s-74.15,8.6-101,24.21C14.3,39.35,0,59.18,0,80.06,0,101.1,14.56,121.09,40.92,136.34Z"/><path class="cls-1" d="M247.6,143.84c-28.18,16.4-65.65,25.44-105.51,25.44s-77.23-9-105.57-25.32c-12.26-7.11-22.39-15.47-30.1-24.85L0,111.29v13.1l0,.16L.23,127c1.2,20.1,15.65,39.16,40.69,53.68,27,15.59,63,24.17,101.19,24.17s74.21-8.62,101.08-24.27c24.86-14.41,39.09-33.44,40.07-53.58l.2-3.9V111.71l-6.41,7.79C269.49,128.68,259.58,136.87,247.6,143.84Z"/></g><g id="Plate"><polygon class="cls-1" points="-136.15 222.26 -136.06 190.48 -135.94 149.66 0 70.66 -0.2 143.26 -136.15 222.26"/></g></svg>