<svg xmlns="http://www.w3.org/2000/svg" viewBox="0 0 221 283.47"><defs><style>.cls-1{fill:#1d1d1b;}</style></defs><title>Discard top</title><g id="Return_to_top" data-name="Return to top"><path class="cls-1" d="M18,327.1l139-37.23a11,11,0,0,0-10-6.41H-5a11.05,11.05,0,0,0-11,11.05V515.44A11.05,11.05,0,0,0-5,526.49H54.91L6.71,346.6A15.94,15.94,0,0,1,18,327.1Z"/></g><g id="Discard_top" data-name="Discard top"><path class="cls-1" d="M213.16,38,72.78.36A10.57,10.57,0,0,0,59.84,7.84L5.12,212A10.58,10.58,0,0,0,12.59,225L153,262.59a10.56,10.56,0,0,0,12.95-7.47l54.71-204.2A10.55,10.55,0,0,0,213.16,38ZM152.51,142.49a1.13,1.13,0,0,1-1.13,1.14h-77a1.13,1.13,0,0,1-1.13-1.14v-22a1.13,1.13,0,0,1,1.13-1.14h77a1.13,1.13,0,0,1,1.13,1.14Z"/><path class="cls-1" d="M181.38,262.64a15.24,15.24,0,0,1-15.23,15.23H21.75a10.57,10.57,0,0,0,9.33,5.6H176.41A10.58,10.58,0,0,0,187,272.9V194.54l-5.6,20.88Z"/><path class="cls-1" d="M157,267.56h-.22c-.3,0-.6.05-.9.05H11.5a10.56,10.56,0,0,0,9.32,5.59H166.15a10.57,10.57,0,0,0,10.57-10.57V232.81L171,254A15.24,15.24,0,0,1,157,267.56Z"/><path class="cls-1" d="M156.8,267.57h0Z"/><path class="cls-1" d="M2.14,222.39A15.17,15.17,0,0,1,.62,210.83L49,30.42H10.57A10.57,10.57,0,0,0,0,41v211.4A10.57,10.57,0,0,0,10.57,263H136.32L11.39,229.48A15.14,15.14,0,0,1,2.14,222.39Z"/></g><g id="Remove_top" data-name="Remove top"><path class="cls-1" d="M181.38-20.82A15.24,15.24,0,0,1,166.15-5.59H21.75A10.56,10.56,0,0,0,31.07,0H176.41A10.56,10.56,0,0,0,187-10.57V-88.92L181.38-68Z"/></g></svg>