<svg xmlns="http://www.w3.org/2000/svg" viewBox="0 0 228.48 278.94"><defs><style>.cls-1{fill:#1d1d1b;}</style></defs><title>DiscCube place</title><g id="DiscCube_place" data-name="DiscCube place"><path class="cls-1" d="M127.49,105.16l84.36-48.69L114,0,16.63,56.47l84.25,48.87A199,199,0,0,0,114.22,67,198.2,198.2,0,0,0,127.49,105.16Z"/><path class="cls-1" d="M133.8,141.93a20.47,20.47,0,0,0-18-14.7v6.87a13.74,13.74,0,0,1,0,27.28v67.1l97.86-56V59.57l-84.59,48.81A196.69,196.69,0,0,0,144.14,134,84.52,84.52,0,0,0,133.8,141.93Z"/><path class="cls-1" d="M112.2,161.31a13.73,13.73,0,0,1,0-27.14v-6.9a20.4,20.4,0,0,0-17.52,14.66A90.23,90.23,0,0,0,84.34,134a195.58,195.58,0,0,0,15-25.44l-84.47-49v113l97.35,56Z"/><path class="cls-1" d="M195.32,224.8c-44.49,25.88-116.84,25.88-161.6.07C11.34,211.9.06,195,0,178H0v36.75H.19c.94,16.26,12,32.37,33.53,44.76,44.76,25.87,117.11,25.85,161.6-.05,21.28-12.36,32.21-28.46,33-44.71h.16V178C228.54,195,217.5,211.89,195.32,224.8Z"/><path class="cls-1" d="M34.78,221c44.19,25.48,115.57,25.41,159.46-.1,33.79-19.65,41.39-48.72,22.83-72.7v26.26L114,233.46l-102.56-59V147.92C-7.18,172,.56,201.22,34.78,221Z"/></g></svg>