<svg xmlns="http://www.w3.org/2000/svg" viewBox="0 0 278.94 206.88"><defs><style>.cls-1{fill:#1d1d1b;}</style></defs><title>Disc minus</title><g id="Disc_minus" data-name="Disc minus"><path class="cls-1" d="M238.46,140.79c-54.32,31.61-142.65,31.61-197.3.08C13.84,125.05.08,104.38,0,83.7H0v44.87H.23c1.15,19.85,14.71,39.52,40.93,54.65,54.65,31.57,143,31.55,197.3-.06,26-15.1,39.33-34.76,40.29-54.59h.19V83.7C279,104.38,265.54,125,238.46,140.79Z"/><path class="cls-1" d="M236.49,23.34c-53.9-31.14-141.1-31.1-194.6,0s-53.37,81.62.56,112.83,141.1,31,194.69-.1S290.47,54.48,236.49,23.34ZM190,92.75a5,5,0,0,1-5,5H93.92a5,5,0,0,1-5-5v-26a5,5,0,0,1,5-5H185a5,5,0,0,1,5,5Z"/></g></svg>