<svg xmlns="http://www.w3.org/2000/svg" viewBox="0 0 228.48 278.94"><defs><style>.cls-1{fill:#1d1d1b;}</style></defs><title>DiscCube move</title><g id="DiscCube_move" data-name="DiscCube move"><polygon class="cls-1" points="106.94 108.85 113.99 112.94 120.33 109.29 103.44 92.41 117.99 77.85 138.77 98.65 211.85 56.47 113.99 0 16.63 56.47 79.23 92.78 85.06 86.96 106.94 108.85"/><polygon class="cls-1" points="117.98 150.63 115.78 148.42 115.78 228.48 213.64 172.5 213.64 59.57 141.4 101.25 154.34 114.22 117.98 150.63"/><polygon class="cls-1" points="115.78 123.7 125.26 114.22 122.94 111.91 115.78 116.05 115.78 123.7"/><polygon class="cls-1" points="112.2 144.83 103.44 136.04 112.2 127.28 112.2 116.05 111.11 115.41 85.03 141.51 74.14 130.61 90.5 114.22 74.14 97.88 76.62 95.4 14.85 59.57 14.85 172.52 112.2 228.48 112.2 144.83"/><path class="cls-1" d="M195.32,224.8c-44.49,25.88-116.84,25.88-161.6.07C11.34,211.9.06,195,0,178H0v36.75H.19c.94,16.26,12,32.37,33.53,44.76,44.76,25.87,117.11,25.85,161.6-.05,21.28-12.36,32.21-28.46,33-44.71h.16V178C228.54,195,217.5,211.89,195.32,224.8Z"/><path class="cls-1" d="M34.78,221c44.19,25.48,115.57,25.41,159.46-.1,33.79-19.65,41.39-48.72,22.83-72.7v26.26L114,233.46l-102.56-59V147.92C-7.18,172,.56,201.22,34.78,221Z"/></g></svg>