<svg id="Discard_pile" data-name="Discard pile" xmlns="http://www.w3.org/2000/svg" viewBox="0 0 241.94 283.46"><defs><style>.cls-1{fill:#1d1d1b;}</style></defs><title>Discard pile</title><path class="cls-1" d="M67.83,7.13H27.26A12.56,12.56,0,0,0,14.7,19.69V40.26L62.38,27.49Z"/><path class="cls-1" d="M175.44,19.25l37.09,9.94v-9.5A12.56,12.56,0,0,0,200,7.13H170.1a15.89,15.89,0,0,1,4,7Z"/><path class="cls-1" d="M188.77,269.36a16,16,0,0,1-15.43,11.85,16.26,16.26,0,0,1-4.15-.55l-34.91-9.36L88.89,283.46H200a12.56,12.56,0,0,0,12.56-12.56V250.34l-20.11,5.38Z"/><polygon class="cls-1" points="24.42 169.17 14.7 132.92 14.7 205.41 24.42 169.17"/><path class="cls-1" d="M45.4,247.49l-23.72-6.36a15.86,15.86,0,0,1-7-3.95V270.9a12.56,12.56,0,0,0,12.56,12.56H57.13a16,16,0,0,1-4-7Z"/><path class="cls-1" d="M60.92,32.92,8.23,47A11.11,11.11,0,0,0,.38,60.64l26.56,99.11Z"/><path class="cls-1" d="M213.09,178.59l-19.21,71.7L219,243.56A11.11,11.11,0,0,0,226.85,230Z"/><path class="cls-1" d="M50.84,249l7,26.28a11.1,11.1,0,0,0,13.6,7.85l53.38-14.3Z"/><path class="cls-1" d="M169.35,15.37a11.11,11.11,0,0,0-10.71-8.24,11.53,11.53,0,0,0-2.89.38L143.7,10.74l26.31,7Z"/><path class="cls-1" d="M233.7,39.91,86.18.38a11.09,11.09,0,0,0-13.6,7.86L15.09,222.82a11.09,11.09,0,0,0,7.85,13.6L170.46,276a11.1,11.1,0,0,0,13.6-7.85l57.5-214.59A11.11,11.11,0,0,0,233.7,39.91Z"/></svg>