<svg xmlns="http://www.w3.org/2000/svg" viewBox="0 0 202.93 283.46"><defs><style>.cls-1{fill:#1d1d1b;}</style></defs><title>Discard played</title><g id="Discard_played" data-name="Discard played"><path class="cls-1" d="M190.05,0H12.88A12.88,12.88,0,0,0,0,12.88v257.7a12.88,12.88,0,0,0,12.88,12.88H190.05a12.87,12.87,0,0,0,12.88-12.88V12.88A12.88,12.88,0,0,0,190.05,0ZM149.79,155.16a1.38,1.38,0,0,1-1.39,1.38H54.53a1.38,1.38,0,0,1-1.38-1.38V128.3a1.38,1.38,0,0,1,1.38-1.38H148.4a1.38,1.38,0,0,1,1.39,1.38Z"/></g><g id="Gain"><path class="cls-1" d="M190.05-283.46H12.88A12.88,12.88,0,0,0,0-270.58v257.7A12.88,12.88,0,0,0,12.88,0H190.05a12.88,12.88,0,0,0,12.88-12.88v-257.7A12.88,12.88,0,0,0,190.05-283.46Zm-76.71,99a1.22,1.22,0,0,1,1.22,1.22v28.44H143a1.22,1.22,0,0,1,1.22,1.22v23.69a1.21,1.21,0,0,1-1.21,1.22H114.56v28.44A1.21,1.21,0,0,1,113.34-99H89.59a1.22,1.22,0,0,1-1.22-1.22v-28.44H60a1.22,1.22,0,0,1-1.22-1.22v-23.69A1.22,1.22,0,0,1,60-154.8H88.37v-28.44a1.22,1.22,0,0,1,1.22-1.22Z"/></g></svg>