<svg xmlns="http://www.w3.org/2000/svg" viewBox="0 0 283.46 283.46"><defs><style>.cls-1{fill:#1d1d1b;}</style></defs><title>Disc square</title><g id="Disc_square" data-name="Disc square"><path class="cls-1" d="M281,58.33,225.12,2.51a8.54,8.54,0,0,0-6-2.51H64.39a8.5,8.5,0,0,0-6,2.51L2.5,58.33a8.54,8.54,0,0,0-2.5,6V219.1a8.54,8.54,0,0,0,2.5,6L58.35,281a8.54,8.54,0,0,0,6,2.5H219.08a8.57,8.57,0,0,0,6-2.5L281,225.14a8.54,8.54,0,0,0,2.5-6V64.37A8.54,8.54,0,0,0,281,58.33ZM141.73,8.54h44v6.67H97.69V8.54ZM8.54,97.69h6.64v88.09H8.54V97.69ZM141.73,274.92h-44v-6.66h88.08v6.66Zm77.35,0H219V250.58l-8.9,8.36H73.34l-8.9-8.36v24.34h0L8.54,219.1V219H32.87l-8.37-8.89V73.34l8.37-8.89H8.54v-.08L64.39,8.54h0V32.89l8.9-8.37H210.12l8.9,8.37V8.54h.06l55.84,55.83v.08H250.6L259,73.34V210.13L250.6,219h24.32v.08Zm55.84-89.14h-6.64V97.69h6.64v88.09Z"/><polygon class="cls-1" points="48.99 48.97 48.99 27.38 27.92 48.97 48.99 48.97"/><polygon class="cls-1" points="45.6 51.72 24.53 51.72 19.03 57.23 40.09 57.23 45.6 51.72"/><polygon class="cls-1" points="51.71 45.61 57.22 40.11 57.22 19.05 51.71 24.55 51.71 45.61"/><polygon class="cls-1" points="234.47 27.38 234.47 48.97 255.54 48.97 234.47 27.38"/><polygon class="cls-1" points="243.37 57.23 264.44 57.23 258.94 51.72 237.86 51.72 243.37 57.23"/><polygon class="cls-1" points="226.25 40.11 231.75 45.61 231.75 24.55 226.25 19.05 226.25 40.11"/><polygon class="cls-1" points="234.47 256.09 255.54 234.5 234.47 234.5 234.47 256.09"/><polygon class="cls-1" points="237.86 231.75 258.94 231.75 264.44 226.24 243.37 226.24 237.86 231.75"/><polygon class="cls-1" points="226.25 264.42 231.75 258.92 231.75 237.86 226.25 243.36 226.25 264.42"/><polygon class="cls-1" points="48.99 256.09 48.99 234.5 27.92 234.5 48.99 256.09"/><polygon class="cls-1" points="40.09 226.24 19.03 226.24 24.53 231.75 45.6 231.75 40.09 226.24"/><polygon class="cls-1" points="51.71 258.92 57.22 264.42 57.22 243.36 51.71 237.86 51.71 258.92"/><path class="cls-1" d="M192,160.69c-27.6,16.09-72.48,16.09-100.25.06-13.87-8-20.88-18.57-20.89-29V154.5H71c.59,10.09,7.44,20.06,20.77,27.76,27.77,16.08,72.65,16,100.25,0,13.22-7.7,20-17.67,20.47-27.76h.12V131.72C212.64,142.18,205.79,152.71,192,160.69Z"/><path class="cls-1" d="M92.42,158.35c27.43,15.83,71.68,15.81,99,0s27.09-41.44-.34-57.26-71.71-15.85-98.92,0S65,142.49,92.42,158.35Z"/></g></svg>