<svg xmlns="http://www.w3.org/2000/svg" viewBox="0 0 228.48 278.94"><defs><style>.cls-1{fill:#1d1d1b;}</style></defs><title>DiscCube</title><g id="DiscCube"><polygon class="cls-1" points="115.78 116.05 115.78 228.48 213.64 172.5 213.64 59.57 115.78 116.05"/><polygon class="cls-1" points="14.85 172.52 112.2 228.48 112.2 116.05 14.85 59.57 14.85 172.52"/><polygon class="cls-1" points="16.63 56.47 113.99 112.94 211.85 56.47 113.99 0 16.63 56.47"/><path class="cls-1" d="M195.32,224.8c-44.49,25.88-116.84,25.88-161.6.07C11.34,211.9.06,195,0,178H0v36.75H.19c.94,16.26,12,32.37,33.53,44.76,44.76,25.87,117.11,25.85,161.6-.05,21.28-12.36,32.21-28.46,33-44.71h.16V178C228.54,195,217.5,211.89,195.32,224.8Z"/><path class="cls-1" d="M217.07,148.23v26.26L114,233.46l-102.56-59V147.92C-7.18,172,.56,201.22,34.78,221c44.19,25.48,115.57,25.41,159.46-.1C228,201.28,235.63,172.21,217.07,148.23Z"/></g></svg>