<svg xmlns="http://www.w3.org/2000/svg" viewBox="0 0 233.1 283.46"><defs><style>.cls-1{fill:#1d1d1b;}</style></defs><title>Discard</title><g id="Discard"><path class="cls-1" d="M224.65,40.94,73.32.39A11.39,11.39,0,0,0,59.37,8.45L.39,228.57a11.4,11.4,0,0,0,8.06,14l151.32,40.54a11.39,11.39,0,0,0,14-8.05l59-220.13A11.39,11.39,0,0,0,224.65,40.94ZM159.28,153.61a1.22,1.22,0,0,1-1.22,1.22H75a1.22,1.22,0,0,1-1.22-1.22V129.86A1.22,1.22,0,0,1,75,128.64h83a1.22,1.22,0,0,1,1.22,1.22Z"/></g><g id="Draw"><path class="cls-1" d="M224.65-242.53,73.33-283.07a11.39,11.39,0,0,0-14,8.05L.39-54.89a11.39,11.39,0,0,0,8.06,14L159.77-.39a11.4,11.4,0,0,0,14-8.06l59-220.12A11.4,11.4,0,0,0,224.65-242.53ZM159.28-129.86a1.22,1.22,0,0,1-1.22,1.22H129.62v28.42A1.22,1.22,0,0,1,128.4-99H104.71a1.22,1.22,0,0,1-1.23-1.21v-28.42H75.05a1.22,1.22,0,0,1-1.23-1.22V-153.6a1.23,1.23,0,0,1,1.23-1.23h28.43v-28.41a1.23,1.23,0,0,1,1.23-1.22H128.4a1.22,1.22,0,0,1,1.22,1.22v28.41h28.44a1.23,1.23,0,0,1,1.22,1.23Z"/></g></svg>