<svg id="DiscCube_return" data-name="DiscCube return" xmlns="http://www.w3.org/2000/svg" viewBox="0 0 228.48 278.94"><defs><style>.cls-1{fill:#1d1d1b;}</style></defs><title>DiscCube return</title><path class="cls-1" d="M120.79,80.79a40.13,40.13,0,0,1,28.47,11.8l62.59-36.12L114,0,16.63,56.47,87.91,97.82A40.16,40.16,0,0,1,120.79,80.79Z"/><path class="cls-1" d="M101.08,105.46,114,113l21.42-12.36a25.06,25.06,0,0,0-34.33,4.87Z"/><path class="cls-1" d="M151.72,95.3a40,40,0,0,1,6.57,40.23l-14.9-3.7a24.69,24.69,0,0,0-5.07-28.8l-22.54,13V228.48l97.86-56V59.57Z"/><path class="cls-1" d="M108.19,117,87.83,147.69,67.45,117h13.3A39.86,39.86,0,0,1,86,100.83L14.85,59.57v113l97.35,56V116l-13.15-7.62A25.3,25.3,0,0,0,96,117Z"/><path class="cls-1" d="M195.32,224.8c-44.49,25.88-116.84,25.88-161.6.07C11.34,211.9.06,195,0,178H0v36.75H.19c.94,16.26,12,32.37,33.53,44.76,44.76,25.87,117.11,25.85,161.6-.05,21.28-12.36,32.21-28.46,33-44.71h.16V178C228.54,195,217.5,211.89,195.32,224.8Z"/><path class="cls-1" d="M217.07,148.23v26.26L114,233.46l-102.56-59V147.92C-7.18,172,.56,201.22,34.78,221c44.19,25.48,115.57,25.41,159.46-.1C228,201.28,235.63,172.21,217.07,148.23Z"/></svg>