<svg xmlns="http://www.w3.org/2000/svg" viewBox="0 0 228.48 278.93"><defs><style>.cls-1{fill:#1d1d1b;}</style></defs><title>DiscCube remove</title><g id="DiscCube_remove" data-name="DiscCube remove"><polygon class="cls-1" points="128.46 151.24 161.6 202.27 213.64 172.5 213.64 59.57 123.07 111.84 142.68 142.03 128.46 151.24"/><polygon class="cls-1" points="115.78 228.48 137.29 216.18 115.78 183.07 115.78 228.48"/><polygon class="cls-1" points="109.03 141.54 80.52 97.67 14.85 59.57 14.85 172.52 112.2 228.48 112.2 177.57 94.79 150.78 109.03 141.54"/><polygon class="cls-1" points="16.63 56.47 76.21 91.03 43.59 40.83 16.63 56.47"/><polygon class="cls-1" points="211.85 56.47 114 0 67.83 26.77 121.12 108.83 211.85 56.47"/><path class="cls-1" d="M33.72,224.87C11.34,211.9.06,195,0,178H0v36.75H.19c.94,16.26,12,32.37,33.53,44.76,37.64,21.75,94.78,25.19,138.47,10.34L153,240.37C112.78,248.69,66.05,243.52,33.72,224.87Z"/><path class="cls-1" d="M195.32,224.8a120,120,0,0,1-14.47,7.11l17,26.1c19.64-12.15,29.76-27.62,30.51-43.22h.16V178C228.54,195,217.51,211.89,195.32,224.8Z"/><path class="cls-1" d="M194.24,220.93c33.79-19.65,41.39-48.72,22.83-72.7v26.26l-53.59,30.66,15.15,23.33A120.49,120.49,0,0,0,194.24,220.93Z"/><path class="cls-1" d="M114,233.46l-102.56-59V147.92C-7.18,172,.56,201.22,34.78,221c31.42,18.11,76.56,23.3,115.81,15.63l-11.43-17.6Z"/></g></svg>