<svg xmlns="http://www.w3.org/2000/svg" viewBox="0 0 125.32 283.47"><defs><style>.cls-1{fill:#1d1d1b;}</style></defs><title>DNA</title><g id="Triangle"><path class="cls-1" d="M202.31,290.05a13.88,13.88,0,0,0-11.81-6.59H-65.18A13.89,13.89,0,0,0-77,290.05a13.91,13.91,0,0,0-.61,13.52L50.26,559.26a13.89,13.89,0,0,0,12.42,7.68h0a13.89,13.89,0,0,0,12.42-7.69L202.92,303.56A13.84,13.84,0,0,0,202.31,290.05ZM140.6,321.67,62.68,477.58-15.24,321.67Z"/></g><g id="DNA"><path class="cls-1" d="M33.85,198.5C38.66,185,48.73,171.6,60,161.65c-7.73-6.54-14-11.81-19.73-19.77-13.21,13.64-28.21,30.48-34.72,48.49C-3,214-.41,241.31,4.81,266.85,10,296.12,39.7,283.12,34.57,255.46,31.26,226.13,28.91,212.32,33.85,198.5Z"/><path class="cls-1" d="M89.79,74.91C84.33,92,76.2,105.54,67.14,115.44c7.57,7.7,15.23,14.72,21.38,21.39a171.59,171.59,0,0,0,28.91-50c9-24.92,9.24-52.13,3.87-72.33C118.36,3.83,111.6-.23,105.17,0h0A15.51,15.51,0,0,0,90.55,17.79C95.58,30.1,96.3,54.54,89.79,74.91Z"/><path class="cls-1" d="M121,190.26c-8.57-26.65-38.95-56.82-48.92-65.54S47.87,97.79,41.63,75.47c-5.68-20.32-4-44.77,1.58-57.13A14.65,14.65,0,0,0,29.21.76h0c-6.42-.18-13.39,4-16.76,14.74-6.18,20.25-7.12,47.31.9,72.16,9.68,30,30.1,56.64,39.54,64.12S86.48,180,92.41,198.61c4.38,13.79,1.61,27.61-2.9,57-6.25,27.71,23,40.49,29.29,11.17C125.06,241.15,128.6,213.82,121,190.26Z"/><path class="cls-1" d="M40.12,191.72c0,4.22,3.8,7.61,8.5,7.61l27.94,0c4.7,0,8.48-3.41,8.48-7.63s-3.8-7.61-8.5-7.61l-27.94,0C43.9,184.1,40.12,187.5,40.12,191.72Z"/><path class="cls-1" d="M77.94,247l-32.07.42c-4.71.06-8.49,3.41-8.49,7.63s3.8,7.67,8.5,7.61L78,262.24c4.7-.06,8.48-3.4,8.48-7.62S82.64,246.94,77.94,247Z"/><path class="cls-1" d="M83.5,229.89c4.71,0,8.55-3.3,8.55-7.52s-3.86-7.68-8.56-7.68l-41.28.05c-4.7,0-8.38,3.47-8.38,7.69s3.69,7.51,8.4,7.51Z"/><path class="cls-1" d="M48.43,45.8c-4.7,0-8.48,3.4-8.48,7.62S43.75,61,48.45,61l34.08,0c4.7,0,8.48-3.41,8.48-7.63s-3.8-7.62-8.5-7.61Z"/><path class="cls-1" d="M83.48,85.63c0-4.22-3.8-7.61-8.5-7.6l-19.3,0c-4.7,0-8.49,3.4-8.48,7.63s3.79,7.61,8.5,7.6l19.3,0C79.7,93.26,83.48,89.85,83.48,85.63Z"/><path class="cls-1" d="M52.24,30.94l28,0c4.7,0,8.38-3.47,8.38-7.7s-3.7-7.51-8.4-7.5l-28,0c-4.7,0-8.55,3.32-8.54,7.54S47.53,31,52.24,30.94Z"/></g><g id="Jar"><path class="cls-1" d="M137.68-247.58V-248a3.17,3.17,0,0,0,3.16-3.16v-25a7.24,7.24,0,0,0-7.23-7.23H-8.32a7.24,7.24,0,0,0-7.24,7.23v25A3.17,3.17,0,0,0-12.4-248h0v.46c-17.91,7.65-27.74,17.86-27.74,28.88V-32.37c0,9.85,7.59,17.48,22.56,22.69v6.52A3.15,3.15,0,0,0-14.38,0H139.69a3.16,3.16,0,0,0,3.16-3.16V-9.67c15-5.22,22.57-12.85,22.57-22.7V-218.7C165.42-229.72,155.59-239.93,137.68-247.58ZM-16.27-91.7h-9.67V-117h9.67a3.15,3.15,0,0,0,3.15-3.16V-189c0-4.76,8-10.16,20.82-14.1,14.58-4.47,34.1-6.93,55-6.93s40.4,2.46,55,6.93c12.87,3.95,20.87,9.35,20.87,14.1v68.8a3.16,3.16,0,0,0,3.16,3.16h9.55V-91.7h-9.55a3.16,3.16,0,0,0-3.16,3.15v23c0,4.75-8,10.16-20.87,14.1-14.62,4.47-34.16,6.94-55,6.94S22.28-47,7.7-51.45c-12.84-3.94-20.82-9.34-20.82-14.1v-23A3.15,3.15,0,0,0-16.27-91.7Z"/></g></svg>