<svg xmlns="http://www.w3.org/2000/svg" viewBox="0 0 283.46 238.12"><defs><style>.cls-1{fill:#1d1d1b;}</style></defs><title>Double hammer</title><g id="Double_axe" data-name="Double axe"><path class="cls-1" d="M286.33,83.88a2.07,2.07,0,0,1,1.81,1.1,40.92,40.92,0,0,0,7.45,9.17c1.25,25.52,9.72,45.64,25.26,59.91,17.12,15.72,39.64,21,55.87,22.61a41.26,41.26,0,0,0,7.94,8.72,2,2,0,0,1,.65,2.19,2.22,2.22,0,0,1-.49.84,2.19,2.19,0,0,1-1.27.6c-.45,0-3.33.29-7.85.29-14.41,0-45.45-2.57-67.45-22.77C291.31,151,283,128.22,283.49,98.85c.07-4.23.34-8.64.77-13.12a2.18,2.18,0,0,1,.59-1.25,2.12,2.12,0,0,1,1.06-.55,2,2,0,0,1,.42-.05"/></g><g id="Double_hammer" data-name="Double hammer"><path class="cls-1" d="M282.78,109.92l-3.8-6a2.55,2.55,0,0,0-.32-.4s0,0-.05,0l-.13-.12a2.28,2.28,0,0,0-3.17.05L224.2,154.48a2.27,2.27,0,0,0,0,3.17l.12.13s0,0,.05.05a2.47,2.47,0,0,0,.39.32l6,3.8a3.2,3.2,0,0,0,4.27-.29l47.48-47.48A3.2,3.2,0,0,0,282.78,109.92Z"/><path class="cls-1" d="M180.1,8.16a2.28,2.28,0,0,0,0-3.18L180,4.85l-.05,0a2,2,0,0,0-.39-.32l-6-3.81a3.2,3.2,0,0,0-4.25.27L144.7,25.54l9,9Z"/><path class="cls-1" d="M46,211.11a2.09,2.09,0,0,0-.06,2.93l11.16,11.79.29.27.28.3,11.79,11.16a2.1,2.1,0,0,0,2.93-.07l66.41-66.74-26-26.12Z"/><path class="cls-1" d="M216.49,150a4.58,4.58,0,0,0,6.48,0l47.85-47.85a4.58,4.58,0,0,0,0-6.48L242.44,67.27l8.71-8.57a2.09,2.09,0,0,0,.06-2.93l-8.87-14.08-.29-.27-.28-.29-14.08-8.88a2.09,2.09,0,0,0-2.92.07L216.19,41,187.81,12.64a4.58,4.58,0,0,0-6.48,0L156.57,37.4l8.05,8.05a7.38,7.38,0,0,1,.79,9.65L161.7,61a6.67,6.67,0,0,1-.9,1.13l-.17.16-.1.09a6.44,6.44,0,0,1-4.44,1.77,5.49,5.49,0,0,1-.58,0A8.7,8.7,0,0,1,153,70l-8.26,8.26,17.38,17.37-17.37,17.28,26,25.83,17.21-17.3Z"/><path class="cls-1" d="M111.9,0a3.16,3.16,0,0,1,2.28,1l47.48,47.48a3.19,3.19,0,0,1,.29,4.27l-3.81,6a2,2,0,0,1-.31.4l-.05,0-.13.12a2.28,2.28,0,0,1-3.18-.05l-51.1-51.1A2.29,2.29,0,0,1,103.32,5l.13-.12,0-.05a2.08,2.08,0,0,1,.4-.32l6-3.8a3.18,3.18,0,0,1,2-.69"/><path class="cls-1" d="M6.55,102.7a2.31,2.31,0,0,1,1.61.67l51.1,51.1a2.29,2.29,0,0,1,.05,3.18l-.12.13,0,.05a2.55,2.55,0,0,1-.4.32l-6,3.8a3.23,3.23,0,0,1-2,.68,3.19,3.19,0,0,1-2.29-1L1,114.18a3.21,3.21,0,0,1-.27-4.26l3.81-6a2.08,2.08,0,0,1,.32-.4l0,0,.13-.12a2.31,2.31,0,0,1,1.57-.62"/><path class="cls-1" d="M98.9,11.3a4.6,4.6,0,0,1,3.24,1.34L150,60.5A4.58,4.58,0,0,1,150,67l-28.6,28.6,116.1,115.53a2.1,2.1,0,0,1,.07,2.93L226.4,225.83l-.3.27-.27.3L214,237.56a2.1,2.1,0,0,1-2.93-.07L95.58,121.39,67,150a4.56,4.56,0,0,1-6.48,0L12.64,102.14a4.58,4.58,0,0,1,0-6.48L41,67.27,32.32,58.7a2.1,2.1,0,0,1-.07-2.93l8.88-14.08.29-.27.27-.29,14.08-8.88a2.1,2.1,0,0,1,2.93.07L67.27,41,95.66,12.64A4.58,4.58,0,0,1,98.9,11.3"/></g></svg>