<svg xmlns="http://www.w3.org/2000/svg" viewBox="0 0 283.46 283.46"><defs><style>.cls-1,.cls-2{fill:#1d1d1b;}.cls-1{fill-rule:evenodd;}</style></defs><title>Double sword in shield</title><g id="Double_sword_in_shield" data-name="Double sword in shield"><path class="cls-1" d="M111.62,65.13,107.77,69l34,34,34-33.94-3.82-3.83a8.17,8.17,0,0,1-2.44-5.85v-8.1a117.81,117.81,0,0,1-27.67-17.51A118.29,118.29,0,0,1,114,51.25v8A8.27,8.27,0,0,1,111.62,65.13Z"/><path class="cls-1" d="M218.34,111.62l-3.86-3.84-34,33.95L211,172.22A225.36,225.36,0,0,0,228.54,114h-4.38A8.19,8.19,0,0,1,218.34,111.62Z"/><path class="cls-1" d="M69,107.78l-3.82,3.82A8.13,8.13,0,0,1,59.31,114H55a226.31,226.31,0,0,0,17.51,58.14l30.46-30.45Z"/><path class="cls-1" d="M102.36,219.89c.48.57,1,1.15,1.46,1.7a113.37,113.37,0,0,0,37.8,28.2l.13-.06.13.06a113.71,113.71,0,0,0,37.81-28.2c.48-.54.95-1.11,1.42-1.67l-39.39-39.39Z"/><path class="cls-1" d="M40,67.13,27.65,54.82a331,331,0,0,0,2,37.93L40.43,82Q40,74.73,40,67.13Z"/><path class="cls-1" d="M88.25,34.15q-10.05,3.43-20.87,6l7.43,7.42Z"/><path class="cls-1" d="M243.06,82l10.75,10.74a333.27,333.27,0,0,0,2.05-37.94L243.52,67.15Q243.48,74.76,243.06,82Z"/><path class="cls-1" d="M216.13,40.19q-10.86-2.62-21-6.07l13.54,13.51Z"/><path class="cls-1" d="M184.71,232.19a129.34,129.34,0,0,1-42.8,32l-.16-.09-.17.09a129.31,129.31,0,0,1-42.79-32c-1.37-1.54-2.7-3.12-4-4.72L87,235.24c2.15,2.67,4.33,5.31,6.57,7.85a143.05,143.05,0,0,0,48,35.85l.17-.07.16.07a142.76,142.76,0,0,0,48-35.85c2.24-2.53,4.4-5.15,6.54-7.81l-7.76-7.77C187.38,229.09,186.07,230.66,184.71,232.19Z"/><path class="cls-1" d="M114,37.48a131.92,131.92,0,0,0,27.73-18.09,131.39,131.39,0,0,0,27.67,18.06V28.33a8.25,8.25,0,0,1,1.35-4.52,147.2,147.2,0,0,1-29-19.29,146.63,146.63,0,0,1-29,19.31,8.3,8.3,0,0,1,1.32,4.5Z"/><path class="cls-1" d="M218.61,179.83l7.79,7.79A289.81,289.81,0,0,0,250.68,114H239.42A259,259,0,0,1,218.61,179.83Z"/><path class="cls-1" d="M44.09,114H32.83a290.39,290.39,0,0,0,24.24,73.54l7.8-7.8A257.75,257.75,0,0,1,44.09,114Z"/><path class="cls-2" d="M37.29,268.93l-26.74,4,3.95-26.71,96.44-96.46-4.47-4.47L5.66,246.05a3.32,3.32,0,0,0-.93,1.82L0,279.74A3.33,3.33,0,0,0,1,282.52a3.26,3.26,0,0,0,2.78.91l31.83-4.71a3.33,3.33,0,0,0,1.81-.93L138.19,177l-4.47-4.47Z"/><polygon class="cls-2" points="17.92 246.61 14.65 268.78 36.83 265.52 131.79 170.59 112.87 151.67 17.92 246.61"/><path class="cls-2" d="M189.53,71.14l2,1.91-39.83,39.83,18.93,18.93L210.38,92l1.94,1.91-39.8,39.79L177,138.2l37.49-37.49,7.4,7.37a3.22,3.22,0,0,0,2.29.94h31a3.25,3.25,0,0,0,2.31-5.56L228.8,74.81,264.55,39l10.9-3.62a3.24,3.24,0,0,0,2.07-2.07L283.3,16a3.31,3.31,0,0,0-.78-3.33L270.93,1a3.27,3.27,0,0,0-2.3-1,3.33,3.33,0,0,0-1,.17L250.14,6a3.23,3.23,0,0,0-2.06,2.06L244.46,18.9,208.69,54.7,180,26a3.25,3.25,0,0,0-5.55,2.31v31a3.22,3.22,0,0,0,1,2.3L182.75,69l-37.49,37.48,4.47,4.46Zm68.89-57.71,8.71-2.92L273,16.33l-3,8.74-8.71,2.87-5.79-5.8Zm-69.06,42,3.85,0,34.84,34.87,0,3.84-3.82.06L189.36,59.32Z"/><path class="cls-2" d="M282.52,282.51a3.28,3.28,0,0,0,.91-2.79l-4.71-31.82a3.26,3.26,0,0,0-.93-1.81L100.71,69l7.37-7.39a3.31,3.31,0,0,0,.94-2.3v-31A3.25,3.25,0,0,0,103.46,26L74.81,54.67,39,18.91,35.42,8A3.24,3.24,0,0,0,33.35,6L16,.16A3.32,3.32,0,0,0,12.62,1L1,12.53a3.3,3.3,0,0,0-1,2.31,3.38,3.38,0,0,0,.17,1L6,33.33a3.21,3.21,0,0,0,2.06,2.05L18.9,39,54.7,74.77,26,103.5A3.25,3.25,0,0,0,28.33,109h31a3.18,3.18,0,0,0,2.3-1L69,100.71l177.05,177.1a3.38,3.38,0,0,0,1.82.92l31.87,4.7A3.36,3.36,0,0,0,282.52,282.51ZM13.43,25l-2.92-8.71,5.82-5.87,8.74,3,2.87,8.71-5.81,5.8Zm42,69.07,0-3.86L90.29,55.41l3.84,0,.06,3.81L59.32,94.11ZM246.19,269l-175-175,1.91-2L246.61,265.54l22.17,3.27-3.26-22.18L92,73.08l1.92-1.94,175,175,4,26.73Z"/></g></svg>