<svg xmlns="http://www.w3.org/2000/svg" viewBox="0 0 283.46 281.39"><defs><style>.cls-1{fill:#1d1d1b;}</style></defs><title>Double dagger</title><g id="Double_dagger" data-name="Double dagger"><path class="cls-1" d="M22.46,277.52a13.26,13.26,0,0,0,0-18.64,13.19,13.19,0,1,0,0,18.64Zm-5.15-5.15a5.92,5.92,0,0,1-8.29,0,5.86,5.86,0,1,1,8.29,0Z"/><path class="cls-1" d="M62.26,231l-.27-.26a4.75,4.75,0,0,1-.82.87L37.33,255.44a8.37,8.37,0,0,1-12,.13,8.54,8.54,0,0,1,0-12.09L49.2,219.62a8.64,8.64,0,0,1,.93-.77l-.23-.21A8.31,8.31,0,0,1,61.65,206.9L74,219.22A8.32,8.32,0,0,1,62.26,231Z"/><path class="cls-1" d="M109.66,245.18s0,0,0-.06a3.81,3.81,0,0,1-1.78-1L36.69,172.87a4.36,4.36,0,0,1-1.32-4.15,5.4,5.4,0,0,1-.79-.68,6.1,6.1,0,0,1,0-8.63l1-1A6.11,6.11,0,1,1,44.26,167l-.18.18L62.94,186a5.55,5.55,0,0,1,1.44-2.73,4.86,4.86,0,0,1,6.88,0L95,207a4.9,4.9,0,0,1,0,6.93,4.47,4.47,0,0,1-2.77,1.33l19.26,19.25.36-.35a6.32,6.32,0,1,1,8.93,8.94l-2.06,2.08A6.33,6.33,0,0,1,109.66,245.18Z"/><path class="cls-1" d="M279.6,256.45a13.15,13.15,0,1,0,0,18.62A13.27,13.27,0,0,0,279.6,256.45Zm-5.17,5.16a5.91,5.91,0,0,1,0,8.28,5.86,5.86,0,1,1,0-8.28Z"/><path class="cls-1" d="M233.07,216.65l-.27.27a5.48,5.48,0,0,1,.88.81l23.83,23.85a8.41,8.41,0,0,1,.14,12,8.55,8.55,0,0,1-12.09,0l-23.87-23.85a7.6,7.6,0,0,1-.77-.93l-.2.24A8.31,8.31,0,0,1,209,229a8.22,8.22,0,0,1,0-11.71l12.34-12.37a8.32,8.32,0,0,1,11.77,11.76Z"/><path class="cls-1" d="M247.25,169.25l-.05.05a3.87,3.87,0,0,1-1,1.77L175,242.22a4.33,4.33,0,0,1-4.16,1.32,4.11,4.11,0,0,1-.69.79,6.07,6.07,0,0,1-8.61,0l-1.05-1a6.11,6.11,0,1,1,8.63-8.64l.17.17L188.1,216a5.49,5.49,0,0,1-2.71-1.44,4.84,4.84,0,0,1,0-6.87L209.08,184a4.9,4.9,0,0,1,6.93,0,4.54,4.54,0,0,1,1.34,2.78l19.25-19.26-.35-.36a6.32,6.32,0,1,1,8.94-8.93l2.08,2.07A6.33,6.33,0,0,1,247.25,169.25Z"/><path class="cls-1" d="M122.72,154.56l7.67,8,.3.31.33.28c2.74,2.24,1.09,7.71,1.1,7.71h0a7.94,7.94,0,0,0-.48,2.37c-6.65,1.23-14.45,4.15-16.33,11.11,0,.56-.87,13.65-10.9,21.58a1.08,1.08,0,0,1-.83.21,1,1,0,0,1-.7-.47,129.3,129.3,0,0,0-12.72-16.17,1.05,1.05,0,0,1,0-1.44Z"/><path class="cls-1" d="M238.45,61.47l-66.31,67.74a8,8,0,0,0-2.27.69,2.66,2.66,0,0,1-1.1.22c-2.12,0-4.94-1.55-6.2-2.46l-7-6.91L175.67,100l-20.78,20.17-9.84-9.64C246,14.25,256.41,6.26,277.6.49a1,1,0,0,1,1,.27s0,0,0,0a1,1,0,0,1,.19,1.08C278.7,2.24,263.91,38.91,238.45,61.47Z"/><path class="cls-1" d="M91.35,163.89c.17-.07,16.23-7.19,15.17-19.23a16.37,16.37,0,0,0-2.16-6.59,1.06,1.06,0,0,1,.12-1.19,1,1,0,0,1,1.07-.3c5,5.2,10.14,10.62,15.59,16.34L87.52,185.56a1.05,1.05,0,0,1-1.44,0c-4.37-4.08-8.49-6.88-12.23-8.32a1.12,1.12,0,0,1-.62-.64,1,1,0,0,1,.11-.89C73.54,175.4,78.5,167.74,91.35,163.89Z"/><path class="cls-1" d="M178.35,205.73a1.06,1.06,0,0,1-.56-.16c-.33-.2-8-5.15-11.84-18-.06-.16-6.74-15.22-18.07-15.22a10.88,10.88,0,0,0-1.14.06,16.23,16.23,0,0,0-6.6,2.15,1,1,0,0,1-.51.13,1.07,1.07,0,0,1-.68-.24,1,1,0,0,1-.29-1.15c0-.1,3.43-10-3.24-15.49C17.46,34.3,8.76,24.07,2.57,1.32a1,1,0,0,1,.25-1l.06,0A1,1,0,0,1,4,.08C4.32.22,41,15,63.54,40.46L158,133c.06,0,5.25,4.13,10.74,4.13l.91,0a9.05,9.05,0,0,0,3.27-.92,1.14,1.14,0,0,1,.46-.11,1.09,1.09,0,0,1,.58.17,1,1,0,0,1,.47.91c0,.23-.63,23.1,12,26.5.56,0,13.64.87,21.58,10.9a1.08,1.08,0,0,1,.2.83,1,1,0,0,1-.46.7,130.42,130.42,0,0,0-16.17,12.72,1.05,1.05,0,0,1-1.44,0l-88.11-85.49,85.58,88.14a1.05,1.05,0,0,1,0,1.44c-4.07,4.38-6.89,8.5-8.31,12.23a1.07,1.07,0,0,1-.66.62.86.86,0,0,1-.32,0"/></g><g id="Double_axe" data-name="Double axe"><path class="cls-1" d="M0,120.49c-.08-4.23-.34-8.65-.78-13.13a2.07,2.07,0,0,0-.59-1.24,2,2,0,0,0-1-.55,2,2,0,0,0-2.23,1,41.43,41.43,0,0,1-7.46,9.18c-1.24,25.52-9.72,45.64-25.25,59.91-13.85,12.7-31.22,18.57-45.95,21.22l12.43,12.24c14.65-2.49,32.2-8.21,46.12-21C-7.84,172.62.49,149.85,0,120.49Z"/></g></svg>