<svg xmlns="http://www.w3.org/2000/svg" viewBox="0 0 245.36 283.46"><defs><style>.cls-1,.cls-2{fill:#1d1d1b;}.cls-2{fill-rule:evenodd;}</style></defs><title>Double shield</title><g id="Double_shield" data-name="Double shield"><path class="cls-1" d="M66.92,191.71c-.78-.82-1.61-1.64-2.34-2.45a174.11,174.11,0,0,1-24.87-37.12C23.63,120,16.32,87.31,16.79,49.68c34.78-4.09,61.32-13.89,80.94-29.9l1,.79c1.84,1.47,3.74,3,5.6,4.28,18.45,12.85,42.75,21,74.21,24.82.05,5.28-.13,10.9-.48,17A139.46,139.46,0,0,0,194,73.57a294.34,294.34,0,0,0,1.26-35.36,3.3,3.3,0,0,0-2.93-3.2c-35.6-4-62.8-12.85-83.17-27-2.05-1.44-4.2-3.14-6.22-4.76-1.12-.9-2.2-1.77-3.23-2.56a3.3,3.3,0,0,0-4.15.11C73.85,19.45,43.59,30.64,3,35a3.3,3.3,0,0,0-2.94,3.2C-1,82.91,7.42,121.47,26.44,159.56a201.71,201.71,0,0,0,28.91,43.11,123.62,123.62,0,0,0,24.89,21.45,3.21,3.21,0,0,0,1.8.54,2.33,2.33,0,0,0,.33-.06c-1.9-3.35-3.77-6.74-5.51-10.22C73.1,206.86,69.87,199.3,66.92,191.71Z"/><path class="cls-2" d="M164.33,58.62c2.41,1.67,4.93,3.26,7.53,4.78,0-2.78.13-5.56,0-8.47-5.3-.6-10.36-1.43-15.38-2.33l1.62,1.28C160.28,55.59,162.33,57.25,164.33,58.62Z"/><path class="cls-2" d="M51.48,87.79l0-1,1-.1A6.44,6.44,0,0,1,56,85.08c39.9-4.3,69.56-15.24,90.71-33.43a5.47,5.47,0,0,1,1.3-.76c-16.21-3.66-30.69-9.23-42.79-17.67-2.58-1.79-5.25-4.07-7.56-5.83C79,43.45,53.38,51.72,23.38,54.93c-.91,39.71,8.06,69.46,20.55,94.34A154,154,0,0,0,61.78,177.1c-8.53-26.88-12.36-54.8-11.64-85.62A6.48,6.48,0,0,1,51.48,87.79Z"/><path class="cls-1" d="M160.6,64c-2.12-1.45-4.33-3.21-6.4-4.87-1.23-1-2.24-1.8-3.19-2.54-22.18,19.11-53,30.56-94.28,35-1,44.16,7.25,82.22,26,119.8a198,198,0,0,0,28.42,42.41,119.26,119.26,0,0,0,39.7,29.62,114.19,114.19,0,0,0,40-29.46,205.34,205.34,0,0,0,28.62-42.4c18.43-36.16,26.87-75.4,25.81-120C209.15,87.57,181.44,78.55,160.6,64Zm51.46,143.08a185,185,0,0,1-25.5,37.82,101.62,101.62,0,0,1-35.69,26.28,106,106,0,0,1-35.4-26.44A177.32,177.32,0,0,1,90.1,207C76,178.73,65.87,145,66.88,100.07c34-3.64,63-13,84.13-31.18,2.62,2,5.63,4.59,8.56,6.6,20.13,14,45.92,21.26,75.55,24.58C236.13,144.62,226.35,179,212.06,207.12Z"/><path class="cls-2" d="M158.57,86.56c-2.57-1.79-5.23-4.07-7.56-5.82-18.71,16.05-44.28,24.32-74.28,27.55-.91,39.69,8.07,69.45,20.55,94.33A153.68,153.68,0,0,0,119.65,236a93,93,0,0,0,31.26,23.33,89,89,0,0,0,31.46-23.21,162.19,162.19,0,0,0,22.54-33.38c12.63-24.81,21.26-55.17,20.36-94.48C199.11,105.33,176.36,99,158.57,86.56Z"/></g></svg>