<svg xmlns="http://www.w3.org/2000/svg" viewBox="0 0 283.46 192.91"><defs><style>.cls-1{fill:#1d1d1b;}</style></defs><title>Double siege</title><g id="Double_siege" data-name="Double siege"><path class="cls-1" d="M262.81,92.13c-.17.19-.3.39-.46.57a9.35,9.35,0,0,1-5.17,2.61,12.27,12.27,0,0,1-7.84,5.6,17.17,17.17,0,0,1-8.05,17.35l2,2a38.89,38.89,0,0,1,16.26.64,32.22,32.22,0,0,0,3.29-28.74Z"/><path class="cls-1" d="M67.14,32.8h49.1L83.85,65.18h28.74l35.74-35.73a3.11,3.11,0,0,1,4.3,0l35.73,35.74H217.1L184.71,32.8h31.46a6,6,0,0,0,8.9,5.1A6,6,0,0,0,234,32.8h3.14a3.09,3.09,0,0,0,2.15-.89,3,3,0,0,0,.88-2.15V18.07a3,3,0,0,0-3-3H234a6,6,0,0,0-6-5.84,6.08,6.08,0,0,0-2.91.75,6.05,6.05,0,0,0-2.93-.75,6,6,0,0,0-6,5.85H166.93L152.8.89a3,3,0,0,0-1.59-.75,3,3,0,0,0-3.05.75L134,15H3a3,3,0,0,0-3,3A35.23,35.23,0,0,0,35.2,53.26,35,35,0,0,0,67.14,32.8Z"/><path class="cls-1" d="M89.47,119.66a38.64,38.64,0,0,1,5.77.43l24.17-24.2H99.48a3,3,0,0,1-1.54-.48H89.61c-.44.77-1,1.46-1.47,2.19a17.7,17.7,0,0,1,.91,5.42A18.24,18.24,0,0,1,57.6,115.63c-1.22.11-2.44.25-3.71.25A40.92,40.92,0,0,1,39,113a33.44,33.44,0,0,0,19.8,21.16A39.68,39.68,0,0,1,89.47,119.66Z"/><path class="cls-1" d="M250,125.88a32.83,32.83,0,0,0-8.68,1.17L203.4,89.19h31.47a6,6,0,0,0,8.88,5.09,6.14,6.14,0,0,0,2.93.76,5.93,5.93,0,0,0,6-5.85h3.14A3.1,3.1,0,0,0,258,88.3a3.07,3.07,0,0,0,.88-2.16V74.46a3.06,3.06,0,0,0-3-3h-3.14a5.93,5.93,0,0,0-6-5.85,6,6,0,0,0-2.93.76,6,6,0,0,0-8.88,5.09H185.63L171.49,57.27a2.89,2.89,0,0,0-1.58-.75,3,3,0,0,0-.9-.14,3.12,3.12,0,0,0-2.16.89L152.71,71.41h-131a3,3,0,0,0-3,3A35.18,35.18,0,0,0,85.83,89.19h49.11L97.3,126.82a33.51,33.51,0,1,0,22.93,45.78h99A33.5,33.5,0,1,0,250,125.88ZM89.47,177.68a18.28,18.28,0,1,1,18.28-18.28A18.31,18.31,0,0,1,89.47,177.68Zm137.35-33a27.4,27.4,0,0,0-2.7,5.55,3,3,0,0,1-2.87,2H118.16a3,3,0,0,1-2.86-2,27.45,27.45,0,0,0-3.06-6.16,3.06,3.06,0,0,1,.36-3.86L167,85.83a3.13,3.13,0,0,1,4.29,0l55.09,55.09A3.05,3.05,0,0,1,226.82,144.71Zm23.13,33a18.28,18.28,0,1,1,18.3-18.28A18.3,18.3,0,0,1,250,177.68Z"/></g><g id="Double_ranged" data-name="Double ranged"><g id="g3614"><path class="cls-1" d="M-43.55,26.71l-8.16-10.8L-63.89,28.09l12.21,17.6c54.63-6.27,23,60.82,20.24,85.17,4.3,1.54,8.66,2.79,13.57,0,3.3-21,11.45-37.21,17.54-55.48C1.07,65.94,0,16.27-43.55,26.71Z"/></g></g></svg>