<svg xmlns="http://www.w3.org/2000/svg" viewBox="0 0 283.47 225.5"><defs><style>.cls-1{fill:#1d1d1b;}</style></defs><title>Double axe</title><g id="Double_axe" data-name="Double axe"><path class="cls-1" d="M195.62,12.13a41.43,41.43,0,0,1,9.18-7.46,2,2,0,0,0,1-2.22,2.06,2.06,0,0,0-.56-1.06A2.1,2.1,0,0,0,204.05.8C199.58.36,195.16.1,190.92,0,173.63-.28,158.63,2.49,146,8.28a72.86,72.86,0,0,1,14.78,11.4Q176.06,13.11,195.62,12.13Z"/><path class="cls-1" d="M283.44,92.54c-.07-4.23-.34-8.64-.77-13.13a2.07,2.07,0,0,0-.59-1.24,2,2,0,0,0-1.06-.55,2,2,0,0,0-2.22,1,41.43,41.43,0,0,1-7.46,9.18c-1.25,25.52-9.72,45.64-25.25,59.91-13.86,12.7-31.23,18.58-46,21.22l12.43,12.24c14.65-2.49,32.19-8.2,46.11-21C275.62,144.67,284,121.91,283.44,92.54Z"/><path class="cls-1" d="M190.22,170.36a41.51,41.51,0,0,1-7.95,8.71,2.1,2.1,0,0,0-.16,3,2.2,2.2,0,0,0,1.28.61,122.13,122.13,0,0,0,29.18-1.5L200.14,169C196.66,169.61,193.32,170,190.22,170.36Z"/><path class="cls-1" d="M114.05,144.33,94.14,163.91l1.25,2.67,1.17,1.56a37.19,37.19,0,0,0,7.15,7.84,6,6,0,0,1,1.94,6.49,6.23,6.23,0,0,1-1.49,2.45,6.14,6.14,0,0,1-3.7,1.74c-.57.06-3.6.32-8.22.32a133.18,133.18,0,0,1-20-1.53L58.59,198.91a2.05,2.05,0,0,0-.06,2.87l11,11.61.28.27.28.29,11.6,11a2.08,2.08,0,0,0,2.89-.06l54.37-55.25Z"/><path class="cls-1" d="M255.19,97.32a42.17,42.17,0,0,1-17.62,1.29,67.05,67.05,0,0,1-21.75-7.09l1-.94a2.15,2.15,0,0,0,0-3l-5.47-5.19c5.58-1.55,14.49-3.21,19.84-.16a2.05,2.05,0,0,0,2.92-1l20.38-48.52a2.13,2.13,0,0,0-.44-2.25,1.43,1.43,0,0,0-.23-.2,1.59,1.59,0,0,0-.2-.24l-.07-.05-.06-.08-.23-.2a2.12,2.12,0,0,0-2.45-.66L202.22,49.43A2.08,2.08,0,0,0,201,50.68a2,2,0,0,0,.16,1.67c3,5.36,1.38,14.26-.16,19.84l-5.2-5.48a2.16,2.16,0,0,0-3,0l-.95,1a67.54,67.54,0,0,1-7.09-21.75,42.21,42.21,0,0,1,1.3-17.63,39.12,39.12,0,0,1,5.42-11.11,92.88,92.88,0,0,0-27.27,6.23c10.94,12.47,18,28.8,21.12,48.58a125.83,125.83,0,0,1,1.24,28.52,6.08,6.08,0,0,1-1.74,3.66,5.89,5.89,0,0,1-2.44,1.49,6.08,6.08,0,0,1-1.83.29,6,6,0,0,1-4.67-2.22,37.37,37.37,0,0,0-7.83-7.15l-1.56-1-1.92-1-20.1,19.78,24.81,24.42,21.74-22.1a88,88,0,0,1,5.75,22.71c.18,1.77.29,3.56.33,5.35A46.71,46.71,0,0,1,194.07,163l1.89,1.85c14.56-2.19,32.77-7.62,46.91-20.61,13.69-12.56,21.57-30.16,23.44-52.34A39.58,39.58,0,0,1,255.19,97.32Z"/><path class="cls-1" d="M2.86,77.57a2,2,0,0,1,1.81,1.09,41.43,41.43,0,0,0,7.46,9.18c1.24,25.52,9.72,45.64,25.25,59.91,17.12,15.72,39.64,21,55.87,22.61a41.21,41.21,0,0,0,7.94,8.71,2,2,0,0,1,.65,2.2,2.06,2.06,0,0,1-.49.83,2.17,2.17,0,0,1-1.27.61c-.44,0-3.32.29-7.84.29-14.41,0-45.45-2.58-67.45-22.77C7.84,144.67-.49,121.91,0,92.54.1,88.31.37,83.9.8,79.41a2.12,2.12,0,0,1,.59-1.24,2,2,0,0,1,1.05-.55,1.6,1.6,0,0,1,.42-.05"/><path class="cls-1" d="M95.1,0c28.14,0,50,8.33,65.12,24.77,26.55,28.93,22.66,73.44,22.48,75.32a2.09,2.09,0,0,1-1.43,1.76,2.27,2.27,0,0,1-.62.09,2,2,0,0,1-1.57-.76,41.89,41.89,0,0,0-8.72-7.92C168.74,77,163.47,54.5,147.74,37.39c-14.27-15.54-34.39-24-59.9-25.26a41.52,41.52,0,0,0-9.17-7.46,2,2,0,0,1-1.06-2.22,2.22,2.22,0,0,1,.56-1.06A2.1,2.1,0,0,1,79.42.8C83.88.36,88.31.1,92.54,0H95.1"/><path class="cls-1" d="M91.9,17.16c22.18,1.88,39.78,9.74,52.34,23.43,13.85,15.09,19.11,34.81,21,49.79a45.3,45.3,0,0,0-19.59-4.12h-1c-1.82,0-3.59.16-5.35.34a87.88,87.88,0,0,0-22.72,5.73L224.88,198.91a2.05,2.05,0,0,1,.06,2.87l-11,11.61-.27.27-.28.3-11.6,11a2.09,2.09,0,0,1-2.89-.06L92.34,116.6a88.39,88.39,0,0,0-5.74,22.71c-.19,1.77-.29,3.56-.33,5.35a45.77,45.77,0,0,0,4.11,20.59c-15-1.89-34.7-7.15-49.79-21C26.9,131.68,19,114.08,17.16,91.9a39.39,39.39,0,0,0,11.11,5.42A40.39,40.39,0,0,0,39.93,99a48.76,48.76,0,0,0,6-.39,67.05,67.05,0,0,0,21.75-7.09l-1-.94a2.15,2.15,0,0,1,0-3l5.48-5.19a47.54,47.54,0,0,0-12-1.86,16.2,16.2,0,0,0-7.88,1.69,2,2,0,0,1-1,.27,1.91,1.91,0,0,1-.67-.1,2.07,2.07,0,0,1-1.24-1.18L29.05,32.73a2,2,0,0,1,.67-2.45,1.59,1.59,0,0,1,.2-.24L30,30l.06-.08.24-.2a1.37,1.37,0,0,1,.2-.22A2.14,2.14,0,0,1,32,28.9a1.83,1.83,0,0,1,.77.15L81.25,49.43a2.09,2.09,0,0,1,1.18,1.25,2.06,2.06,0,0,1-.16,1.67c-3,5.36-1.38,14.26.16,19.83l5.2-5.47a2.13,2.13,0,0,1,1.5-.59,2.1,2.1,0,0,1,1.45.57l.94,1A67.29,67.29,0,0,0,98.61,45.9a42.22,42.22,0,0,0-1.29-17.63A39.39,39.39,0,0,0,91.9,17.16"/></g><g id="Double_hammer" data-name="Double hammer"><path class="cls-1" d="M-.68,103.61l-3.81-6a2.37,2.37,0,0,0-.32-.39l0-.05L-5,97a2.27,2.27,0,0,0-3.18,0l-51.1,51.1a2.29,2.29,0,0,0-.05,3.18l.12.12,0,0a2.08,2.08,0,0,0,.4.32l6,3.8a3.2,3.2,0,0,0,4.27-.28L-1,107.87A3.19,3.19,0,0,0-.68,103.61Z"/></g></svg>