<svg xmlns="http://www.w3.org/2000/svg" viewBox="0 0 283.46 283.46"><defs><style>.cls-1{fill:#1d1d1b;}</style></defs><title>Double spear</title><g id="Double_spear" data-name="Double spear"><path class="cls-1" d="M211.42,42.72a.4.4,0,0,0,.16.12.65.65,0,0,0,.66,0,8.65,8.65,0,0,1,1.64-.69,20.78,20.78,0,0,1,27.44,27.41,6.89,6.89,0,0,1-.68,1.68.67.67,0,0,0,0,.67.73.73,0,0,0,.57.36,87.1,87.1,0,0,1,13.61,1.78.66.66,0,0,0,.53-.1.68.68,0,0,0,.3-.46A205.25,205.25,0,0,1,283.36,1.07a.71.71,0,0,0-.1-.86A.69.69,0,0,0,282.4.1,205.58,205.58,0,0,1,210,27.84a.66.66,0,0,0-.46.29.73.73,0,0,0-.1.54,92.23,92.23,0,0,1,1.78,13.61A.73.73,0,0,0,211.42,42.72Z"/><path class="cls-1" d="M20.31,274.36,9.1,263.15a.71.71,0,0,0-1,0l-4.31,4.3C0,271.3-1.14,276.24,1.29,278.67l3.5,3.5c2.44,2.44,7.37,1.33,11.21-2.51l4.31-4.31A.69.69,0,0,0,20.31,274.36Z"/><path class="cls-1" d="M214.13,81.54a.77.77,0,0,0,.2-.63.75.75,0,0,0-.42-.51,20.65,20.65,0,0,1-10.85-10.84.67.67,0,0,0-.5-.41.66.66,0,0,0-.63.19l-55.48,55.48,12.2,12.2Z"/><path class="cls-1" d="M13,258.31a.69.69,0,0,0,0,1l11.21,11.21a.71.71,0,0,0,1,0L137,158.65l-12.2-12.2Z"/><path class="cls-1" d="M232.46,71.48a14.49,14.49,0,1,0-20.54.07A14.5,14.5,0,0,0,232.46,71.48Z"/><path class="cls-1" d="M27.82,73.49A205.63,205.63,0,0,0,.11,1.07.69.69,0,0,1,.21.21.68.68,0,0,1,1.07.1a205.53,205.53,0,0,0,72.4,27.74.61.61,0,0,1,.45.29.69.69,0,0,1,.11.54,96.33,96.33,0,0,0-1.79,13.61.66.66,0,0,1-.19.44l-.16.12a.69.69,0,0,1-.68,0,8.48,8.48,0,0,0-1.62-.69A20.78,20.78,0,0,0,42.14,69.56a7.38,7.38,0,0,0,.69,1.68.72.72,0,0,1,0,.67.67.67,0,0,1-.55.36,87.1,87.1,0,0,0-13.61,1.78.69.69,0,0,1-.54-.1A.63.63,0,0,1,27.82,73.49Z"/><path class="cls-1" d="M263.15,274.36l11.22-11.21a.69.69,0,0,1,1,0l4.3,4.3c3.85,3.85,5,8.79,2.51,11.22l-3.49,3.5c-2.44,2.44-7.36,1.33-11.22-2.51l-4.3-4.31A.71.71,0,0,1,263.15,274.36Z"/><path class="cls-1" d="M50.94,50.94A14.57,14.57,0,1,1,51,71.48,14.52,14.52,0,0,1,50.94,50.94Z"/><path class="cls-1" d="M81,69.13a.71.71,0,0,1,.5.21l189,189a.71.71,0,0,1,0,1l-11.22,11.21a.7.7,0,0,1-1,0l-189-189a.71.71,0,0,1-.2-.63.68.68,0,0,1,.42-.51A20.68,20.68,0,0,0,80.41,69.56a.65.65,0,0,1,.5-.41l.13,0"/></g><g id="Spear"><path class="cls-1" d="M20.31-9.1,9.1-20.31a.69.69,0,0,0-1,0L3.81-16C0-12.16-1.14-7.23,1.3-4.79l3.49,3.5C7.23,1.15,12.16,0,16-3.81l4.3-4.3A.69.69,0,0,0,20.31-9.1Z"/></g></svg>