<svg xmlns="http://www.w3.org/2000/svg" viewBox="0 0 283.46 283.46"><defs><style>.cls-1{fill:#1d1d1b;}</style></defs><title>Double melee</title><g id="Double_melee" data-name="Double melee"><path class="cls-1" d="M246.18,14.54l26.73-4-4,26.71-96.43,96.45L177,138.2,277.81,37.42a3.41,3.41,0,0,0,.92-1.83l4.7-31.87a3.36,3.36,0,0,0-.92-2.78A3.31,3.31,0,0,0,279.72,0L247.9,4.75a3.25,3.25,0,0,0-1.81.92L145.28,106.47l4.46,4.47Z"/><polygon class="cls-1" points="265.54 36.86 268.81 14.69 246.63 17.94 151.67 112.87 170.59 131.8 265.54 36.86"/><path class="cls-1" d="M93.94,212.32l-2-1.91,39.83-39.82-18.93-18.93L73.08,191.44l-1.94-1.92L111,149.73l-4.47-4.46L69,182.75l-7.4-7.37a3.26,3.26,0,0,0-2.29-.94h-31A3.25,3.25,0,0,0,26,180l28.66,28.65L18.91,244.43,8,248.05a3.22,3.22,0,0,0-2.07,2.06L.16,267.51a3.3,3.3,0,0,0,.78,3.33l11.59,11.67a3.29,3.29,0,0,0,2.31.95,3.11,3.11,0,0,0,1-.17l17.45-5.84a3.2,3.2,0,0,0,2.05-2.05L39,264.56l35.77-35.8,28.73,28.68a3.25,3.25,0,0,0,5.54-2.3v-31a3.23,3.23,0,0,0-1-2.31l-7.37-7.37L138.2,177l-4.46-4.47ZM25,270,16.33,273l-5.87-5.83,3-8.74,8.71-2.86,5.8,5.8Zm69.07-42-3.86,0L55.41,193.17l0-3.83,3.81-.06,34.85,34.87Z"/><path class="cls-1" d="M.94,1A3.26,3.26,0,0,0,0,3.74L4.75,35.57a3.32,3.32,0,0,0,.92,1.81L182.75,214.47l-7.37,7.4a3.26,3.26,0,0,0-.94,2.29v31a3.26,3.26,0,0,0,5.56,2.32l28.65-28.66,35.78,35.75,3.62,10.9a3.22,3.22,0,0,0,2.06,2.07l17.4,5.78a3.3,3.3,0,0,0,3.33-.78l11.67-11.59a3.26,3.26,0,0,0,.95-2.3,3.07,3.07,0,0,0-.17-1l-5.83-17.45a3.23,3.23,0,0,0-2.06-2.06l-10.84-3.62-35.8-35.77L257.44,180a3.25,3.25,0,0,0-2.3-5.55h-31a3.23,3.23,0,0,0-2.31,1l-7.37,7.37L37.42,5.66a3.35,3.35,0,0,0-1.83-.93L3.72,0A3.34,3.34,0,0,0,.94,1ZM270,258.42l2.93,8.71L267.13,273l-8.74-3-2.86-8.71,5.8-5.79Zm-42-69.06,0,3.85-34.87,34.84-3.83,0-.06-3.81,34.87-34.84ZM37.28,14.5l175.05,175-1.92,2L36.85,17.92,14.69,14.65l3.25,22.18,173.5,173.55-1.91,1.94-175-175-4-26.74Z"/></g><g id="Melee"><path class="cls-1" d="M282.51-282.52a3.28,3.28,0,0,0-2.79-.91l-31.82,4.71a3.26,3.26,0,0,0-1.81.93L69-100.71l-7.4-7.37A3.26,3.26,0,0,0,59.3-109h-31a3.26,3.26,0,0,0-3,2,3.27,3.27,0,0,0,.71,3.55L54.67-74.81,18.91-39,8-35.41a3.22,3.22,0,0,0-2.07,2.06L.16-15.95a3.3,3.3,0,0,0,.78,3.33L12.53-.95a3.28,3.28,0,0,0,2.3,1,3.12,3.12,0,0,0,1.05-.17L33.33-6a3.2,3.2,0,0,0,2.05-2.05L39-18.9,74.77-54.7,103.5-26a3.25,3.25,0,0,0,3.54.7,3.25,3.25,0,0,0,2-3v-31a3.23,3.23,0,0,0-1-2.31L100.71-69,277.81-246a3.38,3.38,0,0,0,.92-1.82l4.7-31.87A3.32,3.32,0,0,0,282.51-282.52ZM25-13.43,16.33-10.5l-5.87-5.83,3-8.74,8.71-2.86,5.79,5.8Zm69.07-42-3.86,0L55.41-90.29l0-3.84,3.81-.05L94.11-59.31ZM269-246.18l-175,175L92-73,265.54-246.61l3.27-22.17-22.18,3.26L73.08-92l-1.94-1.92,175-175,26.73-4Z"/></g></svg>