<svg xmlns="http://www.w3.org/2000/svg" viewBox="0 0 233.1 283.46"><defs><style>.cls-1{fill:#1d1d1b;}</style></defs><title>Draw</title><g id="Discard"><path class="cls-1" d="M224.65,324.4,73.32,283.86a11.39,11.39,0,0,0-13.95,8.05L.39,512a11.39,11.39,0,0,0,8.06,14l151.32,40.55a11.38,11.38,0,0,0,13.95-8.06l59-220.13A11.39,11.39,0,0,0,224.65,324.4ZM159.28,437.07a1.22,1.22,0,0,1-1.23,1.22H75a1.22,1.22,0,0,1-1.22-1.22V413.32A1.22,1.22,0,0,1,75,412.1h83a1.23,1.23,0,0,1,1.23,1.22Z"/></g><g id="Draw"><path class="cls-1" d="M224.65,40.94,73.33.39a11.4,11.4,0,0,0-14,8.06L.39,228.57a11.4,11.4,0,0,0,8.06,14l151.32,40.54a11.39,11.39,0,0,0,14-8.05l59-220.13A11.39,11.39,0,0,0,224.65,40.94ZM159.28,153.61a1.22,1.22,0,0,1-1.22,1.22H129.62v28.41a1.22,1.22,0,0,1-1.22,1.22H104.7a1.22,1.22,0,0,1-1.22-1.22V154.83H75a1.22,1.22,0,0,1-1.22-1.22V129.86A1.22,1.22,0,0,1,75,128.64h28.44V100.23A1.22,1.22,0,0,1,104.7,99h23.7a1.22,1.22,0,0,1,1.22,1.22v28.41h28.44a1.22,1.22,0,0,1,1.22,1.22Z"/></g><g id="Play"><path class="cls-1" d="M232.71-228.57a11.4,11.4,0,0,0-8.06-14L73.32-283.07A11.39,11.39,0,0,0,59.37-275L.39-54.89a11.39,11.39,0,0,0,8,14L159.77-.39a11.38,11.38,0,0,0,13.95-8.06Z"/></g></svg>