<svg xmlns="http://www.w3.org/2000/svg" viewBox="0 0 217.24 283.46"><defs><style>.cls-1{fill:#1d1d1b;}</style></defs><title>Dual</title><g id="Dual"><path class="cls-1" d="M132.68,22.75l-19-19c-.78-.77-1.57-1.51-2.36-2.24l-.8-.74A2.68,2.68,0,0,0,108.63,0h0a2.68,2.68,0,0,0-1.87.75l-.8.74c-.79.73-1.58,1.47-2.36,2.24l-19,19C57.05,50.28,0,110.49,0,110.49a2.75,2.75,0,0,0,2.75,2.75l56.13.05c.92,7.75,2.72,18.43,5.2,30.7,2.35-10.78,5.22-22.67,8.57-34.9C77.68,90.7,85,67.26,93.48,49.34a136.44,136.44,0,0,1,10.71-21,5.28,5.28,0,0,1,8.86,0,135.15,135.15,0,0,1,10.7,21c8.52,17.91,15.8,41.37,20.84,59.77,3.34,12.22,6.22,24.11,8.57,34.9,2.48-12.27,4.28-23,5.2-30.7l56.13-.05a2.75,2.75,0,0,0,2.75-2.75S160.19,50.28,132.68,22.75Z"/><path class="cls-1" d="M108.62,38.42a2.51,2.51,0,0,1,2.07,1.12c20,30.72,38.82,112,42.45,142.54l50.23,0a2.48,2.48,0,0,1,2.47,2.47s-51.08,53.89-75.69,78.52l-17,17c-.7.69-1.41,1.35-2.12,2l-.71.67a2.44,2.44,0,0,1-1.67.66h0a2.38,2.38,0,0,1-1.66-.66l-.73-.67c-.69-.65-1.41-1.31-2.1-2l-17-17c-24.62-24.63-75.67-78.52-75.67-78.52a2.46,2.46,0,0,1,2.46-2.47l50.23,0c3.62-30.56,22.4-111.82,42.44-142.54a2.51,2.51,0,0,1,2.07-1.12"/></g></svg>