<svg xmlns="http://www.w3.org/2000/svg" viewBox="0 0 250.11 283.45"><defs><style>.cls-1{fill:#1d1d1b;}</style></defs><title>Earth hex</title><g id="Earth_hex" data-name="Earth hex"><path class="cls-1" d="M112.33,155.87a2.85,2.85,0,0,0-2.46-1l-22.94,2.31a2.88,2.88,0,0,0-2.31,1.63l-8.28,17.66a2.83,2.83,0,0,0,.08,2.58l3.83,7,5.9,10.82a2.86,2.86,0,0,0,2.19,1.47l.33,0,23.55-.09a2.86,2.86,0,0,0,2.61-1.73l10-23.47a2.83,2.83,0,0,0-.45-3Z"/><path class="cls-1" d="M249.33,71h0v0l0,0a5.69,5.69,0,0,0-2.24-2.17L127.73.78a6.06,6.06,0,0,0-6,0L3,68.82a6.11,6.11,0,0,0-2.2,2.12v0L.77,71v0h0A5.71,5.71,0,0,0,0,74V210.1a5.92,5.92,0,0,0,3,5.11l118.73,67.42a5.78,5.78,0,0,0,3,.82h.07a5.89,5.89,0,0,0,3-.82l119.3-67.42a5.91,5.91,0,0,0,3-5.11V74A5.72,5.72,0,0,0,249.33,71Zm-53.75,59.24-31.35,73.49a8.91,8.91,0,0,1-8.17,5.43l-73.75.27a8.64,8.64,0,0,1-1-.06,9,9,0,0,1-6.84-4.59s-17.6-32.29-18.5-33.91L44,149.12a8.9,8.9,0,0,1-.26-8.1l26-55.31a8.92,8.92,0,0,1,7.21-5.09l71.85-7.25a8.9,8.9,0,0,1,7.72,3.11L194.18,121A8.93,8.93,0,0,1,195.58,130.27Z"/></g></svg>