<svg xmlns="http://www.w3.org/2000/svg" viewBox="0 0 283.46 251.46"><defs><style>.cls-1{fill:#1d1d1b;}</style></defs><title>Earth</title><g id="Earth"><path class="cls-1" d="M279.55,88,209.83,5.84A16.43,16.43,0,0,0,195.57.09L62.85,13.47a16.51,16.51,0,0,0-13.32,9.41L1.56,125a16.5,16.5,0,0,0,.49,15L24.2,180.24c1.65,3,34.17,62.63,34.17,62.63A16.5,16.5,0,0,0,71,251.36a14.57,14.57,0,0,0,1.89.1L209.14,251a16.54,16.54,0,0,0,15.09-10l57.91-135.76A16.47,16.47,0,0,0,279.55,88ZM151.44,184.2,133,227.54a5.27,5.27,0,0,1-4.82,3.2l-43.5.16a4,4,0,0,1-.6,0,5.29,5.29,0,0,1-4-2.72l-10.9-20L62,195.32a5.24,5.24,0,0,1-.14-4.78l15.29-32.62a5.32,5.32,0,0,1,4.27-3l42.36-4.28a5.32,5.32,0,0,1,4.56,1.84l22.25,26.25A5.24,5.24,0,0,1,151.44,184.2Z"/></g></svg>