<svg xmlns="http://www.w3.org/2000/svg" viewBox="0 0 249.09 283.46"><defs><style>.cls-1{fill:#1d1d1b;}</style></defs><title>Elite boss</title><g id="Elite_boss" data-name="Elite boss"><path class="cls-1" d="M27.75,275.08l80.69-37.6a31.44,31.44,0,0,0-5.68-1.87l-.14,0L90,230.8c-3.34-.16-5.8-.67-7.62-1.76L19.87,258.19l-7.42,13.75Z"/><path class="cls-1" d="M110.61,238.56,27.23,277.42,8.77,273.66l9-16.56,63.05-29.4a9.26,9.26,0,0,1-2-3.92L12,254.9a2.5,2.5,0,0,0-1,1L.26,275.63a2.29,2.29,0,0,0,0,2,2.21,2.21,0,0,0,1.59,1.26l22,4.48a2.2,2.2,0,0,0,1.41-.15L115,241.36c-.56-.34-1.11-.69-1.67-1.07C112.53,239.73,111.64,239.14,110.61,238.56Z"/><path class="cls-1" d="M191.47,184a32.87,32.87,0,0,1-3.5.2,22.21,22.21,0,0,1-3.52-.26l10.26,22-.93,2.5-2.53-.89-12.16-26.11a20.41,20.41,0,0,0-3.33-.23,29.64,29.64,0,0,0-8,1.08l-4.29,2a7.31,7.31,0,0,0-.84.68,4.74,4.74,0,0,0-1.4,3.29,12.6,12.6,0,0,1,.69,1.57l4.17-1.94c1.22-2.59,3.13-4.95,5-4.95a2.44,2.44,0,0,1,1.73.84,4.46,4.46,0,0,1,.47.74l.56,1.86a23.37,23.37,0,0,1,.11,5.24,46.16,46.16,0,0,1-2,11.13,21.6,21.6,0,0,0-.72,5.44l11.48-5.35.8,1.72-12.33,5.75c0,.78,0,1.55,0,2.24v1.5c0,.39,0,.73,0,1.11l12.12-5.65,3.09,6.58a2.36,2.36,0,0,0,1.27,1.18L208,224.65a2.32,2.32,0,0,0,2.45-.6,2.28,2.28,0,0,0,.38-2.5L198.88,196l31.94-14.89,8,.23a2.31,2.31,0,0,0,1.84-.87l7.93-10a2.25,2.25,0,0,0,.29-2.35l-4.8-10.39a2.28,2.28,0,0,0-1.29-1.19,2.25,2.25,0,0,0-.73-.14l-12.8-.34a2.33,2.33,0,0,0-1.85.86l-4.95,6.24-24.32,11.35C197.72,179.13,196.34,183.35,191.47,184Zm41.43-21.13,6.41.16,2.45,5.2-4,5-6.38-.2-2.41-5.18Z"/><path class="cls-1" d="M146.33,235.61a30.92,30.92,0,0,0-5.68,1.87l80.69,37.6,15.29-3.14-7.42-13.75L166.69,229c-1.82,1.09-4.28,1.6-7.63,1.76Z"/><path class="cls-1" d="M248.83,275.63l-10.69-19.76a2.47,2.47,0,0,0-1-1l-66.77-31.12a9.54,9.54,0,0,1-2,3.93l63,29.39,9,16.56-18.45,3.76-83.37-38.86c-1,.58-1.92,1.17-2.75,1.73-.56.38-1.11.73-1.67,1.07l89.85,41.9a2.18,2.18,0,0,0,1.4.15l22-4.48a2.26,2.26,0,0,0,1.59-1.26A2.32,2.32,0,0,0,248.83,275.63Z"/><path class="cls-1" d="M8.42,180.42a2.28,2.28,0,0,0,1.84.87l8-.23L50.21,196l-11.94,25.6a2.3,2.3,0,0,0,.38,2.5,2.34,2.34,0,0,0,2.46.6l20.28-7.38a2.3,2.3,0,0,0,1.27-1.18l3.1-6.58,12.12,5.65v-2.5c0-.73,0-1.53,0-2.35l-12.34-5.75.8-1.72,11.49,5.35a22,22,0,0,0-.73-5.43,45.83,45.83,0,0,1-2-11.16,23.39,23.39,0,0,1,.1-5.22l.56-1.86A2.43,2.43,0,0,1,77.81,183c2,0,3.92,2.34,5.13,4.92l4.18,2a12.6,12.6,0,0,1,.69-1.57A4.65,4.65,0,0,0,86.42,185c-.24-.24-.54-.46-.83-.7l-4.3-2a29.63,29.63,0,0,0-8-1.08,20.41,20.41,0,0,0-3.33.23L57.83,207.54l-2.52.89-.94-2.5,10.25-22a21.87,21.87,0,0,1-3.5.26,32.22,32.22,0,0,1-3.48-.2c-4.91-.64-6.27-4.72-6.69-9.52L26.61,163.09l-4.93-6.24a2.36,2.36,0,0,0-1.85-.86L7,156.33a2.36,2.36,0,0,0-.73.14A2.29,2.29,0,0,0,5,157.66L.21,168.05a2.29,2.29,0,0,0,.27,2.35ZM9.78,163l6.39-.16,4,5L17.73,173l-6.39.2-4-5Z"/><path class="cls-1" d="M145.77,233.49l13-4.88c8.22-.35,10.27-2.11,10.23-14.56v-1.47c0-3.19-.07-7.57.86-10.48a43.33,43.33,0,0,0,1.94-10.63c.34-4.76-.38-6-.61-6.25-.68-.08-2.26,1.46-3.43,4.36a21.88,21.88,0,0,0-.87,4.25,20.85,20.85,0,0,1-1.46,6.08l-.19.3c-1,1-1.77,1.93-2.48,2.77-1.34,1.63-2.31,2.8-3.66,2.8a2.91,2.91,0,0,1-2.22-1.34,13.23,13.23,0,0,1-2.15.24c-1.38.06-2.57.13-3.23.92a8.94,8.94,0,0,0-.07,1,5.26,5.26,0,0,1-.93,3.46l-.32.34-5.1.29-.09-1.06c-.09-.88-.43-2.94-1.69-2.94a3.15,3.15,0,0,0-2.5,2.24l-.29.83-4.47-.56-.26-.56c-.74-1.6-1.68-2.42-2.78-2.42-1.58,0-3.52,1.6-4.5,3.14l-.35.56-3.54-.26h-.11l-3.59.26-.35-.55c-1-1.52-2.88-3.15-4.49-3.15-1.11,0-2,.82-2.8,2.42l-.26.56-4.44.56-.29-.83a3.19,3.19,0,0,0-2.5-2.24c-1.27,0-1.61,2.06-1.69,2.94l-.1,1.06-5.13-.29-.3-.34a5.22,5.22,0,0,1-.94-3.49,6.63,6.63,0,0,0-.08-1.06c-.64-.73-1.82-.8-3.19-.86a13.35,13.35,0,0,1-2.16-.24A2.87,2.87,0,0,1,90,205.78c-1.34,0-2.32-1.17-3.68-2.8-.7-.84-1.49-1.79-2.48-2.77l-.21-.3a21.18,21.18,0,0,1-1.42-6,21.49,21.49,0,0,0-.9-4.31c-1.17-2.91-2.81-4.44-3.36-4.44,0,0-1,.72-.68,6.32a43.31,43.31,0,0,0,1.94,10.65c.94,2.93.9,7.34.88,10.57l0,1.37c0,12.45,2,14.21,10.24,14.56l.34.06,12.69,4.82a30.32,30.32,0,0,1,11.25,5c2.67,1.79,4.6,3.08,9.36,3.08h1.19c4.77,0,6.69-1.29,9.38-3.09A30.57,30.57,0,0,1,145.77,233.49Z"/><path class="cls-1" d="M204.48,112.27c-.09.49-.18,1-.27,1.47C204.31,113.26,204.39,112.77,204.48,112.27Z"/><path class="cls-1" d="M203.19,118.61c-.1.43-.21.84-.31,1.26C203,119.45,203.09,119.05,203.19,118.61Z"/><path class="cls-1" d="M204.21,113.74c-.32,1.69-.67,3.32-1,4.87C203.54,117.06,203.89,115.43,204.21,113.74Z"/><path class="cls-1" d="M205.29,107c-.22,1.81-.5,3.58-.81,5.3C204.79,110.55,205.07,108.78,205.29,107Z"/><path class="cls-1" d="M205.64,104.09c0,.27-.09.55-.12.82s0,.39-.05.6C205.52,105,205.59,104.57,205.64,104.09Z"/><path class="cls-1" d="M205.47,105.51c-.05.48-.12,1-.18,1.46C205.35,106.49,205.42,106,205.47,105.51Z"/><path class="cls-1" d="M196.08,172.12c0-.41,0-.8,0-1.25,0,.16,0,.28,0,.43S196.09,171.86,196.08,172.12Z"/><path class="cls-1" d="M175.76,179c3.75,0,5.89.52,6.4,1.58.26.57,2,1.38,5.8,1.38a28.06,28.06,0,0,0,3.25-.18c2.12-.28,3.43-1.49,4.15-4.15a28.31,28.31,0,0,0,.75-6.34c0-.14,0-.27,0-.41a5.88,5.88,0,0,0-.07-.71,4.3,4.3,0,0,1,.08.69,4.68,4.68,0,0,0-.08-.71c0-.39-.06-.78-.15-1.25-1.16-6.49-7.37-18.75-5-24.74,2-4.74,3.57-11.8,9.28-15.51,0-.09.08-.23.12-.33,0,.11-.08.23-.12.33-5.71,3.71-7.3,10.77-9.29,15.51-2.41,6,3.79,18.24,5,24.72a68.29,68.29,0,0,0-2.2-7.46c-2.15-6.35-4.56-13.58-2.78-18,.4-.92.76-1.9,1.14-2.93,1.62-4.4,3.64-9.86,8.42-13.14a105.67,105.67,0,0,0,5-22.41c.94-8.69.82-17.66-1.82-24a66.35,66.35,0,0,0-7.59-13.25,179.15,179.15,0,0,0-8.73,31.56l-.88,5L181.58,103a72.28,72.28,0,0,0-12.14-1.65l-6.72-.41,2.55-6.21L177.5,65l-.85-.86-29.8,12.25-6.26,2.58-2.73-5.83L125.19,42.77h-1.36L111.21,73.1l-2.75,5.82-6.23-2.57L72.41,64.1l-.86.85L83.8,94.74,86.37,101l-6.72.41A75.89,75.89,0,0,0,67.46,103l-4.9,1.08-.87-4.94A176.89,176.89,0,0,0,53,67.59a67.22,67.22,0,0,0-7.63,13.28c-2.56,6.23-2.77,14.94-1.9,23.41a106.09,106.09,0,0,0,5.12,23c4.8,3.28,6.81,8.74,8.44,13.14.38,1,.74,2,1.12,2.91,1.79,4.5-.63,11.71-2.75,18.08-1.28,3.8-2.47,7.39-2.42,9.42,0,1.42.1,2.67.22,3.78v0c.08.71.17,1.35.29,1.95a.22.22,0,0,1,0,.08c.68,3.32,2,4.77,4.4,5.08a29.77,29.77,0,0,0,3.23.17c3.8,0,5.55-.81,5.79-1.36.52-1.08,2.67-1.6,6.42-1.6,5,0,11.51,1.16,14.66,4.43a6.81,6.81,0,0,1,2,5.14v.26l-.12.24c-1.06,1.91-1.36,3.53-.81,4.44a2.85,2.85,0,0,0,2.45,1,15.32,15.32,0,0,0,.64-3.26l.14-1c.46-3.15,2.18-4.27,3.62-4.27a2.09,2.09,0,0,1,2.21,1.76,17.71,17.71,0,0,1,.43,5.73,5.14,5.14,0,0,1-.7,2.06,2.38,2.38,0,0,0-.45,1.64l0,.26-.07.26a1.07,1.07,0,0,0,0,.49,4.73,4.73,0,0,0,1.13.31,7.2,7.2,0,0,1,2.23.76c.6.35,1.12.7,1.61,1.05,1.23.84,2,1.34,3.34,1.25a17.55,17.55,0,0,0,.27-2.93,16.09,16.09,0,0,1,.5-4.11,3.85,3.85,0,0,1,3.72-2.21c2,0,3.44,1.13,3.59,2.82a13.21,13.21,0,0,1-.11,2.64,3.5,3.5,0,0,0,0,1.57,2.87,2.87,0,0,0,2.74,2.15,5,5,0,0,0,3.39-1.55,21.37,21.37,0,0,0,.68-4c.26-2.25.37-3,.75-3.49.77-1.08,2.49-2,3.37-1.9.93-.13,2.61.82,3.42,1.95.32.43.44,1.19.69,3.4a19.64,19.64,0,0,0,.71,4.05,4.94,4.94,0,0,0,3.37,1.53,2.84,2.84,0,0,0,2.73-2.1,3.47,3.47,0,0,0,0-1.59,14.13,14.13,0,0,1-.12-2.64c.17-1.72,1.61-2.85,3.6-2.85a3.89,3.89,0,0,1,3.74,2.18,16.49,16.49,0,0,1,.5,4.13,17.57,17.57,0,0,0,.27,2.94c1.33.11,2.11-.41,3.33-1.26a17.57,17.57,0,0,1,1.62-1,7,7,0,0,1,2.21-.76,3.92,3.92,0,0,0,1.15-.33,1.7,1.7,0,0,0,0-.49l-.07-.26.05-.24a2.36,2.36,0,0,0-.45-1.64,5.24,5.24,0,0,1-.73-2.1,18.47,18.47,0,0,1,.43-5.68,2.11,2.11,0,0,1,2.24-1.77c1.44,0,3.16,1.12,3.62,4.26l.14,1a14.73,14.73,0,0,0,.64,3.25,2.83,2.83,0,0,0,2.43-1c.55-.91.25-2.54-.8-4.45l-.13-.24v-.26a6.84,6.84,0,0,1,2-5.14C164.25,180.17,170.74,179,175.76,179ZM109.4,140.5c-7.58,8.51-19.58,11-31.76,7.42-16-4.68-14.19-30,1.47-30.73,1.84,0,3.74-.16,5.71-.15,5.86.1,12.07.84,17.17,3.89C116.38,129.29,115.61,133.41,109.4,140.5Zm21.54,24.81c-1.92-1.69-1.6-5.35-5.87-5.32H124c-4.27,0-4,3.63-5.89,5.32-1.35,1.84-9.29,3.44-6.68-3.58.79-1.82,9.28-16.42,9.15-16.21,1.09-1.42,1.86-1.53,3.42-1.53l.47,0h.13l.46,0c1.57,0,2.34.11,3.41,1.53-.12-.21,8.37,14.39,9.16,16.21C140.26,168.75,132.32,167.15,130.94,165.31Zm8.73-24.81c-6.21-7.09-7-11.21,7.43-19.57,5.07-3.05,11.3-3.79,17.17-3.89,2,0,3.85.1,5.7.15,15.67.69,17.43,26.05,1.47,30.73C159.27,151.46,147.25,149,139.67,140.5Z"/><path class="cls-1" d="M201.46,125c-.38,1.24-.76,2.37-1.11,3.33C200.7,127.37,201.08,126.24,201.46,125Z"/><path class="cls-1" d="M202.88,119.87c-.38,1.52-.77,3-1.15,4.28C202.11,122.85,202.5,121.39,202.88,119.87Z"/><path class="cls-1" d="M201.73,124.15c-.09.3-.18.56-.27.85C201.55,124.71,201.64,124.47,201.73,124.15Z"/><path class="cls-1" d="M97.45,52.15q4.17-6.78,7.73-13.83a78.06,78.06,0,0,0-11.68,1.2C90,28.87,90,17.84,93.41,6.54c.38-1.29.63-2.62.94-3.91L93.7,2.2c-12,4.47-21.46,12.27-27.52,23.57a65.68,65.68,0,0,0-5.61,14c4.49,2.17,9.08,4.14,13.73,5.93C82,48.44,95.14,51.6,97.45,52.15Z"/><path class="cls-1" d="M143.89,38.32c2.4,4.7,5,9.31,7.74,13.83,2.31-.55,15.41-3.71,23.15-6.47q7-2.68,13.73-5.93a65.16,65.16,0,0,0-5.61-14c-6.05-11.3-15.5-19.1-27.51-23.57l-.65.43c.3,1.29.55,2.62.94,3.91,3.4,11.3,3.43,22.33-.09,33A78.32,78.32,0,0,0,143.89,38.32Z"/><path class="cls-1" d="M151.64,52.15h0l-.19,0Z"/><path class="cls-1" d="M79.36,96.58,65.88,63.82l5.39-5.37L104.06,71.9l16.58-34,7.77,0L145,71.9l32.8-13.45,5.34,5.4L169.73,96.58a79.88,79.88,0,0,1,12.93,1.75,182,182,0,0,1,24.19-63.56,181.22,181.22,0,0,1-57.55,23A185.56,185.56,0,0,1,124.53,0,184.76,184.76,0,0,1,99.8,57.75a182.48,182.48,0,0,1-57.57-23,180.71,180.71,0,0,1,24.2,63.54A81.34,81.34,0,0,1,79.36,96.58Z"/></g></svg>