<svg xmlns="http://www.w3.org/2000/svg" viewBox="0 0 249.09 283.46"><defs><style>.cls-1{fill:#1d1d1b;}</style></defs><title>Elite mini-boss</title><g id="Elite_mini-boss" data-name="Elite mini-boss"><path class="cls-1" d="M171.05,46.48a90.36,90.36,0,0,0-27.16-8.17c2.4,4.72,5,9.33,7.74,13.84C153.77,51.62,163.66,49.15,171.05,46.48Z"/><path class="cls-1" d="M151.64,52.16h0C151.09,52.29,151,52.3,151.64,52.16Z"/><path class="cls-1" d="M105.22,38.31a90.36,90.36,0,0,0-27.14,8.16c7.4,2.65,17.27,5.13,19.4,5.66C100.27,47.62,102.82,43,105.22,38.31Z"/><path class="cls-1" d="M97.48,52.13Z"/><path class="cls-1" d="M79.37,96.56,65.9,63.81l5.39-5.37L104.06,71.9l16.58-34,7.77,0L145,71.9l32.79-13.46,5.35,5.4L169.74,96.56a80.07,80.07,0,0,1,12.93,1.77,182.12,182.12,0,0,1,24.19-63.58,181.33,181.33,0,0,1-57.55,23A185.77,185.77,0,0,1,124.53,0,184.39,184.39,0,0,1,99.8,57.75a182.86,182.86,0,0,1-57.58-23A180.84,180.84,0,0,1,66.44,98.29,83.71,83.71,0,0,1,79.37,96.56Z"/><path class="cls-1" d="M27.74,275.07l80.7-37.61a31.44,31.44,0,0,0-5.67-1.85l-.14,0L90,230.79c-3.35-.16-5.82-.66-7.63-1.75L19.88,258.19l-7.42,13.74Z"/><path class="cls-1" d="M110.61,238.55,27.22,277.42,8.77,273.65l9-16.55,63-29.4a9.58,9.58,0,0,1-2-3.94L12,254.9a2.41,2.41,0,0,0-1,1L.27,275.63a2.24,2.24,0,0,0-.05,2,2.27,2.27,0,0,0,1.59,1.26l22,4.49a2.14,2.14,0,0,0,1.41-.17L115,241.36c-.55-.34-1.09-.71-1.65-1.09C112.52,239.71,111.64,239.13,110.61,238.55Z"/><path class="cls-1" d="M191.48,184a33.06,33.06,0,0,1-3.51.2,21.87,21.87,0,0,1-3.5-.26l10.24,22-.94,2.52-2.51-.89L179.1,181.42a21.87,21.87,0,0,0-3.33-.22,29.64,29.64,0,0,0-8,1.08l-4.3,2a8,8,0,0,0-.83.69,4.66,4.66,0,0,0-1.4,3.3,13.67,13.67,0,0,1,.7,1.57l4.16-2c1.23-2.58,3.13-4.94,5-4.94a2.31,2.31,0,0,1,1.72.84,2.47,2.47,0,0,1,.47.74l.56,1.85a22.23,22.23,0,0,1,.12,5.25,46.09,46.09,0,0,1-2,11.11,22.34,22.34,0,0,0-.73,5.46l11.48-5.35.81,1.72-12.33,5.74c0,.79,0,1.55,0,2.25v1.5c0,.38,0,.73,0,1.09l12.12-5.65,3.09,6.6a2.16,2.16,0,0,0,1.28,1.16L208,224.64a2.26,2.26,0,0,0,2.83-3.09L198.88,196l32-14.9,8,.23a2.24,2.24,0,0,0,1.83-.86l8-10a2.27,2.27,0,0,0,.27-2.35l-4.81-10.41a2.26,2.26,0,0,0-1.28-1.17,1.92,1.92,0,0,0-.72-.14l-12.8-.34a2.32,2.32,0,0,0-1.86.86l-4.94,6.22-24.32,11.37C197.72,179.13,196.35,183.33,191.48,184Zm41.43-21.14,6.4.15,2.46,5.21-4,5-6.38-.2-2.43-5.18Z"/><path class="cls-1" d="M146.34,235.61a31.57,31.57,0,0,0-5.68,1.85l80.69,37.61,15.29-3.14-7.42-13.74L166.69,229c-1.81,1.09-4.27,1.6-7.62,1.75Z"/><path class="cls-1" d="M248.83,275.63l-10.68-19.76a2.53,2.53,0,0,0-1-1l-66.78-31.14a9.34,9.34,0,0,1-2,3.94l63,29.4,8.94,16.55-18.45,3.77-83.37-38.87c-1,.58-1.92,1.16-2.76,1.72-.56.38-1.11.73-1.66,1.09l89.85,41.88a2.12,2.12,0,0,0,1.4.17l22-4.49a2.27,2.27,0,0,0,1.55-3.29Z"/><path class="cls-1" d="M8.42,180.42a2.3,2.3,0,0,0,1.85.86l8-.23L50.21,196l-11.93,25.6a2.26,2.26,0,0,0,2.82,3.09l20.29-7.39a2.22,2.22,0,0,0,1.28-1.16l3.08-6.6,12.14,5.67c0-.38,0-.73,0-1.12v-1.38c0-.73,0-1.53,0-2.35l-12.33-5.75.79-1.72,11.5,5.35a22.36,22.36,0,0,0-.73-5.43,45.63,45.63,0,0,1-2-11.16,23,23,0,0,1,.11-5.23l.56-1.85a2.47,2.47,0,0,1,2.07-1.58h0c2,0,3.92,2.36,5.13,4.94l4.17,1.94a14.19,14.19,0,0,1,.69-1.56,4.65,4.65,0,0,0-1.38-3.3,9.2,9.2,0,0,0-.83-.69l-4.3-2a30,30,0,0,0-8-1.07,21.87,21.87,0,0,0-3.33.22L57.84,207.54l-2.52.89-.93-2.52,10.24-22a22,22,0,0,1-3.5.26,32.54,32.54,0,0,1-3.49-.2c-4.91-.64-6.27-4.72-6.69-9.53L26.63,163.07l-4.95-6.22a2.3,2.3,0,0,0-1.84-.86L7,156.33a2,2,0,0,0-.73.14A2.26,2.26,0,0,0,5,157.64L.22,168.05a2.25,2.25,0,0,0,.27,2.35ZM9.78,163l6.39-.15,4,5L17.73,173l-6.38.2-4-5Z"/><path class="cls-1" d="M145.78,233.49l13-4.88c8.2-.37,10.27-2.11,10.24-14.56l0-1.48c0-3.19-.08-7.57.86-10.47a43.46,43.46,0,0,0,1.93-10.64c.35-4.75-.38-6-.6-6.25-.69-.07-2.25,1.46-3.44,4.37a22.56,22.56,0,0,0-.86,4.25,20.85,20.85,0,0,1-1.46,6.08l-.2.29c-1,1-1.78,1.94-2.46,2.77-1.36,1.63-2.34,2.8-3.68,2.8a2.9,2.9,0,0,1-2.21-1.33,16,16,0,0,1-2.16.22c-1.37.08-2.55.13-3.23.94a7.75,7.75,0,0,0,0,1,5.26,5.26,0,0,1-1,3.46l-.3.35-5.11.29-.1-1.06c-.08-.88-.42-2.94-1.69-2.94a3.13,3.13,0,0,0-2.49,2.23l-.3.84-4.47-.57-.26-.55c-.74-1.61-1.68-2.42-2.78-2.42-1.57,0-3.51,1.6-4.48,3.14l-.35.56-3.55-.26h-.11l-3.58.26-.36-.56c-1-1.52-2.87-3.14-4.5-3.14-1.11,0-2,.82-2.79,2.42l-.26.55-4.44.57-.3-.84a3.14,3.14,0,0,0-2.48-2.23c-1.28,0-1.62,2.06-1.71,2.94l-.09,1.06-5.13-.29-.32-.35a5.38,5.38,0,0,1-.92-3.48,5,5,0,0,0-.09-1.08c-.63-.73-1.81-.78-3.18-.86a16,16,0,0,1-2.16-.22A2.9,2.9,0,0,1,90,205.77c-1.32,0-2.31-1.17-3.67-2.79a36.86,36.86,0,0,0-2.47-2.78l-.21-.3a21.36,21.36,0,0,1-1.43-6,20.59,20.59,0,0,0-.89-4.31c-1.18-2.91-2.81-4.44-3.37-4.44,0,0-1,.71-.66,6.32a43.18,43.18,0,0,0,1.94,10.65c.92,2.93.9,7.34.86,10.56v1.38c0,12.45,2,14.19,10.23,14.56l.34.06,12.68,4.82a30.57,30.57,0,0,1,11.26,5c2.67,1.78,4.6,3.07,9.35,3.07h1.2c4.77,0,6.69-1.29,9.38-3.07A30.16,30.16,0,0,1,145.78,233.49Z"/><path class="cls-1" d="M204.48,112.29c-.08.47-.17.94-.25,1.41C204.31,113.23,204.4,112.77,204.48,112.29Z"/><path class="cls-1" d="M204.23,113.7c-.34,1.72-.68,3.4-1,5C203.55,117.08,203.89,115.42,204.23,113.7Z"/><path class="cls-1" d="M203.18,118.67c-.1.37-.19.73-.28,1.08C203,119.39,203.08,119.05,203.18,118.67Z"/><path class="cls-1" d="M205.47,105.51c-.06.48-.11,1-.17,1.46C205.36,106.47,205.41,106,205.47,105.51Z"/><path class="cls-1" d="M205.64,104.09c0,.29-.08.54-.12.83s0,.39-.05.59C205.52,105,205.6,104.57,205.64,104.09Z"/><path class="cls-1" d="M205.3,107c-.24,1.81-.51,3.59-.82,5.32C204.79,110.56,205.06,108.78,205.3,107Z"/><path class="cls-1" d="M202.9,119.75c-.39,1.59-.78,3.12-1.18,4.47C202.12,122.87,202.51,121.36,202.9,119.75Z"/><path class="cls-1" d="M196.09,172.12c0-.32,0-.64,0-1,0,.1,0,.2,0,.3S196.09,171.9,196.09,172.12Z"/><path class="cls-1" d="M175.77,179c3.75,0,5.89.53,6.4,1.59.26.57,2,1.38,5.8,1.38,1,0,2.13-.07,3.25-.18,2.14-.28,3.41-1.56,4.14-4.22a28.49,28.49,0,0,0,.75-6.11c0-.2,0-.38,0-.59s0-.44-.06-.66c0,.21.07.48.07.66s0,.2,0,.29c0-.11,0-.18,0-.29a5.44,5.44,0,0,0-.11-1,7.59,7.59,0,0,0-.12-1c-.66-3.79-3-9.52-4.45-14.87,1.4,5.33,3.76,11.05,4.45,14.83a68,68,0,0,0-2.21-7.46c-2.14-6.36-4.56-13.58-2.76-18,.37-.93.74-1.91,1.13-2.93,1.61-4.41,3.63-9.86,8.42-13.14a104.55,104.55,0,0,0,5-22.4c.95-8.68.82-17.67-1.81-24.06a66.71,66.71,0,0,0-7.59-13.26,178,178,0,0,0-8.73,31.57l-.89,5L181.59,103a71.26,71.26,0,0,0-12.14-1.65l-6.72-.41,2.56-6.22L177.51,65l-.86-.86-29.8,12.24-6.25,2.58-2.74-5.82L125.21,42.76h-1.37L111.22,73.1l-2.75,5.81-6.23-2.57L72.42,64.1l-.86.85L83.81,94.74,86.38,101l-6.72.41A76.09,76.09,0,0,0,67.47,103l-4.89,1.07-.88-4.92A177.53,177.53,0,0,0,53,67.59a66,66,0,0,0-7.61,13.27c-2.57,6.22-2.78,14.93-1.92,23.42a106.75,106.75,0,0,0,5.13,23C53.4,130.59,55.4,136,57,140.44c.39,1,.74,2,1.12,2.93,1.81,4.48-.62,11.71-2.74,18.08-1.27,3.8-2.47,7.38-2.42,9.42,0,1.42.1,2.67.21,3.78a.06.06,0,0,1,0,0c.08.7.17,1.35.29,1.95,0,0,0,.05,0,.08.68,3.32,2,4.76,4.4,5.07,1.09.11,2.19.18,3.23.18,3.8,0,5.55-.81,5.78-1.36.52-1.08,2.68-1.61,6.42-1.61,5,0,11.51,1.17,14.68,4.44a6.84,6.84,0,0,1,2,5.14v.26l-.13.22c-1.06,1.92-1.34,3.55-.81,4.46a2.87,2.87,0,0,0,2.46,1,16,16,0,0,0,.64-3.27l.13-1c.47-3.14,2.17-4.26,3.63-4.26a2.09,2.09,0,0,1,2.22,1.76,17.71,17.71,0,0,1,.42,5.73,5,5,0,0,1-.71,2.06,2.52,2.52,0,0,0-.46,1.62l.07.26-.07.26a1.11,1.11,0,0,0,0,.5,4,4,0,0,0,1.12.32,7.08,7.08,0,0,1,2.24.76c.6.34,1.12.7,1.61,1,1.23.85,2,1.35,3.34,1.26a18.7,18.7,0,0,0,.27-2.94,17.09,17.09,0,0,1,.48-4.1,3.89,3.89,0,0,1,3.73-2.23c2,0,3.45,1.15,3.6,2.84a14.14,14.14,0,0,1-.11,2.64,3.59,3.59,0,0,0,0,1.55,2.86,2.86,0,0,0,2.74,2.15,4.86,4.86,0,0,0,3.39-1.55,19.34,19.34,0,0,0,.69-4c.26-2.25.38-3,.75-3.49.77-1.09,2.48-2,3.38-1.9.91-.14,2.6.81,3.41,1.95.32.43.44,1.19.69,3.4a19,19,0,0,0,.71,4.05,4.93,4.93,0,0,0,3.38,1.51,2.84,2.84,0,0,0,2.72-2.09,3.62,3.62,0,0,0,0-1.59,14.92,14.92,0,0,1-.12-2.63c.16-1.72,1.6-2.87,3.61-2.87a3.87,3.87,0,0,1,3.72,2.2,16.87,16.87,0,0,1,.51,4.13,18.84,18.84,0,0,0,.26,2.94c1.34.09,2.12-.41,3.33-1.26.5-.34,1-.7,1.63-1.05a7.06,7.06,0,0,1,2.21-.75,3.69,3.69,0,0,0,1.15-.34,1.4,1.4,0,0,0-.07-.48l0-.26,0-.26c.12-.48-.1-.94-.47-1.64a5.08,5.08,0,0,1-.71-2.08,17.87,17.87,0,0,1,.43-5.68,2.11,2.11,0,0,1,2.24-1.77c1.44,0,3.16,1.12,3.62,4.26l.14,1a15.21,15.21,0,0,0,.64,3.25,2.8,2.8,0,0,0,2.43-1c.54-.91.25-2.53-.8-4.46l-.13-.22,0-.27a6.85,6.85,0,0,1,2-5.13C164.26,180.17,170.75,179,175.77,179Zm-66.36-38.52c-7.59,8.53-19.6,11-31.76,7.42-16-4.66-14.19-30,1.46-30.71,1.85,0,3.74-.16,5.72-.16,5.86.11,12.06.84,17.17,3.9C116.38,129.27,115.62,133.4,109.41,140.48Zm21.53,24.82c-1.92-1.68-1.59-5.35-5.86-5.31H124c-4.28,0-4,3.63-5.88,5.31-1.36,1.85-9.31,3.45-6.68-3.58.76-1.81,9.27-16.41,9.14-16.2,1.09-1.42,1.86-1.54,3.42-1.54a2.42,2.42,0,0,1,.47,0h.13a2.22,2.22,0,0,1,.46,0c1.57,0,2.34.12,3.39,1.54-.11-.21,8.38,14.39,9.18,16.2C140.27,168.75,132.33,167.15,130.94,165.3Zm8.75-24.82c-6.22-7.08-7-11.21,7.42-19.55,5.06-3.06,11.3-3.79,17.16-3.9,2,0,3.87.11,5.71.16,15.66.68,17.41,26.05,1.48,30.71C159.28,151.46,147.26,149,139.69,140.48Z"/><path class="cls-1" d="M195.55,177c-.06.22-.14.37-.19.6s-.06.41-.11.58C195.35,177.77,195.45,177.38,195.55,177Z"/><path class="cls-1" d="M191,144.17c2-4.74,3.58-11.8,9.3-15.52a1.76,1.76,0,0,1,.1-.3l-.12.3C194.53,132.37,192.93,139.43,191,144.17Z"/><path class="cls-1" d="M201.72,124.22c-.08.23-.15.44-.21.66C201.57,124.65,201.64,124.45,201.72,124.22Z"/><path class="cls-1" d="M201.51,124.88c-.4,1.29-.79,2.46-1.16,3.47C200.72,127.34,201.11,126.17,201.51,124.88Z"/></g></svg>