<svg xmlns="http://www.w3.org/2000/svg" viewBox="0 0 251.03 283.46"><defs><style>.cls-1{fill:#1d1d1b;}</style></defs><title>Elite enforcer</title><g id="Elite_enforcer" data-name="Elite enforcer"><path class="cls-1" d="M28,275l81.31-37.89a30.5,30.5,0,0,0-5.71-1.88l-.15,0-12.68-4.82c-3.37-.16-5.86-.67-7.7-1.77L20,258l-7.47,13.85Z"/><path class="cls-1" d="M111.47,238.2l-84,39.17L8.84,273.58l9-16.69,63.53-29.62a9.68,9.68,0,0,1-2-4l-67.3,31.37a2.32,2.32,0,0,0-1,1L.27,275.56a2.3,2.3,0,0,0-.05,2.06,2.25,2.25,0,0,0,1.6,1.27L24,283.41a2.18,2.18,0,0,0,1.42-.17L115.91,241c-.55-.34-1.11-.7-1.67-1.08C113.4,239.38,112.51,238.79,111.47,238.2Z"/><path class="cls-1" d="M193,183.19a33.42,33.42,0,0,1-3.53.2,22.46,22.46,0,0,1-3.54-.26l10.33,22.18-.95,2.53-2.53-.9-12.27-26.31a21.71,21.71,0,0,0-3.35-.23,30.59,30.59,0,0,0-8,1.08l-4.32,2a8.5,8.5,0,0,0-.85.69,4.78,4.78,0,0,0-1.41,3.32,15.82,15.82,0,0,1,.71,1.59l4.19-2c1.24-2.61,3.15-5,5.05-5a2.39,2.39,0,0,1,1.75.84,4,4,0,0,1,.47.75l.71-.34.83,1.73-1,.47a22.69,22.69,0,0,1,.11,5.29,46.32,46.32,0,0,1-2,11.21,21.12,21.12,0,0,0-.73,5.5l11.57-5.4L185,204l-12.43,5.79c0,.8,0,1.56,0,2.25v1.51c0,.39,0,.75,0,1.11l12.21-5.69,3.12,6.65a2.32,2.32,0,0,0,1.28,1.18l20.45,7.43a2.28,2.28,0,0,0,2.85-3.11l-12-25.81,32.2-15,8.06.22a2.23,2.23,0,0,0,1.85-.87l8-10.09a2.31,2.31,0,0,0,.27-2.37L246,156.67a2.31,2.31,0,0,0-1.29-1.19,2,2,0,0,0-.73-.14L231.05,155a2.34,2.34,0,0,0-1.87.86l-5,6.28-24.51,11.45C199.27,178.31,197.88,182.55,193,183.19Zm41.76-21.3,6.45.15,2.46,5.25-4,5.07-6.43-.2-2.43-5.22Z"/><path class="cls-1" d="M147.47,235.23a30.25,30.25,0,0,0-5.71,1.88L223.07,275l15.41-3.15L231,258l-63-29.39c-1.83,1.1-4.32,1.61-7.68,1.77Z"/><path class="cls-1" d="M250.77,275.56,240,255.65a2.32,2.32,0,0,0-1-1l-67.3-31.37a9.43,9.43,0,0,1-2,4l63.51,29.62,9,16.69-18.6,3.79-84-39.17c-1,.59-1.94,1.18-2.79,1.75-.56.38-1.1.73-1.67,1.08l90.55,42.21a2.17,2.17,0,0,0,1.42.17l22.12-4.52a2.29,2.29,0,0,0,1.62-1.27A2.37,2.37,0,0,0,250.77,275.56Z"/><path class="cls-1" d="M8.49,179.61a2.23,2.23,0,0,0,1.86.87l8.06-.22,32.19,15-12,25.81a2.32,2.32,0,0,0,.4,2.51,2.28,2.28,0,0,0,2.46.6l20.45-7.43a2.35,2.35,0,0,0,1.28-1.18l3.11-6.65,12.23,5.7c0-.37,0-.73,0-1.12v-1.39c0-.74,0-1.54,0-2.37L66.06,204l.81-1.74,11.58,5.4a21.66,21.66,0,0,0-.74-5.47,46.84,46.84,0,0,1-2-11.25,22.94,22.94,0,0,1,.12-5.28l-1-.47.85-1.73.7.34a2.51,2.51,0,0,1,2.08-1.59c2,0,4,2.37,5.17,5l4.21,2a12.67,12.67,0,0,1,.7-1.58,4.7,4.7,0,0,0-1.41-3.32,7.45,7.45,0,0,0-.83-.7l-4.34-2a30.35,30.35,0,0,0-8-1.08,22,22,0,0,0-3.36.23L58.28,206.94l-2.53.9-1-2.53,10.33-22.18a22.33,22.33,0,0,1-3.53.26,32.44,32.44,0,0,1-3.5-.2c-5-.64-6.33-4.76-6.75-9.6L26.83,162.14l-5-6.28A2.36,2.36,0,0,0,20,155l-12.9.34a2,2,0,0,0-.74.14,2.34,2.34,0,0,0-1.29,1.19L.22,167.15a2.26,2.26,0,0,0,.27,2.37ZM9.85,162l6.45-.15,4,5.05-2.42,5.22-6.45.2-4-5.07Z"/><path class="cls-1" d="M57.46,139.34c.39,1,.75,2,1.13,2.94,1.81,4.52-.61,11.8-2.76,18.22-1.29,3.82-2.5,7.44-2.45,9.5.17,7.67,1.47,10.55,5,11a27.75,27.75,0,0,0,3.24.2c3.83,0,5.59-.82,5.83-1.37.52-1.1,2.7-1.63,6.47-1.63,5.07,0,11.61,1.17,14.78,4.47a6.79,6.79,0,0,1,2,5.18v.26l-.12.23c-1,1.93-1.35,3.56-.82,4.48a2.9,2.9,0,0,0,2.47,1,15.22,15.22,0,0,0,.66-3.29l.13-1c.46-3.17,2.2-4.3,3.65-4.3A2.09,2.09,0,0,1,98.89,187a17.59,17.59,0,0,1,.44,5.76,5.29,5.29,0,0,1-.71,2.09,2.41,2.41,0,0,0-.47,1.64l.06.26-.06.26a1.07,1.07,0,0,0-.05.49,4.27,4.27,0,0,0,1.13.34,7.41,7.41,0,0,1,2.25.74c.6.36,1.13.72,1.63,1.07,1.24.85,2,1.36,3.36,1.27a18.05,18.05,0,0,0,.27-3,17.23,17.23,0,0,1,.5-4.14,3.89,3.89,0,0,1,3.75-2.24c2,0,3.47,1.14,3.63,2.85a14.33,14.33,0,0,1-.12,2.67,4,4,0,0,0,0,1.56,2.92,2.92,0,0,0,2.77,2.16,4.94,4.94,0,0,0,3.42-1.56,20.54,20.54,0,0,0,.68-4c.27-2.26.38-3,.76-3.51a4.67,4.67,0,0,1,3.4-1.92c.92-.13,2.63.82,3.44,2,.32.44.45,1.2.7,3.42a19.22,19.22,0,0,0,.72,4.09,5,5,0,0,0,3.39,1.52,2.85,2.85,0,0,0,2.75-2.11,3.37,3.37,0,0,0,0-1.6,15.06,15.06,0,0,1-.12-2.65c.16-1.74,1.63-2.88,3.64-2.88a3.91,3.91,0,0,1,3.76,2.21,16.72,16.72,0,0,1,.49,4.16,18,18,0,0,0,.28,3c1.34.09,2.13-.42,3.36-1.28.49-.34,1-.7,1.64-1.06a7,7,0,0,1,2.22-.74,4,4,0,0,0,1.15-.35,1,1,0,0,0-.05-.48l-.07-.27.07-.25c.12-.5-.11-.95-.47-1.66a5.23,5.23,0,0,1-.73-2.11,18.36,18.36,0,0,1,.43-5.71,2.13,2.13,0,0,1,2.25-1.79c1.46,0,3.19,1.13,3.66,4.29l.15,1a15.5,15.5,0,0,0,.63,3.28,2.91,2.91,0,0,0,2.46-1c.54-.93.25-2.56-.82-4.5l-.13-.23v-.26a7,7,0,0,1,2-5.18c3.19-3.3,9.74-4.47,14.79-4.47,3.78,0,5.94.53,6.46,1.59.26.59,2,1.41,5.85,1.41a28.53,28.53,0,0,0,3.27-.2c3.47-.44,4.77-3.32,4.94-11,.06-2.06-1.15-5.68-2.44-9.52-2.15-6.42-4.59-13.68-2.79-18.19.39-.92.76-1.91,1.15-2.95,1.62-4.43,3.66-9.94,8.49-13.25,3.77-10.14,8.75-34.85,3.42-47.73a65.85,65.85,0,0,0-14.06-21.12c1.33-10.79-.93-22-7.1-33.49S168.7,4.51,156.6,0c-.22.13-.44.29-.66.43.31,1.3.56,2.64.95,3.93,3.43,11.43,3.47,22.57-.12,33.34a103.46,103.46,0,0,0-27.15-3.48H129c-.76,0-1.47,0-2.19.08l-1.33.05-1.18-.05c-.72,0-1.45-.07-2.18-.08h-.7A103.3,103.3,0,0,0,94.26,37.7c-3.6-10.77-3.56-21.91-.12-33.34.39-1.29.64-2.63,1-3.93-.22-.14-.44-.3-.66-.43C82.34,4.51,72.8,12.37,66.7,23.75c-6.17,11.54-8.42,22.7-7.09,33.49A66.23,66.23,0,0,0,45.53,78.36c-5.31,12.9-.35,37.6,3.44,47.73C53.81,129.4,55.83,134.9,57.46,139.34Zm91.13-20.42c5.21-3.13,11.58-3.89,17.57-4,2,0,4,.08,5.84.14,16,.7,17.82,26.64,1.51,31.43-12.46,3.64-24.75,1.12-32.5-7.59C134.65,131.68,133.86,127.46,148.59,118.92Zm-27.11,25.17c1.11-1.45,1.89-1.58,3.48-1.58a3.78,3.78,0,0,1,.49,0h.13a3.78,3.78,0,0,1,.49,0c1.58,0,2.38.13,3.47,1.58-.13-.22,8.57,14.71,9.38,16.57,2.68,7.18-5.45,5.55-6.85,3.68-2-1.73-1.64-5.48-6-5.43H125c-4.36,0-4,3.7-6,5.43-1.38,1.87-9.5,3.5-6.83-3.68C112.91,158.8,121.61,143.87,121.48,144.09ZM79,115.09c1.88-.06,3.83-.15,5.85-.14,6,.08,12.34.84,17.57,4,14.71,8.54,13.93,12.76,7.59,20-7.78,8.71-20,11.23-32.5,7.59C61.21,141.73,63,115.79,79,115.09Z"/><path class="cls-1" d="M146.9,233.1,160,228.18c8.27-.37,10.35-2.13,10.31-14.68V212c0-3.22-.08-7.63.86-10.56a44,44,0,0,0,2-10.72c.34-4.79-.38-6-.61-6.29-.69-.07-2.27,1.46-3.45,4.41a20.87,20.87,0,0,0-.88,4.27,21.45,21.45,0,0,1-1.47,6.13l-.21.3c-1,1-1.78,1.94-2.48,2.78-1.37,1.64-2.35,2.83-3.7,2.83a2.91,2.91,0,0,1-2.23-1.34,16.27,16.27,0,0,1-2.18.22c-1.38.08-2.57.13-3.25.94a7.49,7.49,0,0,0-.06,1,5.35,5.35,0,0,1-.95,3.49l-.3.35-5.15.28-.1-1c-.09-.9-.43-3-1.72-3a3.17,3.17,0,0,0-2.5,2.25l-.3.85-4.5-.57-.26-.56c-.75-1.62-1.7-2.44-2.8-2.44-1.59,0-3.54,1.62-4.52,3.17l-.37.56-3.56-.26h-.12l-3.61.26-.35-.56c-1-1.54-2.9-3.17-4.53-3.17-1.12,0-2.07.82-2.83,2.44l-.26.56-4.47.57-.3-.85a3.18,3.18,0,0,0-2.52-2.25c-1.27,0-1.61,2.07-1.7,3l-.09,1-5.17-.28-.3-.35A5.19,5.19,0,0,1,98.4,206a6.82,6.82,0,0,0-.09-1.08c-.63-.74-1.83-.79-3.21-.87a16,16,0,0,1-2.17-.22,3,3,0,0,1-2.25,1.34c-1.35,0-2.32-1.19-3.69-2.81-.7-.85-1.51-1.81-2.5-2.8l-.21-.31a21.29,21.29,0,0,1-1.44-6.06,20.75,20.75,0,0,0-.9-4.33c-1.19-3-2.84-4.48-3.39-4.48,0,0-1.07.71-.69,6.36a43.7,43.7,0,0,0,2,10.73c.94,3,.9,7.41.88,10.65v1.38c0,12.55,2,14.31,10.3,14.68l.35.06,12.78,4.86a30.66,30.66,0,0,1,11.35,5c2.68,1.81,4.63,3.1,9.43,3.1h1.21c4.79,0,6.74-1.29,9.44-3.1A30.51,30.51,0,0,1,146.9,233.1Z"/></g></svg>