<svg xmlns="http://www.w3.org/2000/svg" viewBox="0 0 249.09 247.32"><defs><style>.cls-1{fill:#1d1d1b;}</style></defs><title>Elite minion</title><g id="Elite_minion" data-name="Elite minion"><path class="cls-1" d="M27.74,238.92l80.69-37.6a29.46,29.46,0,0,0-5.67-1.85l-.14,0L90,194.65c-3.35-.17-5.81-.66-7.63-1.76L19.88,222.05l-7.43,13.73Z"/><path class="cls-1" d="M110.61,202.41,27.22,241.28,8.78,237.5l9-16.55,63-29.4a9.41,9.41,0,0,1-2-3.93L12,218.75a2.43,2.43,0,0,0-1,1L.27,239.48a2.27,2.27,0,0,0-.06,2,2.3,2.3,0,0,0,1.6,1.27l22,4.49a2.22,2.22,0,0,0,1.41-.17L115,205.21q-.83-.51-1.65-1.08C112.52,203.57,111.63,203,110.61,202.41Z"/><path class="cls-1" d="M191.48,147.83A33.16,33.16,0,0,1,188,148a21,21,0,0,1-3.51-.26l10.26,22-.94,2.51-2.51-.89-12.17-26.11a21.51,21.51,0,0,0-3.33-.23,30.1,30.1,0,0,0-8,1.08l-4.29,2a6.44,6.44,0,0,0-.84.69,4.63,4.63,0,0,0-1.39,3.29,11.39,11.39,0,0,1,.68,1.58l4.18-2c1.21-2.58,3.11-4.93,5-4.93a2.3,2.3,0,0,1,1.73.83,3.35,3.35,0,0,1,.47.74l.71-.32.84,1.72-1,.45a23.48,23.48,0,0,1,.11,5.25,45.6,45.6,0,0,1-2,11.12,22.2,22.2,0,0,0-.73,5.46l11.49-5.36.8,1.72-12.33,5.74c0,.8,0,1.56,0,2.26v1.49c0,.38,0,.73,0,1.1l12.12-5.65,3.1,6.6a2.24,2.24,0,0,0,1.26,1.16l20.3,7.38a2.26,2.26,0,0,0,2.82-3.09l-11.93-25.59,31.94-14.9,8,.22a2.22,2.22,0,0,0,1.84-.86l7.94-10a2.25,2.25,0,0,0,.27-2.36l-4.79-10.4a2.24,2.24,0,0,0-1.29-1.17,2,2,0,0,0-.73-.15l-12.8-.33a2.26,2.26,0,0,0-1.85.86l-4.94,6.22L198.14,138.3C197.72,143,196.34,147.19,191.48,147.83Zm41.43-21.15,6.4.16,2.45,5.21-4,5-6.39-.19-2.4-5.19Z"/><path class="cls-1" d="M146.33,199.47a29.46,29.46,0,0,0-5.67,1.85l80.69,37.6,15.28-3.14-7.42-13.73-62.52-29.16c-1.81,1.1-4.28,1.6-7.62,1.76Z"/><path class="cls-1" d="M248.83,239.48l-10.68-19.75a2.46,2.46,0,0,0-1-1l-66.78-31.13a9.35,9.35,0,0,1-2,3.93l63,29.4,8.95,16.55-18.45,3.78-83.38-38.87c-1,.57-1.92,1.16-2.76,1.72-.56.38-1.1.73-1.66,1.08l89.85,41.89a2.21,2.21,0,0,0,1.41.17l22-4.49a2.3,2.3,0,0,0,1.55-3.3Z"/><path class="cls-1" d="M8.42,144.27a2.23,2.23,0,0,0,1.85.86l8-.22,31.94,14.9L38.27,185.4a2.26,2.26,0,0,0,2.83,3.09l20.29-7.38A2.26,2.26,0,0,0,62.66,180l3.09-6.6L77.88,179c0-.38,0-.73,0-1.12v-1.38c0-.73,0-1.52,0-2.34l-12.33-5.76.8-1.72,11.49,5.36a21.29,21.29,0,0,0-.73-5.43,46.11,46.11,0,0,1-2-11.16,23.18,23.18,0,0,1,.12-5.24l-1-.45.83-1.72.71.32a2.43,2.43,0,0,1,2.06-1.57h0c2,0,3.91,2.35,5.13,4.93l4.17,1.94a12.51,12.51,0,0,1,.69-1.56,4.64,4.64,0,0,0-1.38-3.29,8.12,8.12,0,0,0-.84-.69l-4.3-2a30.37,30.37,0,0,0-8-1.07,21.51,21.51,0,0,0-3.33.23L57.82,171.39l-2.51.89-.94-2.51,10.26-22a20.85,20.85,0,0,1-3.5.26,32.2,32.2,0,0,1-3.49-.19c-4.91-.64-6.28-4.73-6.69-9.53L26.62,126.93l-4.94-6.22a2.26,2.26,0,0,0-1.85-.86L7,120.18a2,2,0,0,0-.73.15A2.23,2.23,0,0,0,5,121.5L.21,131.9a2.31,2.31,0,0,0,.27,2.36Zm1.35-17.43,6.4-.16,4,5-2.41,5.19-6.38.19-4-5Z"/><path class="cls-1" d="M57,104.3c.38,1,.74,2,1.12,2.93,1.8,4.48-.62,11.7-2.75,18.07-1.27,3.8-2.47,7.38-2.42,9.43.17,7.62,1.46,10.47,4.93,10.91a29.69,29.69,0,0,0,3.23.18c3.8,0,5.54-.81,5.78-1.35.52-1.08,2.68-1.62,6.42-1.62,5,0,11.51,1.18,14.67,4.44a6.9,6.9,0,0,1,2,5.15l0,.26-.12.22c-1.05,1.91-1.35,3.54-.81,4.45a2.89,2.89,0,0,0,2.46,1,17.07,17.07,0,0,0,.63-3.27l.14-1c.46-3.14,2.18-4.25,3.62-4.25a2.09,2.09,0,0,1,2.22,1.75,17.69,17.69,0,0,1,.43,5.73,5.15,5.15,0,0,1-.71,2.06A2.37,2.37,0,0,0,97.4,161l0,.26-.06.26a1.07,1.07,0,0,0,0,.49,4,4,0,0,0,1.12.33,6.61,6.61,0,0,1,2.23.75c.6.34,1.13.71,1.62,1,1.22.85,2,1.36,3.33,1.27a17.7,17.7,0,0,0,.27-2.95,16.65,16.65,0,0,1,.5-4.1,3.85,3.85,0,0,1,3.72-2.22c2,0,3.44,1.14,3.59,2.84a12.64,12.64,0,0,1-.11,2.64,3.55,3.55,0,0,0,0,1.55,2.86,2.86,0,0,0,2.74,2.15,4.86,4.86,0,0,0,3.39-1.55,19.72,19.72,0,0,0,.68-4c.26-2.26.37-3,.76-3.49.76-1.1,2.48-2,3.36-1.9.93-.15,2.61.8,3.42,2,.33.43.44,1.18.69,3.4a20.35,20.35,0,0,0,.71,4,5,5,0,0,0,3.38,1.51,2.84,2.84,0,0,0,2.73-2.1,3.61,3.61,0,0,0,0-1.59,13.17,13.17,0,0,1-.12-2.63c.16-1.72,1.6-2.86,3.6-2.86a3.86,3.86,0,0,1,3.73,2.2,16.82,16.82,0,0,1,.5,4.12,18.84,18.84,0,0,0,.27,2.95c1.33.09,2.12-.42,3.33-1.27.49-.33,1-.7,1.62-1.05a6.83,6.83,0,0,1,2.22-.74,3.9,3.9,0,0,0,1.14-.34,1.26,1.26,0,0,0,0-.48l-.07-.26.06-.26c.12-.48-.1-.94-.46-1.64a5.19,5.19,0,0,1-.73-2.09,18.41,18.41,0,0,1,.43-5.67,2.11,2.11,0,0,1,2.24-1.77c1.45,0,3.17,1.11,3.62,4.25l.15,1a15.4,15.4,0,0,0,.63,3.26,2.86,2.86,0,0,0,2.44-1c.54-.91.24-2.52-.81-4.45l-.13-.22v-.28a6.86,6.86,0,0,1,2-5.13c3.16-3.26,9.65-4.44,14.67-4.44,3.75,0,5.9.54,6.41,1.59.26.57,2,1.38,5.79,1.38a30.66,30.66,0,0,0,3.26-.18c3.45-.44,4.74-3.31,4.91-10.91.05-2-1.16-5.64-2.44-9.44-2.13-6.37-4.55-13.58-2.76-18.05.39-.92.75-1.9,1.13-2.93,1.63-4.4,3.64-9.86,8.43-13.14,3.75-10.08,8.68-34.59,3.4-47.37C192.48,16.38,164.34,0,128.62,0H128c-.74,0-1.45,0-2.16.08l-1.31.05-1.18,0c-.72,0-1.44-.07-2.17-.08h-.68C84.76,0,56.61,16.38,45.18,43.8c-5.27,12.8-.35,37.31,3.41,47.37C53.39,94.44,55.4,99.9,57,104.3ZM147.44,84c5.17-3.1,11.49-3.86,17.43-3.93,2,0,3.93.07,5.81.14,15.89.69,17.67,26.43,1.49,31.2-12.37,3.59-24.57,1.1-32.25-7.54C133.61,96.71,132.83,92.53,147.44,84Zm-26.89,25a3.44,3.44,0,0,1,3.45-1.58l.49,0h.12l.47,0c1.59,0,2.37.13,3.45,1.58-.12-.23,8.51,14.59,9.3,16.44,2.68,7.12-5.39,5.49-6.78,3.63-2-1.72-1.64-5.43-6-5.38H124c-4.34,0-4,3.66-6,5.38-1.37,1.86-9.44,3.49-6.79-3.63C112,123.62,120.67,108.8,120.55,109ZM78.42,80.25c1.86-.07,3.81-.16,5.81-.14,5.93.07,12.23.83,17.43,3.93,14.59,8.49,13.82,12.67,7.52,19.87-7.7,8.64-19.89,11.13-32.25,7.54C60.75,106.68,62.53,80.94,78.42,80.25Z"/><path class="cls-1" d="M145.77,197.35l13-4.89c8.2-.36,10.26-2.11,10.23-14.56v-1.48c0-3.19-.08-7.56.86-10.47a43.74,43.74,0,0,0,1.92-10.64c.35-4.75-.37-6-.6-6.25-.68-.06-2.25,1.46-3.43,4.38a21.45,21.45,0,0,0-.87,4.24,20.78,20.78,0,0,1-1.45,6.08l-.21.29c-1,1-1.77,1.94-2.47,2.77-1.34,1.63-2.32,2.8-3.66,2.8a2.89,2.89,0,0,1-2.22-1.32,15.65,15.65,0,0,1-2.16.22c-1.36.08-2.56.13-3.22.94a8.69,8.69,0,0,0-.07,1,5.19,5.19,0,0,1-.94,3.46l-.3.36-5.1.28-.11-1c-.08-.89-.42-3-1.69-3a3.16,3.16,0,0,0-2.49,2.23l-.29.85-4.47-.58-.26-.54c-.74-1.62-1.68-2.42-2.78-2.42-1.57,0-3.51,1.6-4.49,3.13l-.35.56-3.55-.26h-.11l-3.58.26-.35-.56c-1-1.52-2.89-3.13-4.5-3.13-1.11,0-2,.82-2.8,2.42l-.25.54-4.45.58-.29-.85a3.16,3.16,0,0,0-2.5-2.23c-1.27,0-1.6,2.06-1.69,3l-.1,1-5.13-.28-.3-.36a5.19,5.19,0,0,1-.93-3.47,6.6,6.6,0,0,0-.09-1.08c-.63-.73-1.81-.78-3.19-.86a15.67,15.67,0,0,1-2.15-.22A2.91,2.91,0,0,1,90,169.62c-1.33,0-2.31-1.17-3.66-2.78-.7-.85-1.5-1.8-2.49-2.79l-.2-.3a21.29,21.29,0,0,1-1.44-6,19.9,19.9,0,0,0-.88-4.31c-1.19-2.92-2.82-4.44-3.37-4.44,0,0-1,.7-.67,6.31A42.56,42.56,0,0,0,79.21,166c.93,2.93.89,7.35.87,10.57v1.37c0,12.45,2,14.2,10.23,14.56l.34.07,12.69,4.82a30.34,30.34,0,0,1,11.25,5c2.67,1.78,4.6,3.07,9.36,3.07h1.2c4.76,0,6.69-1.29,9.37-3.07A30.24,30.24,0,0,1,145.77,197.35Z"/></g></svg>