<svg xmlns="http://www.w3.org/2000/svg" viewBox="0 0 236.22 283.46"><defs><style>.cls-1{fill:#1d1d1b;}</style></defs><title>Empty rect</title><g id="Empty_rect" data-name="Empty rect"><path class="cls-1" d="M233.72,58.32,177.87,2.5a8.54,8.54,0,0,0-6-2.5H64.39a8.54,8.54,0,0,0-6,2.5L2.5,58.32a8.57,8.57,0,0,0-2.5,6V219.1a8.54,8.54,0,0,0,2.5,6L58.35,281a8.54,8.54,0,0,0,6,2.5H171.83a8.54,8.54,0,0,0,6-2.5l55.85-55.82a8.54,8.54,0,0,0,2.5-6V64.36A8.57,8.57,0,0,0,233.72,58.32ZM138.53,8.54V15.2H97.7V8.54ZM8.54,97.68h6.64v88.1H8.54V97.68ZM97.7,274.93v-6.67h40.83v6.67Zm74.13,0h-.05V250.58l-8.9,8.36H73.34l-8.89-8.36v24.35h-.06L8.54,219.1V219H32.87l-8.36-8.88V73.34l8.36-8.89H8.54v-.09L64.39,8.54h.06V32.88l8.89-8.36h89.54l8.9,8.36V8.54h.05l55.85,55.82v.09H203.35l8.37,8.89V210.13L203.35,219h24.33v.09Zm55.85-89.15H221V97.68h6.64v88.1Z"/><polygon class="cls-1" points="48.99 27.38 27.92 48.97 48.99 48.97 48.99 27.38"/><polygon class="cls-1" points="45.6 51.72 24.53 51.72 19.03 57.22 40.09 57.22 45.6 51.72"/><polygon class="cls-1" points="57.22 19.04 51.71 24.55 51.71 45.61 57.22 40.1 57.22 19.04"/><polygon class="cls-1" points="187.23 27.38 187.23 48.97 208.3 48.97 187.23 27.38"/><polygon class="cls-1" points="196.13 57.22 217.19 57.22 211.69 51.72 190.62 51.72 196.13 57.22"/><polygon class="cls-1" points="184.51 24.55 179 19.04 179 40.1 184.51 45.61 184.51 24.55"/><polygon class="cls-1" points="187.23 256.08 208.3 234.5 187.23 234.5 187.23 256.08"/><polygon class="cls-1" points="190.62 231.75 211.69 231.75 217.19 226.24 196.13 226.24 190.62 231.75"/><polygon class="cls-1" points="179 264.42 184.51 258.92 184.51 237.85 179 243.36 179 264.42"/><polygon class="cls-1" points="48.99 256.08 48.99 234.5 27.92 234.5 48.99 256.08"/><polygon class="cls-1" points="40.09 226.24 19.03 226.24 24.53 231.75 45.6 231.75 40.09 226.24"/><polygon class="cls-1" points="51.71 258.92 57.22 264.42 57.22 243.36 51.71 237.85 51.71 258.92"/></g></svg>