<svg xmlns="http://www.w3.org/2000/svg" viewBox="0 0 236.22 236.22"><defs><style>.cls-1{fill:#1d1d1b;}</style></defs><title>Empty circle</title><g id="Empty_circle" data-name="Empty circle"><path class="cls-1" d="M34.32,39.43l-2.4-2.25a118.79,118.79,0,0,0-9.45,11.44l2.66,1.93A114.64,114.64,0,0,1,34.32,39.43Z"/><path class="cls-1" d="M34.46,196.73,32.06,199a120.66,120.66,0,0,0,10.82,10.16L45,206.6A116.57,116.57,0,0,1,34.46,196.73Z"/><path class="cls-1" d="M6.83,89.54l-3.18-.81A118,118,0,0,0,.9,103.32l3.26.4A115.75,115.75,0,0,1,6.83,89.54Z"/><path class="cls-1" d="M3.29,118.13H0a119.7,119.7,0,0,0,.94,14.81l3.26-.41A115.16,115.16,0,0,1,3.29,118.13Z"/><path class="cls-1" d="M14.64,175a119.25,119.25,0,0,0,8,12.52l2.66-1.94a114.56,114.56,0,0,1-7.74-12.16Z"/><path class="cls-1" d="M3.71,147.52a116.2,116.2,0,0,0,4.6,14.11l3-1.21A115.63,115.63,0,0,1,6.89,146.7Z"/><path class="cls-1" d="M56.46,21l-1.77-2.78a119.61,119.61,0,0,0-12,8.75l2.1,2.53A116.81,116.81,0,0,1,56.46,21Z"/><path class="cls-1" d="M168.23,10.92a116.76,116.76,0,0,0-13.81-5.44l-1,3.13a113.64,113.64,0,0,1,13.42,5.29Z"/><path class="cls-1" d="M235.27,102.93a116,116,0,0,0-2.8-14.57l-3.18.82A115.38,115.38,0,0,1,232,103.35Z"/><path class="cls-1" d="M140.05,1.82A118.68,118.68,0,0,0,125.34,0l-.2,3.28a115.64,115.64,0,0,1,14.3,1.77Z"/><path class="cls-1" d="M82.46,8.72l-1-3.13a118.37,118.37,0,0,0-13.78,5.49l1.41,3A114.48,114.48,0,0,1,82.46,8.72Z"/><path class="cls-1" d="M110.72,3.31,110.51,0A120.7,120.7,0,0,0,95.8,1.89l.62,3.23A113.82,113.82,0,0,1,110.72,3.31Z"/><path class="cls-1" d="M17.41,62.74l-2.88-1.58A117.42,117.42,0,0,0,8.22,74.6l3,1.21A116.92,116.92,0,0,1,17.41,62.74Z"/><path class="cls-1" d="M221.52,60.84l-2.88,1.59a115.62,115.62,0,0,1,6.17,13l3.06-1.21A119,119,0,0,0,221.52,60.84Z"/><path class="cls-1" d="M211,185.55l2.66,1.94a117.77,117.77,0,0,0,8-12.53l-2.88-1.59A113.82,113.82,0,0,1,211,185.55Z"/><path class="cls-1" d="M204.07,36.92l-2.4,2.26a115.21,115.21,0,0,1,9.22,11.1l2.65-1.94A119,119,0,0,0,204.07,36.92Z"/><path class="cls-1" d="M54.88,217.86a116.58,116.58,0,0,0,13,7.16l1.4-3a115,115,0,0,1-12.64-7Z"/><path class="cls-1" d="M224.9,160.32l3.06,1.21a120,120,0,0,0,4.58-14.13l-3.18-.82A113.51,113.51,0,0,1,224.9,160.32Z"/><path class="cls-1" d="M191.31,206.55l2.1,2.53a117.79,117.79,0,0,0,10.8-10.16l-2.39-2.25A115.44,115.44,0,0,1,191.31,206.55Z"/><path class="cls-1" d="M232.93,117.75V118a117.2,117.2,0,0,1-.89,14.4l3.26.41a119.93,119.93,0,0,0,.92-14.81v-.26Z"/><path class="cls-1" d="M111,232.71l-.2,3.28c2.43.15,4.91.23,7.35.23s5-.08,7.47-.23l-.2-3.29A117.58,117.58,0,0,1,111,232.71Z"/><path class="cls-1" d="M81.67,230.49A116.85,116.85,0,0,0,96,234.16l.61-3.23a113.34,113.34,0,0,1-14-3.57Z"/><path class="cls-1" d="M139.68,230.91l.61,3.23a119.18,119.18,0,0,0,14.37-3.69l-1-3.13A114.29,114.29,0,0,1,139.68,230.91Z"/><path class="cls-1" d="M167,222l1.4,3a117.94,117.94,0,0,0,13-7.16L179.66,215A114,114,0,0,1,167,222Z"/><path class="cls-1" d="M181.23,18.07l-1.76,2.78a114.24,114.24,0,0,1,11.68,8.47l2.09-2.54A118.07,118.07,0,0,0,181.23,18.07Z"/></g></svg>