<svg xmlns="http://www.w3.org/2000/svg" viewBox="0 0 128.31 283.46"><defs><style>.cls-1{fill:#1d1d1b;}</style></defs><title>Energy</title><g id="Energy"><path class="cls-1" d="M113.29,10,75.65,74.28a10,10,0,0,0,5,14.37l29.41,11.44L69.24,155.52a10,10,0,0,0,4.87,15.41L92.2,177,48.55,238.86,63.87,193a10,10,0,0,0-6.61-12.75l-24.41-7.32,19.59-49.83a10,10,0,0,0-5-12.7L11.24,93.32,33.73,10h79.56M125.06,0H28.56a3.24,3.24,0,0,0-3.14,2.4L.11,96.16A3.25,3.25,0,0,0,1.86,100l41.27,19.5L20.86,176.1a3.25,3.25,0,0,0,.09,2.61,3.33,3.33,0,0,0,2,1.7l31.44,9.43L24.54,279.18a3.28,3.28,0,0,0,1.62,3.95,3.45,3.45,0,0,0,1.46.33,3.23,3.23,0,0,0,2.66-1.37l75.31-106.7a3.23,3.23,0,0,0-1.62-5l-26.67-9,46.05-62.53a3.25,3.25,0,0,0-1.44-5L84.28,79.33,127.87,4.89A3.25,3.25,0,0,0,125.06,0Z"/></g></svg>