<svg xmlns="http://www.w3.org/2000/svg" viewBox="0 0 194.27 283.46"><defs><style>.cls-1{fill:#1d1d1b;}</style></defs><title>Enforcer</title><g id="Enforcer"><path class="cls-1" d="M151.88,214.71c-1.61-.08-3.86,2.7-5.2,6-1.22,3-1.08,8.75-2.69,12-4.57,4.59-5.74,8.6-8.34,4.4-2.5.92-6-.2-7.85,2-.75.79.1,3.85-1.15,5.25l-4.22.24c-.68-7-6.08-5-7.42-1.14l-3.5-.44c-3.14-6.78-8.83-2.43-10.8.69l-3.53-.26h-.11l-3.49.25c-2-3.12-7.67-7.47-10.82-.69l-3.48.44c-1.34-3.85-6.75-5.82-7.41,1.14l-4.26-.24c-1.23-1.4-.4-4.46-1.12-5.25-1.85-2.21-5.35-1.09-7.83-2-2.62,4.2-3.81.19-8.39-4.4-1.58-3.27-1.46-9-2.68-12-1.34-3.32-3.57-6.1-5.2-6-1.42.09-2.46,2.44-2,8.78a53.6,53.6,0,0,0,2.33,12.8c1.21,3.75,1,9.92,1,13.62-.06,15.18,2.68,17.91,13.24,18.37l15,5.69c14.17,3.25,13.19,9.52,24.62,9.49h1.28c11.43,0,10.48-6.24,24.66-9.49l15-5.69c10.56-.46,13.3-3.19,13.24-18.37,0-3.7-.26-9.87.94-13.62a53.1,53.1,0,0,0,2.32-12.8C154.35,217.15,153.32,214.8,151.88,214.71Z"/><path class="cls-1" d="M191.44,92a77.82,77.82,0,0,0-17.5-26c1.39-12.39-1.25-25.17-8.32-38.36S147.43,5.26,133.34,0l-.77.51c.36,1.52.66,3.08,1.1,4.58,4,13.28,4.05,26.24-.11,38.76a123.83,123.83,0,0,0-32.42-4h0c-1.29,0-2.59.1-3.88.14h-.15c-1.29,0-2.59-.13-3.91-.14h0a123.61,123.61,0,0,0-32.39,4c-4.17-12.52-4.12-25.48-.12-38.76.44-1.5.74-3.06,1.09-4.58L61,0c-14.1,5.26-25.2,14.41-32.29,27.67s-9.72,26-8.32,38.36A78.16,78.16,0,0,0,2.82,92c-6.57,16-.17,45.72,4.12,56.93,6.83,4.43,8.71,12.84,11.08,18.49,3.16,7.9-6.33,25.14-6.16,31.82.18,8.62,1.54,13.37,6.9,14.05s11,0,11.93-2.13,25-2.44,24.62,8.77c-2.68,4.89-1.53,8.33,3.35,8.33,1.23,0,1.45-3,1.91-6.14.71-4.95,4.3-4.25,4.3-2.93a19.2,19.2,0,0,1,.49,6.41c-.09,1.64-1.77,2.91-1.33,4.76-.75,2.94,2.46,2.06,4.46,3.26,2.7,1.55,3.93,3.29,7.07,2.84,1.39-.21.66-6.61,1.51-9.09.87-2.31,5.83-2.45,6.09.43.17,2.42-.6,4.14,0,5.36,2.14,5.24,7.61,3.09,9.37,1,1-1.2,1.12-8,1.69-8.76.82-1.15,2.52-2,2.88-1.72h.15c.35-.27,2.06.57,2.87,1.72.56.72.73,7.56,1.68,8.76,1.78,2.14,7.25,4.29,9.37-1,.56-1.22-.21-2.94,0-5.36.28-2.88,5.25-2.74,6.11-.43.85,2.48.13,8.88,1.52,9.09,3.14.45,4.37-1.29,7-2.84,2-1.2,5.21-.32,4.49-3.26.43-1.85-1.25-3.12-1.37-4.76a19.67,19.67,0,0,1,.5-6.41c0-1.32,3.6-2,4.33,2.93.45,3.19.67,6.14,1.92,6.14,4.87,0,6-3.44,3.3-8.33-.36-11.21,23.68-10.81,24.65-8.77s6.43,2.73,11.93,2.13c5.34-.68,6.71-5.43,6.9-14.05.17-6.68-9.35-23.92-6.18-31.82,2.36-5.65,4.27-14.06,11.06-18.49C191.61,137.76,198,108,191.44,92Zm-112.33,71c-9,10.16-23.34,13.07-37.85,8.86-19-5.59-16.91-35.8,1.75-36.62,2.18-.06,4.46-.18,6.8-.17,7,.11,14.38,1,20.47,4.64C87.41,149.72,86.49,154.63,79.11,163.07Zm25.66,29.57c-2.3-2-1.92-6.36-7-6.3H96.49c-5.07-.06-4.7,4.31-7,6.3-1.6,2.19-11.08,4.1-8-4.26,1-2.17,11.07-19.55,10.92-19.29,1.29-1.7,2.2-1.85,4-1.85l.58,0h.15l.55,0c1.86,0,2.79.15,4,1.85-.14-.26,10,17.12,10.92,19.29C115.88,196.74,106.4,194.83,104.77,192.64ZM153,171.93c-14.52,4.21-28.83,1.3-37.85-8.86-7.41-8.44-8.32-13.35,8.83-23.29,6.06-3.65,13.47-4.53,20.46-4.64,2.35,0,4.6.11,6.81.17C169.93,136.13,172,166.34,153,171.93Z"/></g></svg>