<svg id="Exchange" xmlns="http://www.w3.org/2000/svg" viewBox="0 0 283.46 283.46"><defs><style>.cls-1{fill:#1d1d1b;}</style></defs><title>Exchange</title><path class="cls-1" d="M55.45,135a4.87,4.87,0,0,0,1.41-3.42A59.54,59.54,0,0,1,74.54,89.12C85,78.63,99.86,72.85,116.26,72.85a68.87,68.87,0,0,1,8.75.56L113.19,85.23a4.83,4.83,0,0,0,2.16,8.08L229.79,124a4.84,4.84,0,0,0,5.92-5.92L205.05,3.58A4.81,4.81,0,0,0,201.63.17,4.43,4.43,0,0,0,200.38,0,4.82,4.82,0,0,0,197,1.42L170.84,27.56a118,118,0,0,0-53.87-13,116.63,116.63,0,0,0-117,117,4.85,4.85,0,0,0,4.83,4.83H52A4.92,4.92,0,0,0,55.45,135Z"/><path class="cls-1" d="M278.64,147.09h0l-47.16,0a4.82,4.82,0,0,0-4.82,4.83,59.69,59.69,0,0,1-17.72,42.4c-10.51,10.49-25.34,16.28-41.76,16.28a70.08,70.08,0,0,1-8.7-.55l11.85-11.84a4.83,4.83,0,0,0-2.17-8.08L53.68,159.47a5,5,0,0,0-1.25-.17,4.84,4.84,0,0,0-4.67,6.08l30.66,114.5a4.83,4.83,0,0,0,8.08,2.17l26.12-26.14a118,118,0,0,0,53.88,13,116.61,116.61,0,0,0,117-117A4.82,4.82,0,0,0,278.64,147.09Z"/></svg>