<svg xmlns="http://www.w3.org/2000/svg" viewBox="0 0 202.93 283.46"><defs><style>.cls-1{fill:#1d1d1b;}</style></defs><title>Exhaust</title><g id="Exhaust"><path class="cls-1" d="M190.05,0H12.88A12.88,12.88,0,0,0,0,12.88v257.7a12.88,12.88,0,0,0,12.88,12.88H190.05a12.87,12.87,0,0,0,12.88-12.88V12.88A12.88,12.88,0,0,0,190.05,0ZM135.79,116.39,105,136.81a1.38,1.38,0,0,1-2.15-1.15V125.08a23.82,23.82,0,1,0,15.66,44.65,1.38,1.38,0,0,1,1.94.91l3.7,15a1.37,1.37,0,0,1-.84,1.62,41.74,41.74,0,1,1-20.46-80.31V94.79A1.38,1.38,0,0,1,105,93.65l30.78,20.44a1.37,1.37,0,0,1,.61,1.15A1.4,1.4,0,0,1,135.79,116.39Z"/></g><g id="Lose_played" data-name="Lose played"><path class="cls-1" d="M190.05-283.46H12.88A12.88,12.88,0,0,0,0-270.58v257.7A12.88,12.88,0,0,0,12.88,0H190.05a12.88,12.88,0,0,0,12.88-12.88v-257.7A12.88,12.88,0,0,0,190.05-283.46ZM123.28-103.12a1.21,1.21,0,0,1-1.72,0l-20.11-20.11L81.36-103.14a1.23,1.23,0,0,1-1.73,0L62.88-119.89a1.22,1.22,0,0,1,0-1.73L83-141.71,62.86-161.82a1.22,1.22,0,0,1,0-1.73l16.79-16.79a1.23,1.23,0,0,1,1.73,0l20.11,20.11,20.09-20.09a1.21,1.21,0,0,1,1.72,0l16.76,16.75a1.23,1.23,0,0,1,0,1.73L120-141.75l20.11,20.11a1.23,1.23,0,0,1,0,1.72Z"/></g></svg>