<svg xmlns="http://www.w3.org/2000/svg" viewBox="0 0 283.47 164.18"><defs><style>.cls-1{fill:#1d1d1b;}</style></defs><title>Farmland</title><g id="Farmland"><path class="cls-1" d="M113,7c16.16-9.39,42.28-9.39,58.35,0L271.47,65.22c16.08,9.3,16,24.43-.19,33.8l-100.83,58.2c-16.16,9.28-42.28,9.28-58.3,0L12,99c-16.08-9.37-16-24.5.14-33.8ZM60.24,104,179.73,35,167.86,28,48.33,97.08,60.24,104m55.38,32.15,119.54-69-11.94-6.93-119.47,69,11.87,6.86M87.91,120,207.42,51.06l-11.83-6.83-119.53,69L87.91,120m32.25-94.24L44.58,69.43c-7.72,4.5-10.51,10.65-8.5,16.41L148.42,21c-9.85-1.27-20.6.39-28.26,4.78m43.16,112.61,75.59-43.57c7.71-4.48,10.49-10.63,8.44-16.4l-112.3,64.86c9.85,1.27,20.56-.4,28.27-4.89"/></g></svg>