<svg xmlns="http://www.w3.org/2000/svg" viewBox="0 0 283.46 283.46"><defs><style>.cls-1,.cls-2,.cls-3{fill:#1d1d1b;}.cls-2{font-size:100px;font-family:Verdana-Bold, Verdana;font-weight:700;}.cls-3{fill-rule:evenodd;}</style></defs><title>Few</title><g id="Few"><path class="cls-1" d="M262.28,283.46H21.19A21.21,21.21,0,0,1,0,262.28V21.2A21.22,21.22,0,0,1,21.19,0H262.28a21.21,21.21,0,0,1,21.18,21.2V262.28A21.2,21.2,0,0,1,262.28,283.46ZM259.79,12.38H23.67A12.42,12.42,0,0,0,11.25,24.81V258.67a12.42,12.42,0,0,0,12.42,12.42H259.79a12.43,12.43,0,0,0,12.43-12.42V24.81A12.43,12.43,0,0,0,259.79,12.38Z"/><text class="cls-2" transform="translate(46.64 252.57)">2-4</text><path class="cls-3" d="M238.94,140.29c-1.09-3.23-1-6.79-2.32-9.3-4.5-8.37-20.37-8.56-29.78-14-2.15-1.23-4-4.11-6.06-6-2.75-2.56-5.13-3.38-6-6.5-3.18-10.93,8.79-19.91,9.28-30.23.12-2.2-1-4.82-1.36-7.9-.71-5.93.2-12.55-1-15.83-3.26-9.16-13.07-7.77-21.4-13.48h-6.5c-7.15,2.07-12.42,4.05-16.83,8.55a13.84,13.84,0,0,1,1.37,1.75c2.34,3.93,3.58,8.65,5,13,.68,2.07,2.44,4.54,2.62,6.74.14,1.67-.9,3.42-1.21,5.5-.25,1.91-.1,3.68-.45,5.24-.85,3.59-3,6-3.34,10.21a49.33,49.33,0,0,0,.72,9.25c.43,3.51,1.56,6.72,1.19,9.47s-2.21,5-3.57,7.24c1.87,2.76,5.42,3.35,8.32,4.75,2.06,1,3.69,2.81,5.71,3.73,4.34,2,7.75,2.79,11.39,5.75,2.8,2.26,6.32,5.71,8.06,10,3.44,8.46,3.29,19.49,4.75,31h47A120.84,120.84,0,0,0,238.94,140.29Z"/><path class="cls-3" d="M105.2,27.38h2.85c2.93,2.5,7.28,1.18,10.91,2.37,3,1,6.13,5.52,8.55,8.55a88.57,88.57,0,0,1,6.64,10.21c1.26,2.06,2.81,3.17,3.8,4.76,2.35,3.72,3.59,8.21,5,12.34.66,2,2.43,4.32,2.59,6.41.14,1.59-.89,3.25-1.19,5.22s-.11,3.51-.47,5c-.82,3.43-3,5.77-3.31,9.72a43.12,43.12,0,0,0,.72,8.8c.44,3.33,1.56,6.41,1.17,9s-2.19,4.69-3.56,6.89c1.86,2.59,5.42,3.17,8.31,4.51,2.06.92,3.68,2.67,5.69,3.54,4.38,1.91,7.77,2.67,11.41,5.46,2.79,2.16,6.32,5.45,8.07,9.5,3.44,8,3.29,18.53,4.74,29.44H39v-8.3c1.06-6.2,1.75-13.27,4-17.58,2.75-5.17,8.21-9.25,12.83-12.57,4.92-3.59,11-5.53,15.89-9.49a30.61,30.61,0,0,1-5-20.19c.27-2.29,1.49-4.34,1.66-6.41.21-2.28-.71-4.34-.71-6.65,0-2,.58-4.29.71-6.66C70.06,53,81.2,32.78,105.2,27.38Z"/></g></svg>