<svg xmlns="http://www.w3.org/2000/svg" viewBox="0 0 236.25 283.46"><defs><style>.cls-1{fill:#1d1d1b;}</style></defs><title>Fire</title><g id="Fire"><path id="path4" class="cls-1" d="M0,183.15c0-26.89,7.3-48.68,18.93-65.38,0,33,8,44.7,25.43,44.7,11.63,0,23.6-8.73,23.6-23.66,0-13.42-9.07-37.81-9.07-63.93S67.62,20.73,103.21,0C95.21,21.08,92,38.9,92,53.43c0,38.5,23.27,56,44,56,16.71,0,34.17-10.9,34.17-42.54,11.25,12.36,16.34,26.55,16.34,40.72,0,22.56-12.36,42.54-12.36,60.7,0,14.88,12,23.62,23.62,23.62,20.74,0,26.9-18.52,26.9-49,6.2,10.55,11.66,31.23,11.66,49,0,53.08-50.16,91.57-106.12,91.57,47.23-17.81,56-41.42,56-68-11.66,20.74-23.65,23.62-29.44,23.62-35.63,0,2.89-68-59.24-115.19,10.16,21.79,14.15,40.71,14.15,55.94,0,32.76-17.78,50.57-34.86,50.57-14.53,0-29.07-11.65-34.89-36.38,0,34.51,10.16,67.26,55.6,89.4C26.54,271.81,0,227.51,0,183.15Z"/></g></svg>