<svg xmlns="http://www.w3.org/2000/svg" viewBox="0 0 250.09 283.45"><defs><style>.cls-1{fill:#1d1d1b;}</style></defs><title>Fire hex</title><g id="Fire_hex" data-name="Fire hex"><path class="cls-1" d="M249.32,71l0,0A5.54,5.54,0,0,0,247,68.83L127.72.76a6.09,6.09,0,0,0-6,0L3,68.83a5.67,5.67,0,0,0-2.2,2.1s0,.07-.08.1v0A5.57,5.57,0,0,0,0,74V210.1a5.81,5.81,0,0,0,3,5.07l118.74,67.45a5.82,5.82,0,0,0,3,.83h.06a6,6,0,0,0,3-.83l119.32-67.45a5.78,5.78,0,0,0,3-5.07V74A5.82,5.82,0,0,0,249.32,71ZM132.11,225.1c27.78-10.48,32.92-24.37,32.92-40-6.86,12.2-13.91,13.89-17.32,13.89-21,0,1.7-40-34.84-67.76,6,12.82,8.32,23.95,8.32,32.91,0,19.27-10.46,29.75-20.51,29.75-8.55,0-17.1-6.86-20.52-21.41,0,20.3,6,39.57,32.71,52.6-41.69-6.86-57.3-32.92-57.3-59,0-15.82,4.29-28.64,11.13-38.46,0,19.43,4.69,26.29,15,26.29A13.71,13.71,0,0,0,95.54,140c0-7.89-5.33-22.23-5.33-37.6s5.13-31.85,26.07-44.05c-4.71,12.4-6.62,22.88-6.62,31.43,0,22.65,13.69,32.92,25.86,32.92,9.83,0,20.1-6.41,20.1-25a35.14,35.14,0,0,1,9.61,24c0,13.27-7.27,25-7.27,35.71a13.72,13.72,0,0,0,13.89,13.89c12.2,0,15.83-10.9,15.83-28.86,3.64,6.21,6.85,18.38,6.85,28.86C194.53,202.45,165,225.1,132.11,225.1Z"/></g></svg>