<svg xmlns="http://www.w3.org/2000/svg" viewBox="0 0 283.46 179.57"><defs><style>.cls-1{fill:#1d1d1b;}</style></defs><title>Fish</title><g id="Fish"><path class="cls-1" d="M280.7,125.73,269.51,116l-8.64-10.55c-.36-.83-.73-1.64-1.09-2.44-.93-2-2.48-5.44-2.49-6.64a8.44,8.44,0,0,0-.08-1.12c-.19-1.26.38-3.33,1-5.52.12-.41.24-.83.35-1.25a62.15,62.15,0,0,1,5.65-10.5l1.47-1.64a71,71,0,0,1,7.05-7.23l7.76-6.27a8,8,0,0,0,2.33-9.42c-2.85-6.65-10.62-7-15.26-7.17l-.62,0h-.35A61.56,61.56,0,0,0,250,48.62c-1,.26-2,.53-3.08.77-.31.08-.62.17-.92.28A69,69,0,0,0,230,58.48l-1.81,1.23-.4.29a57.38,57.38,0,0,0-9.23,8.66l-.7-.6c-.22-.18-.45-.36-.69-.52L214,65.39c-5-3.43-10.18-7-16.35-10.53l-.18-.1-2-1.11a102.34,102.34,0,0,0-13.3-6.43L179.53,46a95.74,95.74,0,0,0-14.4-6c-3.87-1.61-7.71-2.93-11.48-4.14l5.74-9.66a29.79,29.79,0,0,0,4-11.19,8.21,8.21,0,0,0,0-1.92C163,8.34,160.2,4.69,155.2,2.14a6.58,6.58,0,0,0-.82-.36A26.31,26.31,0,0,0,145.13,0a22.84,22.84,0,0,0-4,.36,41.19,41.19,0,0,0-15.66,4.75c-.8.4-1.56.78-2.33,1.13a6.92,6.92,0,0,0-1,.54,95.92,95.92,0,0,0-11.36,8.69l-2.39,2a8.4,8.4,0,0,0-1.14,1.17l-5.88,7.41a52.66,52.66,0,0,1-5.81,1.78c-1.17.31-2.37.63-3.58,1-11,2-20.65,4.14-29.4,6.51l-.53.17A136.41,136.41,0,0,0,44.68,42.6c-6.75,3.1-12,7.31-17.16,11.39L25.36,55.7l-.23.19A97.72,97.72,0,0,0,11.69,70.32c-1.25,1.56-2.44,3-3.69,4.51A60.32,60.32,0,0,0,2,83.5l-.74,1.22a7.74,7.74,0,0,0-1,2.69c-.42,2.18-3.12,22,27.94,48l.4.32c1.59,1.16,15.73,11.41,24.14,14.65.21.08.41.15.62.21A145,145,0,0,0,84.5,155.9l20.21,2.39a35.33,35.33,0,0,1,5.9,1.46l3.65,4.78a8.28,8.28,0,0,0,.89,1l5.31,5,.16.14A40.92,40.92,0,0,0,136.43,179a8.25,8.25,0,0,0,1.84.32l1.17.06c1.48.09,3,.18,4.55.18a23.41,23.41,0,0,0,6-.67c.18,0,.35-.1.53-.15l1.5-.49c2.78-.87,6.23-1.95,9.19-4.43a8,8,0,0,0,.17-12.19l-6.52-5.76-.61-.49-1-.71c8.45-2.83,17.48-6,26.53-9.66l.2-.09,11.62-5.12.45-.22,10.48-5.42a7.6,7.6,0,0,0,.78-.46l.49-.33a135.6,135.6,0,0,0,13.39-9.78l.14-.12c.79-.7,1.55-1.43,2.29-2.18l9.27,9.33c2.47,2.93,5.85,5.22,9.13,7.44,1.06.73,2.07,1.41,3,2.09a7.81,7.81,0,0,0,2,1l10.19,3.67a8.56,8.56,0,0,0,1.73.42,54.14,54.14,0,0,0,6.58.45,33.11,33.11,0,0,0,8.85-1.13,8.52,8.52,0,0,0,1.45-.56c1.17-.58,2.05-1,2.75-1.29,3.65-1.64,5.17-2.78,7.63-6.75A8,8,0,0,0,280.7,125.73ZM65.75,88.6A10.56,10.56,0,1,1,76.3,78.05,10.55,10.55,0,0,1,65.75,88.6Zm50.48,12.79-1.64,7.15-1.91,6.22-3.6,5.86-3,4.1-4.14,4.58-6.51,5-6.58,4.41-3,1.17,6.15-5.48L99.47,125l5.39-10.55a37.76,37.76,0,0,0,3.38-11l.92-9a70.57,70.57,0,0,0-.9-12.24A71.55,71.55,0,0,0,104.51,68L99.23,56.85,92.9,47.12l-1.87-3L95.54,48l7.32,7.59,3.47,4.64,5,8.94,2.57,7.26,1.65,5.63.93,5.28.24,7.15Z"/></g><g id="Pumpkin"><path class="cls-1" d="M-6.4,66.33a104.39,104.39,0,0,0-18.72-33A90.72,90.72,0,0,0-55.42,9.85,94.81,94.81,0,0,0-96.49.91c-13.35,0-27.48,2.47-42.08,7.34-1.61-6.62-.64-7.24.37-11.53,1.11-4.64,3.87-8,9.55-11.76a.67.67,0,0,0,.3-.66.67.67,0,0,0-.46-.56l-13.49-4.5,0,0a.7.7,0,0,0-.6.06c-8.25,5-9.73,15.71-10.89,26.28A127.28,127.28,0,0,0-187,.91,94.77,94.77,0,0,0-228,9.85a90.62,90.62,0,0,0-30.3,23.49,104,104,0,0,0-18.72,33,112.84,112.84,0,0,0-6.4,37.52c0,25.78,8.84,49.41,24.91,66.56a89.32,89.32,0,0,0,32.16,21.77c13.53,5.45,29,8.21,46,8.21a194.75,194.75,0,0,0,38.61-4.16,194.68,194.68,0,0,0,38.61,4.16c17,0,32.51-2.76,46-8.21a89.27,89.27,0,0,0,32.17-21.77C-8.85,153.26,0,129.63,0,103.85A112.84,112.84,0,0,0-6.4,66.33Zm-241.77,95a1.07,1.07,0,0,1-.56.17,1,1,0,0,1-.77-.36,71.07,71.07,0,0,1-4.41-5.82,85.06,85.06,0,0,1-11-23.33,108.1,108.1,0,0,1-2-53.32C-263.57,63-256.8,49-247.37,38.41a68.1,68.1,0,0,1,17.13-14,65.51,65.51,0,0,1,9.11-4.32,1.15,1.15,0,0,1,.36-.07,1,1,0,0,1,.87.51,1,1,0,0,1-.26,1.28c-19.07,14.85-32.28,38.3-37.17,66-4.55,25.79-1.09,52.08,9.48,72.14A1,1,0,0,1-248.17,161.31Zm59-136.53c-47.59,46.72-39.24,98.28-23.13,147a1,1,0,0,1-.55,1.23,1.1,1.1,0,0,1-.4.08,1,1,0,0,1-.88-.52c-6.56-12.18-13.6-27.15-15.8-33a114.36,114.36,0,0,1-6.88-27.86,88,88,0,0,1,1.25-28.14A80.6,80.6,0,0,1-216,46c7.32-8.06,14.77-15.87,25.53-22.75a1,1,0,0,1,.54-.16,1,1,0,0,1,.78.38A1,1,0,0,1-189.21,24.78Zm19.67,17.69c-9.17,39.54-11.31,84-6,125.09a1,1,0,0,1-.78,1.1.75.75,0,0,1-.21,0,1,1,0,0,1-1-.7c-1.08-3.52-2-6.86-2.81-10.22a149.25,149.25,0,0,1-4.2-35.13c0-13-.08-34.84,3.32-50.44a151,151,0,0,1,9.78-30.35,1,1,0,0,1,.91-.6.87.87,0,0,1,.32.06A1,1,0,0,1-169.54,42.47Zm70.61,80.16a149.26,149.26,0,0,1-4.21,35.13c-.81,3.38-1.73,6.72-2.81,10.22a1,1,0,0,1-1,.7.86.86,0,0,1-.22,0,1,1,0,0,1-.78-1.1c5.28-41.12,3.14-85.55-6-125.09a1,1,0,0,1,.65-1.17,1,1,0,0,1,.32-.06,1,1,0,0,1,.91.6,150.56,150.56,0,0,1,9.78,30.35C-98.85,87.78-98.9,109.59-98.93,122.63Zm52.31-10.86a114.79,114.79,0,0,1-6.87,27.86c-2.21,5.83-9.24,20.8-15.81,33a1,1,0,0,1-.88.52,1,1,0,0,1-.4-.08,1,1,0,0,1-.55-1.23C-55,123.06-46.67,71.5-94.25,24.79a1,1,0,0,1-.08-1.34,1,1,0,0,1,.78-.38,1,1,0,0,1,.54.16C-82.25,30.11-74.8,37.92-67.48,46A80.69,80.69,0,0,1-47.86,83.63,88.28,88.28,0,0,1-46.62,111.77ZM-18.54,132a85.32,85.32,0,0,1-11,23.33A70.55,70.55,0,0,1-34,161.12a1,1,0,0,1-.76.36,1,1,0,0,1-.56-.17,1,1,0,0,1-.33-1.3c10.58-20.06,14-46.35,9.48-72.14-4.89-27.74-18.09-51.19-37.17-66a1,1,0,0,1-.25-1.28,1,1,0,0,1,.87-.5,1,1,0,0,1,.35.06,65.63,65.63,0,0,1,9.12,4.32,68.05,68.05,0,0,1,17.12,14C-26.67,49-19.9,63-16.52,78.65A108,108,0,0,1-18.54,132Z"/></g></svg>