<svg xmlns="http://www.w3.org/2000/svg" viewBox="0 0 218.03 283.46"><defs><style>.cls-1{fill:#1d1d1b;}</style></defs><title>Flask</title><g id="Flask"><path class="cls-1" d="M146.76,72.18V23l9.13-14.25.31-.3A5,5,0,0,0,152.74,0H65.29a5,5,0,0,0-3.5,8.46L71.27,23V72.18a109,109,0,1,0,75.49,0ZM109,268.8A94.36,94.36,0,0,1,85,83.2V15.86a5,5,0,0,1,5-4.95H128.3a5,5,0,0,1,4.95,4.95V68.15h-.06v15.1A94.35,94.35,0,0,1,109,268.8Z"/><path class="cls-1" d="M178.74,178.58H39.29a5.13,5.13,0,0,0-5.13,5.12,74.86,74.86,0,0,0,149.71,0A5.13,5.13,0,0,0,178.74,178.58Z"/></g></svg>