<svg xmlns="http://www.w3.org/2000/svg" viewBox="0 0 283.46 272.67"><defs><style>.cls-1{fill:#1d1d1b;}</style></defs><title>Flower</title><g id="Flower"><path class="cls-1" d="M283.46,136.33a31.57,31.57,0,0,0-22.53-30.12L247,102.12l8.83-11.48A31.4,31.4,0,0,0,231,40.08a31.23,31.23,0,0,0-10.53,1.82l-13.64,4.85.4-14.47a31.4,31.4,0,0,0-57.3-18.62L141.73,25.6l-8.18-11.94a31.4,31.4,0,0,0-57.3,18.62l.4,14.47L63,41.9A31.39,31.39,0,0,0,27.07,53a31.58,31.58,0,0,0,.52,37.62l8.83,11.48-13.89,4.09a31.41,31.41,0,0,0,0,60.25l13.89,4.09L27.59,182a31.41,31.41,0,0,0,24.89,50.56A31.21,31.21,0,0,0,63,230.77l13.65-4.85-.4,14.47A31.4,31.4,0,0,0,133.55,259l8.18-11.95L149.92,259a31.4,31.4,0,0,0,57.3-18.62l-.4-14.47,13.64,4.85A31.21,31.21,0,0,0,231,232.59,31.41,31.41,0,0,0,255.87,182L247,170.55l13.89-4.09A31.58,31.58,0,0,0,283.46,136.33ZM141.73,219.8a83.47,83.47,0,1,1,83.47-83.47A83.47,83.47,0,0,1,141.73,219.8Z"/><circle class="cls-1" cx="141.73" cy="136.33" r="76.93" transform="translate(-54.89 140.15) rotate(-45)"/></g></svg>