<svg xmlns="http://www.w3.org/2000/svg" viewBox="0 0 283.46 164.08"><defs><style>.cls-1,.cls-2{fill:#1d1d1b;}.cls-2{fill-rule:evenodd;}</style></defs><title>Forest</title><g id="Mountain"><path id="Moutain" class="cls-1" d="M299.46,196.65c-13.11,0-19.46-9.8-14.08-21.76L337.86,57.8c5.37-12,13.91-9.67,18.53-3.07l7.07,11.84,40.08-90.14c5.38-12,14.17-12,19.54,0l37.46,83.48,16.54-37.62c5.53-7.5,14.22-9.16,19.54,0L565,174.89c5.37,12-1,21.76-14.07,21.76Zm48.05-122-27.15,59.66,16.27-5,10.86,16.88,11.15-16.88,16.27,5ZM486.77,36l-31.68,69.61,19-5.78,12.69,19.69,13-19.69,19,5.78ZM413.37-9,372.65,80.47,397.06,73l16.31,25.35L430.07,73l24.4,7.46Z"/></g><g id="Forest"><path class="cls-2" d="M255.16,87.64h28.3L226.84,31,204.07,53.79q8,8,16.09,16.07A3,3,0,0,1,218.05,75H187.13q16.5,16.53,33,33.05a.08.08,0,0,1,0,0,2.31,2.31,0,0,1,.14.19,2.71,2.71,0,0,1,.46,3,.1.1,0,0,0,0,0l-.06.1a2.7,2.7,0,0,1-2.39,1.75.43.43,0,0,0-.15,0H198.81c-.72,0-1.21-.06-1.79-.11l23.14,23.15a3,3,0,0,1-2.11,5.12H207.59v15.8h38.49V136.84h37.38L262.59,116h20.87Z"/><path class="cls-2" d="M63.31,136.18q11.52-11.51,23-23H65.43a3,3,0,0,1-2.12-5.1L96.35,75H65.43a3,3,0,0,1-2.12-5.12q8-8.06,16.1-16.09L56.64,31,0,87.64H28.31L0,116H20.88L0,136.84H37.4V157.1H75.88V141.3H65.43A3,3,0,0,1,63.31,136.18Z"/><path class="cls-2" d="M179.88,69H210.8L193.67,51.86,158.2,16.41,143.85,2.06c-1-1-1.68-1.61-2.17-2.06Q113.92,27.8,86.13,55.55,79.41,62.29,72.67,69h30.91a3,3,0,0,1,2.12,5.12l-33.19,33.2a16.25,16.25,0,0,1,1.83-.14H93.57a3,3,0,0,1,2.13,5.11L77.46,130.53l-4.78,4.77h43.13a3,3,0,0,1,3,3c0,6.95,2,24.3-2.13,24.3h28c7.34,0,19.94-1.46,19.94,1.48V138.3a3,3,0,0,1,3-3h43.15l-9-9q-7-7-14.06-14.08a3,3,0,0,1,2.11-5.11h20.91l-33-33.06A3,3,0,0,1,179.88,69Z"/></g></svg>