<svg xmlns="http://www.w3.org/2000/svg" viewBox="0 0 250.68 286.95"><defs><style>.cls-1{fill:#1d1d1b;}</style></defs><title>Frost</title><g id="Sword_in_shield" data-name="Sword in shield"><path class="cls-1" d="M167.34-220.66a2.38,2.38,0,0,0-2.19-1.45H135.7v-36.77l3.73-7.46a2.42,2.42,0,0,0,0-2.13l-6-11.91a2.38,2.38,0,0,0-2.11-1.3l-12,0h0a2.37,2.37,0,0,0-1.67.69,2.81,2.81,0,0,0-.45.62l-6,12a2.37,2.37,0,0,0,0,2.11L115-258.9v36.78l-29.49,0a2.39,2.39,0,0,0-2.18,1.47,2.34,2.34,0,0,0,.51,2.57l15.92,15.93a2.37,2.37,0,0,0,1.69.69H109v182a2.43,2.43,0,0,0,.46,1.42l14,18.79a2.41,2.41,0,0,0,1.92,1,2.39,2.39,0,0,0,1.9-1L141.18-18a2.37,2.37,0,0,0,.47-1.41v-182l7.58,0a2.4,2.4,0,0,0,1.68-.69l15.92-15.92A2.39,2.39,0,0,0,167.34-220.66Zm-45-54.21,6,0,3,6-3,5.94h-6l-3-5.95ZM137-23.91,125.34-8.13l-11.7-15.75V-203.82l2,0V-25.43l9.71,13.08,9.73-13.07,0-178.39h2Zm6.25-185.88-35.82,0-2-2,2-2h35.83l2,2Z"/></g><g id="Frost"><path class="cls-1" d="M248,159.85a20.27,20.27,0,0,0-17.49-10.09,20,20,0,0,0-10.07,2.72l-19.85,11.44-35.41-20.45L200.57,123l19.85,11.44a20,20,0,0,0,10.07,2.72A20.18,20.18,0,0,0,240.8,99.66a20.16,20.16,0,0,0-20.07-34.74,20.17,20.17,0,0,0-40.34.21l0,23-34.09,19.67V64.67l19.85-11.46a20.17,20.17,0,0,0-20-35A20.28,20.28,0,0,0,126.15,0c-.27,0-.54,0-.81,0s-.54,0-.82,0a20.26,20.26,0,0,0-20,18.16,20.17,20.17,0,0,0-20,35.05l19.85,11.46v43.08L70.27,88.08v-23A20.17,20.17,0,0,0,30,64.92,20.16,20.16,0,0,0,9.88,99.66a20.17,20.17,0,0,0,20.38,34.81L50.1,123l35.42,20.44L50.1,163.92,30.26,152.48A20.17,20.17,0,0,0,9.88,187.29,20.16,20.16,0,0,0,30,222a20.17,20.17,0,0,0,40.33-.21V198.87l34.08-19.67v43.08L84.5,233.74a20.17,20.17,0,0,0,20,35.05,20.27,20.27,0,0,0,20,18.16c.28,0,.55,0,.82,0s.54,0,.81,0a20.29,20.29,0,0,0,20.06-18.16,20.17,20.17,0,0,0,20-35.05l-19.85-11.46V179.2l34.09,19.67,0,22.95a20.17,20.17,0,0,0,40.34.21,20.16,20.16,0,0,0,20.07-34.74A20.21,20.21,0,0,0,248,159.85ZM235,195.4a10.16,10.16,0,0,1-10.11,17.51l-14-6.29-.14,15.31a10.17,10.17,0,0,1-20.34-.1l0-23V193.1l-5-2.89-34.08-19.67a10,10,0,0,0-15,8.66v48.85l5,2.89,19.85,11.46a10.17,10.17,0,0,1-10.07,17.67l-13.31-7.47-1.53,15.19A10.27,10.27,0,0,1,126.15,277c-.27,0-.54,0-.81,0s-.54,0-.82,0a10.27,10.27,0,0,1-10.11-9.16l-1.53-15.19-13.31,7.47a10.11,10.11,0,0,1-5,1.31,10.16,10.16,0,0,1-5.1-19l19.85-11.46,5-2.89V179.2a10,10,0,0,0-15-8.66L65.27,190.21l-5,2.89v28.73a10.17,10.17,0,0,1-20.33.1l-.15-15.31-14,6.29A10.16,10.16,0,0,1,15.72,195.4l12.38-8.91L15,178.69a10.17,10.17,0,0,1,10.27-17.55l19.85,11.44,5,2.89,5-2.89L90.78,152a9.74,9.74,0,0,0,0-17L55.1,114.37l-5-2.89-5,2.88L25.26,125.81A10.17,10.17,0,0,1,15,108.26l13.11-7.8L15.72,91.55A10.16,10.16,0,0,1,25.84,74l14,6.29L40,65a10.17,10.17,0,0,1,20.33.1V93.85l5,2.89,34.09,19.67a10,10,0,0,0,15-8.66V58.9l-5-2.89L89.51,44.55a10.16,10.16,0,0,1,5.1-19,10.11,10.11,0,0,1,5,1.31l13.31,7.47,1.53-15.19A10.27,10.27,0,0,1,124.52,10c.28,0,.55,0,.82,0s.54,0,.81,0a10.27,10.27,0,0,1,10.11,9.16l1.53,15.19,13.31-7.47a10.17,10.17,0,0,1,10.07,17.67L141.32,56l-5,2.89v48.85a10,10,0,0,0,15,8.66L185.4,96.74l5-2.89V88.07l0-22.95a10.17,10.17,0,0,1,20.34-.1l.14,15.31,14-6.29A10.16,10.16,0,0,1,235,91.55l-12.37,8.91,13.11,7.8a10.17,10.17,0,0,1-10.28,17.55l-19.84-11.45-5-2.88-5,2.89L159.9,135a9.74,9.74,0,0,0,0,17l35.67,20.6,5,2.89,5-2.89,19.84-11.44a10.17,10.17,0,0,1,10.28,17.55l-13.11,7.8Z"/></g></svg>