<svg xmlns="http://www.w3.org/2000/svg" viewBox="0 0 202.93 283.46"><defs><style>.cls-1{fill:#1d1d1b;}</style></defs><title>Gain</title><g id="Discard_played" data-name="Discard played"><path class="cls-1" d="M190.05,283.46H12.88A12.89,12.89,0,0,0,0,296.35v257.7a12.88,12.88,0,0,0,12.88,12.88H190.05a12.88,12.88,0,0,0,12.88-12.88V296.35A12.88,12.88,0,0,0,190.05,283.46ZM149.79,438.62A1.38,1.38,0,0,1,148.4,440H54.53a1.38,1.38,0,0,1-1.38-1.38V411.77a1.38,1.38,0,0,1,1.38-1.38H148.4a1.38,1.38,0,0,1,1.39,1.38Z"/></g><g id="Gain"><path class="cls-1" d="M190.05,0H12.88A12.88,12.88,0,0,0,0,12.88v257.7a12.88,12.88,0,0,0,12.88,12.88H190.05a12.87,12.87,0,0,0,12.88-12.88V12.88A12.88,12.88,0,0,0,190.05,0ZM113.34,99a1.2,1.2,0,0,1,1.22,1.21v28.45H143a1.22,1.22,0,0,1,1.22,1.22v23.7A1.22,1.22,0,0,1,143,154.8H114.56v28.44a1.22,1.22,0,0,1-1.22,1.22H89.59a1.22,1.22,0,0,1-1.22-1.22V154.8H60a1.22,1.22,0,0,1-1.22-1.22v-23.7A1.22,1.22,0,0,1,60,128.66H88.37V100.22A1.22,1.22,0,0,1,89.59,99Z"/></g></svg>