<svg xmlns="http://www.w3.org/2000/svg" viewBox="0 0 212.98 261.51"><defs><style>.cls-1{fill:#1d1d1b;}</style></defs><title>Grain</title><g id="Grain"><path class="cls-1" d="M132.17,74.38c-6.58-7.51-8.12-8.14-23-9.17,5.75-5.59,11.07-10.68,16.28-15.86,11.72-11.64,23.36-23.35,35.07-35C167.73,7.17,180.55,8,187,16a22.67,22.67,0,0,1,1.41,2.07C169.62,36.89,151,55.55,132.17,74.38Z"/><path class="cls-1" d="M161.78,8.94Q133.61,37,105.33,65.18c-6-5.11-13-8.88-22.4-7.37,4.41-4.29,8.86-8.54,13.22-12.89C108,33.07,120.09,21.37,131.68,9.24,141.71-1.27,153.33.68,161.78,8.94Z"/><path class="cls-1" d="M132.65,6.13c-4.86,4.54-9.48,8.64-13.86,13Q98.83,38.94,79,58.93c-2.22,2.26-3.88,2.86-7,1.16-3.56-1.94-7.77-2.67-11.8-4,.49-.52,1.23-1.39,2-2.19q24.2-24.28,48.38-48.56C116.26-.27,123.26-.35,132.65,6.13Z"/><path class="cls-1" d="M50.49,63.85c4-1.46,8-3.9,12.12-4.1,3.48-.17,7.06,2.34,10.67,3.44,1.47.45,3.55,1,4.64.28,8.69-5.38,16.7-3.91,24.09,2.23,2.75,2.3,5.23,2.56,8.63,2.1,7.81-1.07,14.61,1.07,19.45,7.9a6,6,0,0,0,3.76,2.07c5.73.84,11.1,2.37,15.47,6.41,6.72,6.21,7.3,13.63,1.42,20.66a119.32,119.32,0,0,0-25.15,49.24c-.91,3.8-.9,6.71,1.87,10,5.94,7.14,5.46,15-1,22.63a11.21,11.21,0,0,0-2.63,8.67,119.08,119.08,0,0,0,8.91,37.92c.58,1.46,1.13,3,1.59,4.48,2.45,8.31-.25,13.29-8.55,15.53-22,5.94-44.35,9.73-67.31,7.51-14.86-1.44-29.08-5.15-42.36-12.09-4.09-2.13-5.84-5.79-4.57-10.26a32.11,32.11,0,0,1,3.63-8.68,88.36,88.36,0,0,0,13.7-39.25,6.84,6.84,0,0,0-1.49-4.54c-7.65-9.13-7.9-15.43-.2-24.63A8.14,8.14,0,0,0,29,153.51C23.77,130,15.65,107.68,1.25,88-1.59,84.13.65,76.3,5.54,72.1c3.73-3.21,8-4.79,12.8-2.83,2.4,1,3.67.31,4.74-1.82a21.17,21.17,0,0,1,2.49-3.57c4.92-6,11-7.29,17.89-3.54C46,61.73,50.58,64.23,50.49,63.85Z"/><path class="cls-1" d="M127.57,156.23a113.55,113.55,0,0,1,21.58-45.63c1.38-1.77,2.85-3.48,4.2-5.27,5.81-7.68,5.1-17-2.59-22.82-4.37-3.32-9.78-5.25-14.8-7.86a19.14,19.14,0,0,1,1.28-1.47c17-17,34-34,51-51.13,1.95-2,4-2.77,6.32-2,3.62,1.16,7.46,2.19,10.57,4.22,9.22,6,10.35,14.74,3.36,23.2-12.26,14.8-21,31.3-24.92,50.23a11.51,11.51,0,0,1-2.82,5.46q-25.36,25.65-50.92,51.13C129.33,154.73,128.83,155.12,127.57,156.23Z"/><path class="cls-1" d="M182.09,135.8c.33,15.06,4.46,28.74,9.84,42.13,2.59,6.42,1.62,11.65-3.63,16.74-16.28,15.83-32.19,32-48.25,48.1-.63.63-1.32,1.18-1.52,1.35-2.38-7.12-5.28-14.15-7-21.46-2.25-9.32-3.7-18.83-5.16-28.31a7.07,7.07,0,0,1,1.91-5.21c17.45-17.63,35.06-35.13,52.63-52.65A9,9,0,0,1,182.09,135.8Z"/><path class="cls-1" d="M132.77,181c2-8.37.22-15.2-5.25-20.78L183.66,104c6.77,5.73,8.15,14.89,2.51,22.59-3.72,5.08-8.35,9.51-12.82,14C160,153.94,146.62,167.19,132.77,181Z"/><path class="cls-1" d="M51.05,61.11l-16.5-6.19a4.58,4.58,0,0,1,.83-1.1q24.92-25,49.88-49.9c5.86-5.82,13.86-5,21.08,1.56Z"/><path class="cls-1" d="M44,42c-2.84,2.8-5.85,5.43-8.49,8.37-.33.42-.84,1-1.44,1.66-.2.23-.41.47-.64.71-3.72,4.07-10.33,10.84-12.1,12.9a3.68,3.68,0,0,1-2.51,1.19c-2.2-.06-4.4-.45-7.28-.8,1.7-1.49,4.1-4.16,6.84-6.89h0c.54-.72,4.73-4.66,5.3-5.22Q43.34,34.2,63,14.49c3.16-3.15,6.83-4.76,12.55-3.75Z"/></g></svg>