<svg xmlns="http://www.w3.org/2000/svg" viewBox="0 0 283.45 154.98"><defs><style>.cls-1{fill:#1d1d1b;}</style></defs><title>Group</title><g id="Group"><path class="cls-1" d="M179.55,44.17a11.56,11.56,0,0,1,4.5-1,7.74,7.74,0,0,1,3.47.73,12.41,12.41,0,0,1,2.8,2.44A15.62,15.62,0,0,1,193.71,55c2.79-4.5,6.1-6.75,9.9-6.75a5.19,5.19,0,0,1,1.95.3c.24.39.8,2.3,1.52,4.39,7.88-5.6,11.63-7.54,13.92-8.44l2.35-.94,2.15,1.36,1.32.82c1.36.83,2.81,1.73,4.32,2.73a5.12,5.12,0,0,1,1.32-.22q5.67,0,9.91,6.75a15.54,15.54,0,0,1,3.38-8.62,13,13,0,0,1,2.79-2.44,7.77,7.77,0,0,1,3.47-.73c3.17,0,6.33,1.42,9.46,4.18-.32-4.39,1.67-7.71,6-9.89a12.56,12.56,0,0,1,4-.54,30.71,30.71,0,0,1,12,2.89c-10.3-18.39-18.78-23.17-24.33-26.65-2.95,1.19-9.45,5.86-19.57,14.06-.17-4.45-.3-5.14-3.6-8.55C234.2,1.6,228.22,0,228.22,0l-7.53,11.31c-1-.1-1.81-.14-2.65-.15s-1.7.05-2.66.15L207.86,0s-6,1.6-7.74,18.66c-3.31,3.41-3.44,4.1-3.62,8.55q-15.13-12.3-19.57-14.06a59.12,59.12,0,0,0-9.85,7.27C170.83,23.23,176.09,29.67,179.55,44.17ZM232.77,22c.79,1.73-1.13,4.57-4.28,6.3s-6.36,1.8-7.15.07S232.77,22,232.77,22Zm-29.46,0s12.23,4.65,11.42,6.37-4,1.71-7.15-.07S202.5,23.71,203.31,22Z"/><path class="cls-1" d="M57.91,44.87l2.15-1.36,2.35.94c2.28.9,6,2.84,14,8.44.72-2.09,1.27-4,1.51-4.39a5.13,5.13,0,0,1,2-.3q5.7,0,9.9,6.75a15.69,15.69,0,0,1,3.39-8.62,12.81,12.81,0,0,1,2.79-2.44,7.8,7.8,0,0,1,3.47-.73,11.64,11.64,0,0,1,4.5,1c3.44-14.5,8.71-20.94,12.46-23.75a58.71,58.71,0,0,0-9.84-7.27c-3,1.19-9.45,5.86-19.57,14.06-.18-4.45-.31-5.14-3.61-8.55C81.58,1.6,75.58,0,75.58,0L68.07,11.31c-1-.1-1.81-.14-2.67-.15s-1.69.05-2.65.15L55.23,0s-6,1.6-7.74,18.66c-3.31,3.41-3.43,4.1-3.61,8.55C33.76,19,27.26,14.34,24.31,13.15,18.76,16.63,10.29,21.41,0,39.8a30.67,30.67,0,0,1,12-2.89,12.48,12.48,0,0,1,4,.54c4.29,2.18,6.31,5.5,6,9.89,3.13-2.76,6.29-4.18,9.47-4.18a7.71,7.71,0,0,1,3.45.73,12.86,12.86,0,0,1,2.8,2.44A15.54,15.54,0,0,1,41.07,55Q45.29,48.2,51,48.2a6.43,6.43,0,0,1,1.31.2c1.52-1,2.94-1.88,4.3-2.71ZM80.14,22c.79,1.73-1.12,4.57-4.28,6.3s-6.36,1.8-7.15.07S80.14,22,80.14,22ZM50.68,22s12.23,4.65,11.43,6.37-4,1.71-7.16-.07S49.87,23.71,50.68,22Z"/><path class="cls-1" d="M161.8,23.13S173.65,26.29,177.1,60c6.53,6.76,6.76,8.09,7.12,16.88,20-16.21,32.8-25.46,38.62-27.76,11,6.87,27.74,16.31,48.08,52.64C262.19,98,254.25,96,247.26,96a24.16,24.16,0,0,0-8,1c-8.49,4.3-12.45,10.86-11.82,19.58q-9.25-8.26-18.66-8.27A15.56,15.56,0,0,0,202,109.8a22.84,22.84,0,0,0-5.54,4.86,31,31,0,0,0-6.68,17c-5.54-8.91-12.08-13.32-19.55-13.32a10.48,10.48,0,0,0-3.87.58c-.5.84-1.74,5.2-3.31,9.69l-.07.17,0-.12.06-.11c1.62,2.8,4.48,5.84,5.52,8.59,1.62,4.38,2.64,15-.72,17.85-2.05-3.45-4.21-7.9-7.73-7.9a5.11,5.11,0,0,0-1.81.36c-1.51.59-2.18,1.95-3.73,2.46-1.9-3-3-5.31-3.33-7.69.12-.09.12-.24.26-.31.33-.06.52-.13.86-.21A73,73,0,0,1,141.73,143a72.11,72.11,0,0,1-10.67-1.33c.33.08.51.15.84.21.16.07.14.22.24.31-.3,2.38-1.42,4.72-3.33,7.69-1.55-.51-2.21-1.87-3.68-2.46a5.33,5.33,0,0,0-1.82-.36c-3.55,0-5.75,4.45-7.74,7.9-3.37-2.81-2.35-13.47-.71-17.85,1-2.75,3.87-5.79,5.51-8.59a1.2,1.2,0,0,1,.11.23c-1.62-4.53-2.88-9-3.4-9.86a10.36,10.36,0,0,0-3.86-.58c-7.48,0-14,4.41-19.56,13.32a31,31,0,0,0-6.67-17,23.32,23.32,0,0,0-5.52-4.86,15.69,15.69,0,0,0-6.84-1.41q-9.41,0-18.69,8.27c.66-8.72-3.31-15.28-11.8-19.58a24,24,0,0,0-8-1c-7,0-14.9,1.92-23.65,5.7C32.87,65.41,49.59,56,60.57,49.1c5.85,2.3,18.67,11.55,38.61,27.76.37-8.79.63-10.12,7.13-16.88,3.46-33.69,15.3-36.85,15.3-36.85l14.86,22.32c1.88-.22,3.56-.23,5.26-.27s3.34,0,5.25.27L161.8,23.13m-8.35,58.5A18.81,18.81,0,0,0,162.36,79c6.23-3.44,10-9,8.43-12.41,0,0-24.17,9.15-22.54,12.57.77,1.66,2.7,2.5,5.2,2.5m-23.49,0c2.52,0,4.46-.84,5.23-2.5,1.62-3.42-22.54-12.57-22.54-12.57-1.59,3.39,2.2,9,8.43,12.41A18.71,18.71,0,0,0,130,81.63"/></g></svg>