<svg xmlns="http://www.w3.org/2000/svg" viewBox="0 0 283.46 283.47"><defs><style>.cls-1{fill:#1d1d1b;}</style></defs><title>Hammer</title><g id="Axe"><path class="cls-1" d="M545.36,115.53a49.26,49.26,0,0,1-14,6.8A53,53,0,0,1,509.24,124q-13-1.64-27.35-8.89l1.21-1.2a2.7,2.7,0,0,0,0-3.71l-6.88-6.53c7-1.94,18.22-4,24.95-.21a2.55,2.55,0,0,0,3.66-1.28l25.63-61a2.68,2.68,0,0,0-.55-2.84,1.81,1.81,0,0,0-.3-.25,1.81,1.81,0,0,0-.25-.3.8.8,0,0,1-.15-.15,3.31,3.31,0,0,0-.3-.25,2.48,2.48,0,0,0-.25-.3,2.68,2.68,0,0,0-2.84-.55l-61,25.63a2.61,2.61,0,0,0-1.49,1.56,2.56,2.56,0,0,0,.21,2.1c3.82,6.73,1.73,17.93-.21,25l-6.53-6.88a2.69,2.69,0,0,0-3.71,0L451.87,85c-4.84-9.57-7.8-18.71-8.89-27.35a52.85,52.85,0,0,1,1.62-22.15,49.46,49.46,0,0,1,6.8-14c-27.88,2.36-50,12.26-65.8,29.46-17.41,19-24,43.77-26.41,62.59a57.68,57.68,0,0,1,25.89-5.17c2.26,0,4.51.2,6.72.42a111.15,111.15,0,0,1,28.56,7.21L284.24,250a2.59,2.59,0,0,0-.07,3.62L298,268.25l.36.34.34.36,14.59,13.81a2.59,2.59,0,0,0,3.62-.07l134-136.12a111.17,111.17,0,0,1,7.21,28.55c.22,2.22.37,4.47.41,6.73a57.54,57.54,0,0,1-5.16,25.89c18.82-2.4,43.61-9,62.59-26.42C533.11,165.53,543,143.41,545.36,115.53Z"/></g><g id="Hammer"><path class="cls-1" d="M282.65,130.85l-4.53-7.18a2.45,2.45,0,0,0-.38-.47l-.05-.06-.16-.14a2.72,2.72,0,0,0-3.78,0l-60.83,60.84a2.72,2.72,0,0,0-.06,3.78l.15.15.05.06a3,3,0,0,0,.48.38l7.18,4.52a3.81,3.81,0,0,0,5.08-.33l56.53-56.53A3.81,3.81,0,0,0,282.65,130.85Z"/><path class="cls-1" d="M160.47,5.93l-.14-.15-.06-.06a2.89,2.89,0,0,0-.47-.38L152.61.81a3.82,3.82,0,0,0-5.07.33L91,57.66a3.82,3.82,0,0,0-.34,5.09l4.53,7.18a2.84,2.84,0,0,0,.37.47l.06.06.16.14a2.72,2.72,0,0,0,3.78,0L160.41,9.71A2.72,2.72,0,0,0,160.47,5.93Z"/><path class="cls-1" d="M268.42,113.87,234.63,80.08,245,69.88a2.49,2.49,0,0,0,.08-3.49L234.51,49.63l-.35-.32-.33-.35L217.07,38.4a2.48,2.48,0,0,0-3.48.07L203.38,48.84,169.59,15.05a5.45,5.45,0,0,0-7.71,0l-57,57a5.45,5.45,0,0,0,0,7.71L139,113.78.75,251.31a2.48,2.48,0,0,0-.07,3.48l13.28,14,.35.33.33.34,14,13.29a2.5,2.5,0,0,0,3.49-.07L169.68,144.5l34.06,34.05a5.45,5.45,0,0,0,7.71,0l57-57A5.46,5.46,0,0,0,268.42,113.87Z"/></g></svg>