<svg xmlns="http://www.w3.org/2000/svg" viewBox="0 0 251.43 273.27"><defs><style>.cls-1{fill:#1d1d1b;}</style></defs><title>Hand size 4 increase</title><g id="Hand_size_4_increase" data-name="Hand size 4 increase"><path class="cls-1" d="M55,20.89h79.63l-3.9-14.53A8.57,8.57,0,0,0,120.23.29L6.35,30.81A8.57,8.57,0,0,0,.29,41.31L42.65,199.38V33.25A12.37,12.37,0,0,1,55,20.89Z"/><path class="cls-1" d="M99.39,27.22a12,12,0,0,1,3.2.43l78.88,21.13V33.25a8.58,8.58,0,0,0-8.57-8.58H55a8.58,8.58,0,0,0-8.57,8.58V189.5l41-153.12A12.38,12.38,0,0,1,99.39,27.22Z"/><path class="cls-1" d="M140.76,44.88a12.4,12.4,0,0,1,6.17,1.65L217.54,87.3l4-15a8.57,8.57,0,0,0-6.06-10.5L101.61,31.3a8.54,8.54,0,0,0-10.5,6.06L50.54,188.77,130.06,51.05A12.38,12.38,0,0,1,140.76,44.88Z"/><path class="cls-1" d="M247.14,108.75,145,49.81a8.57,8.57,0,0,0-11.71,3.13L47.58,201.46a8.57,8.57,0,0,0,3.14,11.71l102.1,59A8.57,8.57,0,0,0,164.53,269l85.75-148.52A8.57,8.57,0,0,0,247.14,108.75ZM181.08,169.9a.92.92,0,0,1-.91.92H158.76V192.2a.92.92,0,0,1-.91.92H140a.92.92,0,0,1-.92-.92V170.82H117.69a.92.92,0,0,1-.91-.92V152a.92.92,0,0,1,.91-.92H139.1V129.73a.92.92,0,0,1,.92-.92h17.83a.92.92,0,0,1,.91.92v21.38h21.41a.92.92,0,0,1,.91.92Z"/></g></svg>