<svg xmlns="http://www.w3.org/2000/svg" viewBox="0 0 226.38 283.46"><defs><style>.cls-1{fill:#1d1d1b;}</style></defs><title>Hand size 2 increase</title><g id="Hand_size_2_increase" data-name="Hand size 2 increase"><path class="cls-1" d="M68.34,3.29a16.17,16.17,0,0,1,4.14.54l101.8,27.28v-20A11.06,11.06,0,0,0,163.21,0H11.07A11.06,11.06,0,0,0,0,11.07V212.72L53,15.11A16,16,0,0,1,68.34,3.29Z"/><path class="cls-1" d="M218.18,47.93,71.21,8.55a10.94,10.94,0,0,0-2.87-.38,11.08,11.08,0,0,0-10.68,8.2L.38,230.16A11.06,11.06,0,0,0,8.2,243.71l147,39.37a10.94,10.94,0,0,0,2.87.38,11.06,11.06,0,0,0,10.68-8.2L226,61.48A11.06,11.06,0,0,0,218.18,47.93ZM154.69,157.35a1.18,1.18,0,0,1-1.19,1.18H125.88v27.6a1.18,1.18,0,0,1-1.18,1.18h-23a1.18,1.18,0,0,1-1.19-1.18v-27.6H72.88a1.18,1.18,0,0,1-1.18-1.18V134.28a1.18,1.18,0,0,1,1.18-1.18H100.5V105.51a1.19,1.19,0,0,1,1.19-1.19h23a1.18,1.18,0,0,1,1.18,1.19V133.1H153.5a1.18,1.18,0,0,1,1.19,1.18Z"/></g><g id="Hand_2" data-name="Hand 2"><path class="cls-1" d="M68.34-275.3a11.38,11.38,0,0,1,2.87.38l147,39.38A11.06,11.06,0,0,1,226-222L168.72-8.2A11.06,11.06,0,0,1,158,0a10.94,10.94,0,0,1-2.87-.38L8.2-39.76A11.06,11.06,0,0,1,.38-53.31L57.66-267.09a11.08,11.08,0,0,1,10.68-8.21"/></g></svg>