<svg xmlns="http://www.w3.org/2000/svg" viewBox="0 0 226.38 283.46"><defs><style>.cls-1{fill:#1d1d1b;}</style></defs><title>Hand size 2 decrease</title><g id="Hand_size_2_decrease" data-name="Hand size 2 decrease"><path class="cls-1" d="M68.34,3.29a16,16,0,0,1,4.13.54L174.28,31.11v-20A11.06,11.06,0,0,0,163.21,0H11.06A11.06,11.06,0,0,0,0,11.06V212.72L53,15.11A16,16,0,0,1,68.34,3.29Z"/><path class="cls-1" d="M218.18,47.93,71.21,8.55a10.94,10.94,0,0,0-2.87-.38,11.08,11.08,0,0,0-10.68,8.2L.38,230.16A11.06,11.06,0,0,0,8.2,243.71l147,39.38a11.36,11.36,0,0,0,2.87.37,11.06,11.06,0,0,0,10.68-8.2L226,61.48A11.06,11.06,0,0,0,218.18,47.93ZM154.69,157.35a1.18,1.18,0,0,1-1.19,1.18H72.88a1.18,1.18,0,0,1-1.18-1.18V134.28a1.18,1.18,0,0,1,1.18-1.18H153.5a1.18,1.18,0,0,1,1.19,1.18Z"/></g></svg>