<svg xmlns="http://www.w3.org/2000/svg" viewBox="0 0 257.39 283.46"><defs><style>.cls-1{fill:#1d1d1b;}</style></defs><title>Hand size 3 decrease</title><g id="Hand_size_3_decrease" data-name="Hand size 3 decrease"><path class="cls-1" d="M63.82,24.24H156.2L151.68,7.38a10,10,0,0,0-12.18-7L7.37,35.74a10,10,0,0,0-7,12.19l49.14,183.4V38.57A14.36,14.36,0,0,1,63.82,24.24Z"/><path class="cls-1" d="M115.31,31.59a14.11,14.11,0,0,1,3.71.49L210.55,56.6v-18a9.94,9.94,0,0,0-10-9.94H63.82a10,10,0,0,0-10,9.94V219.86l47.6-177.65A14.35,14.35,0,0,1,115.31,31.59Z"/><path class="cls-1" d="M250,71.71,117.89,36.31a9.94,9.94,0,0,0-12.18,7l-51.5,192.2a10,10,0,0,0,7,12.18l132.12,35.4a9.94,9.94,0,0,0,12.18-7l51.5-192.2A10,10,0,0,0,250,71.71Zm-57.08,98.38a1.06,1.06,0,0,1-1.07,1.06H119.39a1.06,1.06,0,0,1-1.06-1.06V149.35a1.06,1.06,0,0,1,1.06-1.06h72.48a1.06,1.06,0,0,1,1.07,1.06Z"/></g></svg>