<svg xmlns="http://www.w3.org/2000/svg" viewBox="0 0 289.97 283.46"><defs><style>.cls-1{fill:#1d1d1b;}</style></defs><title>Hand size 5 increase</title><g id="Hand_size_5_increase" data-name="Hand size 5 increase"><path class="cls-1" d="M118.1,4.29a8.57,8.57,0,0,0-11.71-3.14l-63,36.37.53-.17,80.77-21.64Z"/><path class="cls-1" d="M38.78,40.19,4.29,60.1A8.57,8.57,0,0,0,1.15,71.81L74.33,198.56,35.19,52.48A12.34,12.34,0,0,1,38.78,40.19Z"/><path class="cls-1" d="M93.55,31.09h79.63l-3.9-14.54a8.54,8.54,0,0,0-10.5-6.06L44.9,41a8.57,8.57,0,0,0-6.06,10.5L81.19,209.57V43.44A12.37,12.37,0,0,1,93.55,31.09Z"/><path class="cls-1" d="M137.93,37.42a12.33,12.33,0,0,1,3.2.42L220,59V43.44a8.57,8.57,0,0,0-8.58-8.57H93.55A8.57,8.57,0,0,0,85,43.44V199.7L126,46.57A12.36,12.36,0,0,1,137.93,37.42Z"/><path class="cls-1" d="M179.31,55.07a12.4,12.4,0,0,1,6.17,1.65l70.6,40.77,4-15A8.58,8.58,0,0,0,254,72L140.16,41.49a8.58,8.58,0,0,0-10.5,6.06L89.09,199,168.6,61.25A12.4,12.4,0,0,1,179.31,55.07Z"/><path class="cls-1" d="M285.69,119,183.59,60a8.58,8.58,0,0,0-11.72,3.14L86.13,211.65a8.57,8.57,0,0,0,3.14,11.72l102.09,58.94a8.59,8.59,0,0,0,11.72-3.13l85.74-148.52A8.57,8.57,0,0,0,285.69,119Zm-66.06,61.14a.92.92,0,0,1-.92.92h-21.4v21.38a.92.92,0,0,1-.92.92H178.56a.92.92,0,0,1-.92-.92V181h-21.4a.92.92,0,0,1-.92-.92V162.22a.92.92,0,0,1,.92-.92h21.4V139.92a.92.92,0,0,1,.92-.92h17.83a.92.92,0,0,1,.92.92V161.3h21.4a.92.92,0,0,1,.92.92Z"/></g></svg>