<svg xmlns="http://www.w3.org/2000/svg" viewBox="0 0 257.39 283.46"><defs><style>.cls-1{fill:#1d1d1b;}</style></defs><title>Hand 3</title><g id="Hand_3" data-name="Hand 3"><path class="cls-1" d="M63.81,24.24H156.2L151.68,7.38a10,10,0,0,0-12.18-7L7.37,35.74a10,10,0,0,0-7,12.19l49.14,183.4V38.57A14.35,14.35,0,0,1,63.81,24.24Z"/><path class="cls-1" d="M115.31,31.58a14.19,14.19,0,0,1,3.72.5L210.55,56.6v-18a9.94,9.94,0,0,0-9.94-9.94H63.81a9.94,9.94,0,0,0-9.94,9.94V219.86L101.48,42.21A14.34,14.34,0,0,1,115.31,31.58Z"/><path class="cls-1" d="M115.31,36a10,10,0,0,1,2.58.34L250,71.71a10,10,0,0,1,7,12.18l-51.5,192.19a9.94,9.94,0,0,1-12.18,7L61.25,247.72a9.94,9.94,0,0,1-7-12.18L105.71,43.35a10,10,0,0,1,9.6-7.38"/></g></svg>