<svg xmlns="http://www.w3.org/2000/svg" viewBox="0 0 289.98 283.47"><defs><style>.cls-1{fill:#1d1d1b;}</style></defs><title>Hand size 5 decrease</title><g id="Remove_hand_5" data-name="Remove hand 5"><path class="cls-1" d="M124.69,299.17l-6.59-11.42a8.58,8.58,0,0,0-11.71-3.14L74.32,303.13l5.63,8Z"/></g><g id="Hand_size_5_decrease" data-name="Hand size 5 decrease"><path class="cls-1" d="M118.1,4.29a8.57,8.57,0,0,0-11.71-3.14l-63,36.37.54-.17,80.76-21.64Z"/><path class="cls-1" d="M38.78,40.19,4.29,60.1A8.57,8.57,0,0,0,1.15,71.81L74.33,198.56,35.19,52.48A12.34,12.34,0,0,1,38.78,40.19Z"/><path class="cls-1" d="M93.55,31.09h79.63l-3.9-14.54a8.54,8.54,0,0,0-10.5-6.06L44.9,41a8.57,8.57,0,0,0-6.06,10.5L81.2,209.58V43.44A12.36,12.36,0,0,1,93.55,31.09Z"/><path class="cls-1" d="M137.94,37.42a12.44,12.44,0,0,1,3.2.42L220,59V43.44a8.57,8.57,0,0,0-8.57-8.57H93.55A8.57,8.57,0,0,0,85,43.44V199.7L126,46.57A12.36,12.36,0,0,1,137.94,37.42Z"/><path class="cls-1" d="M179.31,55.07a12.3,12.3,0,0,1,6.17,1.66l70.6,40.76,4-15A8.57,8.57,0,0,0,254,72L140.16,41.49a8.58,8.58,0,0,0-10.5,6.06L89.09,199,168.6,61.25A12.4,12.4,0,0,1,179.31,55.07Z"/><path class="cls-1" d="M285.69,119,183.59,60a8.57,8.57,0,0,0-11.71,3.14L86.13,211.66a8.57,8.57,0,0,0,3.14,11.71l102.1,58.94a8.55,8.55,0,0,0,11.71-3.13l85.75-148.52A8.58,8.58,0,0,0,285.69,119Zm-66.06,61.14a.92.92,0,0,1-.92.92H156.24a.92.92,0,0,1-.91-.92V162.22a.92.92,0,0,1,.91-.92h62.47a.92.92,0,0,1,.92.92Z"/></g></svg>