<svg xmlns="http://www.w3.org/2000/svg" viewBox="0 0 226.38 283.46"><defs><style>.cls-1{fill:#1d1d1b;}</style></defs><title>Hand 2</title><g id="Hand_size_2_increase" data-name="Hand size 2 increase"><path class="cls-1" d="M68.34,286.75a16,16,0,0,1,4.13.55l101.81,27.28V294.53a11.07,11.07,0,0,0-11.07-11.07H11.06A11.07,11.07,0,0,0,0,294.53V496.18L53,298.57A16,16,0,0,1,68.34,286.75Z"/></g><g id="Hand_2" data-name="Hand 2"><path class="cls-1" d="M68.34,3.29a16.11,16.11,0,0,1,4.14.54l101.8,27.28v-20A11.06,11.06,0,0,0,163.21,0H11.07A11.06,11.06,0,0,0,0,11.07V212.72L53,15.11A16,16,0,0,1,68.34,3.29Z"/><path class="cls-1" d="M68.34,8.17a10.94,10.94,0,0,1,2.87.38l147,39.38A11.06,11.06,0,0,1,226,61.48L168.72,275.26a11.07,11.07,0,0,1-10.68,8.2,11.3,11.3,0,0,1-2.87-.37L8.2,243.71A11.06,11.06,0,0,1,.38,230.16L57.66,16.37a11.08,11.08,0,0,1,10.68-8.2"/></g></svg>