<svg xmlns="http://www.w3.org/2000/svg" viewBox="0 0 283.46 241.4"><defs><style>.cls-1{fill:#1d1d1b;}</style></defs><title>Heart</title><g id="Heart"><path class="cls-1" d="M277.8,110.54C264.14,146.56,228,173,196,196.41c-20.53,15-39.93,29.23-47.79,42.61a4.82,4.82,0,0,1-4.16,2.38h-.27a4.85,4.85,0,0,1-4.15-2.86c-7-15.93-31-31-56.44-46.89C52.11,172.15,20,152,7.3,124.6c-16.49-35.91-3.87-89.11,26-109.53,11-8,29-13,47-13,25.5,0,46.74,9.26,59.49,25.65C153.38,9.79,174,0,198.44,0c16.93,0,34,4.83,45.75,12.92C273.4,32.68,293.92,74.57,277.8,110.54ZM20.69,88.83A68.39,68.39,0,0,1,134.15,37.3a68.42,68.42,0,1,0-96.6,96.46A68.12,68.12,0,0,1,20.69,88.83Zm248.78-6.65A68.41,68.41,0,0,0,149.39,37.3,68.41,68.41,0,0,1,246,133.76,68.3,68.3,0,0,0,269.47,82.18Z"/></g><g id="Heart_plus" data-name="Heart plus"><path class="cls-1" d="M527.65,12.92C515.93,4.83,498.83,0,481.9,0c-24.48,0-45,9.79-58.68,27.75-12.74-16.39-34-25.65-59.49-25.65-18,0-36,5-47,13-29.83,20.42-42.45,73.62-26,109.53,12.67,27.39,44.82,47.55,75.9,67,25.4,15.92,49.39,31,56.45,46.89a4.82,4.82,0,0,0,4.14,2.86h.27a4.83,4.83,0,0,0,4.17-2.38c7.85-13.38,27.25-27.57,47.79-42.61,31.93-23.37,68.12-49.85,81.79-85.87C577.39,74.57,556.86,32.68,527.65,12.92ZM304.15,88.83A68.07,68.07,0,0,0,321,133.76a68.42,68.42,0,1,1,96.6-96.46A68.4,68.4,0,0,0,304.15,88.83Zm171.61,44.89a5,5,0,0,1-5,5H443.2v27.54a5,5,0,0,1-5,5h-26a5,5,0,0,1-5-5V138.72H379.64a5,5,0,0,1-5-5v-26a5,5,0,0,1,5-5h27.55V75.15a5,5,0,0,1,5-5h26a5,5,0,0,1,5,5v27.53h27.56a5,5,0,0,1,5,5Zm53.7,0a68.41,68.41,0,0,0-96.6-96.46,68.42,68.42,0,1,1,96.6,96.46Z"/></g></svg>