<svg xmlns="http://www.w3.org/2000/svg" viewBox="0 0 283.46 241.4"><defs><style>.cls-1{fill:#1d1d1b;}</style></defs><title>Heart minus</title><g id="Heart_minus" data-name="Heart minus"><path class="cls-1" d="M244.19,12.92C232.47,4.83,215.37,0,198.44,0,174,0,153.38,9.79,139.76,27.75,127,11.36,105.77,2.1,80.27,2.1c-18,0-36,5-47,13C3.43,35.49-9.19,88.69,7.3,124.6,20,152,52.11,172.15,83.2,191.64c25.4,15.92,49.39,31,56.44,46.89a4.85,4.85,0,0,0,4.15,2.86h.27a4.82,4.82,0,0,0,4.16-2.38c7.86-13.38,27.26-27.57,47.79-42.61C228,173,264.14,146.56,277.8,110.54,293.92,74.57,273.4,32.68,244.19,12.92ZM20.69,88.83a68.12,68.12,0,0,0,16.86,44.93,68.42,68.42,0,1,1,96.6-96.46A68.39,68.39,0,0,0,20.69,88.83Zm171.6,44.89a5,5,0,0,1-5,5H96.17a5,5,0,0,1-5-5v-26a5,5,0,0,1,5-5h91.12a5,5,0,0,1,5,5Zm53.71,0A68.41,68.41,0,0,0,149.39,37.3,68.43,68.43,0,1,1,246,133.76Z"/></g></svg>