<svg xmlns="http://www.w3.org/2000/svg" viewBox="0 0 283.46 241.4"><defs><style>.cls-1{fill:#1d1d1b;}</style></defs><title>Heart plus</title><g id="Heart"><path class="cls-1" d="M-5.66,110.54c-13.67,36-49.86,62.5-81.79,85.87-20.54,15-39.94,29.23-47.79,42.61a4.83,4.83,0,0,1-4.16,2.38h-.28a4.83,4.83,0,0,1-4.14-2.86c-7.05-15.93-31.05-31-56.45-46.89-31.08-19.49-63.23-39.65-75.89-67-16.49-35.91-3.87-89.11,26-109.53,11-8,29-13,47-13,25.49,0,46.74,9.26,59.48,25.65C-130.08,9.79-109.51,0-85,0-68.1,0-51,4.83-39.27,12.92-10.07,32.68,10.46,74.57-5.66,110.54ZM-262.77,88.83A68.5,68.5,0,0,1-194.3,20.35a68,68,0,0,1,45,16.95,68.17,68.17,0,0,0-51.62-23.58,68.44,68.44,0,0,0-68.44,68.46,68.33,68.33,0,0,0,23.46,51.58A68.07,68.07,0,0,1-262.77,88.83ZM-14,82.18A68.47,68.47,0,0,0-82.46,13.72,68.13,68.13,0,0,0-134.07,37.3a68,68,0,0,1,45-16.95,68.52,68.52,0,0,1,68.5,68.48,68.18,68.18,0,0,1-16.87,44.93A68.34,68.34,0,0,0-14,82.18Z"/></g><g id="Heart_plus" data-name="Heart plus"><path class="cls-1" d="M244.19,12.92C232.47,4.83,215.37,0,198.44,0,174,0,153.38,9.79,139.76,27.75,127,11.36,105.77,2.1,80.27,2.1c-18,0-36,5-47,13C3.43,35.49-9.19,88.69,7.3,124.6,20,152,52.11,172.15,83.2,191.64c25.4,15.92,49.39,31,56.44,46.89a4.85,4.85,0,0,0,4.15,2.86h.27a4.82,4.82,0,0,0,4.16-2.38c7.86-13.38,27.26-27.57,47.79-42.61C228,173,264.13,146.56,277.8,110.54,293.92,74.57,273.4,32.68,244.19,12.92ZM20.69,88.83a68.12,68.12,0,0,0,16.86,44.93,68.42,68.42,0,1,1,96.6-96.46A68.39,68.39,0,0,0,20.69,88.83Zm171.6,44.89a5,5,0,0,1-5,5H159.74v27.54a5,5,0,0,1-5,5h-26a5,5,0,0,1-5-5V138.72H96.17a5,5,0,0,1-5-5v-26a5,5,0,0,1,5-5h27.55V75.15a5,5,0,0,1,5-5h26a5,5,0,0,1,5,5v27.53h27.55a5,5,0,0,1,5,5Zm53.71,0A68.41,68.41,0,0,0,149.39,37.3,68.43,68.43,0,1,1,246,133.76Z"/></g></svg>