<svg xmlns="http://www.w3.org/2000/svg" viewBox="0 0 165.21 188.4"><defs><style>.cls-1{fill:#1d1d1b;}</style></defs><title>Hex +5 indicator</title><g id="Hex_5_indicator" data-name="Hex +5 indicator"><path class="cls-1" d="M165.21,50.92v86.57a7.66,7.66,0,0,1-3.82,6.61l-75,43.28a7.64,7.64,0,0,1-7.63,0l-75-43.28A7.66,7.66,0,0,1,0,137.49V50.92a7.63,7.63,0,0,1,3.82-6.61L78.79,1a7.64,7.64,0,0,1,7.63,0l75,43.29A7.63,7.63,0,0,1,165.21,50.92ZM153,50,85.66,11.16a6.22,6.22,0,0,0-6.11,0L12.22,50a6.1,6.1,0,0,0-3.06,5.29v79.72a2.29,2.29,0,0,0,2.29,2.29h142.3a2.3,2.3,0,0,0,2.3-2.29V55.33A6.1,6.1,0,0,0,153,50Z"/><path class="cls-1" d="M57.84,100.23H44V92.4H57.84v-14h7.84v14H79.53v7.83H65.68V114H57.84Z"/><path class="cls-1" d="M104.65,88.71q7.59,0,12.08,4.26t4.49,11.67q0,8.76-5.4,13.49t-15.47,4.72q-8.73,0-14.1-2.83v-9.55a31.89,31.89,0,0,0,13.71,3.4q10.13,0,10.13-8.3,0-7.92-10.49-7.91a25.94,25.94,0,0,0-4.18.37,30,30,0,0,0-3.73.81l-4.4-2.36,2-26.66h28.38v9.37H99L98,89.46l1.25-.25A25,25,0,0,1,104.65,88.71Z"/></g></svg>