<svg xmlns="http://www.w3.org/2000/svg" viewBox="0 0 252.92 283.46"><defs><style>.cls-1{fill:#1d1d1b;}</style></defs><title>Hex counter</title><g id="Hex_counter" data-name="Hex counter"><path class="cls-1" d="M126.46,4.83A22.84,22.84,0,0,1,137.91,7.9l98.73,57a22.89,22.89,0,0,1,11.45,19.83v114a22.89,22.89,0,0,1-11.45,19.84l-98.73,57a23,23,0,0,1-22.9,0l-98.73-57A22.9,22.9,0,0,1,4.83,198.73v-114A22.89,22.89,0,0,1,16.28,64.9L115,7.9a22.82,22.82,0,0,1,11.45-3.07m0-4.83a27.7,27.7,0,0,0-13.87,3.72l-98.72,57A27.8,27.8,0,0,0,0,84.73v114a27.8,27.8,0,0,0,13.87,24l98.72,57a27.78,27.78,0,0,0,27.74,0l98.72-57a27.8,27.8,0,0,0,13.87-24v-114a27.81,27.81,0,0,0-13.87-24l-98.73-57A27.63,27.63,0,0,0,126.46,0Z"/><path class="cls-1" d="M126.46,238.22a9.91,9.91,0,0,1-5-1.33l-75-43.28a10,10,0,0,1-5-8.59V98.45a10,10,0,0,1,5-8.6l75-43.28a10.08,10.08,0,0,1,9.92,0l75,43.28a10,10,0,0,1,5,8.6V185a10,10,0,0,1-5,8.59l-75,43.28A9.91,9.91,0,0,1,126.46,238.22Zm0-188.4a5.32,5.32,0,0,0-2.67.72l-75,43.28a5.36,5.36,0,0,0-2.67,4.63V185a5.34,5.34,0,0,0,2.67,4.62l75,43.29a5.46,5.46,0,0,0,5.34,0l75-43.29a5.34,5.34,0,0,0,2.67-4.62V98.45a5.36,5.36,0,0,0-2.67-4.63l-75-43.28A5.32,5.32,0,0,0,126.46,49.82Z"/><path class="cls-1" d="M134.46,27.75q0,6-2,8.88a6.81,6.81,0,0,1-6.05,2.88,6.74,6.74,0,0,1-6-3q-2-3-2-8.79c0-4,.65-7,2-8.93a7.6,7.6,0,0,1,12,.14C133.78,21,134.46,23.9,134.46,27.75Zm-11.19-.53a17.92,17.92,0,0,0,.72,6,2.52,2.52,0,0,0,2.45,1.83,2.56,2.56,0,0,0,2.45-1.85,17.31,17.31,0,0,0,.75-6,17.37,17.37,0,0,0-.76-6,2.55,2.55,0,0,0-2.44-1.84A2.53,2.53,0,0,0,124,21.17,17.78,17.78,0,0,0,123.27,27.22Z"/><path class="cls-1" d="M229.28,96.17h-4.84V82.93l.05-2.18.08-2.37c-.81.8-1.36,1.33-1.68,1.58l-2.63,2.11-2.33-2.91,7.37-5.87h4Z"/><path class="cls-1" d="M233.32,210.34h-16V207l5.74-5.81c1.71-1.75,2.82-2.95,3.34-3.63a7.88,7.88,0,0,0,1.13-1.87,4.73,4.73,0,0,0,.34-1.78,2.61,2.61,0,0,0-.76-2.06,3,3,0,0,0-2-.67,6,6,0,0,0-2.58.61,13.44,13.44,0,0,0-2.61,1.74l-2.63-3.12a17,17,0,0,1,2.8-2,10.36,10.36,0,0,1,2.43-.92,12.55,12.55,0,0,1,2.94-.32,8.62,8.62,0,0,1,3.79.79,6,6,0,0,1,2.55,2.19,5.77,5.77,0,0,1,.91,3.22,7.89,7.89,0,0,1-.56,3,11.34,11.34,0,0,1-1.72,2.84,43.27,43.27,0,0,1-4.11,4.15l-2.94,2.77v.22h10Z"/><path class="cls-1" d="M28.13,81.4a7.37,7.37,0,0,1,5.29,1.86,6.68,6.68,0,0,1,2,5.1A7.45,7.45,0,0,1,33,94.27c-1.58,1.37-3.83,2.06-6.77,2.06a13.27,13.27,0,0,1-6.16-1.23V90.92A13.22,13.22,0,0,0,23,92a12.5,12.5,0,0,0,3.11.41c3,0,4.43-1.21,4.43-3.63S29,85.31,25.93,85.31a12.61,12.61,0,0,0-1.84.16,12.31,12.31,0,0,0-1.62.36l-1.93-1,.86-11.66H33.82v4.1H25.64l-.42,4.5.55-.11A10.52,10.52,0,0,1,28.13,81.4Z"/><path class="cls-1" d="M36.38,205.43H33.63v4.75H28.9v-4.75H19.13v-3.36l10-14.78h4.47v14.38h2.75Zm-7.48-3.76v-3.88c0-.64,0-1.58.08-2.82s.09-1.94.12-2.14H29a17.22,17.22,0,0,1-1.4,2.5l-4.19,6.34Z"/><path class="cls-1" d="M133.7,249.41a5.37,5.37,0,0,1-1.3,3.65,6.78,6.78,0,0,1-3.65,2.07v.09a7.25,7.25,0,0,1,4.2,1.69,4.69,4.69,0,0,1,1.42,3.6,6.11,6.11,0,0,1-2.39,5.15q-2.4,1.84-6.85,1.84a16.5,16.5,0,0,1-6.6-1.24v-4.12a14.48,14.48,0,0,0,2.93,1.1,12.37,12.37,0,0,0,3.16.42,6.17,6.17,0,0,0,3.54-.81,3,3,0,0,0,1.14-2.62A2.37,2.37,0,0,0,128,258a9.73,9.73,0,0,0-4.2-.68h-1.74v-3.71h1.77a8.28,8.28,0,0,0,3.89-.69,2.53,2.53,0,0,0,1.23-2.39c0-1.73-1.08-2.6-3.26-2.6a7.18,7.18,0,0,0-2.29.38,11,11,0,0,0-2.59,1.3l-2.24-3.34A12.48,12.48,0,0,1,126,244a9.63,9.63,0,0,1,5.61,1.45A4.61,4.61,0,0,1,133.7,249.41Z"/></g></svg>