<svg xmlns="http://www.w3.org/2000/svg" viewBox="0 0 165.21 188.4"><defs><style>.cls-1{fill:#1d1d1b;}</style></defs><title>Hex indicator</title><g id="Hex_indicator" data-name="Hex indicator"><path class="cls-1" d="M165.21,50.92v86.57a7.66,7.66,0,0,1-3.82,6.61l-75,43.28a7.64,7.64,0,0,1-7.63,0l-75-43.28A7.66,7.66,0,0,1,0,137.49V50.92a7.63,7.63,0,0,1,3.82-6.61L78.79,1a7.64,7.64,0,0,1,7.63,0l75,43.29A7.63,7.63,0,0,1,165.21,50.92ZM153,50,85.66,11.16a6.22,6.22,0,0,0-6.11,0L12.22,50a6.1,6.1,0,0,0-3.06,5.29,2.3,2.3,0,0,0,2.29,2.29H153.76a2.3,2.3,0,0,0,2.29-2.29A6.1,6.1,0,0,0,153,50Z"/></g></svg>