<svg xmlns="http://www.w3.org/2000/svg" viewBox="0 0 283.46 241.34"><defs><style>.cls-1{fill:#1d1d1b;}</style></defs><title>Hex grid line</title><g id="Hex_grid_line" data-name="Hex grid line"><path class="cls-1" d="M216.14,82.42a.25.25,0,0,1,.13-.16l67.17-37.7,0,0V0h-3.54V38.25a.22.22,0,0,1-.13.16l-67.16,37.7,0,0,0,0a.18.18,0,0,1-.11,0h0c-.06,0-.09,0-.09,0l0,0-.05,0L145.4,38.42a.24.24,0,0,1-.12-.17V0h-7.09V38.25a.25.25,0,0,1-.13.16L70.89,76.11l0,0,0,0a.21.21,0,0,1-.12,0h0c-.07,0-.09,0-.1,0l0,0,0,0L3.67,38.42c-.08-.05-.13-.11-.13-.17V0H0V44.54H0l0,0a.18.18,0,0,1,.11,0h0a.17.17,0,0,1,.09,0l0,0,0,0L67.2,82.26a.21.21,0,0,1,.12.16v76.5a.21.21,0,0,1-.12.16L0,196.79H0v44.54H3.54V203.09a.25.25,0,0,1,.13-.16l67.17-37.7,0,0,0,0a.21.21,0,0,1,.12,0h0a.24.24,0,0,1,.1,0l0,0,0,0,66.83,37.7a.22.22,0,0,1,.13.16v38.25h7.09V203.09a.23.23,0,0,1,.12-.16l67.17-37.7,0,0,0,0a.18.18,0,0,1,.11,0h0a.17.17,0,0,1,.09,0l0,0,0,0,66.83,37.7a.22.22,0,0,1,.13.16v38.25h3.54V196.8h0l0,0a.21.21,0,0,1-.12,0h-.13l0,0,0,0-66.83-37.7c-.08-.05-.13-.11-.13-.17V82.42Zm-7.09,38.25v38.25a.21.21,0,0,1-.12.16l-67.17,37.71h0l0,0a.16.16,0,0,1-.11,0h-.13l0,0,0,0-66.83-37.7c-.08-.05-.13-.11-.13-.17V82.42a.22.22,0,0,1,.13-.16l67.16-37.7,0,0,0,0a.18.18,0,0,1,.11,0h0c.07,0,.09,0,.09,0l.05,0,0,0,66.83,37.7a.19.19,0,0,1,.12.16Z"/></g><g id="Hex_grid_filled" data-name="Hex grid filled"><path class="cls-1" d="M0,44.56-67.2,82.26a.23.23,0,0,0-.12.16v76.5a.24.24,0,0,0,.12.17L-.37,196.78l0,0,0,0h.13a.18.18,0,0,0,.11,0l0,0H0V44.54Z"/></g></svg>