<svg xmlns="http://www.w3.org/2000/svg" viewBox="0 0 283.46 241.35"><defs><style>.cls-1{fill:#1d1d1b;}</style></defs><title>Hex grid filled</title><g id="Hex_grid_line" data-name="Hex grid line"><path class="cls-1" d="M499.61,82.42a.23.23,0,0,1,.12-.16l67.17-37.7,0,0V0h-3.54V38.25s0,.11-.13.16l-67.17,37.7,0,0,0,0a.16.16,0,0,1-.11,0h-.13l0,0,0,0-66.83-37.7c-.08-.05-.13-.11-.13-.17V0h-7.09V38.25a.21.21,0,0,1-.12.16l-67.17,37.7,0,0,0,0a.18.18,0,0,1-.11,0h-.13l0,0,0,0-66.84-37.7a.24.24,0,0,1-.12-.17V0h-3.55V44.54h0l0,0a.2.2,0,0,1,.11,0h0a.24.24,0,0,1,.1,0l0,0,0,0,66.83,37.7a.22.22,0,0,1,.13.16v76.51s-.05.1-.13.15l-67.17,37.71h0v44.54H287V203.09s0-.1.12-.16l67.17-37.7,0,0,0,0a.18.18,0,0,1,.11,0h0a.17.17,0,0,1,.09,0l0,0,0,0,66.84,37.7a.22.22,0,0,1,.12.16v38.25h7.09V203.09s0-.1.13-.16L496,165.23l0,0,0,0a.18.18,0,0,1,.11,0h0c.07,0,.09,0,.09,0l.05,0,0,0,66.83,37.7a.22.22,0,0,1,.13.16v38.25h3.54V196.8h0l0,0-.11,0h-.13l0,0-.05,0-66.83-37.7a.24.24,0,0,1-.12-.16V82.42Zm-7.09,38.25v38.26s0,.1-.13.15l-67.17,37.71,0,0,0,0-.12,0h-.13l0,0,0,0L358,159.09c-.08-.05-.13-.11-.13-.16V82.42a.25.25,0,0,1,.13-.16l67.17-37.7,0,0,0,0a.21.21,0,0,1,.12,0h0a.19.19,0,0,1,.1,0l0,0,0,0,66.83,37.7a.22.22,0,0,1,.13.16Z"/></g><g id="Hex_grid_filled" data-name="Hex grid filled"><path class="cls-1" d="M3.67,38.42,70.5,76.12l0,0,0,0s0,0,.09,0h0a.18.18,0,0,0,.11,0l0,0h0l67.17-37.71c.08,0,.13-.11.13-.16V0H3.54V38.25C3.54,38.31,3.59,38.37,3.67,38.42Z"/><path class="cls-1" d="M145.4,38.42l66.84,37.7,0,0,0,0s0,0,.09,0h0a.18.18,0,0,0,.11,0l0,0h0l67.16-37.71c.09,0,.13-.11.13-.16V0H145.28V38.25A.24.24,0,0,0,145.4,38.42Z"/><path class="cls-1" d="M279.79,202.93,213,165.22l0,0,0,0a.17.17,0,0,0-.09,0h0a.16.16,0,0,0-.11,0l0,0,0,0L145.4,202.94c-.08.05-.12.11-.12.15v38.26H279.92V203.09C279.92,203,279.87,203,279.79,202.93Z"/><path class="cls-1" d="M138.06,202.93,71.23,165.22l0,0,0,0a.19.19,0,0,0-.1,0h0a.21.21,0,0,0-.12,0l0,0,0,0L3.67,202.94c-.08.05-.13.11-.13.15v38.26H138.19V203.09C138.19,203,138.14,203,138.06,202.93Z"/><path class="cls-1" d="M208.93,82.26,142.1,44.56l0,0,0,0a.24.24,0,0,0-.1,0h0a.2.2,0,0,0-.11,0l0,0,0,0L74.54,82.27a.2.2,0,0,0-.13.15v76.5c0,.06,0,.12.13.17l66.83,37.7,0,0,0,0h.13a.18.18,0,0,0,.11,0l0,0h0l67.17-37.71c.08-.05.13-.11.13-.16V82.42A.22.22,0,0,0,208.93,82.26Z"/><path class="cls-1" d="M67.2,159.08a.21.21,0,0,0,.12-.16V82.42a.2.2,0,0,0-.12-.16L.37,44.56l0,0,0,0a.17.17,0,0,0-.09,0h0a.18.18,0,0,0-.11,0l0,0H0V196.8H0Z"/><path class="cls-1" d="M283.44,44.56,216.27,82.27a.2.2,0,0,0-.13.15v76.5c0,.06.05.12.13.17l66.83,37.7,0,0,0,0h.13a.21.21,0,0,0,.12,0l0,0h0V44.54Z"/></g><g id="Open_circle" data-name="Open circle"><path class="cls-1" d="M-43.36,62.32A175.89,175.89,0,0,0-76.62,49.89a2.35,2.35,0,0,0-2,.34,2.41,2.41,0,0,0-1,1.71c-.33,3.1-.82,6.22-1.45,9.26A2.39,2.39,0,0,0-79.36,64,159.71,159.71,0,0,1-49.73,75.15c22.88,11.51,35.48,26.25,35.48,41.48s-12.6,30-35.48,41.49c-24.46,12.3-57.13,19.08-92,19.08s-67.55-6.78-92-19.08c-22.88-11.52-35.49-26.25-35.49-41.49,0-10,5.61-20.09,16.21-29a2.4,2.4,0,0,0,.58-2.93,91,91,0,0,1-4-8.75A2.41,2.41,0,0,0-258,74.47a2.4,2.4,0,0,0-2.09.43c-15.3,12.18-23.38,26.61-23.38,41.73,0,21,15.4,40.24,43.36,54.31,26.39,13.28,61.33,20.6,98.37,20.6s72-7.32,98.37-20.6C-15.4,156.87,0,137.58,0,116.63S-15.4,76.39-43.36,62.32Z"/></g></svg>