<svg xmlns="http://www.w3.org/2000/svg" viewBox="0 0 283.47 144.1"><defs><style>.cls-1{fill:#1d1d1b;}</style></defs><title>Hills</title><g id="Desert"><path class="cls-1" d="M565.6,113.93H284.22a13,13,0,0,1,7.67-16.54c32.57-12.11,62.45-28.59,92.4-46,16.84-9.85,34.51-20,54.43-21.08a17,17,0,0,1,2-.09,14,14,0,0,1,2.48.19c19.5,1.69,33.17,15.84,46.54,29.08,19.82,19.61,40.32,33.63,68.47,38C566.74,98.71,568.57,107.43,565.6,113.93Zm-262.27-8.36H453.88C444,96.88,432.35,87.06,430.19,78.1c-2.25-9.33,3.81-19.62,13.34-35.86C419,42.24,359.61,77.92,303.33,105.57Z"/></g><g id="Hills"><path id="Country" class="cls-1" d="M153.48,0A130.66,130.66,0,0,0,60.62,39.14c-1.21,1.23-2.65,3.56-4.23,4.24-1.86.84-3.69,1.72-5.51,2.67a95.23,95.23,0,0,0-48.56,63A101.35,101.35,0,0,0,0,131.43c0,6.93,8,10.46,13.73,11.75a54,54,0,0,0,12.29.9H240.18c7.15,0,14.29,0,21.44,0,7,0,16.66-1.81,20.65-8.36,1.36-2.22,1.21-4.65,1.17-7.15,0-3.86-.23-7.71-.63-11.56a129.25,129.25,0,0,0-12-42.91,131.29,131.29,0,0,0-60.29-60.9A129.79,129.79,0,0,0,153.48,0ZM24.88,130A69.77,69.77,0,0,1,134.67,72.75a71.8,71.8,0,0,0-26.88,40.36,72.89,72.89,0,0,0-1.89,12.65c0,.37-.16,4.2-.16,4.2H24.88Zm105.79,0a46.33,46.33,0,0,1,92.46-4.16c.13,1.39.19,2.77.19,4.16H130.67Zm117.51,0a72,72,0,0,0-47.61-67.19,71.11,71.11,0,0,0-21.25-4,70.28,70.28,0,0,0-14,.92c-1.19.19-2.36.41-3.55.68q-.88.18-1.74.39c-.8.2-.8,0-1.37-.57-1.54-1.42-3.16-2.81-4.8-4.12A94.67,94.67,0,0,0,106.52,36a105.07,105.07,0,0,1,149.16,69.47,104.26,104.26,0,0,1,2.9,24.49Z"/></g><g id="Mountain"><path id="Moutain" class="cls-1" d="M-267.47,186.66c-13.11,0-19.45-9.81-14.08-21.76l52.48-117.09c5.37-12,13.91-9.67,18.54-3.07l7.07,11.84,40.08-90.15c5.37-12,14.16-12,19.53,0l37.46,83.48L-89.84,12.3c5.52-7.5,14.22-9.16,19.53,0l68.4,152.6c5.37,11.95-1,21.76-14.06,21.76Zm48.05-122-27.15,59.65,16.27-4.94,10.86,16.88,11.15-16.88,16.27,4.94ZM-80.16,26l-31.68,69.61,19-5.78,12.69,19.69,13-19.69,19,5.78Zm-73.4-45-40.72,89.49L-169.87,63l16.31,25.35L-136.86,63l24.4,7.46Z"/></g></svg>