<svg xmlns="http://www.w3.org/2000/svg" viewBox="0 0 247.08 283.46"><defs><style>.cls-1{fill:#1d1d1b;}</style></defs><title>Hollow</title><g id="Hollow"><path class="cls-1" d="M123.24,0a5.91,5.91,0,0,1,2.94.78l117.87,68A5.9,5.9,0,0,1,246.28,71h0v0h0a5.92,5.92,0,0,1,.77,3v136a5.91,5.91,0,0,1-3,5.1L126.25,282.63a5.76,5.76,0,0,1-3,.83h-.07a5.83,5.83,0,0,1-3-.83L3,215.19A5.88,5.88,0,0,1,0,210.1v-136a5.9,5.9,0,0,1,.76-3h0S.8,71,.83,71h0A5.79,5.79,0,0,1,3,68.83L120.3.79A5.84,5.84,0,0,1,123.24,0m6,145.54v125l108.8-62.24V82.76ZM9,208.32l108.19,62.21v-125L9,82.79Zm6-136,108.24,62.78L232,72.35,123.25,9.57Z"/></g></svg>