<svg xmlns="http://www.w3.org/2000/svg" viewBox="0 0 283.46 101.09"><defs><style>.cls-1{fill:#1d1d1b;}</style></defs><title>Hollow banner</title><g id="Hollow_banner" data-name="Hollow banner"><path class="cls-1" d="M273.14,50.55,283.42,2.38A2,2,0,0,0,283,.73,2,2,0,0,0,281.49,0H2A2,2,0,0,0,0,2V99.12a2,2,0,0,0,2,2H281.49a2,2,0,0,0,1.54-.73,2,2,0,0,0,.39-1.65ZM3.94,96.8V91.26H268.75a1,1,0,0,0,1-1V87a1,1,0,0,0-1-1H3.94V15.11H268.75a1,1,0,0,0,1-1v-3.3a1,1,0,0,0-1-1H3.94V4.29H279l-9.88,46.26L279,96.8Z"/></g></svg>