<svg xmlns="http://www.w3.org/2000/svg" viewBox="0 0 249.48 278.94"><defs><style>.cls-1{fill:#1d1d1b;}</style></defs><title>House add</title><g id="House_add" data-name="House add"><polygon class="cls-1" points="187.17 0 129.66 26.28 0.27 101.48 57.75 75.2 187.17 0"/><path class="cls-1" d="M175.3,152.49a5,5,0,0,1-5,5H146.53l-3.78,2.2V185a5,5,0,0,1-5,5h-17.7l-.24,83.35c0,.28,0,.54,0,.8a2.58,2.58,0,0,1,0,.36,2.35,2.35,0,0,0,0,.37c0,.12,0,.23-.08.37a2,2,0,0,1,0,.24l-.06.21a3.82,3.82,0,0,1-.13.36,3.71,3.71,0,0,1-.19.46,2.86,2.86,0,0,1-.3.54,4.08,4.08,0,0,1-.58.71l-.08.08a3.47,3.47,0,0,1-.69.52l129.39-75.18a4.37,4.37,0,0,0,.69-.53l.12-.12a4.19,4.19,0,0,0,.53-.64l0,0c.08-.14.16-.28.23-.43l.12-.26a2.37,2.37,0,0,0,.13-.32,3,3,0,0,0,.14-.4c0-.11.07-.26.11-.39a1.34,1.34,0,0,1,.07-.39c0-.12,0-.25.06-.36a1.65,1.65,0,0,1,.05-.38v-.75l.29-100.56L175.3,140.77Z"/><path class="cls-1" d="M91.53,121.45h15.2V93.91a5,5,0,0,1,5-5h26a5,5,0,0,1,5,5v27.54H170.3a5,5,0,0,1,5,5v9.11l74.18-43.12L192.36,0,62.94,75.21Z"/><path class="cls-1" d="M106.73,185V159.68l-1.35-2.19H79.18a5,5,0,0,1-5-5v-26a5,5,0,0,1,5-5h3.94L57.75,80.38.27,106.67,0,207.22c0,4.95,3.48,11,7.78,13.51l99,57.15c4.33,2.48,7.86.47,7.86-4.5l.23-83.35h-3.09A5,5,0,0,1,106.73,185Z"/></g></svg>