<svg xmlns="http://www.w3.org/2000/svg" viewBox="0 0 249.48 278.94"><defs><style>.cls-1{fill:#1d1d1b;}</style></defs><title>House place</title><g id="House_place" data-name="House place"><polygon class="cls-1" points="187.17 0 129.66 26.28 0.27 101.48 57.75 75.2 187.17 0"/><path class="cls-1" d="M154.64,159.23a86.4,86.4,0,0,0-10.34,7.93,20.93,20.93,0,0,0-3.25-6.49l-5.89,3.43a13.69,13.69,0,0,1-15.1,21.77l-.25,87.51c0,.28,0,.54,0,.8a2.58,2.58,0,0,1,0,.36,2.35,2.35,0,0,0,0,.37c0,.12,0,.23-.08.37a2,2,0,0,1,0,.24l-.06.21a3.82,3.82,0,0,1-.13.36,3.71,3.71,0,0,1-.19.46,2.86,2.86,0,0,1-.3.54,4.08,4.08,0,0,1-.58.71l-.08.08a3.47,3.47,0,0,1-.69.52l129.39-75.18a4.37,4.37,0,0,0,.69-.53l.12-.12a4.19,4.19,0,0,0,.53-.64l0,0a4.53,4.53,0,0,0,.23-.44l.12-.25a2.37,2.37,0,0,0,.13-.32,3,3,0,0,0,.14-.4c0-.11.07-.26.11-.39a1.34,1.34,0,0,1,.07-.39c0-.12,0-.25.06-.36a1.65,1.65,0,0,1,.05-.38v-.75l.29-100.56-98,56.94Q153,156.91,154.64,159.23Z"/><path class="cls-1" d="M149.09,150.8,249.48,92.44,192.36,0,62.94,75.21l42,67.91a196.93,196.93,0,0,0,19.79-50.89A195.81,195.81,0,0,0,149.09,150.8Z"/><path class="cls-1" d="M124.72,152.39A20.06,20.06,0,0,0,113,156.16l3.59,5.8a13.54,13.54,0,0,1,14.9-.93l6.43-3.74A20.11,20.11,0,0,0,124.72,152.39Z"/><path class="cls-1" d="M112,168.12l-4.11-6.65a20.58,20.58,0,0,0-2.66,5.69,91.47,91.47,0,0,0-10.34-7.93c2.1-3,4.08-6.06,6-9.13L57.75,80.38.27,106.67,0,207.22c0,4.95,3.48,11,7.78,13.51l99,57.15c4.33,2.48,7.86.47,7.86-4.5l.25-90.94A13.66,13.66,0,0,1,112,168.12Z"/></g></svg>