<svg xmlns="http://www.w3.org/2000/svg" viewBox="0 0 249.48 278.94"><defs><style>.cls-1{fill:#1d1d1b;}</style></defs><title>House remove</title><g id="House_remove" data-name="House remove"><polygon class="cls-1" points="187.17 0 129.66 26.28 0.27 101.48 57.75 75.2 187.17 0"/><path class="cls-1" d="M120.05,187.92l-.24,85.46c0,.28,0,.54,0,.8a2.58,2.58,0,0,1,0,.36,2.35,2.35,0,0,0,0,.37c0,.12,0,.23-.08.37a2,2,0,0,1,0,.24l-.06.21a3.82,3.82,0,0,1-.13.36,3.71,3.71,0,0,1-.19.46,2.86,2.86,0,0,1-.3.54,4.08,4.08,0,0,1-.58.71l-.08.08a3.47,3.47,0,0,1-.69.52l129.39-75.18a4.37,4.37,0,0,0,.69-.53l.12-.12a4.19,4.19,0,0,0,.53-.64l0,0a4.53,4.53,0,0,0,.23-.44l.12-.25a2.37,2.37,0,0,0,.13-.32,3,3,0,0,0,.14-.4c0-.11.07-.26.11-.39a1.34,1.34,0,0,1,.07-.39c0-.12,0-.25.06-.36a1.65,1.65,0,0,1,.05-.38v-.75l.29-100.56-113.72,66.1Z"/><polygon class="cls-1" points="144.19 150.78 141.19 155.39 249.48 92.44 206.77 23.32 129.95 141.54 144.19 150.78"/><polygon class="cls-1" points="62.94 75.2 100.38 135.76 186.22 3.56 62.94 75.2"/><polygon class="cls-1" points="110.52 151.24 109.57 150.63 110.23 151.69 110.52 151.24"/><path class="cls-1" d="M57.75,80.38.27,106.67,0,207.22c0,4.95,3.48,11,7.78,13.51l41.9,24.19,56.23-86.58Z"/><path class="cls-1" d="M106.73,277.88c4.33,2.48,7.86.47,7.86-4.5L114.8,196,73.92,258.93Z"/></g></svg>