<svg xmlns="http://www.w3.org/2000/svg" viewBox="0 0 283.46 216.15"><defs><style>.cls-1{fill:#1d1d1b;}</style></defs><title>Ingot</title><g id="Ingot"><path class="cls-1" d="M27.12,98.88,91,135.76a1.46,1.46,0,0,0,.7.18,1.37,1.37,0,0,0,.7-.19L258.09,39.46a1.38,1.38,0,0,0,.7-1.21,1.4,1.4,0,0,0-.7-1.21L194.53.34A4.1,4.1,0,0,0,194,.08a1.05,1.05,0,0,0-.24-.06l-.24,0a1.5,1.5,0,0,0-.69.17l0,0L27.11,96.45a1.41,1.41,0,0,0,0,2.43Z"/><path class="cls-1" d="M283.21,113.06,263.77,44a1.44,1.44,0,0,0-.82-.92,1.61,1.61,0,0,0-.53-.1,1.44,1.44,0,0,0-.7.19L95.3,139.91a1.39,1.39,0,0,0-.65,1.58l19.87,70.57a1.44,1.44,0,0,0,.82.92,1.61,1.61,0,0,0,.53.1,1.44,1.44,0,0,0,.7-.19l166.17-96.57a1.41,1.41,0,0,0,.69-1A5.51,5.51,0,0,0,283.21,113.06Z"/><path class="cls-1" d="M90.84,143.46a9.06,9.06,0,0,0-3.63-5.05l-65.32-37.7a1.37,1.37,0,0,0-.7-.19,1.38,1.38,0,0,0-1.29.85L.18,147.66a5.7,5.7,0,0,0,.49,3.92,8.68,8.68,0,0,0,3.23,3.89L108.68,216a1.34,1.34,0,0,0,.7.19,1.39,1.39,0,0,0,1.39-1.54,7,7,0,0,0-.23-1.2Z"/></g></svg>