<svg xmlns="http://www.w3.org/2000/svg" viewBox="0 0 205.52 283.46"><defs><style>.cls-1{fill:#1d1d1b;}</style></defs><title>Jar</title><g id="DNA"><path class="cls-1" d="M129.89,358.37c-5.46,17.1-13.59,30.63-22.65,40.53,7.57,7.71,15.23,14.72,21.38,21.39a171.59,171.59,0,0,0,28.91-50c9-24.92,9.24-52.12,3.87-72.32-2.94-10.73-9.7-14.78-16.13-14.55h0a15.5,15.5,0,0,0-14.62,17.77C135.68,313.56,136.4,338,129.89,358.37Z"/></g><g id="Jar"><path class="cls-1" d="M177.78,35.88v-.46a3.16,3.16,0,0,0,3.16-3.16v-25A7.24,7.24,0,0,0,173.71,0H31.78a7.24,7.24,0,0,0-7.24,7.23v25a3.16,3.16,0,0,0,3.16,3.16h0v.46C9.83,43.54,0,53.74,0,64.77V251.09c0,9.86,7.59,17.49,22.56,22.7v6.52a3.15,3.15,0,0,0,3.16,3.15H179.79a3.16,3.16,0,0,0,3.16-3.15v-6.52c15-5.21,22.57-12.84,22.57-22.7V64.77C205.52,53.74,195.69,43.54,177.78,35.88ZM23.83,191.76H14.16v-25.3h9.67A3.16,3.16,0,0,0,27,163.3V94.5c0-4.76,8-10.16,20.82-14.1,14.58-4.48,34.1-6.94,55-6.94s40.4,2.46,55,6.94c12.87,3.94,20.87,9.34,20.87,14.1v68.8a3.17,3.17,0,0,0,3.16,3.16h9.55v25.3h-9.55a3.16,3.16,0,0,0-3.16,3.16v23c0,4.76-8,10.16-20.87,14.1-14.62,4.48-34.15,6.94-55,6.94s-40.38-2.46-55-6.94C35,228.08,27,222.67,27,217.91v-23A3.15,3.15,0,0,0,23.83,191.76Z"/></g></svg>