<svg xmlns="http://www.w3.org/2000/svg" viewBox="0 0 283.46 184.7"><defs><style>.cls-1{fill:#1d1d1b;}</style></defs><title>Left</title><g id="Right"><path class="cls-1" d="M566.1,1.92q-91.73-.09-183.69-.16c16.48,16.49,33.33,33.33,51.2,51.2-10.23,6.69-19.18,13.56-29,18.77-35.06,18.59-71.79,21.5-109.74,10.09-3.36-1-6.86-1.68-10.27-2.48-.38.56-.75,1.15-1.14,1.72,11.77,31.54,32.28,56.38,62,72.29,60.12,32.17,116.44,23.47,168.76-19.06a1.47,1.47,0,0,1,.51.27q25.11,25,50.22,50.14l2-2a10.53,10.53,0,0,1-.29-1.8q0-87.67,0-175.32c0-1.85-.09-3.7-.15-5.56C566.37.64,566.26,1.28,566.1,1.92Z"/></g><g id="Left"><path class="cls-1" d="M.83,1.92q91.73-.09,183.69-.16L133.32,53c10.23,6.69,19.18,13.56,29,18.77,35.06,18.59,71.79,21.5,109.74,10.09,3.35-1,6.85-1.68,10.26-2.48.39.56.76,1.15,1.14,1.72-11.76,31.54-32.27,56.38-61.94,72.29-60.13,32.17-116.44,23.47-168.76-19.06a1.38,1.38,0,0,0-.51.27Q27.13,159.61,2,184.7l-2-2a9.6,9.6,0,0,0,.28-1.8q0-87.67,0-175.32c0-1.85.1-3.7.16-5.56C.56.64.67,1.28.83,1.92Z"/></g></svg>