<svg xmlns="http://www.w3.org/2000/svg" viewBox="0 0 283.46 239.97"><defs><style>.cls-1{fill:#1d1d1b;fill-rule:evenodd;}</style></defs><title>Life</title><g id="Life"><path class="cls-1" d="M245,12.49C221.55-3.68,166.24-10.6,139.67,32.59,116.52-6.49,55.84-2.57,32.28,14.72,3,34.64-8.77,87.5,7.06,122c23.44,50.63,120.09,79.76,137.06,118,21.27-36.21,111-71.78,133.86-132.43C293.47,73.26,274.15,32.24,245,12.49ZM33.84,133.5a70.84,70.84,0,1,1,100-99.85A70.13,70.13,0,0,0,87.28,16.07,70.85,70.85,0,0,0,33.84,133.5Zm215.85,0a70.82,70.82,0,0,0-100-99.85,70.84,70.84,0,1,1,100,99.85Z"/></g></svg>