<svg id="Life_hex" data-name="Life hex" xmlns="http://www.w3.org/2000/svg" viewBox="0 0 250.09 283.46"><defs><style>.cls-1{fill:#1d1d1b;}</style></defs><title>Life hex</title><path class="cls-1" d="M161.15,76.57A41.4,41.4,0,0,0,129.71,91,41.25,41.25,0,0,1,157.1,80.61a41.68,41.68,0,0,1,31.45,69.07,41.68,41.68,0,0,0-27.4-73.11Z"/><path class="cls-1" d="M89,76.57a41.7,41.7,0,0,0-27.41,73.11A41.66,41.66,0,0,1,120.42,91,41.4,41.4,0,0,0,89,76.57Z"/><path class="cls-1" d="M249.32,71l0,0a5.64,5.64,0,0,0-2.25-2.17L127.72.76a6.09,6.09,0,0,0-6,0L3,68.83a5.7,5.7,0,0,0-2.21,2.1s0,.07-.07.11v0A5.43,5.43,0,0,0,0,74V210.11a5.83,5.83,0,0,0,3,5.07L121.7,282.63a5.85,5.85,0,0,0,3,.83h.06a5.92,5.92,0,0,0,3-.83l119.32-67.45a5.78,5.78,0,0,0,3-5.07V74A5.79,5.79,0,0,0,249.32,71Zm-44.13,63.37C191.72,170.08,139,191,126.45,212.3c-10-22.5-66.83-39.64-80.62-69.41-9.3-20.27-2.36-51.36,14.84-63.08,13.86-10.16,49.55-12.47,63.16,10.52C139.47,64.92,172,69,185.79,78.5,202.93,90.12,214.3,114.24,205.19,134.41Z"/></svg>