<svg xmlns="http://www.w3.org/2000/svg" viewBox="0 0 283.46 237.46"><defs><style>.cls-1{fill:#1d1d1b;}</style></defs><title>Log</title><g id="Wood"><path class="cls-1" d="M371.2,207.73c0,.24,0,.48,0,.72q0,.74-.09,1.44c0,.28-.06.56-.08.84s-.09.84-.14,1.25l-.12.86c-.06.39-.11.78-.18,1.16s-.1.57-.16.85-.14.74-.22,1.1-.13.55-.19.82-.18.71-.28,1.06-.14.52-.22.78-.21.69-.32,1-.16.49-.25.73-.26.68-.39,1-.17.43-.26.65-.32.71-.49,1.07c-.08.17-.15.34-.24.51-.25.51-.52,1-.8,1.49a.35.35,0,0,1-.05.08c-.26.45-.54.89-.83,1.31-.1.16-.21.3-.31.45s-.42.58-.64.86-.27.32-.4.49l-.63.73-.45.47-.65.64-.49.45-.38.31-66.62-38.46c-7.67-14.18-11.86-29.12-11.82-42.17,0-13.77,4.86-23.65,13-27.8l.36-.18c.56-.26,1.13-.5,1.72-.72l.74-.24c.51-.17,1-.32,1.55-.44s.84-.17,1.27-.24.8-.15,1.22-.2a23.21,23.21,0,0,1,2.67-.16h0c5.91,0,12.65,2.09,19.49,6,25.29,14.6,45.8,50.12,45.72,79.18C371.25,206.25,371.23,207,371.2,207.73Z"/></g><g id="Log"><path class="cls-1" d="M100,206.57c0,.25,0,.51,0,.76-.08,1.11-.18,2.2-.31,3.26v0C97.49,227.37,88.07,237.46,74,237.46c-6.77,0-14.48-2.38-22.27-6.88C23.12,214.05-.09,173.84,0,141,.05,122.4,7.69,110,20.31,107.15l.16,0a24.49,24.49,0,0,1,2.61-.43l.28,0a27.48,27.48,0,0,1,2.75-.15c6.78,0,14.48,2.38,22.28,6.88C77,129.93,100.24,170.14,100.14,203,100.14,204.24,100.1,205.41,100,206.57Z"/><path class="cls-1" d="M283.12,103.17c-1.29,11.63-5.95,20.25-13.46,24.61L103.88,224.12a52.12,52.12,0,0,0,3.3-13.87l.06-.52c.05-.52.1-1.06.14-1.6s.05-.85.08-1.28l.06-1.16c0-.16,0-.32,0-.48l-.2-8.48a1.36,1.36,0,0,1,0-.2c0-.34-.07-.69-.1-1-.06-.62-.11-1.24-.18-1.86,0-.13,0-.27-.05-.4,0-.39-.1-.78-.15-1.17s-.13-1-.21-1.56l-.09-.6c-.07-.39-.13-.78-.2-1.17s-.15-.92-.23-1.38c0-.27-.11-.54-.16-.8s-.14-.75-.22-1.12-.17-.84-.26-1.25-.14-.67-.22-1l-.24-1.05c-.09-.37-.18-.75-.28-1.13l-.3-1.2c-.09-.32-.17-.64-.25-1s-.19-.69-.29-1l-.39-1.36,0-.13c-.08-.26-.15-.52-.22-.77l-.3-.93c-.14-.45-.28-.9-.43-1.36s-.21-.68-.33-1c-.06-.19-.13-.38-.2-.57l-.08-.23c-.15-.45-.31-.9-.47-1.35-.1-.27-.19-.54-.29-.82l-2.78-7c-.13-.3-.26-.59-.38-.88s-.23-.52-.35-.77q-.33-.75-.69-1.5c-.16-.35-.31-.7-.48-1l-.27-.57c-.26-.55-.54-1.11-.82-1.66-.17-.35-.34-.7-.52-1l-.18-.36c-.33-.65-.68-1.3-1-1.94-.17-.31-.33-.62-.49-.93a1.62,1.62,0,0,0-.1-.18c-.52-1-1.06-1.91-1.6-2.86l-.08-.14c-.58-1-1.18-2-1.79-3,0,0,0-.09-.07-.13l-.54-.85c-.4-.65-.81-1.29-1.22-1.93l-.2-.31c-.21-.33-.43-.65-.65-1l-1-1.57-.33-.48c-.23-.32-.46-.64-.68-1l-1-1.35-.47-.64-.58-.79-4.65-5.9c-.19-.23-.39-.45-.59-.68l-.93-1.08c-.19-.22-.37-.44-.56-.65l-.72-.8-1-1.09-.61-.66c-.19-.21-.39-.41-.59-.62a.6.6,0,0,1-.08-.08l-1-1.06-.69-.7c-.24-.25-.49-.49-.74-.74l-.91-.88c-.26-.26-.52-.51-.79-.75s-.54-.52-.82-.77l-.78-.72c-.29-.27-.59-.53-.89-.79l-.9-.79-.64-.55c-.33-.29-.68-.57-1-.85l-1-.79-.49-.4-1.16-.9-1-.77-.34-.26c-.46-.34-.93-.67-1.4-1l-1-.69-.19-.13-7.2-4.41-1-.51-.86-.44c-1-.51-2-1-3-1.42l-.09,0c-1-.42-1.91-.81-2.87-1.17l-.86-.32c-.76-.28-1.52-.53-2.28-.77l-.71-.23c-.95-.28-1.9-.54-2.85-.76l-.65-.14c-.76-.16-1.51-.31-2.27-.44L32,99.54c-.2,0-.4-.07-.6-.09L197.2,3.09c7.52-4.37,17.71-4.1,28.65.75l7.73,4.1c.86.53,1.71,1.08,2.56,1.66.29.19.58.4.87.61.56.38,1.11.76,1.66,1.16l1,.75c.5.38,1,.75,1.49,1.14s.71.58,1.06.86.93.75,1.39,1.14l1.07.94c.45.39.89.77,1.33,1.17l1.08,1c.43.4.86.8,1.28,1.21l1.06,1.05c.42.42.84.83,1.25,1.26l1,1.09c.4.43.81.86,1.21,1.3s.68.77,1,1.15l1.15,1.29,4.71,5.86c.17.21.32.42.48.63l1.08,1.45.9,1.29c.35.49.7,1,1,1.49s.59.87.88,1.3.67,1,1,1.53.56.88.84,1.33.65,1,1,1.55.54.9.81,1.36.62,1,.92,1.57l.77,1.38c.29.53.59,1.06.88,1.6l.73,1.39c.28.55.56,1.08.83,1.63s.47.94.69,1.41.53,1.09.79,1.64.44.94.65,1.42.5,1.1.74,1.66c.18.41.36.83.53,1.25l2.71,7,.37,1.08.48,1.45c.18.56.35,1.12.52,1.69s.3,1,.44,1.46.32,1.12.47,1.68.26,1,.38,1.46.28,1.12.41,1.68.23,1,.34,1.46.24,1.12.35,1.67.19,1,.29,1.46.2,1.11.29,1.67.16,1,.23,1.44.15,1.1.23,1.66l.18,1.44c.06.54.11,1.09.16,1.63s.09,1,.12,1.44.07,1.07.1,1.61.05,1,.07,1.42v.49Z"/></g></svg>