<svg xmlns="http://www.w3.org/2000/svg" viewBox="0 0 221 283.46"><defs><style>.cls-1{fill:#1d1d1b;}</style></defs><title>Look at top</title><g id="Look_at_top" data-name="Look at top"><path class="cls-1" d="M181.38,262.64a15.24,15.24,0,0,1-15.23,15.23H21.75a10.57,10.57,0,0,0,9.33,5.59H176.41A10.57,10.57,0,0,0,187,272.9V194.54l-5.6,20.88Z"/><path class="cls-1" d="M157,267.56h-.22c-.3,0-.59.05-.9.05H11.5a10.56,10.56,0,0,0,9.32,5.59H166.15a10.57,10.57,0,0,0,10.57-10.57V232.81L171,254A15.24,15.24,0,0,1,157,267.56Z"/><path class="cls-1" d="M156.8,267.57h0Z"/><path class="cls-1" d="M2.14,222.38A15.14,15.14,0,0,1,.62,210.83L49,30.42H10.57A10.57,10.57,0,0,0,0,41v211.4A10.57,10.57,0,0,0,10.57,263H136.32L11.39,229.48A15.12,15.12,0,0,1,2.14,222.38Z"/><path class="cls-1" d="M213.16,38,72.79.36A10.88,10.88,0,0,0,70,0a10.56,10.56,0,0,0-10.2,7.83L5.12,212A10.58,10.58,0,0,0,12.6,225L153,262.59a10.44,10.44,0,0,0,2.74.37,10.59,10.59,0,0,0,10.21-7.84l54.71-204.2A10.55,10.55,0,0,0,213.16,38ZM154.48,138l-6.83,5.56c-4.7,3.82-17.27,12.73-32.38,12.73s-27.65-8.9-32.37-12.72L76,138a1.13,1.13,0,0,1,0-1.76l6.85-5.56c4.7-3.83,17.28-12.73,32.38-12.73s27.64,8.9,32.37,12.72l6.84,5.56a1.15,1.15,0,0,1,0,1.76Z"/><path class="cls-1" d="M88.13,137.1C92,140.24,102.78,148,115.27,148s23.29-7.74,27.13-10.87c-3.86-3.13-14.66-10.88-27.13-10.88S92,134,88.13,137.1Zm34.05,0a6.91,6.91,0,1,1-6.91-6.91A6.92,6.92,0,0,1,122.18,137.11Z"/></g></svg>