<svg xmlns="http://www.w3.org/2000/svg" viewBox="0 0 240.81 281.81"><defs><style>.cls-1{fill:#1d1d1b;}</style></defs><title>Look at (from) hand 5</title><g id="Look_at_from_hand_5" data-name="Look at (from) hand 5"><path class="cls-1" d="M29.23,90a10.24,10.24,0,0,1,3-10.21L3.57,96.31A7.12,7.12,0,0,0,1,106L61.73,211.3Z"/><path class="cls-1" d="M67.43,59.44,36,77.56a3.66,3.66,0,0,1,.44-.13l31-8.3Z"/><path class="cls-1" d="M77.69,159.8a10.27,10.27,0,0,1-10.26-10.26V72.38L37.29,80.46a7.1,7.1,0,0,0-5,8.71l35.64,133L84.62,159.8Z"/><path class="cls-1" d="M140,97.27a10.26,10.26,0,0,1,14-3.76l58.64,33.85L216,114.92a7.1,7.1,0,0,0-5-8.71L116.39,80.86a7.26,7.26,0,0,0-1.84-.24,7.12,7.12,0,0,0-6.87,5.27L74,211.63Z"/><path class="cls-1" d="M148.91,95.28a7,7,0,0,1,3.55,1l84.79,48.94a7.12,7.12,0,0,1,2.61,9.73L168.65,278.25a7.12,7.12,0,0,1-6.18,3.56,7,7,0,0,1-3.55-1L74.13,231.91a7.15,7.15,0,0,1-2.61-9.74L142.74,98.84a7.11,7.11,0,0,1,6.17-3.56"/><path class="cls-1" d="M175.6,0H77.69a7.13,7.13,0,0,0-7.12,7.12V149.54a7.13,7.13,0,0,0,7.12,7.13h7.77l19.18-71.59a10.27,10.27,0,0,1,9.91-7.6,10,10,0,0,1,2.66.35l65.51,17.55V7.12A7.13,7.13,0,0,0,175.6,0ZM153.06,47l-4.6,3.74c-3.16,2.59-11.63,8.58-21.81,8.58s-18.63-6-21.81-8.56L100.23,47a.77.77,0,0,1-.29-.59.75.75,0,0,1,.29-.59l4.61-3.76c3.17-2.56,11.64-8.57,21.81-8.57s18.62,6,21.81,8.57l4.6,3.75a.77.77,0,0,1,.29.6A.75.75,0,0,1,153.06,47Z"/><path class="cls-1" d="M126.65,39.08c-8.43,0-15.69,5.21-18.28,7.33,2.59,2.1,9.87,7.32,18.28,7.32s15.69-5.21,18.28-7.32C142.33,44.29,135.05,39.08,126.65,39.08Zm0,12a4.65,4.65,0,1,1,4.66-4.65A4.66,4.66,0,0,1,126.65,51.06Z"/></g></svg>