<svg xmlns="http://www.w3.org/2000/svg" viewBox="0 0 202.6 283.46"><defs><style>.cls-1{fill:#1d1d1b;}</style></defs><title>Look at (from) hand 3</title><g id="Look_at_from_hand_3" data-name="Look at (from) hand 3"><path class="cls-1" d="M50.23,175.73A11.29,11.29,0,0,1,39,164.45V79.6L5.8,88.48A7.82,7.82,0,0,0,.27,98.06l39.2,146.3,18.38-68.63Z"/><path class="cls-1" d="M90.76,88.65a7.94,7.94,0,0,1,2,.27l104,27.87a7.82,7.82,0,0,1,5.54,9.58L161.8,277.66a7.84,7.84,0,0,1-7.56,5.8,7.51,7.51,0,0,1-2-.27l-104-27.85a7.85,7.85,0,0,1-5.54-9.61L83.21,94.46a7.81,7.81,0,0,1,7.55-5.81"/><path class="cls-1" d="M157.9,0H50.23A7.83,7.83,0,0,0,42.4,7.82V164.45a7.83,7.83,0,0,0,7.83,7.82h8.55L79.87,93.56a11.32,11.32,0,0,1,10.89-8.37,11.61,11.61,0,0,1,2.93.39l72,19.32V7.82A7.82,7.82,0,0,0,157.9,0ZM133.12,46.89,128.06,51c-3.48,2.84-12.79,9.45-24,9.45s-20.48-6.6-24-9.44L75,46.9a.87.87,0,0,1-.31-.66.89.89,0,0,1,.31-.65l5.08-4.11c3.48-2.84,12.8-9.43,24-9.43s20.48,6.58,24,9.42l5.07,4.11a.86.86,0,0,1,.31.66A.83.83,0,0,1,133.12,46.89Z"/><path class="cls-1" d="M104.07,38.2c-9.27,0-17.25,5.73-20.1,8,2.86,2.32,10.85,8.06,20.1,8.06s17.26-5.74,20.1-8.06C121.32,43.93,113.31,38.2,104.07,38.2Zm0,13.16a5.12,5.12,0,1,1,5.13-5.12A5.12,5.12,0,0,1,104.07,51.36Z"/></g></svg>