<svg xmlns="http://www.w3.org/2000/svg" viewBox="0 0 210.03 283.46"><defs><style>.cls-1{fill:#1d1d1b;}</style></defs><title>Look at (from) hand 4</title><g id="Look_at_from_hand_4" data-name="Look at (from) hand 4"><path class="cls-1" d="M46,160.74a10.34,10.34,0,0,1-10.32-10.33V72.8L5.31,80.92A7.15,7.15,0,0,0,.25,89.69L36.1,223.5l16.82-62.76Z"/><path class="cls-1" d="M108.64,97.83a10.31,10.31,0,0,1,14.1-3.77l59,34.05,3.35-12.52a7.16,7.16,0,0,0-5.06-8.77L84.88,81.33A7.05,7.05,0,0,0,83,81.08a7.17,7.17,0,0,0-6.91,5.31L42.22,212.87Z"/><path class="cls-1" d="M117.58,95.82a7.17,7.17,0,0,1,3.58,1L206.45,146a7.16,7.16,0,0,1,2.62,9.79L137.44,279.88a7.17,7.17,0,0,1-9.79,2.62L42.37,233.26a7.16,7.16,0,0,1-2.62-9.79L111.37,99.41a7.19,7.19,0,0,1,6.21-3.59"/><path class="cls-1" d="M144.43,0H46a7.16,7.16,0,0,0-7.16,7.16V150.41A7.16,7.16,0,0,0,46,157.58h7.82l19.29-72a10.31,10.31,0,0,1,10-7.65,10.17,10.17,0,0,1,2.68.35l65.89,17.65V7.16A7.17,7.17,0,0,0,144.43,0ZM121.77,47.27,117.14,51c-3.19,2.59-11.7,8.62-22,8.62s-18.73-6-21.93-8.61l-4.65-3.76a.85.85,0,0,1-.28-.6.8.8,0,0,1,.28-.6l4.65-3.77c3.18-2.59,11.71-8.62,21.93-8.62s18.74,6,21.94,8.62l4.64,3.77a.78.78,0,0,1,.28.59A.81.81,0,0,1,121.77,47.27Z"/><path class="cls-1" d="M95.19,39.3c-8.48,0-15.78,5.25-18.38,7.37C79.42,48.79,86.73,54,95.19,54s15.78-5.25,18.39-7.36C111,44.55,103.65,39.3,95.19,39.3Zm0,12.05a4.68,4.68,0,1,1,4.69-4.67A4.68,4.68,0,0,1,95.19,51.35Z"/></g></svg>