<svg xmlns="http://www.w3.org/2000/svg" viewBox="0 0 241.22 283.47"><defs><style>.cls-1{fill:#1d1d1b;}</style></defs><title>Look at (from) hand 2</title><g id="Look_at_from_hand_2" data-name="Look at (from) hand 2"><path class="cls-1" d="M24.09,207.73,67.42,46,29.48,42.69A10.41,10.41,0,0,0,18.2,52.16L0,259.66A10.42,10.42,0,0,0,9.51,271l142.65,12.48A10.43,10.43,0,0,0,163.44,274l1.14-13L34.7,226.11A15,15,0,0,1,24.09,207.73Z"/><path class="cls-1" d="M233.5,37.42,95.19.36A10.56,10.56,0,0,0,92.49,0a10.41,10.41,0,0,0-10,7.72L28.52,208.92a10.41,10.41,0,0,0,7.37,12.75L174.2,258.74A10.43,10.43,0,0,0,187,251.37L240.87,50.18A10.42,10.42,0,0,0,233.5,37.42Zm-57.25,93-6.73,5.47c-4.63,3.77-17,12.55-31.9,12.55s-27.24-8.77-31.89-12.53L99,130.42a1.15,1.15,0,0,1-.41-.87,1.1,1.1,0,0,1,.41-.86l6.75-5.48c4.63-3.78,17-12.55,31.9-12.55s27.24,8.77,31.89,12.54l6.74,5.48a1.1,1.1,0,0,1,.41.86A1.12,1.12,0,0,1,176.25,130.41Z"/><path class="cls-1" d="M137.62,118.83c-12.33,0-23,7.63-26.73,10.71,3.79,3.09,14.43,10.72,26.73,10.72s22.95-7.63,26.73-10.71C160.55,126.46,149.91,118.83,137.62,118.83Zm0,17.52a6.81,6.81,0,1,1,6.81-6.8A6.82,6.82,0,0,1,137.62,136.35Z"/></g><g id="Random_from_hand_2" data-name="Random from hand 2"><path class="cls-1" d="M24.09-75.73,67.42-237.45l-37.94-3.32A10.41,10.41,0,0,0,18.2-231.3L0-23.8A10.41,10.41,0,0,0,9.51-12.52L152.16,0a10.42,10.42,0,0,0,11.28-9.47l1.14-13L34.7-57.36A15,15,0,0,1,24.09-75.73Z"/></g></svg>