<svg xmlns="http://www.w3.org/2000/svg" viewBox="0 0 233.1 283.46"><defs><style>.cls-1{fill:#1d1d1b;}</style></defs><title>Lose</title><g id="Lose"><path class="cls-1" d="M232.71,54.89,173.73,275a11.4,11.4,0,0,1-11,8.44,11.2,11.2,0,0,1-3-.39L8.45,242.53a11.4,11.4,0,0,1-8.06-14l59-220.12A11.41,11.41,0,0,1,70.37,0a11.63,11.63,0,0,1,3,.39L224.65,40.94A11.39,11.39,0,0,1,232.71,54.89ZM155.16,163.55a1.22,1.22,0,0,0,0-1.73l-20.11-20.11,20.09-20.09a1.21,1.21,0,0,0,0-1.72l-16.75-16.76a1.24,1.24,0,0,0-1.73,0l-20.09,20.09L96.46,103.12a1.22,1.22,0,0,0-1.72,0l-16.8,16.8a1.21,1.21,0,0,0,0,1.72l20.11,20.11L78,161.84a1.24,1.24,0,0,0,0,1.73l16.76,16.75a1.22,1.22,0,0,0,1.72,0l20.09-20.09,20.11,20.11a1.22,1.22,0,0,0,1.73,0Z"/></g><g id="Play_with_symbol" data-name="Play with symbol"><path class="cls-1" d="M173.73-8.45a11.4,11.4,0,0,1-14,8.06L8.45-40.94a11.39,11.39,0,0,1-8.06-14L59.37-275a11.39,11.39,0,0,1,14-8.05l151.32,40.54a11.4,11.4,0,0,1,8.06,14ZM97.46-180.7a1.4,1.4,0,0,0-1.4,1.4v75.14a1.4,1.4,0,0,0,1.4,1.39h.84a1.4,1.4,0,0,0,1.14-.59c.06-.08.11-.17.16-.24q11.16-11.2,22.34-22.38l13.67-13.67c.37-.38.72-.76,1.07-1.14a1.39,1.39,0,0,0,0-1.9c-.35-.38-.7-.76-1.05-1.12l-11.75-11.74q-12.13-12.15-24.27-24.29c-.08-.13-.13-.21-.19-.29a1.38,1.38,0,0,0-1.12-.57Z"/></g></svg>