<svg xmlns="http://www.w3.org/2000/svg" viewBox="0 0 202.93 283.46"><defs><style>.cls-1{fill:#1d1d1b;}</style></defs><title>Lose played</title><g id="Exhaust"><path class="cls-1" d="M190.05,283.46H12.88A12.89,12.89,0,0,0,0,296.35V554a12.89,12.89,0,0,0,12.88,12.89H190.05A12.88,12.88,0,0,0,202.93,554V296.35A12.88,12.88,0,0,0,190.05,283.46ZM135.79,399.85,105,420.28a1.41,1.41,0,0,1-1.42.06,1.38,1.38,0,0,1-.73-1.21V408.54a23.82,23.82,0,1,0,15.66,44.65,1.4,1.4,0,0,1,1.94.91l3.7,14.95a1.37,1.37,0,0,1-.84,1.62,41.74,41.74,0,1,1-20.46-80.31v-12.1a1.38,1.38,0,0,1,2.15-1.15l30.78,20.44a1.39,1.39,0,0,1,0,2.3Z"/></g><g id="Lose_played" data-name="Lose played"><path class="cls-1" d="M190.05,0H12.88A12.88,12.88,0,0,0,0,12.88v257.7a12.88,12.88,0,0,0,12.88,12.88H190.05a12.87,12.87,0,0,0,12.88-12.88V12.88A12.88,12.88,0,0,0,190.05,0ZM123.28,180.34a1.21,1.21,0,0,1-1.72,0l-20.11-20.11L81.36,180.32a1.22,1.22,0,0,1-1.73,0L62.88,163.57a1.22,1.22,0,0,1,0-1.73L83,141.75,62.86,121.64a1.21,1.21,0,0,1,0-1.72l16.79-16.79a1.22,1.22,0,0,1,1.73,0l20.11,20.1,20.09-20.08a1.21,1.21,0,0,1,1.72,0l16.76,16.75a1.22,1.22,0,0,1,0,1.72L120,141.71l20.11,20.11a1.24,1.24,0,0,1,0,1.73Z"/></g><g id="Return"><path class="cls-1" d="M190.05-283.47H12.88A12.89,12.89,0,0,0,0-270.58v257.7A12.88,12.88,0,0,0,12.88,0H190.05a12.88,12.88,0,0,0,12.88-12.88v-257.7A12.88,12.88,0,0,0,190.05-283.47Zm-50.12,151.8a1.38,1.38,0,0,1-.56,1.11l-.29.19-24,24-11.59,11.6c-.36.35-.73.69-1.11,1a1.37,1.37,0,0,1-1.87,0c-.38-.35-.75-.69-1.13-1.06L85.92-108.33,63.83-130.39l-.24-.15a1.38,1.38,0,0,1-.59-1.13v-.83a1.38,1.38,0,0,1,1.38-1.38h19.3c1.54-12.28,8.86-43.65,16.64-55.53a1.37,1.37,0,0,1,1.15-.62h0a1.37,1.37,0,0,1,1.15.63c7.78,11.9,15.09,43.26,16.63,55.52h19.29a1.38,1.38,0,0,1,1.38,1.38Z"/></g></svg>