<svg xmlns="http://www.w3.org/2000/svg" viewBox="0 0 283.46 283.46"><defs><style>.cls-1,.cls-2{fill:#1d1d1b;}.cls-2{font-size:35px;font-family:Verdana-Bold, Verdana;font-weight:700;}</style></defs><title>Luck rating</title><g id="Luck_rating" data-name="Luck rating"><path class="cls-1" d="M262.27,283.46H21.19A21.22,21.22,0,0,1,0,262.28V21.19A21.22,21.22,0,0,1,21.19,0H262.27a21.21,21.21,0,0,1,21.19,21.19V262.28A21.21,21.21,0,0,1,262.27,283.46ZM259.79,12.38H23.67A12.42,12.42,0,0,0,11.25,24.81V258.67a12.42,12.42,0,0,0,12.42,12.42H259.79a12.42,12.42,0,0,0,12.42-12.42V24.81A12.42,12.42,0,0,0,259.79,12.38Z"/><text class="cls-2" transform="translate(96.07 243.21)">Luck</text><path class="cls-1" d="M169.93,40.56s-7-4-7.92,6.84c.06,10.11,7.92,19.15,7.92,19.15a46,46,0,0,1,9.49,28.35c0,23.6-16.88,42.74-37.69,42.74S104,118.5,104,94.9a46,46,0,0,1,9.49-28.35s7.86-9,7.91-19.15c-.94-10.84-7.91-6.84-7.91-6.84-16.39,11-27.39,31.19-27.39,54.34,0,34.82,24.89,63,55.59,63s55.59-28.23,55.59-63C197.32,71.75,186.33,51.52,169.93,40.56ZM92.25,88.76V86.15a2.4,2.4,0,0,1,2.4-2.4h2.62a2.4,2.4,0,0,1,2.4,2.4v2.61a2.4,2.4,0,0,1-2.4,2.4H94.65A2.4,2.4,0,0,1,92.25,88.76ZM102.41,116a2.4,2.4,0,0,1-2.4,2.4H97.4A2.4,2.4,0,0,1,95,116v-2.61a2.39,2.39,0,0,1,2.4-2.4H100a2.39,2.39,0,0,1,2.4,2.4Zm-1-52.91V60.52a2.4,2.4,0,0,1,2.4-2.4h2.62a2.39,2.39,0,0,1,2.39,2.4v2.61a2.39,2.39,0,0,1-2.39,2.4h-2.62A2.4,2.4,0,0,1,101.41,63.13Zm14.74,74.44a2.4,2.4,0,0,1-2.4,2.4h-2.62a2.39,2.39,0,0,1-2.4-2.4V135a2.39,2.39,0,0,1,2.4-2.39h2.62a2.4,2.4,0,0,1,2.4,2.39Zm58.58,0a2.4,2.4,0,0,1-2.4,2.4h-2.62a2.39,2.39,0,0,1-2.39-2.4V135a2.4,2.4,0,0,1,2.39-2.39h2.62a2.4,2.4,0,0,1,2.4,2.39Zm7.32-74.44a2.39,2.39,0,0,1-2.39,2.4H177a2.4,2.4,0,0,1-2.4-2.4V60.52a2.4,2.4,0,0,1,2.4-2.4h2.62a2.39,2.39,0,0,1,2.39,2.4ZM188.46,116a2.39,2.39,0,0,1-2.39,2.4h-2.62a2.39,2.39,0,0,1-2.4-2.4v-2.61a2.39,2.39,0,0,1,2.4-2.4h2.62a2.39,2.39,0,0,1,2.39,2.4Zm.35-24.88H186.2a2.39,2.39,0,0,1-2.4-2.4V86.15a2.39,2.39,0,0,1,2.4-2.4h2.61a2.39,2.39,0,0,1,2.4,2.4v2.61A2.39,2.39,0,0,1,188.81,91.16Z"/><text class="cls-2" transform="translate(104.78 199.94)">5/5</text></g></svg>