<svg xmlns="http://www.w3.org/2000/svg" viewBox="0 0 235.96 283.46"><defs><style>.cls-1,.cls-2{fill:#1d1d1b;}.cls-2{fill-rule:evenodd;}</style></defs><title>Magic shield</title><g id="Magic_shield" data-name="Magic shield"><path class="cls-1" d="M107.24,255c-3.29-1.52-7.45-3.5-10.22-4.88-12.28-6.07-30.3-15.8-44.93-29.91-9.65-9.32-17.06-22.36-22.64-39.87-1.28-4-2.4-8.3-3.54-13.44l-.78-3.58a4.88,4.88,0,0,1,1.07-4.19l2.34-2.76C38.79,144.26,42.71,125,43,111c.18-11.74-4.59-24.27-13.14-34.37l-3.27-3.87a4.91,4.91,0,0,1-.56-5.5l2.44-4.42A202.92,202.92,0,0,0,40.9,35.52l1.77-4.8a4.87,4.87,0,0,1,4.58-3.18h21.5a4.9,4.9,0,0,1,3.31,1.26l2.11,1.93a65.51,65.51,0,0,0,33.07,16.09v-24A69.29,69.29,0,0,1,71.92,5.78L67,1.28A4.85,4.85,0,0,0,63.69,0H29.15a4.9,4.9,0,0,0-4.58,3.19L20.42,14.45a235.73,235.73,0,0,1-14.13,31L.6,55.76a4.88,4.88,0,0,0,.55,5.48l7.64,9c8.8,10.43,13.74,23.23,13.54,35.12-.26,14.37-4.36,35.66-15,48.25L1.8,160.12a4.82,4.82,0,0,0-1.06,4.19l1.81,8.31a166.47,166.47,0,0,0,4.34,16.46c7,21.77,16.26,38.1,28.5,49.89C53.23,256.2,75.09,268,90,275.42c4.51,2.22,13.68,6.56,17.19,8l.06,0Z"/><path class="cls-1" d="M228.68,153.63C218,141,213.89,119.75,213.63,105.38c-.19-11.89,4.74-24.69,13.55-35.12l7.63-9a4.88,4.88,0,0,0,.56-5.48L229.68,45.4a234.44,234.44,0,0,1-14.13-30.95L211.38,3.19A4.88,4.88,0,0,0,206.81,0H172.28A4.87,4.87,0,0,0,169,1.28l-4.93,4.5a69.43,69.43,0,0,1-35.33,17.06v24a65.58,65.58,0,0,0,33.08-16.09l2.11-1.93a4.84,4.84,0,0,1,3.28-1.26h21.53a4.87,4.87,0,0,1,4.57,3.18l1.77,4.8a206.51,206.51,0,0,0,12.44,27.31L210,67.25a4.87,4.87,0,0,1-.54,5.5l-3.29,3.87C197.59,86.72,192.81,99.25,193,111c.24,14,4.14,33.27,14.41,45.38l2.34,2.76a4.91,4.91,0,0,1,1.07,4.19l-.8,3.58c-1.12,5.14-2.24,9.42-3.53,13.44-5.58,17.51-13,30.55-22.61,39.87-14.65,14.11-32.67,23.84-45,29.91-2.76,1.38-6.91,3.36-10.2,4.88v28.46l.07,0c3.51-1.46,12.69-5.8,17.18-8C160.89,268,182.75,256.2,200.57,239c12.25-11.79,21.55-28.12,28.51-49.89a169.48,169.48,0,0,0,4.33-16.46l1.8-8.31a4.79,4.79,0,0,0-1.05-4.19Z"/><polygon class="cls-2" points="117.7 63.26 93.69 142.4 98.53 146.54 117.07 84.88 126.62 114.96 133.71 114.77 117.7 63.26"/><path class="cls-2" d="M123.49,73.53l2,7c19.34,2.61,35.61,15.51,43.81,33.31l7.19.33C167.64,91.78,147.44,75.6,123.49,73.53Z"/><path class="cls-2" d="M112.23,73.57C87.77,76,67.37,93,59,116.29h7c7.65-18.82,24.24-32.67,44.18-35.65Z"/><polygon class="cls-2" points="189.59 116.06 109.74 117.47 108.02 123.67 171.11 122.9 144.64 143.39 146.29 149.99 189.59 116.06"/><polygon class="cls-2" points="98.58 117.67 46.38 118.57 111.11 167.07 116.55 162.6 66.32 124.14 96.85 123.79 98.58 117.67"/><polygon class="cls-2" points="136.97 125.21 129.96 125.42 149.7 187.9 125.09 169.09 119.22 173.19 161.78 205.14 136.97 125.21"/><path class="cls-2" d="M180,125.92l-5.8,4.11a67.48,67.48,0,0,1,.76,9.8,61.05,61.05,0,0,1-17.79,43.45l1.92,7.35a68,68,0,0,0,22.33-50.8A67.19,67.19,0,0,0,180,125.92Z"/><path class="cls-2" d="M56,128.19a69.2,69.2,0,0,0,20.46,61.68l2.11-7.23a61.24,61.24,0,0,1-16.66-50.5Z"/><polygon class="cls-2" points="135.72 150.34 85.65 189.22 95.12 157.86 90.05 154.19 74.18 206.38 137.49 156.81 135.72 150.34"/><path class="cls-2" d="M142.72,193.79a54.52,54.52,0,0,1-49,0l-6.07,4.4a60.53,60.53,0,0,0,61.05,0Z"/></g></svg>