<svg xmlns="http://www.w3.org/2000/svg" viewBox="0 0 283.46 283.46"><defs><style>.cls-1,.cls-2{fill:#1d1d1b;}.cls-2{fill-rule:evenodd;}</style></defs><title>Magic</title><g id="Web"><path class="cls-1" d="M566.52,142.86A118.61,118.61,0,0,0,530,124.64c-3.68-2.79-6.79-8.51-9-16.56-2.29-8.28-3.65-18.86-4-31.47a154.38,154.38,0,0,1,31.24-3.24.67.67,0,0,0,.66-.62.69.69,0,0,0-.6-.7,120.94,120.94,0,0,0-32.82.83C508,71,500.73,67,493.79,60.91S480.49,47,474.56,37.28a156.74,156.74,0,0,1,23-16.27.66.66,0,0,0-.61-1.17A121.39,121.39,0,0,0,470.16,36a74.08,74.08,0,0,1-28,1.4A74.71,74.71,0,0,1,415.49,28,151.6,151.6,0,0,1,428.63,1a.66.66,0,0,0-.18-.88.65.65,0,0,0-.9.11A105.71,105.71,0,0,0,411,28a83.88,83.88,0,0,1-24.69,15.37A72.52,72.52,0,0,1,360,48.44a151.32,151.32,0,0,1-2.18-30.29.66.66,0,0,0-.6-.67h-.06a.65.65,0,0,0-.65.55,104.59,104.59,0,0,0-.43,32.59c-5.85,13.24-11.89,23.57-17.94,30.71-5.52,6.5-11.1,10.39-16.58,11.57A152,152,0,0,1,305,68.4a.67.67,0,0,0-.86-.29.69.69,0,0,0-.35.84,106.34,106.34,0,0,0,14.78,27c2.76,14.84,3.54,25.74,2.42,34.27-1.21,9.38-4.75,16.18-10.84,20.79a153.17,153.17,0,0,1-25.72-12.67.7.7,0,0,0-.9.19.68.68,0,0,0,.13.9,106.19,106.19,0,0,0,24.79,15.3c5.64,8,12.65,18.43,17,28.45,3.93,9.17,5.24,17.1,4,24.22a158.11,158.11,0,0,1-27.88,1.76h0a.65.65,0,0,0-.65.6.66.66,0,0,0,.55.72,105.7,105.7,0,0,0,29.67.8l2.89,1.38c19.07,9.07,37.09,17.63,42.57,32.53a151.07,151.07,0,0,1-24.76,16.74.66.66,0,0,0-.29.86.69.69,0,0,0,.84.34,105.87,105.87,0,0,0,27.77-15.42,86.06,86.06,0,0,1,54.94,7.87,155.35,155.35,0,0,1-12.25,26.93.67.67,0,0,0,.22.89.72.72,0,0,0,.37.11.67.67,0,0,0,.53-.28,120.9,120.9,0,0,0,15.38-28,57.74,57.74,0,0,1,22.73-13.34A77.39,77.39,0,0,1,491.36,239a158.18,158.18,0,0,1,2.17,25.81.67.67,0,0,0,.63.66c.37.1.66-.24.7-.59a121.64,121.64,0,0,0-.12-27.91,51.77,51.77,0,0,1,14.81-22.85c7-6.26,16.05-11.07,27-14.32a170.66,170.66,0,0,1,9.39,14.35.68.68,0,0,0,.87.26.67.67,0,0,0,.31-.86,124.61,124.61,0,0,0-8.44-15.93c-3.11-22.77,4.2-41.78,21.75-56.54,1.83,1,3.7,2,5.52,3a.65.65,0,0,0,.32.09h0a.66.66,0,0,0,.26-1.28ZM493.69,230a114,114,0,0,0-7.2-23.89,32,32,0,0,1,8.67-16.8c4.87-5.08,11.64-9.25,20.14-12.41a127.8,127.8,0,0,1,19,19.86c-10.83,3.4-19.92,8.34-27,14.71A54.85,54.85,0,0,0,493.69,230ZM409,243.63a89.46,89.46,0,0,0-23.63-.28,108.9,108.9,0,0,0,18.44-21.43,34.49,34.49,0,0,1,18.29-2.72,69.58,69.58,0,0,1,19.18,5.31,116.63,116.63,0,0,1-5.07,27.68A91.08,91.08,0,0,0,409,243.63Zm-80.33-61.86c-3.07-7.13-7.5-14.82-14.28-24.73a107.39,107.39,0,0,0,28.54,6.11c4.86,5.52,9.51,10.95,13.08,16.64,3.78,6,5.86,11.58,6.35,17.09a110,110,0,0,1-29.26,9.82C334.09,199.25,332.63,191.09,328.65,181.77Zm-5.56-80.41a107.67,107.67,0,0,0,19.55,17.38c2.27,10.37,3.34,19.09,3.18,25.92-.15,5.81-1.17,10.3-3.05,13.39A110,110,0,0,1,314,152.32c5.8-5.12,9.23-12.24,10.45-21.72C325.48,122.91,325,113.56,323.09,101.36ZM441.62,40.79a75,75,0,0,0,10.81.78,78.12,78.12,0,0,0,12.33-1,114.65,114.65,0,0,0-17.84,20.6A42.55,42.55,0,0,1,429.42,64a58.76,58.76,0,0,1-20.53-4.93,109.42,109.42,0,0,1,5.46-27.74A77.86,77.86,0,0,0,441.62,40.79Zm-.45,118a15.63,15.63,0,0,0-1.81.37,13.16,13.16,0,0,0-2.69,1.09c-.95-2.56-2-5.09-3-7.57C436.43,154.89,438.86,156.88,441.17,158.8Zm-47.85,23.8a40.08,40.08,0,0,1,9.83,3.22,31.73,31.73,0,0,1,8.77,6.26,119.62,119.62,0,0,1-11.09,24.86,39.35,39.35,0,0,0-15.32-13.09,75.34,75.34,0,0,0-15.29-5.28A139.37,139.37,0,0,0,393.32,182.6Zm-44-37.86a108.53,108.53,0,0,0-2.52-23.26,135.23,135.23,0,0,0,24.91,12.28,38.19,38.19,0,0,1,3.52,11.8,31.74,31.74,0,0,1-.33,9.88,119.37,119.37,0,0,1-28.23,2.78C348.27,154.75,349.15,150.23,349.28,144.74Zm104.83,5a22,22,0,0,0-2.65,2.08,15.6,15.6,0,0,0-3,3.67c-3.32-2.89-6.77-5.71-10.48-8.53C442.73,147.69,448.37,148.6,454.11,149.75Zm-.29,4.62a20.14,20.14,0,0,1,5.52-3.52,158,158,0,0,1,25.51,7.84A32.7,32.7,0,0,0,474,166.45a24.06,24.06,0,0,0-5.35,10,159.62,159.62,0,0,0-17.49-18.59A12.39,12.39,0,0,1,453.82,154.37ZM438.9,139.86c6.87-2.69,14.77-5.64,23.06-8.11a26.25,26.25,0,0,0-2.19,7.16,23.71,23.71,0,0,0-.23,4.7A189.88,189.88,0,0,0,438.9,139.86Zm-2.77-6.61a264.75,264.75,0,0,1,20-22.7,30.54,30.54,0,0,0,1.81,8.81,18.79,18.79,0,0,0,3.06,5.4A186.72,186.72,0,0,0,436.13,133.25ZM423.86,124c-.21,1.39-.39,2.8-.57,4.22-.59-1.48-1.16-2.95-1.73-4.43.3.06.6.11.88.14C422.93,124,423.37,124,423.86,124Zm2.41,36.09c.25-1.61.48-3.22.7-4.81.66,1.67,1.31,3.33,1.94,5a11.71,11.71,0,0,0-2.18-.2Zm-9.28-2c1-1.27,2.06-2.56,3.1-3.91-.26,1.76-.54,3.5-.81,5.25l-.78-.42C418,158.76,417.51,158.45,417,158.11Zm-5.16-14.55c-1.64.64-3.28,1.29-4.92,1.91-.19-.55-.38-1.11-.53-1.65-.11-.37-.21-.74-.3-1.12Q408.95,143.15,411.83,143.56Zm-6.47-8.07c0-.79.09-1.54.18-2.26s.25-1.36.42-2c2.2,1.82,4.43,3.61,6.76,5.42Q409,136.09,405.36,135.49Zm-26.72,9.66a40.11,40.11,0,0,0-2.51-9.79,178.72,178.72,0,0,0,26.28,6.71,24.22,24.22,0,0,0,.63,2.72c.2.64.41,1.28.63,1.91a214.89,214.89,0,0,1-25.16,7.91A34.43,34.43,0,0,0,378.64,145.15Zm31.59,6.55c1.41-.54,2.83-1.11,4.3-1.71l-2.83,3.53c-.3-.33-.58-.67-.86-1S410.43,152,410.23,151.7ZM406.89,153c.41.61.81,1.16,1.23,1.69s.87,1.07,1.37,1.6a220.56,220.56,0,0,1-17.83,19.52c-2.34-6.93-6.79-11.52-11-15.26A184.54,184.54,0,0,0,406.89,153Zm-4.77-20.23a21.25,21.25,0,0,0-.21,2.18,209.35,209.35,0,0,1-24-5.49,31.59,31.59,0,0,0,5.36-6.57,25.55,25.55,0,0,0,3.4-10.31,177.09,177.09,0,0,0,16.47,16.23A20.14,20.14,0,0,0,402.12,132.73Zm12.65,28.08c.67.44,1.35.86,2,1.24s1.25.69,1.9,1a215.37,215.37,0,0,1-5.62,25.33,36.11,36.11,0,0,0-8.41-5.67,42.83,42.83,0,0,0-8.1-2.94A181.88,181.88,0,0,0,414.77,160.81ZM451.4,105.6a175.22,175.22,0,0,0-18.51,20.14,13.77,13.77,0,0,1-1.57-2.55,224,224,0,0,1,6.21-28,35,35,0,0,0,8.23,7.92A19.06,19.06,0,0,0,451.4,105.6Zm-3.74-5.45a34.22,34.22,0,0,1-8.84-9.1A123.45,123.45,0,0,1,450.33,65.7a58.62,58.62,0,0,0,14.53,15.58,34.59,34.59,0,0,0,11.93,5.52,137.89,137.89,0,0,0-22,15.78A13.58,13.58,0,0,1,447.66,100.15Zm-26.39-5a35.48,35.48,0,0,0,9.81-1.7,170.15,170.15,0,0,0-6.66,27,4.6,4.6,0,0,1-1.57,0,9,9,0,0,1-2.88-.87A206.48,206.48,0,0,1,412,93.91,28,28,0,0,0,421.27,95.16Zm-10.14,31.26.59-.45a23.36,23.36,0,0,0,2.39-2.12c.87,2.36,1.8,4.75,2.81,7.23C414.74,129.34,412.87,127.84,411.13,126.42ZM428.47,188a39.89,39.89,0,0,0-9.26,1.56,182.36,182.36,0,0,0,6.48-26,8.72,8.72,0,0,1,2.59.08,11.15,11.15,0,0,1,2.13.61,209,209,0,0,1,7.67,25.25A24.2,24.2,0,0,0,428.47,188Zm34.62-43.51a20.42,20.42,0,0,1,.12-5.08,25.3,25.3,0,0,1,3.32-9,137.66,137.66,0,0,1,26.77-4.68,36.25,36.25,0,0,0-5.52,13.15,38.18,38.18,0,0,0,0,14.45A148.75,148.75,0,0,0,463.09,144.51Zm1.75-20.7a14.61,14.61,0,0,1-3.7-5.67,30.57,30.57,0,0,1-1.67-10.84,127,127,0,0,1,23.24-17.55c1.1,8.59,2.32,14.68,4,19.63a31.13,31.13,0,0,0,5.5,10.67A142.1,142.1,0,0,0,464.84,123.81ZM432.59,89.22a32.54,32.54,0,0,1-11.4,2.47h-.66a23.62,23.62,0,0,1-9.37-1.82,117.14,117.14,0,0,1-2.45-27.11,61.72,61.72,0,0,0,20.58,4.7,47,47,0,0,0,14.62-1.62A135.13,135.13,0,0,0,432.59,89.22Zm-23,34c-.43.33-.84.63-1.23.88a204,204,0,0,1-18.95-17.73,26.07,26.07,0,0,0,7.42-3.58A67.37,67.37,0,0,0,406,95.12a178.11,178.11,0,0,0,6.78,25.07A24.22,24.22,0,0,1,409.59,123.24Zm-14.7-23.32a19.22,19.22,0,0,1-8.17,3.48A117,117,0,0,1,371.64,82a51.16,51.16,0,0,0,14.93-4.35,63.08,63.08,0,0,0,16.88-11.78A135.83,135.83,0,0,0,405.26,91,67.54,67.54,0,0,1,394.89,99.92Zm-14.64,21.16a30.49,30.49,0,0,1-6.2,7.14,119,119,0,0,1-25.13-11.48,37.55,37.55,0,0,0,11.67-11.85,60.35,60.35,0,0,0,7.5-18.61,137,137,0,0,0,15.28,22.46A23.45,23.45,0,0,1,380.25,121.08Zm-27.94,42.43a139.06,139.06,0,0,0,24-2.17c5.43,4.61,10.45,9.42,12.56,17.07a119.3,119.3,0,0,1-23.21,16.75c-.74-5.6-3-11.23-6.71-17.23a119.73,119.73,0,0,0-11.17-14.5C349.26,163.48,350.78,163.51,352.31,163.51ZM439,193.72a123,123,0,0,1,2.44,27.11,70.91,70.91,0,0,0-19-5.08,46.75,46.75,0,0,0-4.67-.25,37.94,37.94,0,0,0-10.95,1.57,139.44,139.44,0,0,0,11-23.43,39.26,39.26,0,0,1,10.78-2.16A21.22,21.22,0,0,1,439,193.72Zm1.31-31.19a16.39,16.39,0,0,1,4.38-.52h.27a181,181,0,0,1,18.79,18.56,34.48,34.48,0,0,0-9.34,1.94,29.32,29.32,0,0,0-9.78,6,166.3,166.3,0,0,0-6.73-24.89A9.11,9.11,0,0,1,440.28,162.53Zm15.29,23.24a33.43,33.43,0,0,1,11-1.86,118.14,118.14,0,0,1,14.23,22h-.35a52.26,52.26,0,0,0-19.13,3.45,48.36,48.36,0,0,0-14.42,8.86,134.74,134.74,0,0,0-1.55-25.58A25.45,25.45,0,0,1,455.57,185.77Zm21-17c3-3.36,7.25-6.1,12.69-8.17a114.39,114.39,0,0,1,22.92,13.82c-8.11,3.25-14.67,7.46-19.53,12.52a35.91,35.91,0,0,0-8.49,14.1,129.46,129.46,0,0,0-12.71-20.89A20.94,20.94,0,0,1,476.58,168.76Zm38.81-16.55a76.56,76.56,0,0,0-1.18,17.59,122.39,122.39,0,0,0-22.41-14.52,35.25,35.25,0,0,1-.61-15.69,33.8,33.8,0,0,1,6.53-14,112,112,0,0,1,28.37,2.66A61.94,61.94,0,0,0,515.39,152.21ZM497.05,120c-2.95-2.24-5.28-6.06-7.11-11.66-1.64-5-2.87-11.36-4-20.39A114.58,114.58,0,0,1,513.54,77.4c.42,12.6,1.81,23.23,4.13,31.6a45.06,45.06,0,0,0,6.13,14A118.4,118.4,0,0,0,497.05,120ZM481.84,84.06a29.37,29.37,0,0,1-15-5.63c-5.16-3.64-10-9-14.49-16a115.35,115.35,0,0,1,19.56-22.84A103.87,103.87,0,0,0,491.5,63.51a60,60,0,0,0,17,10.75A116,116,0,0,0,481.84,84.06ZM403.69,60.67a61.76,61.76,0,0,1-18.56,13.8,49.6,49.6,0,0,1-15.21,4.22,109.45,109.45,0,0,1-9.24-26.79,76.11,76.11,0,0,0,26.91-5.31,85.47,85.47,0,0,0,21.08-12.15A107.51,107.51,0,0,0,403.69,60.67Zm-46,42.36a33.73,33.73,0,0,1-12,11.62,109.49,109.49,0,0,1-21.56-18.82c5.64-1.73,11.23-5.84,16.68-12.26S351.81,68,357.14,56.64a108.49,108.49,0,0,0,8.43,24.7C364,90,361.31,97.29,357.67,103Zm7.81,98c6.13,1.4,12.58,3,18.48,6a35.8,35.8,0,0,1,14.85,13.21,109.27,109.27,0,0,1-19.41,22.55c-6.26-15-24.2-23.9-42.09-32.41A107.6,107.6,0,0,0,365.48,201Zm81.08,22.29a45.94,45.94,0,0,1,16-10.68,49.55,49.55,0,0,1,19.87-3.19,120.76,120.76,0,0,1,8.28,26A81.6,81.6,0,0,0,461,238.49a61.53,61.53,0,0,0-19.37,10.1A115.64,115.64,0,0,0,446.56,223.3Zm88-31.79a113,113,0,0,0-16.78-18.65c-.28-6.5-.39-12.93,1-20a58.94,58.94,0,0,1,11-23.82A140.35,140.35,0,0,1,559,140.3C541.54,152.5,533.35,169.71,534.57,191.51Z"/></g><g id="Magic"><polygon class="cls-2" points="141.17 0 93.63 156.64 103.25 164.84 139.95 42.84 158.87 102.38 172.89 101.97 141.17 0"/><path class="cls-2" d="M152.67,20.35l4,14c38.26,5.17,70.5,30.67,86.7,65.9l14.26.61C240.05,56.52,200.07,24.46,152.67,20.35Z"/><path class="cls-2" d="M130.34,20.44C82,25.26,41.58,59,25,105H38.87c15.15-37.28,48-64.7,87.47-70.58Z"/><polygon class="cls-2" points="283.46 104.56 125.44 107.31 122.03 119.6 246.86 118.1 194.49 158.66 197.77 171.68 283.46 104.56"/><polygon class="cls-2" points="103.35 107.73 0 109.52 128.13 205.53 138.92 196.64 39.47 120.56 99.87 119.86 103.35 107.73"/><polygon class="cls-2" points="179.28 122.68 165.43 123.05 204.53 246.8 155.82 209.5 144.22 217.63 228.46 280.87 179.28 122.68"/><path class="cls-2" d="M264.52,124.07,253,132.22a126.41,126.41,0,0,1,1.55,19.39,121,121,0,0,1-35.21,86l3.75,14.5c27-24.11,44.22-60.31,44.22-100.5A134.28,134.28,0,0,0,264.52,124.07Z"/><path class="cls-2" d="M19,128.58a134,134,0,0,0-2,23c0,39.39,16.43,74.84,42.48,99l4.18-14.27a121.11,121.11,0,0,1-34-84.75,126.76,126.76,0,0,1,.94-15.28Z"/><polygon class="cls-2" points="176.84 172.41 77.76 249.36 96.5 187.29 86.44 180.03 55.05 283.32 180.31 185.19 176.84 172.41"/><path class="cls-2" d="M190.73,258.41a108.06,108.06,0,0,1-97.06,0l-12,8.67a119.55,119.55,0,0,0,120.8,0Z"/></g></svg>