<svg xmlns="http://www.w3.org/2000/svg" viewBox="0 0 283.46 283.46"><defs><style>.cls-1,.cls-2{fill:#1d1d1b;}.cls-2{font-size:100px;font-family:Verdana-Bold, Verdana;font-weight:700;}</style></defs><title>Many</title><g id="Age"><path class="cls-1" d="M545.74,283.46H304.66a21.21,21.21,0,0,1-21.2-21.18V21.2A21.22,21.22,0,0,1,304.66,0H545.74a21.22,21.22,0,0,1,21.19,21.2V262.28A21.21,21.21,0,0,1,545.74,283.46ZM543.25,12.38H307.13a12.42,12.42,0,0,0-12.42,12.43V258.67a12.42,12.42,0,0,0,12.42,12.42H543.25a12.43,12.43,0,0,0,12.43-12.42V24.81A12.43,12.43,0,0,0,543.25,12.38Z"/></g><g id="Many"><path class="cls-1" d="M262.28,283.46H21.19A21.21,21.21,0,0,1,0,262.28V21.2A21.22,21.22,0,0,1,21.19,0H262.28a21.21,21.21,0,0,1,21.18,21.2V262.28A21.2,21.2,0,0,1,262.28,283.46ZM259.79,12.38H23.67A12.42,12.42,0,0,0,11.25,24.81V258.67a12.42,12.42,0,0,0,12.42,12.42H259.79a12.43,12.43,0,0,0,12.43-12.42V24.81A12.43,12.43,0,0,0,259.79,12.38Z"/><text class="cls-2" transform="translate(46.64 252.57)">2-6</text><path class="cls-1" d="M115.41,79.07a27.49,27.49,0,0,0-14.79-4.34h0a19.52,19.52,0,0,1-37.24,0h0a28,28,0,0,0-27.95,27.93V158H87.52V111.15A32.42,32.42,0,0,1,115.41,79.07Z"/><path class="cls-1" d="M82,27.38A20.58,20.58,0,1,0,102.57,48,20.56,20.56,0,0,0,82,27.38Z"/><path class="cls-1" d="M248,102.66a28,28,0,0,0-28-27.93h0a19.52,19.52,0,0,1-37.25,0A27.43,27.43,0,0,0,168,79.07a32.41,32.41,0,0,1,27.89,32.08V158H248Z"/><path class="cls-1" d="M201.44,27.38A20.58,20.58,0,1,0,222,48,20.58,20.58,0,0,0,201.44,27.38Z"/><path class="cls-1" d="M160.35,85.87h0a19.51,19.51,0,0,1-37.23,0h0A27.93,27.93,0,0,0,95.15,113.8v55.31h93.14V113.8A27.93,27.93,0,0,0,160.35,85.87Z"/><path class="cls-1" d="M141.72,38.51a20.57,20.57,0,1,0,20.57,20.56A20.55,20.55,0,0,0,141.72,38.51Z"/></g></svg>