<svg xmlns="http://www.w3.org/2000/svg" viewBox="0 0 283.46 204.2"><defs><style>.cls-1{fill:#1d1d1b;}</style></defs><title>Map filled</title><g id="Map_filled" data-name="Map filled"><path class="cls-1" d="M283.46,8.62C264.64,2.66,245.82.25,227,0V34.41C222.28,34.58,204.66.59,199.94,1,133.29,6.17,66.64,29.74,0,8.62V195.76a189.56,189.56,0,0,0,49.79,8.44c4.93.2,9.86-26.41,14.79-26.5s9.88,26.35,14.82,26c68-4.52,136-29.52,204.06-8V122.6c0-4.82-30.46-22.72-30.46-27.54h30.46ZM44,76.72a19,19,0,1,1,19-19A19,19,0,0,1,44,76.72Zm29.1,13.15a2.42,2.42,0,0,1-3.58.71,41.59,41.59,0,0,1-9.58-10.45,5.08,5.08,0,0,1-.17-4.88c.78-1.28,2.06-1.08,3,.29A42,42,0,0,0,72.3,86,3,3,0,0,1,73.09,89.87Zm26.4,9a4.51,4.51,0,0,1-4.28,1.86,69.33,69.33,0,0,1-13.77-3.56,2.21,2.21,0,0,1-1.11-3.33,3.27,3.27,0,0,1,3.91-1.26A69.05,69.05,0,0,0,98,96.14C99.58,96.41,100.26,97.6,99.49,98.87ZM130.71,100a6,6,0,0,1-4.58,2.35c-5.36.07-10.68.08-15.86-.14-1.69-.07-2.43-1.17-1.65-2.44a5.35,5.35,0,0,1,4.45-2.15c5.18.22,10.49.21,15.86.14C130.66,97.69,131.48,98.68,130.71,100Zm31.84,0a5.39,5.39,0,0,1-4.45,2.15c-5.19-.22-10.49-.21-15.86-.14-1.75,0-2.55-1-1.78-2.25A6,6,0,0,1,145,97.42c5.37-.08,10.67-.08,15.86.13C162.58,97.63,163.31,98.74,162.55,100Zm28.3,5.88a3.3,3.3,0,0,1-3.92,1.26,70.29,70.29,0,0,0-13.76-3.57c-1.59-.25-2.27-1.44-1.5-2.72A4.56,4.56,0,0,1,176,99a69.24,69.24,0,0,1,13.76,3.57A2.22,2.22,0,0,1,190.85,105.88Zm8,7.84a3,3,0,0,1-.79-3.87,2.41,2.41,0,0,1,3.58-.72,41.62,41.62,0,0,1,9.59,10.45,5.1,5.1,0,0,1,.16,4.89c-.76,1.26-2.06,1.08-3-.3A41.93,41.93,0,0,0,198.86,113.72Zm48.24,47.57-6.35,6.35-12.69-12.7-12.7,12.7L209,161.29l12.7-12.7L209,135.89l6.35-6.34,12.7,12.7,12.69-12.7,6.35,6.34-12.7,12.7Z"/></g><g id="Map"><path class="cls-1" d="M-4.46,187.44c-31.83-9.56-64.32-9.69-97.11-6-14.87,1.65-29.64,4.1-44.41,6.44-8,1.26-16,2.49-24,3.63-2.57.37-29.35,5.55-30.73,3.66-3.1-4.21-9.28-33.56-20.1-23.52-5.09,4.73-6.84,13.13-9.25,19.38-2.69,7-8.34,4-15,3.3a171.81,171.81,0,0,1-32.27-6.85l3.57,4.67V12l-6.14,4.68c46.92,14.1,94.7,7,142.11-.49,12.38-2,24.76-3.83,37.2-5.31,3.5-.42,12-2.88,14.57-.14a66.08,66.08,0,0,1,5.79,8c4.38,6.44,10.41,20.64,18.84,22.78a4.91,4.91,0,0,0,6.14-4.68V3.68L-60.1,8.53A198.2,198.2,0,0,1-7,16.65L-10.6,12V95.19q2.41-2.43,4.85-4.85H-35.08a4.9,4.9,0,0,0-4.67,6.14c2.63,9.74,18.81,17.27,26,23.2,6.83,5.64,3.16,24.67,3.16,33.2v39.23c0,6.26,9.7,6.26,9.7,0V152.88c0-10.21,2.27-23.45-.39-33.27-1.2-4.45-6.91-7.94-10.28-10.52-4.36-3.35-17.36-9.76-18.83-15.2L-35.08,100H-5.75A4.9,4.9,0,0,0-.9,95.19V12A4.91,4.91,0,0,0-4.46,7.3,207.59,207.59,0,0,0-60.1-1.17a4.88,4.88,0,0,0-4.85,4.85V36.8l6.14-4.68c-2.95-.74-7-9.31-8.67-11.74C-70.87,15.3-74.09,10-78,5.27-79.89,3-82.71-.55-86.15-.26c-11.71,1-23.35,2.45-35,4.11-52.18,7.45-104.29,19-156.2,3.45A4.89,4.89,0,0,0-283.46,12V192.11a4.9,4.9,0,0,0,3.56,4.68,207,207,0,0,0,44.42,8c8,.61,10.89-1.79,13.92-9.12,1.58-3.8,3-7.68,4.45-11.53l1.29-3c1.7-2,1-2.55-2.14-1.74,1.43,2,2.19,4.53,3.08,6.79,2.09,5.37,3.91,14.27,9.35,17.46,7.36,4.31,25.32-1.15,33.38-2.26,17.61-2.41,35.13-5.38,52.7-8,37.64-5.61,75.53-7.77,112.41,3.31C-1,198.6,1.51,189.23-4.46,187.44Z"/></g></svg>