<svg xmlns="http://www.w3.org/2000/svg" viewBox="0 0 283.46 206.55"><defs><style>.cls-1{fill:#1d1d1b;}</style></defs><title>Map</title><g id="Map_filled" data-name="Map filled"><path class="cls-1" d="M566.93,9.8c-18.82-6-37.64-8.37-56.46-8.63V35.59c-4.73.16-22.35-33.83-27.07-33.46C416.76,7.34,350.11,30.91,283.46,9.8V196.93a189.56,189.56,0,0,0,49.8,8.44c4.93.21,9.86-26.4,14.79-26.49s9.87,26.35,14.81,26c68-4.52,136.05-29.52,204.07-8V123.77c0-4.81-30.46-22.72-30.46-27.53h30.46ZM327.45,77.9a19,19,0,1,1,19-19.05A19,19,0,0,1,327.45,77.9ZM356.55,91a2.43,2.43,0,0,1-3.58.72,42.09,42.09,0,0,1-9.57-10.45,5.1,5.1,0,0,1-.18-4.89c.78-1.27,2.06-1.08,3,.3a42,42,0,0,0,9.58,10.45A3,3,0,0,1,356.55,91Zm26.4,9a4.53,4.53,0,0,1-4.27,1.87,70.13,70.13,0,0,1-13.78-3.57A2.22,2.22,0,0,1,363.79,95a3.3,3.3,0,0,1,3.91-1.26,70.11,70.11,0,0,0,13.76,3.57C383.05,97.58,383.72,98.78,383,100Zm31.22,1.09a6,6,0,0,1-4.58,2.35c-5.36.07-10.67.07-15.85-.14-1.7-.07-2.43-1.18-1.65-2.45a5.34,5.34,0,0,1,4.44-2.14c5.19.21,10.5.2,15.86.13C414.13,98.87,414.94,99.86,414.17,101.13Zm31.84,0a5.35,5.35,0,0,1-4.45,2.15c-5.18-.22-10.49-.2-15.85-.14-1.75,0-2.55-1-1.78-2.24a6,6,0,0,1,4.57-2.35c5.36-.07,10.67-.08,15.85.14C446.05,98.8,446.78,99.91,446,101.17Zm28.3,5.89a3.3,3.3,0,0,1-3.91,1.26,71.12,71.12,0,0,0-13.77-3.58c-1.59-.25-2.27-1.44-1.49-2.71a4.57,4.57,0,0,1,4.28-1.88,69.53,69.53,0,0,1,13.77,3.58A2.22,2.22,0,0,1,474.31,107.06Zm8,7.84a3,3,0,0,1-.79-3.88,2.41,2.41,0,0,1,3.58-.71,41.73,41.73,0,0,1,9.58,10.44,5.1,5.1,0,0,1,.17,4.89c-.76,1.26-2.07,1.09-3-.3A42.27,42.27,0,0,0,482.33,114.9Zm48.23,47.56-6.34,6.35-12.7-12.7-12.7,12.7-6.34-6.35,12.69-12.69-12.69-12.7,6.34-6.35,12.7,12.7,12.7-12.7,6.34,6.35-12.69,12.7Z"/></g><g id="Map"><path class="cls-1" d="M279,188.61c-31.83-9.56-64.31-9.68-97.11-6-14.86,1.65-29.64,4.09-44.41,6.43-8,1.26-16,2.49-23.95,3.64-2.58.37-29.35,5.54-30.74,3.66-3.09-4.21-9.28-33.57-20.09-23.53-5.1,4.73-6.84,13.13-9.26,19.38-2.69,7-8.33,4-15,3.31a171,171,0,0,1-32.26-6.86l3.56,4.68V13.15L3.56,17.83c46.93,14.09,94.7,7,142.11-.49,12.38-2,24.76-3.84,37.21-5.32,3.49-.42,12-2.87,14.56-.13a68,68,0,0,1,5.8,8c4.37,6.45,10.4,20.65,18.84,22.78A4.9,4.9,0,0,0,228.21,38V4.85L223.36,9.7a197.82,197.82,0,0,1,53.06,8.13l-3.56-4.68V96.36c1.62-1.62,3.24-3.23,4.85-4.85H248.39a4.9,4.9,0,0,0-4.68,6.14c2.64,9.74,18.82,17.27,26,23.2,6.84,5.65,3.16,24.68,3.16,33.2v39.24c0,6.25,9.7,6.25,9.7,0V154.05c0-10.21,2.27-23.45-.38-33.26-1.21-4.45-6.92-8-10.28-10.53-4.36-3.35-17.37-9.76-18.84-15.19-1.55,2.05-3.11,4.09-4.67,6.14h29.32a4.89,4.89,0,0,0,4.85-4.85V13.15A4.92,4.92,0,0,0,279,8.47,208,208,0,0,0,223.36,0a4.89,4.89,0,0,0-4.85,4.85V38l6.14-4.68c-3-.75-7.05-9.32-8.66-11.74-3.4-5.09-6.62-10.39-10.52-15.11-1.9-2.31-4.71-5.82-8.16-5.53-11.71,1-23.34,2.45-35,4.11C110.16,12.47,58,24.06,6.14,8.47A4.89,4.89,0,0,0,0,13.15V193.29A4.92,4.92,0,0,0,3.56,198,207.6,207.6,0,0,0,48,206c8,.6,10.9-1.8,13.93-9.12,1.57-3.81,3-7.68,4.44-11.53.44-1,.87-2,1.29-3q2.55-3-2.14-1.74c1.43,2,2.2,4.53,3.08,6.78,2.1,5.37,3.91,14.27,9.36,17.46,7.35,4.31,25.31-1.14,33.37-2.25,17.61-2.42,35.13-5.39,52.71-8,37.63-5.61,75.53-7.76,112.4,3.32C282.43,199.77,285,190.41,279,188.61Z"/><path class="cls-1" d="M65.52,60.37A18.33,18.33,0,1,1,47.19,42,18.33,18.33,0,0,1,65.52,60.37Z"/><rect class="cls-1" x="202.77" y="143.57" width="43.21" height="8.64" transform="translate(-38.85 201.98) rotate(-45)"/><rect class="cls-1" x="220.06" y="126.28" width="8.64" height="43.21" transform="translate(-38.86 201.96) rotate(-45)"/><path class="cls-1" d="M205.5,124.37a40.6,40.6,0,0,0-9.23-10.05,2.87,2.87,0,0,1-.75-3.73,2.31,2.31,0,0,1,3.44-.69A40.3,40.3,0,0,1,208.19,120a4.92,4.92,0,0,1,.16,4.7C207.61,125.88,206.36,125.71,205.5,124.37ZM184.79,108a67.4,67.4,0,0,0-13.25-3.44c-1.53-.25-2.19-1.39-1.44-2.62a4.4,4.4,0,0,1,4.13-1.8,66.71,66.71,0,0,1,13.25,3.44,2.13,2.13,0,0,1,1.08,3.2A3.18,3.18,0,0,1,184.79,108ZM157,103.18c-5-.21-10.1-.2-15.26-.13-1.68,0-2.46-1-1.71-2.17a5.71,5.71,0,0,1,4.4-2.25c5.16-.08,10.27-.08,15.26.13,1.63.07,2.33,1.14,1.6,2.35A5.19,5.19,0,0,1,157,103.18Zm-30.77.15c-5.16.07-10.28.07-15.26-.14-1.63-.06-2.34-1.13-1.59-2.35a5.12,5.12,0,0,1,4.28-2.06c5,.2,10.1.19,15.26.13,1.68,0,2.46.93,1.72,2.16A5.8,5.8,0,0,1,126.26,103.33ZM96.5,101.82a67.31,67.31,0,0,1-13.26-3.44,2.13,2.13,0,0,1-1.07-3.2A3.15,3.15,0,0,1,85.93,94,67.39,67.39,0,0,0,99.18,97.4c1.53.25,2.18,1.4,1.44,2.62A4.39,4.39,0,0,1,96.5,101.82ZM71.76,92.05A40.44,40.44,0,0,1,62.54,82a4.89,4.89,0,0,1-.17-4.7c.75-1.23,2-1,2.86.28a40.26,40.26,0,0,0,9.22,10.06,2.89,2.89,0,0,1,.76,3.73A2.34,2.34,0,0,1,71.76,92.05Z"/></g><g id="City"><path id="City-2" data-name="City" class="cls-1" d="M0,79.31V182.05a9.68,9.68,0,0,1-9.67,9.68H-273.8a9.67,9.67,0,0,1-9.66-9.68V33.64a9.65,9.65,0,0,1,6.6-9.18l27.38-9.14a9.78,9.78,0,0,1,3.07-.51,9.72,9.72,0,0,1,3.06.51L-216,24.46a9.67,9.67,0,0,1,6.6,9.18V94.87h4V87.73a9.66,9.66,0,0,1,4.75-8.34l45.16-26.71a9.81,9.81,0,0,1,4.94-1.34,9.74,9.74,0,0,1,4.92,1.34l45.2,26.71a9.51,9.51,0,0,1,3.34,3.3V79.31a9.71,9.71,0,0,1,5.57-8.76L-52.68,52.2a9.59,9.59,0,0,1,4.14-.93,9.65,9.65,0,0,1,4.13.93L-5.55,70.55A9.65,9.65,0,0,1,0,79.31ZM-246.41,34.72l-17.7,5.9V172.38h35.39V40.62l-17.69-5.9m95.86,37.56-35.49,21,0,79.15h71V93.23l-35.51-21m102-.61L-77.72,85.44v86.94h58.36V85.44L-48.54,71.67"/></g></svg>