<svg xmlns="http://www.w3.org/2000/svg" viewBox="0 0 279.59 283.46"><defs><style>.cls-1{fill:#1d1d1b;}</style></defs><title>Meat</title><g id="Meat"><path class="cls-1" d="M219.15,92.21a94.77,94.77,0,0,0-58.1-15.71C145.45,77.42,132,66.31,128.82,51a42.91,42.91,0,0,0-2.73-8.65C110,5.79,41.78,7.07,19.63,68.27,3.23,113.59,57.31,187.41,86.5,222.69a95,95,0,0,0,52.84,39.82c1-4,4.59-11.64,9.43-20.15,6.72-11.81,13.37-20.71,14.85-19.86s-2.75,11.11-9.47,22.92c-4.57,8-9.1,14.71-12,17.9a95.1,95.1,0,0,0,110.19-50.89C272.73,170,258.41,118.15,219.15,92.21ZM179.3,135.94c6.72-11.82,13.37-20.71,14.86-19.87s-2.76,11.11-9.48,22.93-13.37,20.71-14.85,19.86S172.59,147.75,179.3,135.94ZM31,108.22c-1.49-.84,8.2-20.68,21.64-44.31s25.53-42.1,27-41.26S71.43,43.34,58,67,32.47,109.07,31,108.22Zm25.83,42.44c-1.49-.84,8.2-20.68,21.63-44.31s25.53-42.11,27-41.26-8.2,20.68-21.64,44.32S58.29,151.51,56.81,150.66ZM78,175c-1.48-.85,8.2-20.69,21.64-44.32s25.53-42.1,27-41.26-8.2,20.69-21.64,44.32S79.44,175.83,78,175Zm57.83-7.18c-13.44,23.63-25.53,42.11-27,41.26s8.2-20.69,21.64-44.32,25.53-42.1,27-41.26S149.21,144.18,135.78,167.81Zm34,43.78a26.06,26.06,0,1,1,35.53-9.77A26.06,26.06,0,0,1,169.82,211.59ZM251,160.15c1.49.84-8.2,20.69-21.64,44.32s-25.53,42.1-27,41.26S210.57,225,224,201.41,249.54,159.3,251,160.15ZM234.59,110.2c1.49.84-2.75,11.11-9.47,22.92S211.75,153.83,210.26,153s2.76-11.11,9.48-22.93S233.11,109.35,234.59,110.2Z"/><path class="cls-1" d="M230.34,81.42A110.09,110.09,0,0,0,169.51,63c-2.16,0-4.35.07-6.51.19-.5,0-1,.05-1.5.05-12.14,0-22.83-9.05-25.41-21.52a54.23,54.23,0,0,0-3.42-10.86C124.28,11.84,104.34,0,80.63,0V0h0C55,0,19.53,15.55,3.68,59.34c-18.63,51.48,37.7,130.79,73.17,173.72a110.19,110.19,0,0,0,192-12.26C292.52,171.5,276,111.58,230.34,81.42ZM262,217.51A102.61,102.61,0,0,1,83,228.58C51.49,190.5-6.88,110.83,10.82,61.92,24.46,24.23,54.29,7.6,80.62,7.59c19.82,0,37.64,9.41,45.1,26.36a46.14,46.14,0,0,1,2.94,9.34c3.28,15.87,16.84,27.57,32.84,27.57q1,0,1.95-.06c2-.12,4-.18,6.06-.18a102.32,102.32,0,0,1,56.64,17.13C268.53,115.76,284,171.73,262,217.51Z"/><path class="cls-1" d="M192.72,171.32a20.27,20.27,0,1,0,7.6,27.64A20.26,20.26,0,0,0,192.72,171.32Z"/><path class="cls-1" d="M139.3,265.29c.47.27,1.48-.47,2.85-2-.94-.25-1.88-.53-2.81-.81C138.93,264.05,138.88,265.05,139.3,265.29Z"/></g></svg>