<svg xmlns="http://www.w3.org/2000/svg" viewBox="0 0 283.45 283.45"><defs><style>.cls-1{fill:#1d1d1b;}</style></defs><title>Mechanical</title><g id="Mechanical"><path class="cls-1" d="M256.69,99.64l26.76-10.43a102,102,0,0,0-3.27-16.79,103.76,103.76,0,0,0-6.08-16l-28.22,5.24A72.49,72.49,0,0,0,235,48l11.55-26.32A101.57,101.57,0,0,0,216.7,5.12L200.45,28.76a73.47,73.47,0,0,0-17.44-2L172.56,0a99.77,99.77,0,0,0-16.73,3.24h0a101.49,101.49,0,0,0-16,6.08l5.24,28.26a73.93,73.93,0,0,0-13.75,10.88L105.05,37A100.83,100.83,0,0,0,88.47,66.75l5.68,3.88c2.16-.11,4.33-.27,6.48-.27h0A113.52,113.52,0,0,1,119.6,72l9,1.5.84,9.05,2,20.95c1.18.45,2.37.93,3.54,1.44l10.43-8.61a38.28,38.28,0,1,1,48.58,40.59,39,39,0,0,1-6.84,1.21l-8.59,10.36c.52,1.19,1,2.4,1.47,3.57l20.91,2,9,.86,1.54,8.91a113.67,113.67,0,0,1,1.64,19,111.25,111.25,0,0,1-.94,13.54A105,105,0,0,0,227,190.76l-5.26-28.27a72.39,72.39,0,0,0,13.75-10.91l26.33,11.52a101.18,101.18,0,0,0,16.51-29.77l-23.63-16.25A71.85,71.85,0,0,0,256.69,99.64Z"/><path class="cls-1" d="M100.65,82.18a102.11,102.11,0,0,1,17,1.46l2.72,28.62A73.14,73.14,0,0,1,136.54,119l22.14-18.28a101.61,101.61,0,0,1,24.12,24.09l-18.32,22.12a73.47,73.47,0,0,1,6.75,16.22l28.55,2.71a100.05,100.05,0,0,1,0,34.06l-28.56,2.73a72.27,72.27,0,0,1-6.74,16.18l18.27,22.13a101.37,101.37,0,0,1-24,24.08l-22.18-18.32a71.69,71.69,0,0,1-16.19,6.74L117.64,282a101.88,101.88,0,0,1-34,0l-2.71-28.61a72.23,72.23,0,0,1-16.21-6.74L42.54,265a101.23,101.23,0,0,1-24-24.08l18.27-22.13A72.82,72.82,0,0,1,30,202.57l-28.57-2.7a99.38,99.38,0,0,1,0-34.06L30,163.1a73.89,73.89,0,0,1,6.73-16.22L18.45,124.76A100.61,100.61,0,0,1,42.58,100.7L64.7,119a74,74,0,0,1,16.21-6.68l2.71-28.63a102.72,102.72,0,0,1,17-1.46m0,139a38.32,38.32,0,1,0-38.34-38.33,38.28,38.28,0,0,0,38.34,38.33"/></g></svg>