<svg xmlns="http://www.w3.org/2000/svg" viewBox="0 0 236.22 283.46"><defs><style>.cls-1{fill:#1d1d1b;fill-rule:evenodd;}</style></defs><title>Meeple rect</title><g id="Meeple_rect" data-name="Meeple rect"><path class="cls-1" d="M233.72,58.32,177.87,2.5a8.54,8.54,0,0,0-6-2.5H64.39a8.54,8.54,0,0,0-6,2.5L2.5,58.32a8.57,8.57,0,0,0-2.5,6V219.1a8.55,8.55,0,0,0,2.5,6L58.35,281a8.54,8.54,0,0,0,6,2.5H171.83a8.54,8.54,0,0,0,6-2.5l55.85-55.82a8.55,8.55,0,0,0,2.5-6V64.36A8.57,8.57,0,0,0,233.72,58.32ZM138.53,8.54V15.2H97.7V8.54ZM8.54,97.68h6.64v88.1H8.54V97.68ZM97.7,274.92v-6.66h40.83v6.66Zm74.13,0h-.05V250.58l-8.9,8.36H73.34l-8.89-8.36v24.34h-.06L8.54,219.1V219H32.87l-8.37-8.89V73.34l8.37-8.89H8.54v-.09L64.39,8.54h.06V32.88l8.89-8.36h89.54l8.9,8.36V8.54h.05l55.85,55.82v.09H203.35l8.37,8.89V210.12L203.35,219h24.33v.09Zm55.85-89.14H221V97.68h6.64v88.1Z"/><polygon class="cls-1" points="48.99 27.38 27.92 48.97 48.99 48.97 48.99 27.38"/><polygon class="cls-1" points="45.6 51.72 24.53 51.72 19.03 57.22 40.09 57.22 45.6 51.72"/><polygon class="cls-1" points="57.22 19.04 51.71 24.54 51.71 45.61 57.22 40.1 57.22 19.04"/><polygon class="cls-1" points="187.23 27.38 187.23 48.97 208.3 48.97 187.23 27.38"/><polygon class="cls-1" points="196.13 57.22 217.19 57.22 211.69 51.72 190.62 51.72 196.13 57.22"/><polygon class="cls-1" points="184.51 24.54 179 19.04 179 40.1 184.51 45.61 184.51 24.54"/><polygon class="cls-1" points="187.23 256.08 208.3 234.5 187.23 234.5 187.23 256.08"/><polygon class="cls-1" points="190.62 231.75 211.69 231.75 217.19 226.24 196.13 226.24 190.62 231.75"/><polygon class="cls-1" points="179 264.42 184.51 258.92 184.51 237.85 179 243.36 179 264.42"/><polygon class="cls-1" points="48.99 256.08 48.99 234.5 27.92 234.5 48.99 256.08"/><polygon class="cls-1" points="40.09 226.24 19.03 226.24 24.53 231.75 45.6 231.75 40.09 226.24"/><polygon class="cls-1" points="51.71 258.92 57.22 264.42 57.22 243.36 51.71 237.85 51.71 258.92"/><path class="cls-1" d="M182.26,118.39a156.69,156.69,0,0,0-36.69-17.84c-2.43-.81-3.63-2-3.86-4.63a45.1,45.1,0,0,0-1.59-9,23.13,23.13,0,0,0-44,0,47.34,47.34,0,0,0-1.59,9c-.23,2.65-1.43,3.82-3.86,4.63A156.5,156.5,0,0,0,54,118.39c-4.22,2.82-7.24,6.94-6.62,12.06s4.56,8.52,9.37,10.44a19.1,19.1,0,0,0,3.74.92c4.18.74,8.35,1.35,12.51,2.15,3.7.68,4.39,2.13,3,5.68C70.52,163,65.05,176.4,59.76,189.82c-2.52,6.36-4.67,12.87-7,19.32-.75,2.09-.16,3.25,2.2,3.17.91,0,1.83.11,2.76.11,13.74,0,27.46,0,41.2.18,3,0,4.35-1.16,5.51-3.82,3.29-7.65,6.81-15.2,10.45-22.69,1.26-2.61,2.18-3.64,3.2-3.07,1-.57,1.93.46,3.19,3.07,3.65,7.49,7.16,15,10.46,22.69,1.15,2.66,2.52,3.85,5.52,3.82,13.73-.18,27.45-.14,41.19-.18.92,0,1.83-.13,2.75-.11,2.36.08,2.95-1.08,2.21-3.17-2.3-6.45-4.46-13-7-19.32-5.28-13.42-10.76-26.8-16.15-40.18-1.43-3.55-.75-5,3-5.68,4.16-.8,8.35-1.41,12.53-2.15a19.64,19.64,0,0,0,3.74-.92c4.79-1.92,8.74-5.19,9.37-10.44S186.48,121.21,182.26,118.39Z"/></g></svg>