<svg xmlns="http://www.w3.org/2000/svg" viewBox="0 0 283.46 283.46"><defs><style>.cls-1,.cls-2{fill:#1d1d1b;}.cls-1{fill-rule:evenodd;}</style></defs><title>Meeple return</title><g id="Meeple_return" data-name="Meeple return"><path class="cls-1" d="M283.31,119.17c-1.25,10.5-9.16,17-18.75,20.87a38.4,38.4,0,0,1-7.48,1.85c-8.35,1.47-16.74,2.7-25.06,4.29-7.42,1.38-8.77,4.27-5.91,11.36,10.78,26.76,21.75,53.52,32.29,80.37,5.05,12.73,9.38,25.74,14,38.63,1.48,4.18.3,6.51-4.42,6.36-1.83,0-3.66.21-5.49.21-27.49.09-54.93,0-82.39.35-6,.06-8.75-2.3-11-7.63-6.58-15.31-13.62-30.41-20.92-45.38-2.52-5.22-4.35-7.29-6.37-6.15-2-1.14-3.87.93-6.39,6.15-7.28,15-14.34,30.07-20.91,45.38-2.32,5.33-5.06,7.69-11,7.63-27.47-.35-54.92-.26-82.39-.35-1.86,0-3.69-.26-5.53-.21-4.71.15-5.89-2.18-4.39-6.36,4.6-12.89,8.9-25.9,14-38.63,10.57-26.85,21.51-53.61,32.29-80.37,2.87-7.09,1.48-10-5.91-11.36-8.32-1.59-16.68-2.82-25-4.29A37.2,37.2,0,0,1,18.91,140C9.29,136.21,1.39,129.67.16,119.17-1.08,108.92,5,100.69,13.41,95.05A312.53,312.53,0,0,1,86.78,59.37c4.87-1.62,7.27-4,7.72-9.27a94.2,94.2,0,0,1,3.19-18C103.43,12.5,122.5-.41,141.73,0c19.2-.42,38.28,12.49,44,32.05a91.93,91.93,0,0,1,3.19,18c.45,5.3,2.85,7.65,7.72,9.27A312.53,312.53,0,0,1,270,95.05C278.48,100.69,284.51,108.92,283.31,119.17ZM108.24,144.5H94.94l20.38,30.68,20.36-30.68H123.46a25.13,25.13,0,1,1,47.43,14.82l14.9,3.7a40.23,40.23,0,1,0-77.55-18.52Z"/></g><g id="Meeple_move" data-name="Meeple move"><path class="cls-2" d="M-13.43,95.05A312.6,312.6,0,0,0-86.81,59.37c-4.86-1.62-7.26-4-7.72-9.27a91.91,91.91,0,0,0-3.18-18C-103.45,12.5-122.54-.41-141.73,0-161-.41-180,12.5-185.78,32.06a95,95,0,0,0-3.18,18c-.45,5.3-2.85,7.65-7.72,9.27a312.6,312.6,0,0,0-73.38,35.68c-8.44,5.64-14.48,13.87-13.24,24.12,1.23,10.5,9.12,17,18.75,20.87a37.2,37.2,0,0,0,7.48,1.85c8.35,1.47,16.7,2.7,25,4.29,7.4,1.38,8.78,4.27,5.92,11.36-10.79,26.76-21.72,53.52-32.3,80.37-5,12.73-9.34,25.74-13.94,38.63-1.5,4.18-.33,6.51,4.39,6.36,1.83,0,3.66.21,5.53.21,27.47.09,54.92,0,82.39.35,6,.06,8.7-2.3,11-7.63,6.58-15.31,13.64-30.41,20.91-45.38,2.52-5.22,4.36-7.29,6.4-6.15,2-1.14,3.85.93,6.37,6.15,7.3,15,14.33,30.07,20.92,45.38,2.3,5.33,5,7.69,11,7.63,27.46-.35,54.89-.26,82.39-.35,1.82,0,3.65-.26,5.49-.21,4.72.15,5.89-2.18,4.42-6.36-4.6-12.89-8.93-25.9-14-38.63-10.55-26.85-21.52-53.61-32.3-80.37-2.86-7.09-1.5-10,5.92-11.36,8.32-1.59,16.71-2.82,25.06-4.29A38.4,38.4,0,0,0-18.9,140c9.58-3.83,17.49-10.37,18.75-20.87C1.05,108.92-5,100.69-13.43,95.05Zm-157.51,74-10.9-10.9,16.37-16.39-16.36-16.34,10.92-10.92,27.24,27.26Zm32.95,9.12-14.54-14.59,21.82-21.82-21.82-21.81L-138,105.34l21.81,21.83v0l14.53,14.57Z"/></g></svg>