<svg xmlns="http://www.w3.org/2000/svg" viewBox="0 0 283.46 283.46"><defs><style>.cls-1{fill:#1d1d1b;fill-rule:evenodd;}</style></defs><title>Meeple add</title><g id="Meeple_minus" data-name="Meeple minus"><path class="cls-1" d="M566.78,119.17c-1.26,10.5-9.17,17-18.75,20.87a38.58,38.58,0,0,1-7.48,1.85c-8.36,1.47-16.74,2.7-25.06,4.29-7.42,1.37-8.78,4.27-5.92,11.36,10.78,26.76,21.75,53.52,32.3,80.37,5,12.73,9.37,25.74,14,38.63,1.47,4.18.3,6.51-4.42,6.36-1.84,0-3.67.21-5.5.21-27.49.09-54.92,0-82.38.35-6,.06-8.75-2.3-11.05-7.63-6.59-15.31-13.62-30.41-20.92-45.38-2.52-5.22-4.35-7.28-6.37-6.15-2-1.13-3.88.93-6.4,6.15-7.27,15-14.33,30.07-20.91,45.38-2.32,5.33-5.05,7.69-11,7.63-27.47-.35-54.93-.26-82.4-.35-1.86,0-3.69-.26-5.52-.21-4.72.15-5.89-2.18-4.39-6.36,4.6-12.89,8.9-25.9,13.94-38.63,10.57-26.85,21.51-53.61,32.3-80.37,2.86-7.09,1.47-10-5.92-11.36-8.32-1.59-16.67-2.82-25-4.29a37.36,37.36,0,0,1-7.48-1.85c-9.62-3.83-17.52-10.37-18.75-20.87-1.23-10.25,4.81-18.48,13.25-24.12a312.6,312.6,0,0,1,73.38-35.68c4.87-1.62,7.27-4,7.72-9.27a94.83,94.83,0,0,1,3.18-18C386.89,12.5,406-.41,425.2,0c19.19-.42,38.27,12.49,44,32.05a91.07,91.07,0,0,1,3.19,18c.45,5.3,2.86,7.65,7.72,9.27A312.6,312.6,0,0,1,553.5,95.05C561.94,100.69,568,108.92,566.78,119.17Zm-91,9.54a5,5,0,0,0-5-5H379.64a5,5,0,0,0-5,5v26a5,5,0,0,0,5,5h91.11a5,5,0,0,0,5-5Z"/></g><g id="Meeple_add" data-name="Meeple add"><path class="cls-1" d="M283.31,119.17c-1.25,10.5-9.16,17-18.75,20.87a38.22,38.22,0,0,1-7.48,1.85c-8.35,1.47-16.74,2.7-25.06,4.29-7.42,1.37-8.77,4.27-5.91,11.36,10.78,26.76,21.75,53.52,32.29,80.37,5.05,12.73,9.38,25.74,14,38.63,1.47,4.18.29,6.51-4.43,6.36-1.83,0-3.66.21-5.49.21-27.49.09-54.92,0-82.38.35-6,.06-8.75-2.3-11.06-7.63-6.58-15.31-13.62-30.41-20.92-45.38-2.52-5.22-4.35-7.28-6.37-6.15-2-1.13-3.87.93-6.39,6.15-7.28,15-14.34,30.07-20.91,45.38-2.32,5.33-5.06,7.69-11,7.63-27.47-.35-54.92-.26-82.39-.35-1.86,0-3.69-.26-5.53-.21-4.71.15-5.89-2.18-4.39-6.36,4.6-12.89,8.9-25.9,14-38.63,10.57-26.85,21.51-53.61,32.29-80.37,2.87-7.09,1.48-10-5.91-11.36-8.32-1.59-16.68-2.82-25-4.29A37.36,37.36,0,0,1,18.91,140C9.29,136.21,1.39,129.67.16,119.17-1.08,108.92,5,100.69,13.41,95.05A312.53,312.53,0,0,1,86.78,59.37c4.87-1.62,7.27-4,7.72-9.27a94.84,94.84,0,0,1,3.19-18C103.43,12.5,122.5-.41,141.73,0c19.2-.42,38.28,12.49,44,32.05a91.8,91.8,0,0,1,3.19,18c.45,5.3,2.85,7.65,7.72,9.27A312.53,312.53,0,0,1,270,95.05C278.48,100.69,284.51,108.92,283.31,119.17Zm-91,9.54a5,5,0,0,0-5-5H159.74V96.18a5,5,0,0,0-5-5h-26a5,5,0,0,0-5,5v27.53H96.17a5,5,0,0,0-5,5v26a5,5,0,0,0,5,5h27.55v27.54a5,5,0,0,0,5,5h26a5,5,0,0,0,5-5V159.75h27.55a5,5,0,0,0,5-5Z"/></g></svg>