<svg xmlns="http://www.w3.org/2000/svg" viewBox="0 0 236.22 236.22"><defs><style>.cls-1{fill:#1d1d1b;fill-rule:evenodd;}</style></defs><title>Meeple circle</title><g id="Meeple_circle" data-name="Meeple circle"><path class="cls-1" d="M6.83,89.54l-3.18-.81A117.8,117.8,0,0,0,.9,103.31l3.26.41A115,115,0,0,1,6.83,89.54Z"/><path class="cls-1" d="M17.41,62.74l-2.88-1.58A115.85,115.85,0,0,0,8.22,74.6l3,1.2A115,115,0,0,1,17.41,62.74Z"/><path class="cls-1" d="M14.64,175a120.16,120.16,0,0,0,8,12.51l2.66-1.94a115.23,115.23,0,0,1-7.75-12.16Z"/><path class="cls-1" d="M3.71,147.51a116.92,116.92,0,0,0,4.6,14.12l3-1.22a115,115,0,0,1-4.47-13.72Z"/><path class="cls-1" d="M3.29,118.12H0a121.51,121.51,0,0,0,.93,14.8l3.27-.41A115,115,0,0,1,3.29,118.12Z"/><path class="cls-1" d="M34.32,39.43l-2.4-2.25a117.33,117.33,0,0,0-9.45,11.44l2.66,1.93A113.45,113.45,0,0,1,34.32,39.43Z"/><path class="cls-1" d="M168.23,10.92a116.76,116.76,0,0,0-13.81-5.44l-1,3.13a113.64,113.64,0,0,1,13.42,5.29Z"/><path class="cls-1" d="M140.05,1.82A118.6,118.6,0,0,0,125.33,0l-.19,3.28a115.88,115.88,0,0,1,14.3,1.77Z"/><path class="cls-1" d="M235.27,102.93a116.46,116.46,0,0,0-2.8-14.58l-3.18.82A115.38,115.38,0,0,1,232,103.34Z"/><path class="cls-1" d="M110.72,3.31,110.51,0A120.7,120.7,0,0,0,95.8,1.89l.62,3.23A113.82,113.82,0,0,1,110.72,3.31Z"/><path class="cls-1" d="M56.46,21l-1.77-2.78a119.61,119.61,0,0,0-12,8.75l2.1,2.53A115.66,115.66,0,0,1,56.46,21Z"/><path class="cls-1" d="M82.46,8.72l-1-3.13a117.67,117.67,0,0,0-13.78,5.49l1.41,3A114.48,114.48,0,0,1,82.46,8.72Z"/><path class="cls-1" d="M34.46,196.72,32.06,199a119.41,119.41,0,0,0,10.82,10.16L45,206.59A115.33,115.33,0,0,1,34.46,196.72Z"/><path class="cls-1" d="M191.31,206.54l2.1,2.54a119.29,119.29,0,0,0,10.8-10.17l-2.39-2.25A115.44,115.44,0,0,1,191.31,206.54Z"/><path class="cls-1" d="M211,185.54l2.66,1.94a119.38,119.38,0,0,0,8-12.53l-2.88-1.58A113.69,113.69,0,0,1,211,185.54Z"/><path class="cls-1" d="M204.06,36.92l-2.39,2.26a116.31,116.31,0,0,1,9.22,11.09l2.65-1.93A117.64,117.64,0,0,0,204.06,36.92Z"/><path class="cls-1" d="M221.52,60.84l-2.88,1.59a113.91,113.91,0,0,1,6.17,13l3.05-1.21A117.19,117.19,0,0,0,221.52,60.84Z"/><path class="cls-1" d="M232.93,117.74V118a117.08,117.08,0,0,1-.89,14.4l3.26.41a119.81,119.81,0,0,0,.92-14.81v-.26Z"/><path class="cls-1" d="M54.88,217.86a118.92,118.92,0,0,0,13,7.15l1.4-3a114.11,114.11,0,0,1-12.63-7Z"/><path class="cls-1" d="M224.9,160.31l3.06,1.21a118.18,118.18,0,0,0,4.58-14.13l-3.18-.81A113.94,113.94,0,0,1,224.9,160.31Z"/><path class="cls-1" d="M118.15,232.92c-2.38,0-4.82-.07-7.19-.22l-.21,3.28c2.45.16,4.92.28,7.4.23s5-.08,7.43-.23l-.21-3.29C123,232.84,120.55,232.92,118.15,232.92Z"/><path class="cls-1" d="M81.67,230.48A118.2,118.2,0,0,0,96,234.15l.61-3.23a117,117,0,0,1-14-3.57Z"/><path class="cls-1" d="M139.68,230.9l.61,3.23a116.46,116.46,0,0,0,14.37-3.69l-1-3.13A115.24,115.24,0,0,1,139.68,230.9Z"/><path class="cls-1" d="M167,222l1.4,3a118.69,118.69,0,0,0,13-7.16L179.66,215A114,114,0,0,1,167,222Z"/><path class="cls-1" d="M181.23,18.07l-1.76,2.78a112.74,112.74,0,0,1,11.68,8.47l2.09-2.54A118.07,118.07,0,0,0,181.23,18.07Z"/><path class="cls-1" d="M183.93,94.66a155.91,155.91,0,0,0-36.69-17.84c-2.43-.81-3.63-2-3.86-4.64a45.23,45.23,0,0,0-1.59-9,23.14,23.14,0,0,0-44,0,47.5,47.5,0,0,0-1.6,9c-.22,2.65-1.42,3.83-3.86,4.64A156,156,0,0,0,55.62,94.66c-4.22,2.82-7.24,6.93-6.63,12.06s4.57,8.51,9.38,10.43a18.78,18.78,0,0,0,3.74.93c4.17.73,8.35,1.34,12.51,2.14,3.7.69,4.39,2.13,3,5.68-5.39,13.38-10.86,26.76-16.15,40.19-2.52,6.36-4.67,12.86-7,19.31-.75,2.09-.16,3.25,2.2,3.18.91,0,1.83.1,2.76.1,13.73,0,27.46,0,41.2.18,3,0,4.35-1.15,5.51-3.81,3.29-7.66,6.82-15.21,10.45-22.69,1.26-2.61,2.18-3.65,3.2-3.08,1-.57,1.92.47,3.19,3.08,3.64,7.48,7.16,15,10.45,22.69,1.16,2.66,2.52,3.84,5.53,3.81,13.73-.18,27.45-.13,41.19-.18.92,0,1.83-.13,2.75-.1,2.36.07,3-1.09,2.21-3.18-2.3-6.45-4.46-13-7-19.31-5.28-13.43-10.76-26.81-16.15-40.19-1.43-3.55-.76-5,2.95-5.68,4.16-.8,8.36-1.41,12.53-2.14a19.49,19.49,0,0,0,3.74-.93c4.8-1.92,8.75-5.19,9.38-10.43S188.15,97.48,183.93,94.66Z"/></g></svg>