<svg xmlns="http://www.w3.org/2000/svg" viewBox="0 0 283.46 283.46"><defs><style>.cls-1,.cls-2{fill:#1d1d1b;}.cls-1{fill-rule:evenodd;}</style></defs><title>Meeple move</title><g id="Meeple_return" data-name="Meeple return"><path class="cls-1" d="M566.78,119.17c-1.26,10.5-9.17,17-18.75,20.87a38.58,38.58,0,0,1-7.48,1.85c-8.36,1.47-16.74,2.7-25.06,4.29-7.42,1.38-8.78,4.27-5.92,11.36,10.78,26.76,21.75,53.52,32.3,80.37,5,12.73,9.37,25.74,14,38.63,1.47,4.18.3,6.51-4.42,6.36-1.84,0-3.67.21-5.5.21-27.49.09-54.92,0-82.38.35-6,.06-8.75-2.3-11.05-7.63-6.59-15.31-13.63-30.41-20.92-45.38-2.52-5.22-4.36-7.29-6.37-6.15-2-1.14-3.88.93-6.4,6.15-7.27,15-14.33,30.07-20.91,45.38-2.32,5.33-5.05,7.69-11,7.63-27.47-.35-54.93-.26-82.4-.35-1.86,0-3.69-.26-5.52-.21-4.72.15-5.89-2.18-4.4-6.36,4.61-12.89,8.9-25.9,13.95-38.63,10.57-26.85,21.51-53.61,32.29-80.37,2.87-7.09,1.48-10-5.91-11.36-8.32-1.59-16.67-2.82-25-4.29a37.36,37.36,0,0,1-7.48-1.85c-9.62-3.83-17.52-10.37-18.75-20.87-1.23-10.25,4.81-18.48,13.25-24.12a312.41,312.41,0,0,1,73.38-35.68c4.87-1.62,7.27-4,7.72-9.27a95,95,0,0,1,3.18-18C386.89,12.5,406-.41,425.2,0c19.19-.42,38.27,12.49,44,32.05a91.2,91.2,0,0,1,3.19,18c.45,5.3,2.86,7.65,7.72,9.27a312.34,312.34,0,0,1,73.37,35.68C561.94,100.69,568,108.92,566.78,119.17ZM391.7,144.5H378.41l20.37,30.68,20.37-30.68H406.92a25.15,25.15,0,0,1,50,4,24.91,24.91,0,0,1-2.55,10.8l14.9,3.7A40.23,40.23,0,1,0,391.7,144.5Z"/></g><g id="Meeple_move" data-name="Meeple move"><path class="cls-2" d="M270,95.05a312.53,312.53,0,0,0-73.37-35.68c-4.87-1.62-7.27-4-7.72-9.27a91.93,91.93,0,0,0-3.19-18C180,12.5,160.93-.41,141.73,0c-19.23-.42-38.3,12.49-44,32.05a94.2,94.2,0,0,0-3.19,18c-.45,5.3-2.85,7.65-7.72,9.27A312.53,312.53,0,0,0,13.41,95.05C5,100.69-1.08,108.92.16,119.17c1.23,10.5,9.13,17,18.75,20.87a37.2,37.2,0,0,0,7.48,1.85c8.35,1.47,16.71,2.7,25,4.29,7.39,1.38,8.78,4.27,5.91,11.36C46.55,184.3,35.61,211.06,25,237.91c-5.05,12.73-9.35,25.74-13.95,38.63-1.5,4.18-.32,6.51,4.39,6.36,1.84,0,3.67.21,5.53.21,27.47.09,54.92,0,82.39.35,6,.06,8.71-2.3,11-7.63,6.57-15.31,13.63-30.41,20.91-45.38,2.52-5.22,4.35-7.29,6.39-6.15,2-1.14,3.85.93,6.37,6.15,7.3,15,14.34,30.07,20.92,45.38,2.3,5.33,5,7.69,11,7.63,27.46-.35,54.9-.26,82.39-.35,1.83,0,3.66-.26,5.49-.21,4.72.15,5.9-2.18,4.42-6.36-4.59-12.89-8.92-25.9-14-38.63-10.54-26.85-21.51-53.61-32.29-80.37-2.86-7.09-1.51-10,5.91-11.36,8.32-1.59,16.71-2.82,25.06-4.29a38.4,38.4,0,0,0,7.48-1.85c9.59-3.83,17.5-10.37,18.75-20.87C284.51,108.92,278.48,100.69,270,95.05Zm-157.5,74-10.9-10.9L118,141.71l-16.35-16.34,10.91-10.92,27.25,27.26Zm32.95,9.12-14.55-14.59,21.82-21.82L130.93,119.9l14.56-14.56,21.8,21.83v0l14.54,14.57Z"/></g></svg>