<svg xmlns="http://www.w3.org/2000/svg" viewBox="0 0 283.46 283.46"><defs><style>.cls-1{fill:#1d1d1b;fill-rule:evenodd;}</style></defs><title>Meeple square</title><g id="Meeple_square" data-name="Meeple square"><path class="cls-1" d="M281,58.33,225.12,2.51A8.55,8.55,0,0,0,219.07,0H64.39a8.5,8.5,0,0,0-6,2.51L2.5,58.33a8.53,8.53,0,0,0-2.5,6V219.1a8.54,8.54,0,0,0,2.5,6L58.35,281a8.54,8.54,0,0,0,6,2.5H219.07a8.58,8.58,0,0,0,6.05-2.5L281,225.14a8.54,8.54,0,0,0,2.5-6V64.36A8.53,8.53,0,0,0,281,58.33ZM141.73,8.54h44v6.67H97.69V8.54ZM8.54,97.69h6.64v88.09H8.54V97.69ZM141.73,274.92h-44v-6.66h88.08v6.66Zm77.34,0h0V250.58l-8.9,8.36H73.34l-8.89-8.36v24.34h-.06L8.54,219.1V219H32.87l-8.37-8.9V73.34l8.37-8.89H8.54v-.09L64.39,8.54h.06V32.89l8.89-8.37H210.12l8.9,8.37V8.54h0l55.85,55.82v.09H250.59L259,73.34V210.12l-8.37,8.9h24.33v.08Zm55.85-89.14h-6.64V97.69h6.64v88.09Z"/><polygon class="cls-1" points="48.99 48.97 48.99 27.38 27.92 48.97 48.99 48.97"/><polygon class="cls-1" points="45.6 51.72 24.53 51.72 19.03 57.23 40.09 57.23 45.6 51.72"/><polygon class="cls-1" points="51.71 45.61 57.22 40.11 57.22 19.05 51.71 24.55 51.71 45.61"/><polygon class="cls-1" points="234.47 27.38 234.47 48.97 255.54 48.97 234.47 27.38"/><polygon class="cls-1" points="243.37 57.23 264.44 57.23 258.93 51.72 237.86 51.72 243.37 57.23"/><polygon class="cls-1" points="226.24 40.11 231.75 45.61 231.75 24.55 226.24 19.05 226.24 40.11"/><polygon class="cls-1" points="234.47 256.08 255.54 234.5 234.47 234.5 234.47 256.08"/><polygon class="cls-1" points="237.86 231.75 258.93 231.75 264.44 226.24 243.37 226.24 237.86 231.75"/><polygon class="cls-1" points="226.24 264.42 231.75 258.92 231.75 237.85 226.24 243.36 226.24 264.42"/><polygon class="cls-1" points="48.99 256.08 48.99 234.5 27.92 234.5 48.99 256.08"/><polygon class="cls-1" points="40.09 226.24 19.03 226.24 24.53 231.75 45.6 231.75 40.09 226.24"/><polygon class="cls-1" points="51.71 258.92 57.22 264.42 57.22 243.36 51.71 237.85 51.71 258.92"/><path class="cls-1" d="M205.88,118.4a156.46,156.46,0,0,0-36.68-17.85c-2.44-.81-3.64-2-3.87-4.63a45.1,45.1,0,0,0-1.59-9,23.13,23.13,0,0,0-44,0,47.34,47.34,0,0,0-1.59,9c-.23,2.65-1.43,3.82-3.86,4.63A156.33,156.33,0,0,0,77.57,118.4c-4.22,2.81-7.24,6.93-6.62,12s4.56,8.52,9.37,10.44a19.1,19.1,0,0,0,3.74.92c4.18.74,8.36,1.35,12.52,2.15,3.69.69,4.38,2.13,3,5.68C94.14,163,88.67,176.4,83.38,189.82c-2.52,6.37-4.67,12.87-7,19.32-.75,2.09-.16,3.25,2.2,3.18.91,0,1.83.1,2.76.1,13.74.05,27.46,0,41.2.18,3,0,4.35-1.15,5.51-3.82,3.29-7.65,6.81-15.2,10.46-22.69,1.25-2.61,2.17-3.64,3.19-3.07,1-.57,1.93.46,3.19,3.07,3.65,7.49,7.17,15,10.46,22.69,1.15,2.67,2.52,3.85,5.52,3.82,13.73-.18,27.45-.13,41.2-.18.91,0,1.82-.13,2.74-.1,2.36.07,2.95-1.09,2.21-3.18-2.3-6.45-4.46-12.95-7-19.32-5.28-13.42-10.76-26.8-16.15-40.18-1.43-3.55-.75-5,3-5.68,4.16-.8,8.35-1.41,12.53-2.15a19.64,19.64,0,0,0,3.74-.92c4.79-1.92,8.74-5.19,9.37-10.44S210.1,121.21,205.88,118.4Z"/></g></svg>