<svg xmlns="http://www.w3.org/2000/svg" viewBox="0 0 283.46 283.46"><defs><style>.cls-1{fill:#1d1d1b;fill-rule:evenodd;}</style></defs><title>Meeple place</title><g id="Meeple_place" data-name="Meeple place"><path class="cls-1" d="M283.31,119.17c-1.25,10.5-9.16,17-18.75,20.87a38.4,38.4,0,0,1-7.48,1.85c-8.35,1.47-16.74,2.7-25.06,4.29-7.42,1.38-8.77,4.27-5.91,11.36,10.78,26.76,21.75,53.52,32.29,80.37,5.05,12.73,9.38,25.74,14,38.63,1.48,4.18.3,6.51-4.42,6.36-1.83,0-3.66.21-5.49.21-27.49.09-54.93,0-82.39.35-6,.06-8.75-2.3-11-7.63-6.58-15.31-13.62-30.41-20.92-45.38-2.52-5.22-4.35-7.29-6.37-6.15-2-1.14-3.87.93-6.39,6.15-7.28,15-14.34,30.07-20.91,45.38-2.32,5.33-5.06,7.69-11,7.63-27.47-.35-54.92-.26-82.39-.35-1.86,0-3.69-.26-5.53-.21-4.71.15-5.89-2.18-4.39-6.36,4.6-12.89,8.9-25.9,14-38.63,10.57-26.85,21.51-53.61,32.29-80.37,2.87-7.09,1.48-10-5.91-11.36-8.32-1.59-16.68-2.82-25-4.29A37.2,37.2,0,0,1,18.91,140C9.29,136.21,1.39,129.67.16,119.17-1.08,108.92,5,100.69,13.41,95.05A312.53,312.53,0,0,1,86.78,59.37c4.87-1.62,7.27-4,7.72-9.27a94.2,94.2,0,0,1,3.19-18C103.43,12.5,122.5-.41,141.73,0c19.2-.42,38.28,12.49,44,32.05a91.93,91.93,0,0,1,3.19,18c.45,5.3,2.85,7.65,7.72,9.27A312.53,312.53,0,0,1,270,95.05C278.48,100.69,284.51,108.92,283.31,119.17ZM141.72,189a13.74,13.74,0,1,1,13.67-13.74A13.71,13.71,0,0,1,141.72,189Zm19.57-19.55a20.34,20.34,0,0,0-39.12,0,90.23,90.23,0,0,0-10.34-7.92,195.84,195.84,0,0,0,29.89-67,195.7,195.7,0,0,0,29.91,67A85.29,85.29,0,0,0,161.29,169.42Z"/></g></svg>