<svg xmlns="http://www.w3.org/2000/svg" viewBox="0 0 283.46 283.47"><defs><style>.cls-1{fill:#1d1d1b;}</style></defs><title>Melee</title><g id="Double_melee" data-name="Double melee"><path class="cls-1" d="M246.18,298l26.73-4L269,320.74l-96.44,96.45,4.46,4.48L277.81,320.88a3.38,3.38,0,0,0,.92-1.82l4.7-31.87a3.35,3.35,0,0,0-.92-2.78,3.25,3.25,0,0,0-2.79-.91l-31.82,4.71a3.2,3.2,0,0,0-1.81.93L145.28,389.94l4.46,4.47Z"/><path class="cls-1" d="M.94,284.42A3.31,3.31,0,0,0,0,287.21L4.75,319a3.25,3.25,0,0,0,.92,1.81l177.08,177.1-7.36,7.39a3.27,3.27,0,0,0-.95,2.3v31a3.26,3.26,0,0,0,5.56,2.32l28.65-28.66L244.43,548l3.62,10.89a3.22,3.22,0,0,0,2.06,2.07l17.4,5.79a3.32,3.32,0,0,0,3.33-.79l11.67-11.58a3.29,3.29,0,0,0,.95-2.31,3.37,3.37,0,0,0-.16-1l-5.84-17.45a3.25,3.25,0,0,0-2.06-2.06l-10.83-3.62-35.8-35.76,28.67-28.73a3.24,3.24,0,0,0-2.3-5.54h-31a3.19,3.19,0,0,0-2.31,1l-7.37,7.37-177-177.1a3.41,3.41,0,0,0-1.83-.92L3.73,283.5A3.34,3.34,0,0,0,.94,284.42ZM270,541.88l2.93,8.71-5.83,5.88-8.74-3-2.86-8.71,5.8-5.8Zm-42-69.06,0,3.86-34.87,34.84-3.83,0-.06-3.82,34.87-34.84ZM37.28,298,212.33,473l-1.92,2L36.86,301.39l-22.17-3.27,3.25,22.17,173.5,173.56-1.91,1.94-175-175-4-26.73Z"/></g><g id="Melee"><path class="cls-1" d="M282.51.94A3.31,3.31,0,0,0,279.72,0L247.9,4.75a3.25,3.25,0,0,0-1.81.92L69,182.76l-7.4-7.37a3.23,3.23,0,0,0-2.29-.95h-31A3.25,3.25,0,0,0,26,180l28.66,28.66L18.91,244.43,8,248.05a3.27,3.27,0,0,0-2.07,2.06L.16,267.52a3.28,3.28,0,0,0,.78,3.32l11.59,11.67a3.29,3.29,0,0,0,2.3,1,3.39,3.39,0,0,0,1.05-.17l17.45-5.84a3.23,3.23,0,0,0,2.05-2.06L39,264.57l35.77-35.8,28.73,28.68a3.25,3.25,0,0,0,5.54-2.31v-31a3.21,3.21,0,0,0-1-2.3l-7.37-7.38,177.1-177a3.41,3.41,0,0,0,.92-1.83l4.7-31.87A3.33,3.33,0,0,0,282.51.94ZM25,270,16.33,273l-5.87-5.83,3-8.73,8.71-2.87,5.79,5.8Zm69.07-42-3.86,0L55.41,193.17l0-3.83,3.81-.06,34.85,34.87ZM269,37.28l-175,175.05-2-1.92L265.54,36.86l3.27-22.17-22.17,3.25L73.08,191.44l-1.94-1.91,175-175,26.73-4Z"/></g></svg>