<svg xmlns="http://www.w3.org/2000/svg" viewBox="0 0 193.2 283.46"><defs><style>.cls-1{fill:#1d1d1b;}</style></defs><title>Mini-boss</title><g id="Mini-boss"><path class="cls-1" d="M152.51,224.39A52.34,52.34,0,0,1,150.22,237c-1.2,3.73-.92,9.79-.92,13.45,0,14.92-2.66,17.63-13.05,18.08l-14.74,5.62c-14,3.2-13,9.36-24.28,9.33H96c-11.29,0-10.3-6.13-24.27-9.33L57,268.51c-10.39-.45-13.08-3.16-13-18.08,0-3.66.25-9.72-1-13.45a53.34,53.34,0,0,1-2.29-12.59c-.42-6.24.61-8.56,2-8.65,1.62-.06,3.81,2.66,5.13,5.92,1.19,3,1.1,8.63,2.65,11.85C55,238,56.12,242,58.69,237.85c2.46.91,5.91-.18,7.7,2,.72.76-.1,3.77,1.14,5.14l4.18.27c.66-6.85,6-4.93,7.3-1.14l3.42-.43c3.12-6.7,8.7-2.39,10.66.67l3.43-.24h.13l3.48.24c1.94-3.06,7.53-7.37,10.61-.67l3.45.43c1.34-3.79,6.66-5.71,7.32,1.14l4.14-.27c1.25-1.37.42-4.38,1.15-5.14,1.82-2.17,5.27-1.08,7.73-2,2.57,4.14,3.72.17,8.22-4.34,1.59-3.22,1.47-8.85,2.64-11.85,1.33-3.26,3.56-6,5.12-5.92S153,218.15,152.51,224.39Z"/><path class="cls-1" d="M151.18,54.56A105.92,105.92,0,0,0,119.3,45c2.82,5.55,5.82,11,9.08,16.25C124.8,62.06,140.3,58.48,151.18,54.56Z"/><path class="cls-1" d="M73.92,45a106.06,106.06,0,0,0-31.85,9.58C52.94,58.44,68.41,62,64.84,61.2,68.11,55.9,71.11,50.48,73.92,45Z"/><path class="cls-1" d="M189.5,94.91a77.4,77.4,0,0,0-8.9-15.56,210.08,210.08,0,0,0-10.24,37l-1.05,5.82-5.77-1.31A85.7,85.7,0,0,0,149.3,119l-7.88-.47,3-7.29,14.35-34.95-1-1-35,14.37-7.34,3-3.2-6.85L97.38,50.2l-1.61,0L81,85.78l-3.23,6.84-7.31-3-35-14.37-1,1,14.38,35,3,7.31-7.88.47a90.15,90.15,0,0,0-14.31,1.91l-5.74,1.26-1-5.78a206.89,206.89,0,0,0-10.21-37A77,77,0,0,0,3.69,94.91c-6.49,15.75-.17,45,4.07,56.08,6.72,4.36,8.57,12.64,10.9,18.22,3.12,7.78-6.25,24.75-6.08,31.33.19,8.47,1.52,13.16,6.81,13.85s10.81,0,11.76-2.1S55.78,209.88,55.4,221c-2.64,4.79-1.52,8.19,3.29,8.19,1.22,0,1.43-2.89,1.88-6,.72-4.89,4.23-4.2,4.23-2.92a19,19,0,0,1,.5,6.3c-.1,1.66-1.76,2.91-1.32,4.72-.75,2.91,2.41,2,4.4,3.21,2.66,1.54,3.87,3.26,7,2.79,1.38-.22.66-6.5,1.48-8.93s5.74-2.43,6,.41c.17,2.39-.59,4.08,0,5.28,2.1,5.15,7.49,3,9.21.95,1-1.19,1.09-7.95,1.68-8.65.8-1.12,2.48-1.95,2.82-1.68h.16c.35-.27,2,.56,2.84,1.68.54.7.7,7.46,1.65,8.65,1.75,2.07,7.14,4.2,9.23-.95.54-1.2-.2-2.89-.05-5.28.26-2.84,5.18-2.71,6-.41s.1,8.71,1.5,8.93c3.08.47,4.28-1.25,6.94-2.79,2-1.17,5.11-.3,4.41-3.21.42-1.81-1.22-3.06-1.34-4.72a19.3,19.3,0,0,1,.48-6.3c0-1.28,3.56-2,4.27,2.92.45,3.15.65,6,1.89,6,4.77,0,5.9-3.4,3.26-8.19-.37-11.07,23.32-10.68,24.28-8.66s6.34,2.68,11.74,2.1,6.62-5.38,6.81-13.85c.16-6.58-9.23-23.55-6.09-31.33,2.33-5.58,4.21-13.86,10.9-18.22C189.67,139.93,196,110.66,189.5,94.91Zm-110.66,70c-8.9,10-23,12.87-37.28,8.71-18.72-5.48-16.65-35.26,1.72-36.06,2.16-.06,4.39-.19,6.71-.17,6.87.11,14.15,1,20.15,4.55C87,151.72,86.13,156.56,78.84,164.88ZM104.1,194c-2.24-2-1.87-6.29-6.87-6.25H96c-5,0-4.64,4.27-6.91,6.25-1.58,2.15-10.91,4-7.83-4.21.91-2.13,10.88-19.27,10.72-19,1.28-1.65,2.18-1.8,4-1.8a2.33,2.33,0,0,1,.54,0h.16a2.46,2.46,0,0,1,.55,0c1.83,0,2.73.15,4,1.8-.13-.25,9.83,16.89,10.77,19C115.05,198,105.73,196.16,104.1,194Zm47.55-20.42c-14.29,4.16-28.4,1.29-37.29-8.71-7.29-8.32-8.19-13.16,8.71-23,6-3.58,13.27-4.44,20.16-4.55,2.3,0,4.53.11,6.69.17C168.31,138.33,170.36,168.11,151.65,173.59Z"/><path class="cls-1" d="M193.2,40.79a213.76,213.76,0,0,0-28.4,74.61,91.91,91.91,0,0,0-15.17-2.07l15.76-38.4-6.28-6.34L120.64,84.38a94.91,94.91,0,0,0-2-15.16A212.82,212.82,0,0,0,193.2,40.79"/><path class="cls-1" d="M96.59,0a217.87,217.87,0,0,0,33.25,74.1c-4.37,2.8-5.32,6.78-9.2,10.28L101.13,44.57l-9.11,0L72.56,84.38c-3.89-3.5-4.83-7.48-9.2-10.24A217,217,0,0,0,96.59,0"/><path class="cls-1" d="M0,40.79A214.7,214.7,0,0,0,74.57,69.22a94.91,94.91,0,0,0-2,15.16L34.09,68.59l-6.32,6.3,15.81,38.44a95.34,95.34,0,0,0-15.18,2A211.9,211.9,0,0,0,0,40.79"/></g></svg>