<svg xmlns="http://www.w3.org/2000/svg" viewBox="0 0 226.08 283.46"><defs><style>.cls-1{fill:#1d1d1b;}</style></defs><title>Minion</title><g id="Minion"><path class="cls-1" d="M176.73,203.45c-1.86-.08-4.48,3.16-6.06,7-1.39,3.54-1.25,10.2-3.11,14-5.31,5.32-6.68,10-9.72,5.11-2.89,1.08-7-.22-9.12,2.35-.87.9.11,4.45-1.34,6.09l-4.92.29c-.77-8.1-7.06-5.8-8.61-1.34l-4.09-.51c-3.64-7.89-10.26-2.83-12.56.81l-4.09-.3H113l-4.08.3c-2.32-3.64-8.91-8.7-12.59-.81l-4,.51c-1.56-4.46-7.84-6.76-8.62,1.34L78.68,238c-1.44-1.64-.47-5.19-1.3-6.09-2.15-2.57-6.22-1.27-9.11-2.35-3.06,4.89-4.43.21-9.77-5.11-1.82-3.81-1.68-10.47-3.11-14-1.56-3.85-4.17-7.09-6.06-7-1.64.12-2.85,2.85-2.34,10.24a61.24,61.24,0,0,0,2.71,14.88c1.39,4.37,1.11,11.56,1.11,15.86-.06,17.65,3.13,20.84,15.4,21.38l17.42,6.61c16.5,3.79,15.35,11.07,28.66,11h1.48c13.32,0,12.2-7.25,28.69-11l17.42-6.61c12.28-.54,15.47-3.73,15.4-21.38,0-4.3-.31-11.49,1.1-15.86a61.24,61.24,0,0,0,2.71-14.88C179.62,206.3,178.41,203.57,176.73,203.45Z"/><path class="cls-1" d="M222.78,60.73c-17.9-43-61.31-61-105.07-60.73h-.06c-1.51,0-3,.12-4.51.17H113C111.46.12,110,0,108.42,0h-.06C64.62-.25,21.22,17.68,3.28,60.73c-7.64,18.59-.2,53.18,4.8,66.25,8,5.13,10.14,14.92,12.9,21.51,3.68,9.19-7.37,29.23-7.18,37,.22,10,1.8,15.55,8.05,16.37s12.75,0,13.86-2.49,29.12-2.84,28.66,10.21c-3.12,5.67-1.78,9.7,3.9,9.7,1.44,0,1.69-3.44,2.21-7.15.85-5.76,5-5,5-3.41a22,22,0,0,1,.58,7.43c-.11,1.93-2.06,3.4-1.55,5.55-.88,3.44,2.86,2.41,5.18,3.8,3.15,1.81,4.57,3.84,8.23,3.3,1.63-.25.78-7.69,1.77-10.58,1-2.68,6.77-2.84,7.07.5.19,2.84-.69,4.83,0,6.23,2.47,6.1,8.84,3.6,10.88,1.14,1.15-1.42,1.3-9.38,2-10.21.94-1.36,2.93-2.33,3.35-2h.17c.41-.32,2.39.65,3.34,2,.64.83.84,8.79,2,10.21,2.08,2.46,8.43,5,10.92-1.14.63-1.4-.25-3.39-.07-6.23.31-3.34,6.12-3.18,7.12-.5,1,2.89.15,10.33,1.76,10.58,3.66.54,5.08-1.49,8.22-3.3,2.34-1.39,6.05-.36,5.21-3.8.5-2.15-1.45-3.62-1.59-5.55a22.85,22.85,0,0,1,.58-7.43c0-1.54,4.2-2.35,5,3.41.53,3.71.78,7.15,2.23,7.15,5.66,0,7-4,3.85-9.7-.42-13,27.54-12.59,28.7-10.21s7.47,3.18,13.87,2.49c6.22-.82,7.81-6.35,8-16.37.19-7.79-10.89-27.83-7.19-37,2.75-6.59,5-16.38,12.89-21.51C223,113.91,230.47,79.32,222.78,60.73ZM92.06,143.39c-10.51,11.79-27.15,15.19-44,10.3-22.11-6.51-19.67-41.66,2-42.61,2.54-.08,5.2-.22,7.93-.19,8.1.11,16.73,1.14,23.82,5.36C101.72,127.84,100.66,133.56,92.06,143.39Zm29.87,34.4c-2.69-2.35-2.23-7.42-8.16-7.35h-1.48c-5.91-.07-5.46,5-8.15,7.35-1.86,2.55-12.89,4.76-9.26-5,1.08-2.53,12.87-22.76,12.7-22.45,1.51-2,2.56-2.16,4.71-2.16.26,0,.46,0,.68,0h.17c.22,0,.41,0,.63,0,2.18,0,3.25.19,4.72,2.16-.17-.31,11.61,19.92,12.69,22.45C134.85,182.55,123.81,180.34,121.93,177.79Zm56.15-24.1c-16.88,4.89-33.55,1.49-44.05-10.3-8.62-9.83-9.68-15.55,10.28-27.14,7.05-4.22,15.69-5.25,23.81-5.36,2.72,0,5.35.11,7.92.19C197.76,112,200.18,147.18,178.08,153.69Z"/></g></svg>