<svg xmlns="http://www.w3.org/2000/svg" viewBox="0 0 283.47 229.22"><defs><style>.cls-1,.cls-2{fill:#1d1d1b;}.cls-2{fill-rule:evenodd;}</style></defs><title>Mountain</title><g id="Hills"><path id="Country" class="cls-1" d="M436.94,42.56A130.66,130.66,0,0,0,344.09,81.7c-1.21,1.23-2.66,3.56-4.24,4.24-1.85.84-3.69,1.72-5.51,2.67A95.28,95.28,0,0,0,307,110.14a94.91,94.91,0,0,0-21.21,41.48A101.36,101.36,0,0,0,283.46,174c0,6.93,8,10.47,13.74,11.75a53.91,53.91,0,0,0,12.28.9H523.64c7.15,0,14.3,0,21.45,0,7,0,16.66-1.81,20.64-8.36,1.37-2.22,1.21-4.64,1.17-7.14,0-3.87-.23-7.72-.62-11.57a129.73,129.73,0,0,0-12-42.91A131.31,131.31,0,0,0,494,55.76,129.72,129.72,0,0,0,436.94,42.56Zm-128.59,130a69.77,69.77,0,0,1,109.78-57.21,71.74,71.74,0,0,0-26.87,40.36,72.9,72.9,0,0,0-1.9,12.65c0,.37-.15,4.2-.15,4.2H308.35Zm105.78,0a46.33,46.33,0,0,1,92.46-4.16,41.51,41.51,0,0,1,.2,4.16H414.13Zm117.52,0A72,72,0,0,0,484,105.33a71.41,71.41,0,0,0-35.21-3c-1.19.19-2.37.41-3.56.68-.58.12-1.17.25-1.74.39-.8.2-.8,0-1.36-.57-1.55-1.42-3.17-2.81-4.81-4.12A94.63,94.63,0,0,0,390,78.56a105,105,0,0,1,152,94Z"/></g><g id="Mountain"><path id="Moutain" class="cls-1" d="M16,229.22c-13.1,0-19.45-9.8-14.08-21.76L54.39,90.37c5.38-12,13.91-9.67,18.54-3.07L80,99.14,120.08,9c5.37-12,14.16-12,19.53,0l37.47,83.49,16.54-37.62c5.53-7.5,14.22-9.16,19.53,0l68.4,152.6c5.37,12-.95,21.76-14.06,21.76ZM64,107.18,36.89,166.83l16.27-4.94L64,178.77l11.16-16.88,16.27,4.94ZM203.31,68.59,171.63,138.2l19-5.78,12.7,19.69,13-19.69,19,5.78Zm-73.4-45L89.18,113l24.42-7.46,16.31,25.35,16.7-25.35L171,113Z"/></g><g id="Forest"><path class="cls-2" d="M-28.3,120.21H0L-56.63,63.59-79.39,86.36q8,8,16.09,16.07a3,3,0,0,1-2.12,5.12H-96.34l33,33.05v0a2.31,2.31,0,0,1,.14.19,2.71,2.71,0,0,1,.46,3,.1.1,0,0,0,0,0l-.06.1a2.68,2.68,0,0,1-2.39,1.74.63.63,0,0,0-.15,0H-84.66c-.71,0-1.21-.06-1.78-.11l23.14,23.15a3,3,0,0,1-2.12,5.12H-75.88v15.8h38.5V169.41H0l-20.88-20.88H0Z"/></g></svg>