<svg xmlns="http://www.w3.org/2000/svg" viewBox="0 0 189.03 283.46"><defs><style>.cls-1{fill:#1d1d1b;}</style></defs><title>Multistrike</title><g id="Multistrike"><path class="cls-1" d="M94.53,283.46a2.39,2.39,0,0,0,1.9-1l13.92-18.77a2.32,2.32,0,0,0,.47-1.41v-182l7.59,0a2.45,2.45,0,0,0,1.67-.7L136,63.65a2.33,2.33,0,0,0,.52-2.58,2.36,2.36,0,0,0-2.19-1.46H104.87V22.84l3.75-7.46a2.36,2.36,0,0,0,0-2.12l-6-11.92A2.38,2.38,0,0,0,100.52,0l-12,0a2.39,2.39,0,0,0-1.68.69,2.52,2.52,0,0,0-.45.62l-6,12a2.36,2.36,0,0,0,0,2.12l3.72,7.43V59.61H54.7a2.4,2.4,0,0,0-2.18,1.46,2.34,2.34,0,0,0,.53,2.59L69,79.6a2.4,2.4,0,0,0,1.68.69h7.57l0,182a2.38,2.38,0,0,0,.47,1.4l14,18.8A2.43,2.43,0,0,0,94.53,283.46Zm-6-270.62,3-6,6,0,3,6-3,6h-6ZM74.65,69.94l2-2h35.84l2,2-1.94,2H76.63Zm8.16,187.9V77.9l2,0V256.29l9.71,13.08,9.72-13.08,0-178.37,2,0V257.81L94.52,273.59Z"/><path class="cls-1" d="M46.47,206.54a1.12,1.12,0,0,0,.75-.66l4.07-10.3a1.29,1.29,0,0,0,.05-.7L29,111.64l3.48-.93a1.19,1.19,0,0,0,.68-.53L38.5,101a1.12,1.12,0,0,0-1.26-1.65l-13.48,3.61L19.27,86.1l.79-3.87a1.09,1.09,0,0,0-.27-1l-4.18-4.72a1.13,1.13,0,0,0-1.13-.34L9,77.64a1.27,1.27,0,0,0-.67.52,2.92,2.92,0,0,0-.13.34L6.94,84.71a1.12,1.12,0,0,0,.26,1l2.59,2.93,4.53,16.82L.83,109.06A1.18,1.18,0,0,0,0,110a1.1,1.1,0,0,0,.57,1.12l9.22,5.33a1.1,1.1,0,0,0,.85.11l3.46-.93L36.4,198.88a1.19,1.19,0,0,0,.39.57l8.7,6.89A1.12,1.12,0,0,0,46.47,206.54Zm-35.89-123,.63-3.1L14,79.68,16,82.07l-.64,3.09-2.72.71Zm.64,27.81.65-1.17,16.4-4.37,1.12.67-.64,1.15L12.38,112ZM38,196.26,15.91,114l.91-.26L38.7,195.3l6,4.79,2.84-7.16L25.73,111.36l.91-.25,22,82.27L45.25,202Z"/><path class="cls-1" d="M142.58,206.55a1.07,1.07,0,0,0,1-.21l8.68-6.88a1.16,1.16,0,0,0,.39-.58l22.3-83.24,3.47.92a1.24,1.24,0,0,0,.86-.11l9.21-5.34A1.08,1.08,0,0,0,189,110a1.11,1.11,0,0,0-.82-1l-13.46-3.59,4.5-16.83,2.63-2.95a1,1,0,0,0,.25-1l-1.26-6.18a1.13,1.13,0,0,0-.81-.86l-5.46-1.47a1.1,1.1,0,0,0-.84.1,1.16,1.16,0,0,0-.29.24l-4.2,4.74a1.16,1.16,0,0,0-.27,1l.8,3.86-4.49,16.82-13.51-3.61a1.12,1.12,0,0,0-1.26,1.64l5.34,9.23a1.17,1.17,0,0,0,.68.54l3.47.92-22.32,83.23a1.29,1.29,0,0,0,0,.7l4.08,10.31A1.2,1.2,0,0,0,142.58,206.55ZM173,82.06l2.09-2.36,2.75.72.62,3.11-2.11,2.36-2.72-.75Zm-13.36,24.41,1.15-.67,16.37,4.38.67,1.16-1.14.68-16.38-4.4Zm-19.28,86.92,22-82.28.92.23-21.88,81.59,2.84,7.16,6.05-4.78,21.88-81.56.9.24-22,82.26L143.78,202Z"/></g></svg>