<svg xmlns="http://www.w3.org/2000/svg" viewBox="0 0 188.25 283.45"><defs><style>.cls-1,.cls-2{fill:#1d1d1b;}.cls-2{fill-rule:evenodd;}</style></defs><title>Normal</title><g id="Normal"><path class="cls-1" d="M124.86,12.43c-11-4.7-22.34-9.18-27.59-11.22L94.13,0,91,1.21c-5.25,2-16.68,6.52-27.63,11.25a54.49,54.49,0,0,0-4.63,21.11c8.92-4.14,22.63-9.86,35.41-14.9,12.78,5,26.47,10.74,35.38,14.9A55.05,55.05,0,0,0,124.86,12.43Z"/><path class="cls-1" d="M186.07,102.27l-.82-8.08c-2.64-29.27-13.11-50.25-33.69-67.69a170.59,170.59,0,0,1,7.95,37.14c4.55,9.18,7.27,19.65,8.4,32.14l.84,8.35c.94,8.65,3.1,28.94,1.77,33.05l.12.07c-1.22,2.77-2.4,7.12-4.23,13.9-4.95,18.28-14.16,52.27-20.55,70.48a5.46,5.46,0,0,1-.61,1.52c-8.26,6.79-17.63,13.52-27.22,20.42-8,5.7-16.08,11.54-23.9,17.62-7.82-6.08-15.93-11.92-23.91-17.62-9.62-6.94-19-13.67-27-20.19a6.09,6.09,0,0,1-.82-1.79c-6.39-18.17-15.59-52.2-20.55-70.46-1.76-6.49-2.9-10.76-4.07-13.52l.14-.08c-1.5-4.46.66-24.75,1.59-33.4l.86-8.35c1.12-12.45,3.83-22.84,8.36-32a170.23,170.23,0,0,1,7.94-37.23C16.11,43.94,5.64,64.92,3,94.19l-.82,8.08C-.36,126-1,138,2,144.64c.45,1.51,1.52,5.5,3,11,5,18.48,14.33,52.89,20.91,71.64a20,20,0,0,0,6,9.26c8.55,7,18.24,14,28.18,21.1,9.57,6.9,19.39,13.94,28.59,21.37l5.47,4.4,5.46-4.4c9.2-7.43,19-14.47,28.59-21.37,9.94-7.12,19.64-14.1,28.22-21.13a19.8,19.8,0,0,0,5.9-9.19c6.58-18.78,15.9-53.15,20.91-71.64,1.49-5.54,2.58-9.57,3-11.05C189.26,138.07,188.62,126,186.07,102.27Z"/><path class="cls-2" d="M28.06,128.86c23.91-2.58,38.18,13.09,59.22,17C71.62,154.64,34.23,163.2,28.06,128.86Z"/><path class="cls-2" d="M101,145.89c21.09-3.94,35.41-19.63,59.21-17C154.08,163.18,116.72,154.67,101,145.89Z"/><path class="cls-1" d="M123.32,86.22c9.63,1.56,21.77,5.55,28.77,8,.33-16.12-.71-61.71-20.68-88.3C139.42,22.26,144.27,46,123.32,86.22Z"/><path class="cls-1" d="M56.81,6c-20,26.59-21,72.18-20.69,88.3,7-2.48,19.15-6.47,28.8-8C43.94,46,48.8,22.26,56.81,6Z"/></g></svg>