<svg xmlns="http://www.w3.org/2000/svg" viewBox="0 0 283.46 226.77"><defs><style>.cls-1{fill:#1d1d1b;}</style></defs><title>Offer</title><g id="Offer"><path class="cls-1" d="M282.18,110.13l-.76-.82c-.74-.8-1.51-1.62-2.31-2.44L259,86.66Q217.24,44.72,175.5,2.74l-.11-.16c-.1-.17-.21-.33-.32-.49a4.83,4.83,0,0,0-4-2.09h-2.39a4.8,4.8,0,0,0-4.83,4.78l0,27.41q0,14.22,0,28.44c-36.28,4.68-126.95,26-161.64,48.76a4.77,4.77,0,0,0,0,8c34.69,22.75,125.37,44.08,161.65,48.76q0,14.22,0,28.44l0,27.41a4.8,4.8,0,0,0,4.83,4.78h2.39a4.83,4.83,0,0,0,4-2.09c.11-.16.22-.32.32-.49l.11-.16,82.32-82.74,21.27-21.37c.82-.84,1.59-1.66,2.33-2.47l.76-.81A4.77,4.77,0,0,0,282.18,110.13Z"/></g><g id="Pay"><path class="cls-1" d="M-1.38,110-62.68,47.8l-73.57-74.69a4.91,4.91,0,0,0-3.49-1.46,4.94,4.94,0,0,0-1.84.36,4.83,4.83,0,0,0-3,4.47v71.9h-134a4.85,4.85,0,0,0-4.87,4.83V173.57a4.85,4.85,0,0,0,4.87,4.82h134v71.9a4.83,4.83,0,0,0,3,4.47,4.94,4.94,0,0,0,1.84.36,4.91,4.91,0,0,0,3.49-1.46L-62.68,179l61.3-62.22A4.82,4.82,0,0,0-1.38,110Z"/></g></svg>