<svg xmlns="http://www.w3.org/2000/svg" viewBox="0 0 224.89 283.46"><defs><style>.cls-1{fill:#1d1d1b;}</style></defs><title>OneSelf</title><g id="OneSelf"><path class="cls-1" d="M87.54,259.9l19.69,19.7c.8.79,1.62,1.56,2.44,2.32l.83.77a2.78,2.78,0,0,0,1.94.77,2.83,2.83,0,0,0,2-.77l.82-.77c.82-.76,1.64-1.53,2.44-2.32l19.69-19.7c28.48-28.49,87.54-90.83,87.54-90.83a2.85,2.85,0,0,0-2.85-2.85l-58.1,0C159.75,130.84,138,36.83,114.84,1.29a2.86,2.86,0,0,0-4.78,0C86.87,36.83,65.15,130.84,61,166.18l-58.1,0A2.85,2.85,0,0,0,0,169.07S59.06,231.41,87.54,259.9Z"/></g></svg>