<svg xmlns="http://www.w3.org/2000/svg" viewBox="0 0 283.46 141.73"><defs><style>.cls-1{fill:#1d1d1b;}</style></defs><title>Open circle</title><g id="Hex_grid_filled" data-name="Hex grid filled"><path class="cls-1" d="M350.66,109.27c.08,0,.13-.1.13-.15V32.61a.25.25,0,0,0-.13-.16L283.83-5.25l0,0,0,0h-.13l-.12,0,0,0h0V147l0,0Z"/></g><g id="Open_circle" data-name="Open circle"><path class="cls-1" d="M240.1,12.51A175.63,175.63,0,0,0,206.84.08a2.37,2.37,0,0,0-3,2.05,92.43,92.43,0,0,1-1.46,9.26,2.39,2.39,0,0,0,1.7,2.8,159.88,159.88,0,0,1,29.62,11.15c22.89,11.52,35.49,26.25,35.49,41.49s-12.6,30-35.49,41.48c-24.45,12.31-57.13,19.08-92,19.08s-67.54-6.77-92-19.08C26.85,96.8,14.25,82.06,14.25,66.83c0-10,5.6-20.1,16.2-29.06A2.4,2.4,0,0,0,31,34.84a93.47,93.47,0,0,1-4-8.75,2.36,2.36,0,0,0-3.68-1C8.08,37.27,0,51.7,0,66.83c0,21,15.4,40.23,43.36,54.31,26.4,13.28,61.33,20.59,98.37,20.59s72-7.31,98.37-20.59c28-14.08,43.36-33.36,43.36-54.31S268.06,26.59,240.1,12.51Z"/></g></svg>