<svg xmlns="http://www.w3.org/2000/svg" viewBox="0 0 254.48 283.46"><defs><style>.cls-1{fill:#1d1d1b;}</style></defs><title>Other</title><g id="Other"><path class="cls-1" d="M152.14,23.56,132.45,3.86c-.8-.79-1.62-1.56-2.44-2.32l-.82-.77A2.82,2.82,0,0,0,127.25,0h0a2.82,2.82,0,0,0-1.94.77l-.83.77c-.82.76-1.64,1.53-2.44,2.32l-19.69,19.7c-28.48,28.49-87.54,90.83-87.54,90.83a2.86,2.86,0,0,0,2.85,2.85l58.1.05s0,0,0,.06H82a10,10,0,0,1,7.07,17.07L80,143.47c.52,2.72,1.09,5.53,1.68,8.41a51,51,0,0,0,19.68,4A57.92,57.92,0,0,0,118,153.35c1.42-.43,2.76-.73,4-1l1.22-.27a10,10,0,0,1,2.29-.27,10.17,10.17,0,0,1,1.75.17,10.41,10.41,0,0,1,1.77-.17,9.91,9.91,0,0,1,2.28.26l1.2.27c1.19.27,2.55.57,4,1a57.76,57.76,0,0,0,16.65,2.57,51,51,0,0,0,19.68-4c.6-2.89,1.16-5.7,1.68-8.41l-9.06-9.06a10,10,0,0,1,7.08-17.07h6.25v0l58.1-.05a2.85,2.85,0,0,0,2.85-2.85S180.62,52.05,152.14,23.56Z"/><path class="cls-1" d="M103.17,203.53c-2.61,1.4-5.24,2.64-7.86,3.75,8.49,29.73,18.86,58.52,29.54,74.89a2.86,2.86,0,0,0,4.78,0c10.68-16.37,21.05-45.16,29.54-74.9q-3.94-1.65-7.87-3.75a66.67,66.67,0,0,1-24.06-21.59A66.74,66.74,0,0,1,103.17,203.53Z"/><path class="cls-1" d="M.19,126.56c.06.28.11.57.18.85L82,127.34,59.25,150.1c4.55,3,8.53,6,12.89,8.34a61.67,61.67,0,0,0,29.24,7.47,67.83,67.83,0,0,0,19.54-3c1.49-.45,3-.74,4.56-1.1l.51.76c-5.23,14-14.35,25.06-27.53,32.13-10.9,5.83-21.52,8.65-31.86,8.65-15,0-29.38-5.93-43.15-17.12h0a1,1,0,0,0-.23.12L.9,208.65l-.9-.9a4.59,4.59,0,0,0,.13-.8q0-39,0-77.92c0-.82,0-1.65.07-2.47"/><path class="cls-1" d="M254.29,126.55c-.06.29-.11.57-.18.86l-81.64-.07,22.75,22.75c-4.55,3-8.52,6-12.89,8.34a61.65,61.65,0,0,1-29.24,7.48,67.76,67.76,0,0,1-19.53-3c-1.49-.45-3.05-.75-4.56-1.1-.18.25-.34.51-.51.76,5.23,14,14.34,25.06,27.53,32.13,10.9,5.83,21.52,8.64,31.85,8.64,15,0,29.39-5.92,43.16-17.11h0a.48.48,0,0,1,.22.12q11.17,11.13,22.33,22.29.45-.47.9-.9a4.59,4.59,0,0,1-.13-.8q0-39,0-77.92c0-.83,0-1.65-.07-2.48"/></g></svg>