<svg xmlns="http://www.w3.org/2000/svg" viewBox="0 0 236.22 236.22"><defs><style>.cls-1{fill:#1d1d1b;}</style></defs><title>Pawn circle</title><g id="Pawn_circle" data-name="Pawn circle"><path class="cls-1" d="M3.29,118.13H0a119.82,119.82,0,0,0,.93,14.81l3.26-.41A117.08,117.08,0,0,1,3.29,118.13Z"/><path class="cls-1" d="M6.83,89.55l-3.18-.82A117.61,117.61,0,0,0,.9,103.32l3.27.4A112.68,112.68,0,0,1,6.83,89.55Z"/><path class="cls-1" d="M14.64,175.05a120.16,120.16,0,0,0,8,12.51l2.65-1.94a116.78,116.78,0,0,1-7.74-12.16Z"/><path class="cls-1" d="M3.71,147.52a118,118,0,0,0,4.6,14.11l3-1.21A115.63,115.63,0,0,1,6.89,146.7Z"/><path class="cls-1" d="M34.46,196.73,32.06,199a119.41,119.41,0,0,0,10.82,10.16L45,206.6A115.33,115.33,0,0,1,34.46,196.73Z"/><path class="cls-1" d="M235.27,102.93a120.19,120.19,0,0,0-2.8-14.58l-3.18.83A112.81,112.81,0,0,1,232,103.35Z"/><path class="cls-1" d="M140.05,1.82A119.07,119.07,0,0,0,125.33,0l-.2,3.28a116,116,0,0,1,14.31,1.77Z"/><path class="cls-1" d="M110.72,3.31,110.51,0A118.52,118.52,0,0,0,95.8,1.89l.62,3.23A113.82,113.82,0,0,1,110.72,3.31Z"/><path class="cls-1" d="M34.31,39.43l-2.39-2.25a118.79,118.79,0,0,0-9.45,11.44l2.66,1.93A116.27,116.27,0,0,1,34.31,39.43Z"/><path class="cls-1" d="M54.88,217.86a117.31,117.31,0,0,0,13,7.16l1.39-3a115.7,115.7,0,0,1-12.63-6.95Z"/><path class="cls-1" d="M82.45,8.72l-1-3.13a117.67,117.67,0,0,0-13.78,5.49l1.4,3A115.9,115.9,0,0,1,82.45,8.72Z"/><path class="cls-1" d="M56.45,21l-1.76-2.77a118,118,0,0,0-12,8.74l2.1,2.53A117.85,117.85,0,0,1,56.45,21Z"/><path class="cls-1" d="M17.41,62.74l-2.88-1.58A118.39,118.39,0,0,0,8.21,74.6l3.06,1.21A114.37,114.37,0,0,1,17.41,62.74Z"/><path class="cls-1" d="M211,185.55l2.66,1.94a120.43,120.43,0,0,0,8-12.53l-2.88-1.59A115.42,115.42,0,0,1,211,185.55Z"/><path class="cls-1" d="M204.06,36.92l-2.39,2.26a115.21,115.21,0,0,1,9.22,11.1l2.65-2A120.22,120.22,0,0,0,204.06,36.92Z"/><path class="cls-1" d="M221.52,60.84l-2.88,1.59a115.62,115.62,0,0,1,6.17,13l3.05-1.21A117.19,117.19,0,0,0,221.52,60.84Z"/><path class="cls-1" d="M232.93,117.74V118a117.24,117.24,0,0,1-.89,14.41l3.26.4a119.81,119.81,0,0,0,.92-14.81v-.26Z"/><path class="cls-1" d="M224.9,160.31l3,1.22a118.82,118.82,0,0,0,4.59-14.13l-3.19-.82A113.89,113.89,0,0,1,224.9,160.31Z"/><path class="cls-1" d="M191.31,206.55l2.1,2.53a117.79,117.79,0,0,0,10.8-10.16l-2.39-2.25A116.85,116.85,0,0,1,191.31,206.55Z"/><path class="cls-1" d="M181.23,18.06l-1.76,2.78a115.44,115.44,0,0,1,11.68,8.48l2.09-2.54A118.17,118.17,0,0,0,181.23,18.06Z"/><path class="cls-1" d="M111,232.71l-.2,3.28c2.43.15,4.91.23,7.36.23s5-.08,7.47-.23l-.2-3.29A117.75,117.75,0,0,1,111,232.71Z"/><path class="cls-1" d="M139.68,230.9l.61,3.24a120.15,120.15,0,0,0,14.37-3.69l-1-3.13A114.31,114.31,0,0,1,139.68,230.9Z"/><path class="cls-1" d="M81.67,230.48A118.24,118.24,0,0,0,96,234.16l.61-3.23a115.83,115.83,0,0,1-14-3.58Z"/><path class="cls-1" d="M167,222l1.4,3a117.94,117.94,0,0,0,13-7.16L179.66,215A114,114,0,0,1,167,222Z"/><path class="cls-1" d="M154.42,5.48l-1,3.12a116.16,116.16,0,0,1,13.42,5.3l1.4-3A116.76,116.76,0,0,0,154.42,5.48Z"/><path class="cls-1" d="M139.42,102.35l-4.73-5.91.3-.14.59-.45L139,92.9A25.5,25.5,0,0,0,147,74a25.48,25.48,0,0,0-8-18.89,26.14,26.14,0,0,0-19.19-8,25.68,25.68,0,0,0-19,8A25.75,25.75,0,0,0,92.91,74a25.77,25.77,0,0,0,7.82,18.9,27.32,27.32,0,0,0,4.14,3.4l-4.29,5.46a60.66,60.66,0,0,0-5.9,10.48Q84.5,135.13,84.34,167.45v.3q0,8.72,10.34,14.91t25.1,6.2q14.76,0,25.1-6.2t10.33-14.91v-.3q-.15-32.32-10.33-55.21Z"/></g></svg>