<svg xmlns="http://www.w3.org/2000/svg" viewBox="0 0 139.47 278.94"><defs><style>.cls-1{fill:#1d1d1b;}</style></defs><title>Pawn place</title><g id="Pawn_place" data-name="Pawn place"><path class="cls-1" d="M119.13,128.14l-10.75-19.47L99.09,97.05l.58-.29,1.16-.87,6.68-5.82a50.2,50.2,0,0,0,15.7-37.19q0-21.78-15.7-37.19A51.49,51.49,0,0,0,69.74,0,50.53,50.53,0,0,0,32.26,15.69a50.68,50.68,0,0,0-15.4,37.19,50.64,50.64,0,0,0,15.4,37.19,53.73,53.73,0,0,0,8.13,6.69L32,107.51a119.67,119.67,0,0,0-11.62,20.63Q.3,173.17,0,236.8v.59q0,17.13,20.34,29.34t49.4,12.21q29.06,0,49.39-12.21t20.34-29.34v-.59Q139.19,173.18,119.13,128.14ZM69.72,236.71A13.74,13.74,0,1,1,83.39,223,13.71,13.71,0,0,1,69.72,236.71ZM89.3,217.16a20.34,20.34,0,0,0-39.13,0,91.37,91.37,0,0,0-10.33-7.93,195.83,195.83,0,0,0,29.88-67,195.53,195.53,0,0,0,29.91,67A86.29,86.29,0,0,0,89.3,217.16Z"/></g></svg>