<svg xmlns="http://www.w3.org/2000/svg" viewBox="0 0 139.47 278.94"><defs><style>.cls-1{fill:#1d1d1b;}</style></defs><title>Pawn minus</title><g id="Pawn_minus" data-name="Pawn minus"><path class="cls-1" d="M123.21,52.88a50.2,50.2,0,0,1-15.7,37.19l-6.68,5.82-1.16.87-.58.29,9.29,11.62,10.75,19.47q20.06,45,20.34,108.66v.59q0,17.13-20.34,29.34T69.74,278.94q-29.05,0-49.4-12.21T0,237.39v-.59q.29-63.62,20.34-108.66A119.67,119.67,0,0,1,32,107.51l8.43-10.75a53.73,53.73,0,0,1-8.13-6.69,50.64,50.64,0,0,1-15.4-37.19,50.68,50.68,0,0,1,15.4-37.19A50.53,50.53,0,0,1,69.74,0a51.49,51.49,0,0,1,37.77,15.69q15.69,15.41,15.7,37.19m-2.92,123.57a5,5,0,0,0-5-5H24.18a5,5,0,0,0-5,5v26a5,5,0,0,0,5,5h91.11a5,5,0,0,0,5-5Z"/></g></svg>