<svg xmlns="http://www.w3.org/2000/svg" viewBox="0 0 139.47 278.94"><defs><style>.cls-1{fill:#1d1d1b;}</style></defs><title>Pawn remove</title><g id="Pawn_remove" data-name="Pawn remove"><path class="cls-1" d="M98.17,142,84,151.24l55.51,85.47q-.3-63.57-20.34-108.57l-10.75-19.47L99.09,97.05l.58-.29,1.16-.87,6.68-5.82a50.2,50.2,0,0,0,15.7-37.19q0-21.78-15.7-37.19A51.49,51.49,0,0,0,69.74,0,50.53,50.53,0,0,0,32.26,15.69,54.46,54.46,0,0,0,23.5,27Z"/><path class="cls-1" d="M50.29,150.78l14.24-9.24L37.68,100.22,32,107.51a119.67,119.67,0,0,0-11.62,20.63Q.3,173.17,0,236.8v.59q0,17.13,20.34,29.34t49.4,12.21q29.06,0,49.39-12.21c1.62-1,3.13-2,4.56-3Z"/><path class="cls-1" d="M22.42,76.74a51.23,51.23,0,0,0,5.51,8.48Z"/></g></svg>