<svg xmlns="http://www.w3.org/2000/svg" viewBox="0 0 283.46 283.46"><defs><style>.cls-1{fill:#1d1d1b;}</style></defs><title>Pawn square</title><g id="Pawn_square" data-name="Pawn square"><path class="cls-1" d="M281,58.33,225.12,2.5A8.58,8.58,0,0,0,219.07,0H64.39a8.54,8.54,0,0,0-6,2.5L2.5,58.33a8.53,8.53,0,0,0-2.5,6V219.1a8.54,8.54,0,0,0,2.5,6L58.35,281a8.54,8.54,0,0,0,6,2.5H219.07a8.58,8.58,0,0,0,6.05-2.5L281,225.14a8.54,8.54,0,0,0,2.5-6V64.36A8.53,8.53,0,0,0,281,58.33ZM141.73,8.54h44v6.67H97.69V8.54ZM8.54,97.69h6.64v88.09H8.54V97.69ZM141.73,274.92h-44v-6.66h88.08v6.66Zm77.34,0h0V250.58l-8.9,8.36H73.34l-8.9-8.36v24.34h0L8.54,219.1V219H32.87l-8.37-8.9V73.34l8.37-8.89H8.54v-.09L64.39,8.54h0V32.88l8.9-8.36H210.12l8.9,8.36V8.54h0l55.85,55.82v.09H250.59L259,73.34V210.12l-8.37,8.9h24.33v.08Zm55.85-89.14h-6.64V97.69h6.64v88.09Z"/><polygon class="cls-1" points="48.99 48.97 48.99 27.38 27.92 48.97 48.99 48.97"/><polygon class="cls-1" points="45.6 51.72 24.53 51.72 19.03 57.23 40.09 57.23 45.6 51.72"/><polygon class="cls-1" points="51.71 45.61 57.22 40.11 57.22 19.05 51.71 24.55 51.71 45.61"/><polygon class="cls-1" points="234.47 27.38 234.47 48.97 255.54 48.97 234.47 27.38"/><polygon class="cls-1" points="243.37 57.23 264.44 57.23 258.93 51.72 237.86 51.72 243.37 57.23"/><polygon class="cls-1" points="226.24 40.11 231.75 45.61 231.75 24.55 226.24 19.05 226.24 40.11"/><polygon class="cls-1" points="234.47 256.08 255.54 234.5 234.47 234.5 234.47 256.08"/><polygon class="cls-1" points="237.86 231.75 258.93 231.75 264.44 226.24 243.37 226.24 237.86 231.75"/><polygon class="cls-1" points="226.24 264.42 231.75 258.92 231.75 237.85 226.24 243.36 226.24 264.42"/><polygon class="cls-1" points="48.99 256.08 48.99 234.5 27.92 234.5 48.99 256.08"/><polygon class="cls-1" points="40.09 226.24 19.03 226.24 24.53 231.75 45.6 231.75 40.09 226.24"/><polygon class="cls-1" points="51.71 258.92 57.22 264.42 57.22 243.36 51.71 237.85 51.71 258.92"/><path class="cls-1" d="M161.37,126.08l-4.73-5.9.3-.15.59-.44,3.39-3a26.37,26.37,0,0,0,0-37.8,26.17,26.17,0,0,0-19.19-8,27,27,0,0,0-26.87,26.87,25.75,25.75,0,0,0,7.83,18.9,27.07,27.07,0,0,0,4.13,3.39l-4.28,5.46A60.12,60.12,0,0,0,116.63,136q-10.18,22.88-10.33,55.21v.3q0,8.7,10.33,14.91t25.1,6.2q14.76,0,25.1-6.2t10.33-14.91v-.3Q177,158.86,166.83,136Z"/></g></svg>