<svg xmlns="http://www.w3.org/2000/svg" viewBox="0 0 139.47 278.94"><defs><style>.cls-1{fill:#1d1d1b;}</style></defs><title>Pawn move</title><g id="Pawn_move" data-name="Pawn move"><path class="cls-1" d="M119.13,128.14l-10.75-19.47L99.09,97.05l.58-.29,1.16-.87,6.68-5.82a50.2,50.2,0,0,0,15.7-37.19q0-21.78-15.7-37.19A51.49,51.49,0,0,0,69.74,0,50.53,50.53,0,0,0,32.26,15.69a50.68,50.68,0,0,0-15.4,37.19,50.64,50.64,0,0,0,15.4,37.19,53.73,53.73,0,0,0,8.13,6.69L32,107.51a119.67,119.67,0,0,0-11.62,20.63Q.3,173.17,0,236.8v.59q0,17.13,20.34,29.34t49.4,12.21q29.06,0,49.39-12.21t20.34-29.34v-.59Q139.19,173.18,119.13,128.14Zm-89.5,77.7L46,189.45,29.64,173.11l10.91-10.92L67.8,189.45,40.53,216.74Zm43.85,20L58.94,211.27l21.82-21.82L58.94,167.64l14.55-14.56L95.3,174.9v0l14.53,14.57Z"/></g></svg>