<svg xmlns="http://www.w3.org/2000/svg" viewBox="0 0 283.46 283.46"><defs><style>.cls-1{fill:#1d1d1b;}</style></defs><title>Pay</title><g id="Offer"><path class="cls-1" d="M565.64,138.48l-.76-.82c-.74-.8-1.51-1.63-2.31-2.44L542.46,115q-41.75-42-83.5-83.92a1.4,1.4,0,0,1-.1-.16l-.33-.5a4.85,4.85,0,0,0-4-2.08h-2.39a4.8,4.8,0,0,0-4.83,4.78q0,13.69,0,27.41l0,28.44C411,93.65,320.32,115,285.63,137.74a4.76,4.76,0,0,0,0,8c34.69,22.75,125.36,44.08,161.64,48.75l0,28.45q0,13.71,0,27.4a4.81,4.81,0,0,0,4.83,4.79h2.39a4.83,4.83,0,0,0,4-2.09l.32-.49.11-.17q41.16-41.38,82.33-82.74l21.26-21.36c.82-.84,1.59-1.67,2.33-2.47l.76-.82A4.74,4.74,0,0,0,565.64,138.48Z"/></g><g id="Pay"><path class="cls-1" d="M282.08,138.36l-61.3-62.22L147.21,1.46a4.9,4.9,0,0,0-5.33-1.1,4.83,4.83,0,0,0-3,4.47V76.72H4.87A4.85,4.85,0,0,0,0,81.55V201.91a4.85,4.85,0,0,0,4.87,4.83h134v71.9a4.83,4.83,0,0,0,3,4.47,5,5,0,0,0,5.33-1.1l73.57-74.69,61.3-62.21A4.8,4.8,0,0,0,282.08,138.36Z"/></g></svg>