<svg xmlns="http://www.w3.org/2000/svg" viewBox="0 0 283.46 272.08"><defs><style>.cls-1{fill:#1d1d1b;}</style></defs><title>Pentagon</title><g id="Pentagon"><path class="cls-1" d="M272.89,89.24,156.8,4.9a25.61,25.61,0,0,0-30.13,0L10.58,89.24A25.54,25.54,0,0,0,1.27,117.9L45.61,254.37A25.56,25.56,0,0,0,70,272.08H213.48a25.57,25.57,0,0,0,24.38-17.71L282.2,117.9A25.57,25.57,0,0,0,272.89,89.24ZM88.61,220.81l-32.83-101,85.95-62.45,86,62.45-32.83,101Z"/></g><g id="Triangle"><path class="cls-1" d="M-2.07.89A13.9,13.9,0,0,0-13.89-5.7H-269.57A13.89,13.89,0,0,0-281.39.89,13.91,13.91,0,0,0-282,14.41L-154.13,270.1a13.88,13.88,0,0,0,12.43,7.68h0a13.88,13.88,0,0,0,12.42-7.68L-1.47,14.41A13.88,13.88,0,0,0-2.07.89ZM-63.79,32.52l-77.91,155.9-77.92-155.9Z"/></g></svg>