<svg xmlns="http://www.w3.org/2000/svg" viewBox="0 0 283.46 239.74"><defs><style>.cls-1{fill:#1d1d1b;}</style></defs><title>Plate</title><g id="Disc"><path class="cls-1" d="M324.39,153.76c27,15.57,62.93,24.15,101.17,24.15s74.23-8.62,101.09-24.26c26-15.09,40.3-34.91,40.28-55.8s-14.57-41-40.93-56.21C499,26,463.05,17.42,424.77,17.42s-74.16,8.6-101,24.22c-26,15.13-40.36,35-40.34,55.85S298,138.51,324.39,153.76Z"/><path class="cls-1" d="M531.07,161.26c-28.18,16.41-65.65,25.44-105.51,25.44s-77.24-9-105.57-25.32c-12.27-7.11-22.4-15.47-30.1-24.85l-6.43-7.82v13.11l0,.16.22,2.49c1.19,20.1,15.64,39.16,40.69,53.68,27,15.58,63,24.17,101.19,24.17s74.2-8.62,101.07-24.27c24.86-14.41,39.09-33.45,40.07-53.59l.2-3.9V129.13l-6.42,7.79C553,146.1,543,154.29,531.07,161.26Z"/></g><g id="Plate"><polygon class="cls-1" points="141.39 0 278.32 79.06 267.31 85.46 142.33 158.09 71.34 117.1 5.4 79.03 141.39 0"/><polygon class="cls-1" points="0.21 88.02 66.15 126.09 137.14 167.08 136.93 239.74 0 160.68 0.21 88.02"/><polygon class="cls-1" points="147.32 239.68 147.41 207.91 147.52 167.08 283.46 88.08 283.26 160.68 147.32 239.68"/></g></svg>