<svg xmlns="http://www.w3.org/2000/svg" viewBox="0 0 241.22 283.47"><defs><style>.cls-1{fill:#1d1d1b;}</style></defs><title>Play from hand 2</title><g id="Search_hand_2" data-name="Search hand 2"><path class="cls-1" d="M233.5,320.88,95.19,283.83a10.09,10.09,0,0,0-2.7-.37,10.42,10.42,0,0,0-10,7.73L28.52,492.39a10.42,10.42,0,0,0,7.37,12.75L174.2,542.2A10.39,10.39,0,0,0,187,534.84l53.92-201.2A10.43,10.43,0,0,0,233.5,320.88Zm-57.18,123c-1.23,2.93-6.42,8.18-9.39,8.18a2.15,2.15,0,0,1-1.54-.6l-19.83-19.84c-1-1-.29-2.51.33-3.51l-.29-.29a29.9,29.9,0,0,1-17.35,5.57,29.72,29.72,0,1,1,21.05-50.72A29.77,29.77,0,0,1,152.41,421l.29.28a4.52,4.52,0,0,1,2.27-.83,1.7,1.7,0,0,1,1.25.49l19.84,19.84C176.56,441.29,177,442.23,176.32,443.88Z"/></g><g id="Play_from_hand_2" data-name="Play from hand 2"><path class="cls-1" d="M24.09,207.73,67.42,46,29.48,42.69a10.43,10.43,0,0,0-11.29,9.47L0,259.66A10.42,10.42,0,0,0,9.51,271l142.65,12.48A10.41,10.41,0,0,0,163.43,274l1.15-13L34.7,226.11A15,15,0,0,1,24.09,207.73Z"/><path class="cls-1" d="M233.5,37.42,95.19.36A10.56,10.56,0,0,0,92.49,0,10.43,10.43,0,0,0,82.43,7.72L28.52,208.92a10.41,10.41,0,0,0,7.37,12.75L174.2,258.74A10.44,10.44,0,0,0,187,251.37L240.87,50.18A10.43,10.43,0,0,0,233.5,37.42Zm-64.8,84.66a1.12,1.12,0,0,1-1.11,1.12H152c-1.24,9.91-7.15,35.25-13.44,44.87a1.09,1.09,0,0,1-.93.51h0a1.1,1.1,0,0,1-.93-.5c-6.29-9.61-12.21-35-13.45-44.88h-15.6a1.12,1.12,0,0,1-1.11-1.12v-.66a1.11,1.11,0,0,1,.47-.92,2.12,2.12,0,0,1,.2-.12L125,102.55,136,91.65c.31-.3.61-.58.91-.85a1.11,1.11,0,0,1,1.51,0l.9.84,9.37,9.37L168,120.37l.24.15a1.1,1.1,0,0,1,.45.9Z"/></g><g id="Remove_hand_2" data-name="Remove hand 2"><path class="cls-1" d="M103.11-136.19a2.46,2.46,0,0,1,1-1.57l7-4.89L53.7-224.6,7.8-53.31a11.06,11.06,0,0,0,7.82,13.55l147,39.38a10.94,10.94,0,0,0,2.87.38,11.06,11.06,0,0,0,10.68-8.2l4.36-16.26-77-109.9A2.47,2.47,0,0,1,103.11-136.19Z"/></g></svg>