<svg xmlns="http://www.w3.org/2000/svg" viewBox="0 0 233.1 283.46"><defs><style>.cls-1{fill:#1d1d1b;}</style></defs><title>Play</title><g id="Draw"><path class="cls-1" d="M224.65,324.4,73.33,283.86a11.39,11.39,0,0,0-14,8.05L.39,512a11.39,11.39,0,0,0,8.06,14l151.32,40.55a11.4,11.4,0,0,0,14-8.06l59-220.13A11.39,11.39,0,0,0,224.65,324.4ZM159.28,437.07a1.22,1.22,0,0,1-1.22,1.22H129.62V466.7a1.22,1.22,0,0,1-1.22,1.22H104.71a1.21,1.21,0,0,1-1.22-1.22V438.29H75.05a1.21,1.21,0,0,1-1.22-1.22V413.32a1.22,1.22,0,0,1,1.22-1.22h28.44V383.69a1.22,1.22,0,0,1,1.22-1.22H128.4a1.22,1.22,0,0,1,1.22,1.22V412.1h28.44a1.22,1.22,0,0,1,1.22,1.22Z"/></g><g id="Play"><path class="cls-1" d="M232.71,54.89a11.39,11.39,0,0,0-8.06-14L73.32.39A11.39,11.39,0,0,0,59.37,8.45L.39,228.57a11.4,11.4,0,0,0,8.06,14l151.32,40.54a11.39,11.39,0,0,0,14-8.05Z"/></g></svg>