<svg xmlns="http://www.w3.org/2000/svg" viewBox="0 0 210.03 283.46"><defs><style>.cls-1{fill:#1d1d1b;}</style></defs><title>Play from hand 4</title><g id="Play_from_hand_4" data-name="Play from hand 4"><path class="cls-1" d="M46,160.74a10.35,10.35,0,0,1-10.33-10.33V72.8L5.31,80.92A7.17,7.17,0,0,0,.24,89.69L36.11,223.5l16.81-62.76Z"/><path class="cls-1" d="M108.64,97.83a10.31,10.31,0,0,1,14.1-3.77l59,34.05,3.36-12.52a7.18,7.18,0,0,0-5.07-8.77L84.88,81.33A7,7,0,0,0,83,81.08a7.19,7.19,0,0,0-6.91,5.31L42.22,212.87Z"/><path class="cls-1" d="M117.58,95.82a7.14,7.14,0,0,1,3.58,1L206.44,146a7.17,7.17,0,0,1,2.63,9.79L137.44,279.88a7.16,7.16,0,0,1-9.78,2.62L42.37,233.26a7.15,7.15,0,0,1-2.61-9.79L111.37,99.41a7.21,7.21,0,0,1,6.21-3.59"/><path class="cls-1" d="M144.44,0H46a7.17,7.17,0,0,0-7.16,7.16V150.41A7.17,7.17,0,0,0,46,157.58h7.81l19.3-72a10.33,10.33,0,0,1,10-7.65,10.11,10.11,0,0,1,2.68.35l65.89,17.65V7.16A7.16,7.16,0,0,0,144.44,0ZM116.58,41.54a.78.78,0,0,1-.78.77H105.08c-.85,6.81-4.92,24.25-9.25,30.86a.73.73,0,0,1-.64.35h0a.73.73,0,0,1-.63-.35c-4.34-6.6-8.4-24-9.26-30.86H74.57a.77.77,0,0,1-.76-.77v-.46a.8.8,0,0,1,.33-.63l.14-.08L86.55,28.1l7.5-7.49c.21-.21.41-.4.62-.59a.76.76,0,0,1,1,0l.61.58L102.77,27,116.1,40.36l.16.1a.77.77,0,0,1,.32.62Z"/></g></svg>