<svg xmlns="http://www.w3.org/2000/svg" viewBox="0 0 233.1 283.46"><defs><style>.cls-1{fill:#1d1d1b;}</style></defs><title>Play with symbol</title><g id="Lose"><path class="cls-1" d="M232.71,338.35l-59,220.13a11.41,11.41,0,0,1-11,8.45,11.63,11.63,0,0,1-3-.39L8.45,526A11.39,11.39,0,0,1,.39,512l59-220.13a11.38,11.38,0,0,1,13.95-8.06L224.65,324.4A11.39,11.39,0,0,1,232.71,338.35ZM155.16,447a1.21,1.21,0,0,0,0-1.72l-20.11-20.11,20.09-20.09a1.22,1.22,0,0,0,0-1.73l-16.75-16.75a1.22,1.22,0,0,0-1.73,0L116.57,406.7,96.46,386.59a1.21,1.21,0,0,0-1.72,0l-16.8,16.79a1.22,1.22,0,0,0,0,1.73l20.11,20.11L78,445.31A1.23,1.23,0,0,0,78,447l16.76,16.75a1.22,1.22,0,0,0,1.72,0l20.09-20.1,20.11,20.12a1.23,1.23,0,0,0,1.73,0Z"/></g><g id="Play_with_symbol" data-name="Play with symbol"><path class="cls-1" d="M173.73,275a11.39,11.39,0,0,1-14,8.05L8.45,242.53a11.4,11.4,0,0,1-8.06-14l59-220.12A11.39,11.39,0,0,1,73.32.39L224.65,40.94a11.39,11.39,0,0,1,8.06,14ZM97.46,102.77a1.4,1.4,0,0,0-1.4,1.39V179.3a1.4,1.4,0,0,0,1.4,1.4h.84a1.38,1.38,0,0,0,1.14-.6c.06-.08.11-.16.16-.24q11.16-11.21,22.34-22.37l13.67-13.68c.37-.38.72-.76,1.07-1.13a1.39,1.39,0,0,0,0-1.9c-.35-.39-.7-.76-1.05-1.13l-11.75-11.74L99.61,103.63c-.08-.13-.13-.22-.19-.3a1.37,1.37,0,0,0-1.12-.56Z"/></g><g id="Use_played" data-name="Use played"><path class="cls-1" d="M205.13-283.47H28a12.89,12.89,0,0,0-12.89,12.89v257.7A12.89,12.89,0,0,0,28,0H205.13A12.89,12.89,0,0,0,218-12.88v-257.7A12.89,12.89,0,0,0,205.13-283.47ZM98.3-180.7a1.38,1.38,0,0,1,1.12.57c.06.08.11.16.19.29q12.12,12.15,24.27,24.29l11.75,11.74c.35.36.7.74,1.05,1.12a1.39,1.39,0,0,1,0,1.9c-.35.38-.7.76-1.07,1.14L121.94-126Q110.76-114.8,99.6-103.6c0,.07-.1.16-.16.24a1.4,1.4,0,0,1-1.14.59h-.84a1.4,1.4,0,0,1-1.4-1.39V-179.3a1.4,1.4,0,0,1,1.4-1.4Z"/></g></svg>