<svg xmlns="http://www.w3.org/2000/svg" viewBox="0 0 202.6 283.46"><defs><style>.cls-1{fill:#1d1d1b;}</style></defs><title>Play from hand 3</title><g id="Search_hand_3" data-name="Search hand 3"><path class="cls-1" d="M157.9,283.46H50.24a7.83,7.83,0,0,0-7.84,7.83V447.91a7.83,7.83,0,0,0,7.84,7.83h8.55L79.87,377a11.3,11.3,0,0,1,10.9-8.37,11.6,11.6,0,0,1,2.92.39l72,19.31V291.29A7.83,7.83,0,0,0,157.9,283.46Zm-24.73,69.46c-.92,2.21-4.83,6.16-7,6.16a1.58,1.58,0,0,1-1.17-.47L110,343.7c-.72-.74-.21-1.89.26-2.64l-.22-.21A22.41,22.41,0,0,1,97,345a22.36,22.36,0,1,1,18.16-9.33l.23.23a3.22,3.22,0,0,1,1.7-.63,1.23,1.23,0,0,1,.94.37L133,350.6C133.36,351,133.69,351.67,133.17,352.92Z"/></g><g id="Play_from_hand_3" data-name="Play from hand 3"><path class="cls-1" d="M50.23,175.73A11.29,11.29,0,0,1,39,164.45V79.6L5.8,88.48A7.81,7.81,0,0,0,.27,98.06l39.19,146.3,18.4-68.63Z"/><path class="cls-1" d="M90.77,88.65a7.85,7.85,0,0,1,2,.27l104,27.87a7.84,7.84,0,0,1,5.54,9.58L161.8,277.66a7.85,7.85,0,0,1-7.56,5.8,7.63,7.63,0,0,1-2-.27l-104-27.85a7.83,7.83,0,0,1-5.54-9.61L83.21,94.46a7.83,7.83,0,0,1,7.56-5.81"/><path class="cls-1" d="M157.9,0H50.23a7.82,7.82,0,0,0-7.82,7.82V164.45a7.82,7.82,0,0,0,7.82,7.82h8.55l21.1-78.71a11.29,11.29,0,0,1,10.89-8.37,11.6,11.6,0,0,1,2.92.39l72,19.32V7.82A7.83,7.83,0,0,0,157.9,0ZM127.44,40.64a.85.85,0,0,1-.84.84H114.88c-.93,7.44-5.39,26.51-10.1,33.74a.9.9,0,0,1-.71.38h0a.9.9,0,0,1-.71-.38C98.64,68,94.19,48.94,93.26,41.49H81.53a.85.85,0,0,1-.84-.84v-.52a.82.82,0,0,1,.36-.68l.14-.09Q87.91,32.66,94.61,26l8.2-8.2c.24-.24.47-.44.69-.64a.82.82,0,0,1,1.13,0,6.76,6.76,0,0,1,.68.63l7,7.05,14.56,14.55.18.11a.84.84,0,0,1,.34.67Z"/></g></svg>