<svg xmlns="http://www.w3.org/2000/svg" viewBox="0 0 240.81 281.81"><defs><style>.cls-1{fill:#1d1d1b;}</style></defs><title>Play from hand 5</title><g id="Play_from_hand_5" data-name="Play from hand 5"><path class="cls-1" d="M29.22,90a10.27,10.27,0,0,1,3-10.21L3.56,96.31A7.13,7.13,0,0,0,1,106L61.72,211.3Z"/><path class="cls-1" d="M67.42,59.44,36,77.56a3.52,3.52,0,0,1,.43-.13l31-8.3Z"/><path class="cls-1" d="M77.69,159.8a10.28,10.28,0,0,1-10.27-10.26V72.38L37.28,80.46a7.09,7.09,0,0,0-5,8.71l35.64,133L84.61,159.8Z"/><path class="cls-1" d="M140,97.27a10.27,10.27,0,0,1,14-3.76l58.63,33.85L216,114.92a7.12,7.12,0,0,0-5-8.71L116.4,80.86a7.48,7.48,0,0,0-1.86-.24,7.14,7.14,0,0,0-6.87,5.27L74,211.63Z"/><path class="cls-1" d="M148.9,95.28a7,7,0,0,1,3.56,1l84.79,48.94a7.14,7.14,0,0,1,2.61,9.73L168.64,278.25a7.09,7.09,0,0,1-6.17,3.56,7,7,0,0,1-3.55-1l-84.8-48.94a7.14,7.14,0,0,1-2.59-9.74L142.74,98.84a7.09,7.09,0,0,1,6.16-3.56"/><path class="cls-1" d="M147.9,41.3a.76.76,0,0,1-.76.76H136.47c-.85,6.78-4.88,24.11-9.19,30.69a.72.72,0,0,1-.63.34h0a.75.75,0,0,1-.64-.33c-4.3-6.57-8.35-23.91-9.2-30.7H106.16a.75.75,0,0,1-.77-.76v-.45a.77.77,0,0,1,.32-.63l.14-.09Q112,34,118.05,27.94l7.46-7.45.62-.59a.76.76,0,0,1,1,0l.62.58,6.4,6.41,13.25,13.23.16.11a.79.79,0,0,1,.31.62ZM175.6,0H77.69a7.14,7.14,0,0,0-7.13,7.12V149.54a7.14,7.14,0,0,0,7.13,7.13h7.77l19.18-71.59a10.26,10.26,0,0,1,9.9-7.6,10,10,0,0,1,2.67.35l65.5,17.55V7.12A7.12,7.12,0,0,0,175.6,0Z"/></g></svg>