<svg xmlns="http://www.w3.org/2000/svg" viewBox="0 0 218.63 283.46"><defs><style>.cls-1{fill:#1d1d1b;}</style></defs><title>Poison</title><g id="Poison"><path class="cls-1" d="M213.26,216.1c-10.08-22.5-21.2-45.34-31.95-67.42C170.66,126.81,159.66,104.22,149.7,82V22.48l8.91-13.9.31-.3A4.83,4.83,0,0,0,155.54,0H70.21A4.83,4.83,0,0,0,66.8,8.25l9.25,14.23V81.62C66.64,96.79,26.29,174.31,5.42,216-3,233-1.51,252.55,9.39,267.2c7.17,10.64,19.59,16.26,35.93,16.26h128c16.33,0,28.75-5.62,35.92-16.26C220.13,252.59,221.67,233,213.26,216.1Zm-20.2,40.13c-6.11,8.8-16.66,13.44-30.52,13.44H56.07c-13.85,0-24.39-4.65-30.49-13.44C16.26,244.17,15,228,22.2,214c14-27.13,36.1-68.24,49.29-91.76L89.42,82V15.48a4.83,4.83,0,0,1,4.83-4.83h37.44a4.83,4.83,0,0,1,4.83,4.83V82.17l14.91,40.36c5.93,12.25,12.19,24.71,18.24,36.77,9,18,18.33,36.53,26.8,54.82C203.65,228.11,202.34,244.22,193.06,256.23Z"/><path class="cls-1" d="M158.82,165.55c-4.89-9.74-9.95-19.81-14.73-29.7a4.85,4.85,0,0,0-4.35-2.72H82.28a4.85,4.85,0,0,0-4.22,2.46c-10.45,18.61-28.35,51.94-39.91,74.29A32.41,32.41,0,0,0,41,244.94c5.12,7.33,13.9,11.2,25.39,11.2h86c11.48,0,20.26-3.87,25.4-11.21a32.45,32.45,0,0,0,2.83-35C173.68,195.14,166.12,180.1,158.82,165.55Z"/></g></svg>