<svg xmlns="http://www.w3.org/2000/svg" viewBox="0 0 283.46 221.21"><defs><style>.cls-1{fill:#1d1d1b;}</style></defs><title>Pumpkin</title><g id="Fish"><path class="cls-1" d="M564.16,146.55,553,136.77l-8.64-10.55c-.36-.83-.73-1.64-1.09-2.44-.93-2-2.47-5.44-2.48-6.64a8.6,8.6,0,0,0-.09-1.13c-.19-1.25.39-3.32,1-5.51.11-.42.23-.83.35-1.25a61.88,61.88,0,0,1,5.64-10.5l1.47-1.64a71,71,0,0,1,7-7.23l7.76-6.27a8,8,0,0,0,2.34-9.42c-2.86-6.65-10.63-7-15.27-7.17l-.61,0H550a61.56,61.56,0,0,0-16.55,2.46c-1,.26-2,.53-3.07.77a7.14,7.14,0,0,0-.93.28,69,69,0,0,0-16.06,8.81l-1.8,1.23c-.14.09-.27.19-.4.29A58,58,0,0,0,502,89.47l-.69-.59c-.22-.18-.46-.36-.7-.52l-3.14-2.15c-5-3.43-10.18-7-16.34-10.53l-.18-.11-2-1.1A103.63,103.63,0,0,0,465.62,68L463,66.77a95.88,95.88,0,0,0-14.41-6c-3.86-1.61-7.7-2.93-11.47-4.14l5.73-9.66a29.45,29.45,0,0,0,4-11.19,7.71,7.71,0,0,0,0-1.92c-.46-4.66-3.24-8.31-8.24-10.86a6,6,0,0,0-.82-.36,26.3,26.3,0,0,0-9.24-1.78,22.84,22.84,0,0,0-4.05.36,41.25,41.25,0,0,0-15.67,4.75c-.8.4-1.56.78-2.32,1.13a7,7,0,0,0-1,.54,95.76,95.76,0,0,0-11.35,8.69c-.8.68-1.59,1.36-2.4,2a7.88,7.88,0,0,0-1.14,1.17l-5.88,7.41A52,52,0,0,1,379,48.68c-1.16.31-2.37.63-3.58,1-11,2-20.64,4.15-29.39,6.52l-.54.17a137,137,0,0,0-17.32,7.06c-6.74,3.1-12,7.31-17.16,11.39l-2.15,1.71-.24.19a98.15,98.15,0,0,0-13.43,14.43c-1.26,1.56-2.45,3-3.7,4.51a61.15,61.15,0,0,0-6,8.67l-.74,1.22a8.16,8.16,0,0,0-1,2.69c-.41,2.18-3.11,22,27.94,48l.41.32c1.58,1.16,15.73,11.41,24.14,14.65a6.45,6.45,0,0,0,.62.21A144.91,144.91,0,0,0,368,176.72l20.22,2.39a34.85,34.85,0,0,1,5.9,1.46l3.65,4.78a8.28,8.28,0,0,0,.89,1l5.31,5,.15.14a41.06,41.06,0,0,0,15.81,8.38,8.25,8.25,0,0,0,1.84.32l1.18.06c1.47.09,3,.18,4.55.18a23.38,23.38,0,0,0,6-.67,4.64,4.64,0,0,0,.53-.16l1.51-.48c2.77-.87,6.22-2,9.19-4.43a8,8,0,0,0,.17-12.19l-6.53-5.76c-.19-.17-.4-.33-.61-.49l-1-.71c8.45-2.83,17.49-5.95,26.54-9.66l.19-.09,11.63-5.12c.15-.07.3-.14.44-.22L486,155a7.6,7.6,0,0,0,.78-.46l.5-.33a138,138,0,0,0,13.39-9.78l.14-.12c.78-.7,1.55-1.43,2.29-2.18l9.26,9.33c2.47,2.93,5.86,5.22,9.13,7.44,1.07.73,2.07,1.41,3,2.08a7.9,7.9,0,0,0,2,1.05l10.18,3.67a7.92,7.92,0,0,0,1.73.41,52.6,52.6,0,0,0,6.58.46,32.71,32.71,0,0,0,8.85-1.14,7.46,7.46,0,0,0,1.45-.55c1.17-.58,2-1,2.76-1.29,3.64-1.64,5.17-2.78,7.62-6.75A8,8,0,0,0,564.16,146.55ZM349.21,109.42a10.56,10.56,0,1,1,10.56-10.56A10.56,10.56,0,0,1,349.21,109.42Zm50.48,12.79-1.64,7.15-1.91,6.22-3.6,5.86-3.05,4.1-4.13,4.58-6.51,4.95-6.59,4.42-3,1.17,6.14-5.48,7.57-9.41,5.39-10.55a37.16,37.16,0,0,0,3.38-11l.93-9A73.28,73.28,0,0,0,388,88.8L382.7,77.67l-6.33-9.73-1.88-3L379,68.81l7.31,7.59L389.79,81l5,8.94,2.58,7.26,1.64,5.63.94,5.28.23,7.15Z"/></g><g id="Pumpkin"><path class="cls-1" d="M277.06,87.15a104,104,0,0,0-18.72-33A90.49,90.49,0,0,0,228,30.67,94.77,94.77,0,0,0,187,21.73c-13.34,0-27.47,2.47-42.07,7.34-1.61-6.62-.65-7.24.37-11.53,1.1-4.64,3.87-8,9.54-11.76a.7.7,0,0,0,.31-.66.68.68,0,0,0-.46-.56L141.16.06l0,0a.7.7,0,0,0-.6.06c-8.25,5.05-9.74,15.71-10.9,26.28a127.22,127.22,0,0,0-33.14-4.65,94.81,94.81,0,0,0-41.07,8.94,90.59,90.59,0,0,0-30.3,23.49,104.39,104.39,0,0,0-18.72,33A112.84,112.84,0,0,0,0,124.67c0,25.78,8.85,49.41,24.91,66.56A89.4,89.4,0,0,0,57.08,213c13.53,5.45,29,8.21,46,8.21a194.68,194.68,0,0,0,38.61-4.16,194.75,194.75,0,0,0,38.61,4.16c17,0,32.52-2.76,46-8.21a89.44,89.44,0,0,0,32.16-21.77c16.07-17.15,24.91-40.78,24.91-66.56A112.84,112.84,0,0,0,277.06,87.15Zm-241.77,95a1,1,0,0,1-.56.17,1,1,0,0,1-.76-.36,72.93,72.93,0,0,1-4.42-5.82,85.32,85.32,0,0,1-11-23.33,108,108,0,0,1-2-53.32C19.9,83.77,26.67,69.86,36.1,59.23a68.13,68.13,0,0,1,17.12-14,66.74,66.74,0,0,1,9.12-4.31.84.84,0,0,1,.35-.07,1,1,0,0,1,.88.51,1,1,0,0,1-.26,1.28C44.23,57.5,31,81,26.14,108.69c-4.55,25.79-1.1,52.08,9.48,72.14A1,1,0,0,1,35.29,182.13Zm59-136.53C46.67,92.32,55,143.88,71.13,192.64a1,1,0,0,1-.56,1.23,1,1,0,0,1-.39.08,1,1,0,0,1-.88-.53c-6.57-12.17-13.6-27.15-15.81-33a114.33,114.33,0,0,1-6.87-27.86,88,88,0,0,1,1.24-28.14A80.69,80.69,0,0,1,67.48,66.8C74.8,58.74,82.26,50.93,93,44.05a1,1,0,0,1,1.24,1.55Zm19.67,17.69c-9.16,39.54-11.3,84-6,125.09a1,1,0,0,1-.78,1.1.75.75,0,0,1-.21,0,1,1,0,0,1-1-.7c-1.08-3.52-2-6.86-2.81-10.22a149.26,149.26,0,0,1-4.21-35.13c0-13-.08-34.84,3.33-50.44A150.35,150.35,0,0,1,112,62.66a1,1,0,0,1,.91-.6,1.25,1.25,0,0,1,.32,0A1,1,0,0,1,113.92,63.29Zm70.62,80.16a149.79,149.79,0,0,1-4.21,35.13c-.82,3.38-1.74,6.72-2.81,10.22a1,1,0,0,1-1,.7.75.75,0,0,1-.21,0,1,1,0,0,1-.78-1.1c5.28-41.12,3.14-85.55-6-125.09a1,1,0,0,1,.66-1.18,1.13,1.13,0,0,1,.32,0,1,1,0,0,1,.91.6A151,151,0,0,1,181.21,93C184.61,108.6,184.56,130.41,184.54,143.45Zm52.31-10.86A114.36,114.36,0,0,1,230,160.45c-2.2,5.82-9.24,20.8-15.81,33a1,1,0,0,1-.88.52,1.09,1.09,0,0,1-.39-.08,1,1,0,0,1-.55-1.23c16.11-48.76,24.46-100.32-23.13-147a1,1,0,0,1,.7-1.71,1,1,0,0,1,.54.16C201.21,50.93,208.67,58.74,216,66.8a80.51,80.51,0,0,1,19.62,37.65A88,88,0,0,1,236.85,132.59Zm28.08,20.2a85.34,85.34,0,0,1-11,23.33,72.18,72.18,0,0,1-4.41,5.82,1,1,0,0,1-.77.36,1,1,0,0,1-.56-.17,1,1,0,0,1-.32-1.3c10.57-20.06,14-46.35,9.48-72.14-4.89-27.74-18.09-51.19-37.17-66a1,1,0,0,1,.61-1.79,1.15,1.15,0,0,1,.36.07,66.62,66.62,0,0,1,9.11,4.31,68.36,68.36,0,0,1,17.13,14c9.42,10.63,16.2,24.54,19.58,40.24A108.1,108.1,0,0,1,264.93,152.79Z"/></g></svg>