<svg xmlns="http://www.w3.org/2000/svg" viewBox="0 0 278.94 183.71"><defs><style>.cls-1{fill:#1d1d1b;}</style></defs><title>Pyramid add</title><g id="Pyramid_add" data-name="Pyramid add"><path class="cls-1" d="M121.46,137.41V109.87H93.91a5,5,0,0,1-5-5v-26a5,5,0,0,1,5-5h27.55V46.3a5,5,0,0,1,5-5h11.35V0L0,114.82l137.81,68.89v-41.3H126.46A5,5,0,0,1,121.46,137.41Z"/><path class="cls-1" d="M278.94,114.82,141.16.08V41.3h11.32a5,5,0,0,1,5,5V73.83H185a5,5,0,0,1,5,5v26a5,5,0,0,1-5,5H157.48v27.54a5,5,0,0,1-5,5H141.16v41.25Z"/></g></svg>