<svg xmlns="http://www.w3.org/2000/svg" viewBox="0 0 278.94 183.71"><defs><style>.cls-1{fill:#1d1d1b;}</style></defs><title>Pyramid place</title><g id="Pyramid_place" data-name="Pyramid place"><path class="cls-1" d="M125.78,125.36a13.72,13.72,0,0,1,12-13.63v-6.89a20.42,20.42,0,0,0-17.9,14.71,89.2,89.2,0,0,0-10.34-7.93A195,195,0,0,0,137.81,51V0L0,114.82l137.81,68.89V139A13.71,13.71,0,0,1,125.78,125.36Z"/><path class="cls-1" d="M278.94,114.82,141.16.08V51.21a194.79,194.79,0,0,0,28.21,60.41A83.61,83.61,0,0,0,159,119.55a20.46,20.46,0,0,0-17.87-14.7v6.89a13.73,13.73,0,0,1,0,27.23v44.69Z"/></g></svg>