<svg xmlns="http://www.w3.org/2000/svg" viewBox="0 0 202.6 283.46"><defs><style>.cls-1{fill:#1d1d1b;}</style></defs><title>Random from hand 3</title><g id="Random_from_hand_3" data-name="Random from hand 3"><path class="cls-1" d="M50.24,175.73A11.29,11.29,0,0,1,39,164.45V79.6L5.8,88.48A7.81,7.81,0,0,0,.27,98.06l39.2,146.3,18.38-68.63Z"/><path class="cls-1" d="M90.76,88.65a8,8,0,0,1,2,.27l104,27.87a7.82,7.82,0,0,1,5.54,9.58L161.79,277.66a7.83,7.83,0,0,1-7.55,5.8,7.41,7.41,0,0,1-2-.27l-104-27.85a7.87,7.87,0,0,1-5.54-9.61L83.2,94.46a7.83,7.83,0,0,1,7.56-5.81"/><path class="cls-1" d="M157.9,0H50.24A7.83,7.83,0,0,0,42.4,7.82V164.45a7.83,7.83,0,0,0,7.84,7.82h8.54L79.87,93.56a11.3,11.3,0,0,1,10.89-8.37,11.68,11.68,0,0,1,2.93.39l72,19.32V7.82A7.82,7.82,0,0,0,157.9,0ZM107.21,73.85a6.81,6.81,0,0,1-5,1.76,6.93,6.93,0,0,1-5.06-1.74A6.43,6.43,0,0,1,95.39,69a6.46,6.46,0,0,1,1.76-4.93,7,7,0,0,1,5.09-1.68,6.84,6.84,0,0,1,5,1.72A6.47,6.47,0,0,1,109,69,6.51,6.51,0,0,1,107.21,73.85ZM120,38.39q-1.94,3.11-7.38,7a22.49,22.49,0,0,0-4.73,4.2,6.54,6.54,0,0,0-1,3.77v2.33H96.63V52.82a12.84,12.84,0,0,1,1.6-6.5,20.79,20.79,0,0,1,5.84-5.87,24.54,24.54,0,0,0,5.38-4.74,6.9,6.9,0,0,0,1.3-4.1,4.43,4.43,0,0,0-1.86-3.84,8.93,8.93,0,0,0-5.22-1.33c-3.88,0-8.32,1.28-13.29,3.83l-4.24-8.52a36.94,36.94,0,0,1,18.39-4.86c5.34,0,9.59,1.27,12.74,3.84A12.56,12.56,0,0,1,122,31,13.64,13.64,0,0,1,120,38.39Z"/></g></svg>