<svg xmlns="http://www.w3.org/2000/svg" viewBox="0 0 241.22 283.47"><defs><style>.cls-1{fill:#1d1d1b;}</style></defs><title>Random from hand 2</title><g id="Look_at_from_hand_2" data-name="Look at (from) hand 2"><path class="cls-1" d="M233.5,320.88,95.19,283.83a10.15,10.15,0,0,0-2.7-.37,10.42,10.42,0,0,0-10,7.73L28.52,492.39a10.42,10.42,0,0,0,7.37,12.75L174.2,542.2A10.39,10.39,0,0,0,187,534.84l53.92-201.2A10.43,10.43,0,0,0,233.5,320.88Zm-57.25,93-6.73,5.48c-4.63,3.77-17,12.54-31.9,12.54s-27.24-8.76-31.89-12.53L99,413.88a1.12,1.12,0,0,1,0-1.73l6.75-5.48c4.63-3.77,17-12.54,31.9-12.54s27.24,8.76,31.89,12.53l6.74,5.48a1.13,1.13,0,0,1,.41.87A1.11,1.11,0,0,1,176.25,413.87Z"/></g><g id="Random_from_hand_2" data-name="Random from hand 2"><path class="cls-1" d="M24.09,207.73,67.42,46,29.48,42.69A10.41,10.41,0,0,0,18.2,52.16L0,259.66A10.42,10.42,0,0,0,9.51,271l142.65,12.48A10.43,10.43,0,0,0,163.44,274l1.14-13L34.7,226.11A15,15,0,0,1,24.09,207.73Z"/><path class="cls-1" d="M233.5,37.42,95.19.36A10.56,10.56,0,0,0,92.49,0a10.41,10.41,0,0,0-10,7.72L28.53,208.92a10.39,10.39,0,0,0,7.36,12.75L174.2,258.74A10.43,10.43,0,0,0,187,251.37L240.87,50.18A10.43,10.43,0,0,0,233.5,37.42ZM141.81,166.24a9,9,0,0,1-6.63,2.36,9.26,9.26,0,0,1-6.72-2.31,8.58,8.58,0,0,1-2.38-6.49q0-4.34,2.32-6.57t6.78-2.22a9.17,9.17,0,0,1,6.65,2.28,10.06,10.06,0,0,1,0,13Zm17.06-47.14q-2.58,4.14-9.83,9.3-5,3.67-6.28,5.59a8.68,8.68,0,0,0-1.32,5v3.11H127.73v-3.83a16.9,16.9,0,0,1,2.13-8.64q2.12-3.68,7.75-7.81,5.43-3.89,7.17-6.31a9.17,9.17,0,0,0,1.73-5.43A5.9,5.9,0,0,0,144,105a11.82,11.82,0,0,0-6.92-1.75q-7.77,0-17.69,5.07L113.76,97a49.32,49.32,0,0,1,24.47-6.46q10.67,0,16.94,5.11a16.74,16.74,0,0,1,6.29,13.66A18.11,18.11,0,0,1,158.87,119.1Z"/></g><g id="Search_hand_2" data-name="Search hand 2"><path class="cls-1" d="M24.09-75.73,67.42-237.45l-37.95-3.32a10.43,10.43,0,0,0-11.28,9.47L0-23.8A10.41,10.41,0,0,0,9.51-12.52L152.15,0a10.42,10.42,0,0,0,11.29-9.47l1.14-13L34.7-57.36A15,15,0,0,1,24.09-75.73Z"/></g></svg>