<svg xmlns="http://www.w3.org/2000/svg" viewBox="0 0 240.82 281.81"><defs><style>.cls-1{fill:#1d1d1b;}</style></defs><title>Random from hand 5</title><g id="Random_from_hand_5" data-name="Random from hand 5"><path class="cls-1" d="M29.22,90a10.29,10.29,0,0,1,3-10.21L3.57,96.31A7.13,7.13,0,0,0,1,106L61.73,211.3Z"/><path class="cls-1" d="M67.43,59.44,36,77.56a4.29,4.29,0,0,1,.44-.13l31-8.3Z"/><path class="cls-1" d="M77.69,159.8a10.27,10.27,0,0,1-10.26-10.26V72.38L37.29,80.46a7.12,7.12,0,0,0-5,8.71l35.66,133L84.62,159.8Z"/><path class="cls-1" d="M140,97.27a10.26,10.26,0,0,1,14-3.76l58.64,33.85L216,114.92a7.13,7.13,0,0,0-5-8.72L116.39,80.86a7.26,7.26,0,0,0-1.84-.24,7.13,7.13,0,0,0-6.87,5.27L74,211.63Z"/><path class="cls-1" d="M148.91,95.28a7,7,0,0,1,3.55,1l84.79,48.94a7.12,7.12,0,0,1,2.61,9.73l-71.2,123.34a7.13,7.13,0,0,1-6.18,3.56,7,7,0,0,1-3.55-1L74.14,231.91a7.15,7.15,0,0,1-2.62-9.74L142.74,98.84a7.11,7.11,0,0,1,6.17-3.56"/><path class="cls-1" d="M175.61,0H77.69a7.12,7.12,0,0,0-7.11,7.12V149.54a7.12,7.12,0,0,0,7.11,7.13h7.78l19.18-71.59a10.25,10.25,0,0,1,9.9-7.6,10,10,0,0,1,2.66.35l65.51,17.55V7.12A7.13,7.13,0,0,0,175.61,0Zm-46.1,71.49A6.13,6.13,0,0,1,125,73.1a6.32,6.32,0,0,1-4.6-1.57,5.86,5.86,0,0,1-1.63-4.44,5.94,5.94,0,0,1,1.59-4.49A6.48,6.48,0,0,1,125,61.09a6.29,6.29,0,0,1,4.54,1.54,5.94,5.94,0,0,1,1.6,4.46A5.92,5.92,0,0,1,129.51,71.49Zm11.67-32.23q-1.77,2.84-6.72,6.37a20.12,20.12,0,0,0-4.29,3.82,5.91,5.91,0,0,0-.91,3.42V55H119.9V52.38a11.61,11.61,0,0,1,1.44-5.91,19.16,19.16,0,0,1,5.31-5.33,22.59,22.59,0,0,0,4.9-4.32,6.23,6.23,0,0,0,1.18-3.71A4,4,0,0,0,131,29.6a8.13,8.13,0,0,0-4.74-1.19q-5.31,0-12.11,3.46l-3.85-7.75a33.77,33.77,0,0,1,16.73-4.42c4.85,0,8.72,1.17,11.58,3.5a11.43,11.43,0,0,1,4.3,9.34A12.43,12.43,0,0,1,141.18,39.26Z"/></g></svg>