<svg xmlns="http://www.w3.org/2000/svg" viewBox="0 0 210.02 283.46"><defs><style>.cls-1{fill:#1d1d1b;}</style></defs><title>Random from hand 4</title><g id="Random_from_hand_4" data-name="Random from hand 4"><path class="cls-1" d="M46,160.74a10.33,10.33,0,0,1-10.32-10.33V72.8L5.31,80.92A7.18,7.18,0,0,0,.24,89.69L36.1,223.5l16.82-62.76Z"/><path class="cls-1" d="M108.64,97.83a10.3,10.3,0,0,1,14.09-3.77l59,34.05,3.36-12.52a7.16,7.16,0,0,0-5.06-8.77L84.87,81.33A6.93,6.93,0,0,0,83,81.08a7.18,7.18,0,0,0-6.91,5.31L42.22,212.87Z"/><path class="cls-1" d="M117.58,95.82a7.19,7.19,0,0,1,3.58,1L206.45,146a7.17,7.17,0,0,1,2.61,9.79L137.44,279.88a7.16,7.16,0,0,1-9.78,2.62L42.37,233.26a7.17,7.17,0,0,1-2.63-9.79L111.37,99.41a7.19,7.19,0,0,1,6.21-3.59"/><path class="cls-1" d="M144.42,0H46a7.16,7.16,0,0,0-7.16,7.17V150.41A7.16,7.16,0,0,0,46,157.58h7.82l19.29-72a10.32,10.32,0,0,1,10-7.65,10,10,0,0,1,2.67.35L151.6,95.93V7.17A7.18,7.18,0,0,0,144.42,0ZM98.07,71.91a6.24,6.24,0,0,1-4.56,1.62,6.4,6.4,0,0,1-4.62-1.59,5.94,5.94,0,0,1-1.63-4.46A6,6,0,0,1,88.86,63a6.45,6.45,0,0,1,4.65-1.53A6.34,6.34,0,0,1,98.09,63a6,6,0,0,1,1.62,4.49A6,6,0,0,1,98.07,71.91Zm11.74-32.42q-1.78,2.84-6.76,6.4a20.85,20.85,0,0,0-4.33,3.84,6.09,6.09,0,0,0-.9,3.45v2.14H88.4V52.68a11.66,11.66,0,0,1,1.45-5.93,19.22,19.22,0,0,1,5.33-5.38A22.27,22.27,0,0,0,100.12,37a6.29,6.29,0,0,0,1.18-3.73,4.07,4.07,0,0,0-1.7-3.53,8.2,8.2,0,0,0-4.77-1.21q-5.34,0-12.17,3.49l-3.87-7.8a33.92,33.92,0,0,1,16.83-4.44q7.32,0,11.65,3.53a11.48,11.48,0,0,1,4.31,9.39A12.57,12.57,0,0,1,109.81,39.49Z"/></g><g id="Search_hand_4" data-name="Search hand 4"><path class="cls-1" d="M118.42-187.64a7.06,7.06,0,0,1,3.57,1l85.29,49.23a7.17,7.17,0,0,1,2.62,9.79L138.28-3.58A7.18,7.18,0,0,1,132.06,0a7,7,0,0,1-3.56-1L43.2-50.21A7.15,7.15,0,0,1,40.58-60L112.2-184a7.18,7.18,0,0,1,6.22-3.59"/></g></svg>