<svg xmlns="http://www.w3.org/2000/svg" viewBox="0 0 283.46 232.42"><defs><style>.cls-1{fill:#1d1d1b;}</style></defs><title>Random left right</title><g id="Random_left_right" data-name="Random left right"><path class="cls-1" d="M136.62,127.38c-7.44,0-13.33,2-17.47,6s-6.34,9.81-6.34,17.18c0,7.16,2.17,12.88,6.44,17s10.06,6.15,17.37,6.15,13-2.11,17.2-6.29,6.38-9.86,6.38-16.86c0-7.23-2.14-13-6.37-17S143.87,127.38,136.62,127.38Z"/><path class="cls-1" d="M181.63,11.81C172,4,159,0,143.05,0A108.87,108.87,0,0,0,89.28,14.2a4.63,4.63,0,0,0-1.89,6.12L99.26,44.16a4.64,4.64,0,0,0,2.7,2.33,4.54,4.54,0,0,0,1.45.24,4.59,4.59,0,0,0,2.11-.51c13.22-6.74,25-10.17,35.13-10.17,5.23,0,9.24,1,11.9,2.85,2.23,1.58,3.28,3.8,3.28,7A14.58,14.58,0,0,1,153,54.63c-1.46,2-5.07,5.82-14,12.21-8.57,6.29-14.32,12.13-17.65,17.89a40.43,40.43,0,0,0-5.09,20.5v8.06a4.64,4.64,0,0,0,4.64,4.64h28.85a4.64,4.64,0,0,0,4.64-4.64v-6.54c0-3.38.66-6,1.95-7.91.88-1.28,3.61-4.34,12.17-10.68,10.7-7.63,17.87-14.47,21.86-20.86s6.16-14.31,6.16-23.15C196.57,30.76,191.54,19.88,181.63,11.81Z"/><path class="cls-1" d="M.21,141c.07.32.12.64.2,1q45.42-.06,90.94-.08L66,167.19c5.07,3.31,9.5,6.72,14.36,9.29a68.61,68.61,0,0,0,32.57,8.33,75.31,75.31,0,0,0,21.76-3.33c1.66-.5,3.39-.83,5.09-1.22.19.27.37.57.56.84-5.83,15.62-16,27.92-30.67,35.79-12.14,6.5-24,9.63-35.48,9.63-16.7,0-32.73-6.59-48.07-19.06h0a.72.72,0,0,0-.25.13L1,232.42l-1-1a5.54,5.54,0,0,0,.14-.88q0-43.41,0-86.8c0-.92,0-1.84.08-2.76"/><path class="cls-1" d="M283.26,141c-.07.32-.13.64-.2.95l-90.95-.07,25.35,25.34c-5.07,3.31-9.49,6.72-14.36,9.29a68.61,68.61,0,0,1-32.57,8.33,75.41,75.41,0,0,1-21.76-3.33c-1.66-.51-3.39-.83-5.08-1.23l-.56.85c5.82,15.62,16,27.92,30.67,35.79,12.13,6.5,24,9.63,35.47,9.63,16.71,0,32.74-6.6,48.08-19.07h0a1.16,1.16,0,0,1,.25.14l24.86,24.82c.34-.34.68-.67,1-1a5.66,5.66,0,0,1-.14-.89q0-43.41,0-86.79c0-.92,0-1.84-.07-2.76"/></g></svg>