<svg xmlns="http://www.w3.org/2000/svg" viewBox="0 0 254.48 283.46"><defs><style>.cls-1{fill:#1d1d1b;}</style></defs><title>Random team</title><g id="Random_team" data-name="Random team"><path class="cls-1" d="M151.3,79.94c2.62-1.41,5.25-2.65,7.87-3.75-8.49-29.74-18.86-58.52-29.54-74.89a2.85,2.85,0,0,0-4.78,0c-10.68,16.37-21,45.15-29.54,74.89,2.63,1.11,5.25,2.35,7.87,3.75a66.79,66.79,0,0,1,24.06,21.6A66.79,66.79,0,0,1,151.3,79.94Z"/><path class="cls-1" d="M254.29,156.91c-.06-.29-.11-.57-.18-.86l-81.64.07,22.75-22.75c-4.55-3-8.52-6-12.89-8.34a61.65,61.65,0,0,0-29.24-7.48,67.76,67.76,0,0,0-19.53,3c-1.49.46-3.05.75-4.56,1.1-.18-.24-.34-.51-.51-.76,5.23-14,14.34-25.06,27.53-32.13,10.9-5.83,21.52-8.64,31.85-8.64,15,0,29.39,5.92,43.16,17.11h0a.48.48,0,0,0,.22-.12Q242.43,86,253.58,74.82l.9.9a4.49,4.49,0,0,0-.13.79q0,39,0,77.93c0,.82,0,1.64-.07,2.47"/><path class="cls-1" d="M.19,156.91c.06-.28.11-.57.18-.85l81.64.07L59.25,133.37c4.55-3,8.53-6,12.89-8.34a61.68,61.68,0,0,1,29.24-7.48,67.5,67.5,0,0,1,19.54,3c1.49.45,3,.74,4.56,1.1l.51-.77c-5.23-14-14.35-25.06-27.53-32.13-10.9-5.83-21.52-8.64-31.86-8.64-15,0-29.38,5.92-43.15,17.12h0a.82.82,0,0,1-.23-.13L.9,74.82l-.9.9a4.45,4.45,0,0,1,.13.8q0,39,0,77.92c0,.82,0,1.64.07,2.47"/><path class="cls-1" d="M236.84,166.23l-58.11,0v-.06h-6.26a10,10,0,0,1-7.07-17.07l9.06-9.06c-.53-2.71-1.09-5.52-1.69-8.41a51,51,0,0,0-19.68-4,58,58,0,0,0-16.64,2.57c-1.41.42-2.76.72-3.94,1l-1.23.28a9.88,9.88,0,0,1-2.29.27,9.17,9.17,0,0,1-1.74-.18,9.49,9.49,0,0,1-1.77.18,9.86,9.86,0,0,1-2.28-.27l-1.2-.27c-1.2-.26-2.55-.56-4-1a58.16,58.16,0,0,0-16.65-2.57,51,51,0,0,0-19.68,4q-.9,4.33-1.69,8.42l9.06,9.06A10,10,0,0,1,82,166.13H75.76v.06l-58.1,0a2.86,2.86,0,0,0-2.86,2.85s59.06,62.33,87.54,90.83L122,279.6c.81.79,1.63,1.56,2.44,2.32l.83.78a2.81,2.81,0,0,0,1.94.76h0a2.81,2.81,0,0,0,1.94-.76l.83-.78c.82-.76,1.63-1.53,2.44-2.32l19.69-19.69c28.48-28.5,87.54-90.83,87.54-90.83A2.86,2.86,0,0,0,236.84,166.23ZM131.05,238.8a8.16,8.16,0,0,1-6,2.14,8.38,8.38,0,0,1-6.1-2.09,7.82,7.82,0,0,1-2.16-5.89c0-2.63.7-4.61,2.11-6a8.6,8.6,0,0,1,6.15-2,8.3,8.3,0,0,1,6,2.07,9.13,9.13,0,0,1,0,11.75ZM146.53,196q-2.34,3.75-8.92,8.44-4.5,3.33-5.7,5.07a7.87,7.87,0,0,0-1.19,4.55v2.82H118.28v-3.47a15.32,15.32,0,0,1,1.93-7.84q1.92-3.33,7-7.09,4.94-3.51,6.5-5.72a8.3,8.3,0,0,0,1.58-4.93,5.33,5.33,0,0,0-2.26-4.65,10.74,10.74,0,0,0-6.28-1.59q-7.05,0-16.06,4.6l-5.11-10.28a44.71,44.71,0,0,1,22.2-5.86q9.66,0,15.37,4.64a15.17,15.17,0,0,1,5.7,12.39A16.46,16.46,0,0,1,146.53,196Z"/></g></svg>