<svg xmlns="http://www.w3.org/2000/svg" viewBox="0 0 283.46 202.93"><defs><style>.cls-1{fill:#1d1d1b;}</style></defs><title>Ready</title><g id="Ready"><path class="cls-1" d="M270.58,0H12.88A12.88,12.88,0,0,0,0,12.88V190.05a12.88,12.88,0,0,0,12.88,12.88h257.7a12.87,12.87,0,0,0,12.88-12.88V12.88A12.88,12.88,0,0,0,270.58,0ZM134.92,149.79a41.67,41.67,0,0,1-15-2.84,1.38,1.38,0,0,1-.84-1.62l3.7-15a1.37,1.37,0,0,1,1.94-.91,23.61,23.61,0,0,0,10.25,2.42,23.85,23.85,0,0,0,5.4-47.08V95.4a1.37,1.37,0,0,1-.72,1.21,1.39,1.39,0,0,1-1.42-.06L107.41,76.12a1.38,1.38,0,0,1-.62-1.15,1.41,1.41,0,0,1,.62-1.15l30.78-20.44a1.37,1.37,0,0,1,2.14,1.15v12.1a41.76,41.76,0,0,1-5.41,83.16Z"/></g></svg>