<svg xmlns="http://www.w3.org/2000/svg" viewBox="0 0 289.98 283.47"><defs><style>.cls-1{fill:#1d1d1b;}</style></defs><title>Remove hand 5</title><g id="Remove_hand_5" data-name="Remove hand 5"><path class="cls-1" d="M124.69,15.71,118.1,4.29a8.57,8.57,0,0,0-11.71-3.14L74.32,19.66l5.63,8Z"/><path class="cls-1" d="M43.39,37.52l.53-.17,17.75-4.76-2.8-4Z"/><path class="cls-1" d="M38.78,40.19,4.29,60.1A8.57,8.57,0,0,0,1.15,71.81L74.33,198.56,35.19,52.48A12.34,12.34,0,0,1,38.78,40.19Z"/><path class="cls-1" d="M44.9,41a8.57,8.57,0,0,0-6.06,10.5L81.2,209.58V60.47L64,35.89Z"/><path class="cls-1" d="M93.55,31.09h79.63l-3.9-14.54a8.54,8.54,0,0,0-10.5-6.06L82.26,31l2.59,3.7A12.27,12.27,0,0,1,93.55,31.09Z"/><polygon class="cls-1" points="84.98 199.69 110.91 102.89 84.98 65.86 84.98 199.69"/><path class="cls-1" d="M126,46.57a12.32,12.32,0,0,1,15.13-8.73L220,59V43.44a8.58,8.58,0,0,0-8.58-8.57H93.55a8.55,8.55,0,0,0-6.49,3l29.86,42.64Z"/><polygon class="cls-1" points="89.09 198.97 129.35 129.22 113.75 106.94 89.09 198.97"/><path class="cls-1" d="M179.31,55.07a12.4,12.4,0,0,1,6.17,1.65l70.6,40.77,4-15A8.58,8.58,0,0,0,254,72L140.16,41.49a8.58,8.58,0,0,0-10.5,6.06l-9.91,37,19.4,27.71,29.45-51A12.4,12.4,0,0,1,179.31,55.07Z"/><path class="cls-1" d="M131.43,146a1.87,1.87,0,0,1,.78-1.22l5.41-3.79-5.87-8.38-45.62,79a8.58,8.58,0,0,0,3.14,11.72l102.1,58.94a8.55,8.55,0,0,0,11.71-3.13l9.45-16.38L131.74,147.44A1.91,1.91,0,0,1,131.43,146Z"/><path class="cls-1" d="M285.69,119,183.59,60a8.57,8.57,0,0,0-11.71,3.14l-30.33,52.53,17.08,24.39a1.89,1.89,0,0,1,.31,1.42,1.85,1.85,0,0,1-.78,1.22l-5.39,3.77,69.57,99.35,66.49-115.16A8.58,8.58,0,0,0,285.69,119Z"/></g><g id="Hand_size_5_decrease" data-name="Hand size 5 decrease"><path class="cls-1" d="M285.69-164.52l-102.1-58.94a8.56,8.56,0,0,0-4.28-1.16,8.56,8.56,0,0,0-7.43,4.29L86.13-71.81A8.57,8.57,0,0,0,89.27-60.1l102.1,59A8.51,8.51,0,0,0,195.64,0a8.58,8.58,0,0,0,7.44-4.29l85.75-148.52A8.58,8.58,0,0,0,285.69-164.52Zm-66.06,61.15a.92.92,0,0,1-.92.92H156.24a.92.92,0,0,1-.91-.92v-17.87a.92.92,0,0,1,.91-.92h62.47a.92.92,0,0,1,.92.92Z"/></g></svg>