<svg xmlns="http://www.w3.org/2000/svg" viewBox="0 0 233.1 283.46"><defs><style>.cls-1{fill:#1d1d1b;}</style></defs><title>Remove</title><g id="Remove"><path class="cls-1" d="M99,147a2.51,2.51,0,0,1,.62-3.51l7.19-5L47.28,53.58.39,228.57a11.4,11.4,0,0,0,8.06,14l151.32,40.54a11.4,11.4,0,0,0,14-8.05l4.11-15.36Z"/><path class="cls-1" d="M224.65,40.94,73.32.39A11.39,11.39,0,0,0,59.37,8.45L55.26,23.8l79.42,113.42a2.52,2.52,0,0,1,.41,1.88,2.49,2.49,0,0,1-1,1.62l-7.17,5,58.93,84.15,46.89-175A11.39,11.39,0,0,0,224.65,40.94Z"/></g></svg>