<svg xmlns="http://www.w3.org/2000/svg" viewBox="0 0 221 283.46"><defs><style>.cls-1{fill:#1d1d1b;}</style></defs><title>Remove top</title><g id="Discard_top" data-name="Discard top"><path class="cls-1" d="M213.16,321.44,72.78,283.83a10.56,10.56,0,0,0-12.94,7.47L5.12,495.5a10.57,10.57,0,0,0,7.47,12.94L153,546.06a10.58,10.58,0,0,0,12.95-7.48l54.71-204.2A10.56,10.56,0,0,0,213.16,321.44ZM152.51,426a1.12,1.12,0,0,1-1.13,1.13h-77A1.12,1.12,0,0,1,73.25,426v-22a1.12,1.12,0,0,1,1.13-1.13h77a1.12,1.12,0,0,1,1.13,1.13Z"/></g><g id="Remove_top" data-name="Remove top"><path class="cls-1" d="M96.55,136.39a2.35,2.35,0,0,1,.57-3.25l6.67-4.66L48.62,49.7h0L5.12,212A10.58,10.58,0,0,0,12.6,225L153,262.59a10.56,10.56,0,0,0,12.95-7.47l3.81-14.24Z"/><path class="cls-1" d="M213.16,38,72.78.36A10.57,10.57,0,0,0,59.84,7.84L56,22.08h0L129.69,127.3a2.32,2.32,0,0,1-.57,3.24l-6.65,4.65,54.67,78.07h0L220.63,50.92A10.55,10.55,0,0,0,213.16,38Z"/><path class="cls-1" d="M181.38,262.64a15.24,15.24,0,0,1-15.23,15.23H21.75a10.56,10.56,0,0,0,9.32,5.59H176.41A10.56,10.56,0,0,0,187,272.9V194.54l-5.59,20.88Z"/><path class="cls-1" d="M157,267.56h-.21c-.3,0-.6.05-.9.05H11.5a10.56,10.56,0,0,0,9.32,5.59H166.15a10.57,10.57,0,0,0,10.57-10.57V232.81L171,254A15.24,15.24,0,0,1,157,267.56Z"/><path class="cls-1" d="M156.8,267.57h0Z"/><path class="cls-1" d="M2.14,222.38A15.14,15.14,0,0,1,.62,210.83L49,30.42H10.57A10.57,10.57,0,0,0,0,41v211.4A10.57,10.57,0,0,0,10.57,263H136.32L11.39,229.48A15.12,15.12,0,0,1,2.14,222.38Z"/></g></svg>