<svg xmlns="http://www.w3.org/2000/svg" viewBox="0 0 226.38 283.46"><defs><style>.cls-1{fill:#1d1d1b;}</style></defs><title>Remove hand 2</title><g id="Play_from_hand_2" data-name="Play from hand 2"><path class="cls-1" d="M226.08,320.88,87.77,283.83a10.15,10.15,0,0,0-2.7-.37A10.44,10.44,0,0,0,75,291.18L21.1,492.39a10.42,10.42,0,0,0,7.37,12.75L166.78,542.2a10.4,10.4,0,0,0,12.76-7.37l53.91-201.19A10.43,10.43,0,0,0,226.08,320.88Zm-64.8,84.67a1.13,1.13,0,0,1-1.11,1.12h-6.6l-9,0c-1.24,9.9-7.15,35.25-13.44,44.87a1.1,1.1,0,0,1-.93.5h0a1.08,1.08,0,0,1-.93-.5c-6.29-9.6-12.21-35-13.45-44.87l-9,0h-6.6a1.13,1.13,0,0,1-1.11-1.12v-.67a1.12,1.12,0,0,1,.47-.92l.2-.12q8.93-8.89,17.84-17.83l10.91-10.9c.31-.3.61-.57.91-.85a1.1,1.1,0,0,1,1.51,0l.9.84,9.37,9.37,19.37,19.36.24.15a1.11,1.11,0,0,1,.45.9Z"/></g><g id="Remove_hand_2" data-name="Remove hand 2"><path class="cls-1" d="M53,15.11A16,16,0,0,1,72.48,3.83l101.8,27.28v-20A11.06,11.06,0,0,0,163.22,0H33.07L50.38,24.72Z"/><path class="cls-1" d="M0,11.07V212.72L42.63,53.64,5.94,1.26A11.06,11.06,0,0,0,0,11.07Z"/><path class="cls-1" d="M131.2,141.41a2.43,2.43,0,0,1-1,1.57l-7,4.86,57.59,82.25L226,61.48a11.06,11.06,0,0,0-7.82-13.55L71.21,8.55a10.94,10.94,0,0,0-2.87-.38,11.08,11.08,0,0,0-10.68,8.2L54,29.94,130.8,139.58A2.42,2.42,0,0,1,131.2,141.41Z"/><path class="cls-1" d="M95.69,147.28a2.48,2.48,0,0,1,1-1.58l7-4.89L46.28,58.86.38,230.16A11.06,11.06,0,0,0,8.2,243.71l147,39.38a11.36,11.36,0,0,0,2.87.37,11.06,11.06,0,0,0,10.68-8.2L173.08,259,96.1,149.1A2.46,2.46,0,0,1,95.69,147.28Z"/></g></svg>