<svg xmlns="http://www.w3.org/2000/svg" viewBox="0 0 260.81 283.46"><defs><style>.cls-1{fill:#1d1d1b;}</style></defs><title>Remove hand 4</title><g id="Remove_hand_4" data-name="Remove hand 4"><path class="cls-1" d="M6.59,32A8.88,8.88,0,0,0,.31,42.85l43.93,164V34.49a12.81,12.81,0,0,1,.81-4.44L40.1,23Z"/><path class="cls-1" d="M139.65,21.67l-4-15.08A8.88,8.88,0,0,0,124.72.31L59.06,17.9l2.64,3.77Z"/><polygon class="cls-1" points="48.16 196.57 79.57 79.34 48.16 34.49 48.16 196.57"/><path class="cls-1" d="M90.72,37.74a12.83,12.83,0,0,1,12.37-9.5,13,13,0,0,1,3.33.44L188.24,50.6V34.49a8.9,8.9,0,0,0-8.89-8.9H64.45L85.8,56.09Z"/><polygon class="cls-1" points="52.43 195.82 101.56 110.72 82.51 83.53 52.43 195.82"/><path class="cls-1" d="M134.91,53a12.8,12.8,0,0,1,17.5-4.69l73.24,42.28L229.82,75a8.89,8.89,0,0,0-6.29-10.89L105.4,32.46a9.16,9.16,0,0,0-2.31-.3,8.89,8.89,0,0,0-8.58,6.59L88.74,60.29l23,32.82Z"/><path class="cls-1" d="M116.34,146.19a2,2,0,0,1,.81-1.27l5.61-3.93L104,114.27,49.36,209a8.89,8.89,0,0,0,3.25,12.15l105.91,61.14A8.9,8.9,0,0,0,170.67,279l17.17-29.74L116.66,147.66A2,2,0,0,1,116.34,146.19Z"/><path class="cls-1" d="M256.36,112.81,150.45,51.66a8.9,8.9,0,0,0-12.15,3.26L114.21,96.66,144.56,140a2,2,0,0,1,.32,1.47,1.92,1.92,0,0,1-.81,1.26l-5.59,3.91,59.53,85L259.62,125A8.91,8.91,0,0,0,256.36,112.81Z"/></g></svg>