<svg xmlns="http://www.w3.org/2000/svg" viewBox="0 0 202.93 283.46"><defs><style>.cls-1{fill:#1d1d1b;}</style></defs><title>Remove played</title><g id="Return"><path class="cls-1" d="M190.05,283.46H12.88A12.89,12.89,0,0,0,0,296.35v257.7a12.88,12.88,0,0,0,12.88,12.88H190.05a12.88,12.88,0,0,0,12.88-12.88V296.35A12.88,12.88,0,0,0,190.05,283.46Zm-50.12,151.8a1.38,1.38,0,0,1-.56,1.11l-.29.19-24,23.95-11.59,11.6c-.36.35-.73.69-1.11,1a1.37,1.37,0,0,1-1.87,0c-.38-.35-.75-.69-1.13-1.06L85.92,458.6,63.83,436.54l-.24-.15a1.38,1.38,0,0,1-.59-1.13v-.83a1.38,1.38,0,0,1,1.38-1.38h19.3c1.54-12.28,8.86-43.65,16.64-55.53a1.37,1.37,0,0,1,1.15-.62h0a1.38,1.38,0,0,1,1.15.62c7.78,11.91,15.09,43.27,16.63,55.53h19.29a1.38,1.38,0,0,1,1.38,1.38Z"/></g><g id="Remove_played" data-name="Remove played"><path class="cls-1" d="M122.44,138.76a2.9,2.9,0,0,1-1.17,1.83l-8.11,5.66L202.5,273.84h0a13,13,0,0,0,.43-3.27V12.88A12.88,12.88,0,0,0,190.05,0H26.3L122,136.63A2.87,2.87,0,0,1,122.44,138.76Z"/><path class="cls-1" d="M81.09,145.59a2.82,2.82,0,0,1,1.17-1.83l8.13-5.69L.43,9.63A12.93,12.93,0,0,0,0,12.88v257.7a12.88,12.88,0,0,0,12.88,12.88H176.64L81.56,147.72A2.87,2.87,0,0,1,81.09,145.59Z"/></g></svg>