<svg xmlns="http://www.w3.org/2000/svg" viewBox="0 0 257.39 283.46"><defs><style>.cls-1{fill:#1d1d1b;}</style></defs><title>Remove hand 3</title><g id="Remove_hand_3" data-name="Remove hand 3"><path class="cls-1" d="M63.82,24.24H156.2L151.68,7.38a10,10,0,0,0-12.18-7l-78,20.9,2.11,3Z"/><path class="cls-1" d="M7.37,35.74a10,10,0,0,0-7,12.19l49.15,183.4V40l-9.18-13.1Z"/><path class="cls-1" d="M101.48,42.21A14.32,14.32,0,0,1,119,32.08L210.55,56.6v-18a10,10,0,0,0-10-9.94H66.68l27.8,39.7Z"/><polygon class="cls-1" points="53.87 219.86 87.51 94.32 53.87 46.28 53.87 219.86"/><path class="cls-1" d="M113,146.72a2.23,2.23,0,0,1,.91-1.42l6.27-4.4L90.8,99,54.21,235.54a10,10,0,0,0,7,12.18l132.12,35.4a9.94,9.94,0,0,0,11.15-4.57l-91.19-130.2A2.19,2.19,0,0,1,113,146.72Z"/><path class="cls-1" d="M144.88,141.44a2.16,2.16,0,0,1-.9,1.41l-6.26,4.38,74,105.71,45.3-169a10,10,0,0,0-7-12.18L117.89,36.31a9.94,9.94,0,0,0-12.18,7L97.76,73l46.76,66.78A2.13,2.13,0,0,1,144.88,141.44Z"/></g></svg>