<svg xmlns="http://www.w3.org/2000/svg" viewBox="0 0 209.45 283.46"><defs><style>.cls-1{fill:#1d1d1b;}</style></defs><title>Remove (from) deck</title><g id="Remove_from_deck" data-name="Remove (from) deck"><path class="cls-1" d="M24.37,277.2a11.82,11.82,0,0,0,10.44,6.26h147l-4.39-6.26Z"/><path class="cls-1" d="M203.18,24.37V260.14a17,17,0,0,1-2,8.09l6.62,9.46a10.72,10.72,0,0,0,1.69-6.07V34.81A11.83,11.83,0,0,0,203.18,24.37Z"/><path class="cls-1" d="M198,260.14V23.33a11.85,11.85,0,0,0-6.26-10.45V248.65a17,17,0,0,1-.76,5l6.63,9.46A11.84,11.84,0,0,0,198,260.14Z"/><path class="cls-1" d="M12.88,265.71A11.83,11.83,0,0,0,23.32,272H173.81l-4.4-6.27Z"/><path class="cls-1" d="M124,139a2.61,2.61,0,0,1-1.08,1.68l-7.45,5.2,71,101.41V11.84A11.85,11.85,0,0,0,174.64,0H27.6l96,137.05A2.58,2.58,0,0,1,124,139Z"/><path class="cls-1" d="M86,145.28a2.65,2.65,0,0,1,1.07-1.69l7.47-5.22L1.68,5.78A10.71,10.71,0,0,0,0,11.84V248.65a11.84,11.84,0,0,0,11.84,11.84H165.76L86.43,147.23A2.59,2.59,0,0,1,86,145.28Z"/><path class="cls-1" d="M12.88,265.71A11.83,11.83,0,0,0,23.32,272H173.81l-4.4-6.27Z"/><path class="cls-1" d="M198,260.14V23.33a11.85,11.85,0,0,0-6.26-10.45V248.65a17,17,0,0,1-.76,5l6.63,9.46A11.84,11.84,0,0,0,198,260.14Z"/></g></svg>