<svg xmlns="http://www.w3.org/2000/svg" viewBox="0 0 202.93 283.47"><defs><style>.cls-1{fill:#1d1d1b;}</style></defs><title>Return</title><g id="Lose_played" data-name="Lose played"><path class="cls-1" d="M190.05,283.47H12.88A12.88,12.88,0,0,0,0,296.35v257.7a12.88,12.88,0,0,0,12.88,12.88H190.05a12.88,12.88,0,0,0,12.88-12.88V296.35A12.88,12.88,0,0,0,190.05,283.47ZM123.28,463.81a1.21,1.21,0,0,1-1.72,0L101.45,443.7,81.36,463.79a1.23,1.23,0,0,1-1.73,0L62.88,447a1.22,1.22,0,0,1,0-1.73L83,425.22,62.86,405.11a1.22,1.22,0,0,1,0-1.73l16.79-16.79a1.23,1.23,0,0,1,1.73,0l20.11,20.11,20.09-20.09a1.21,1.21,0,0,1,1.72,0l16.76,16.75a1.23,1.23,0,0,1,0,1.73L120,425.18l20.11,20.11a1.23,1.23,0,0,1,0,1.72Z"/></g><g id="Return"><path class="cls-1" d="M190.05,0H12.88A12.88,12.88,0,0,0,0,12.88v257.7a12.89,12.89,0,0,0,12.88,12.89H190.05a12.88,12.88,0,0,0,12.88-12.89V12.88A12.88,12.88,0,0,0,190.05,0ZM139.93,151.79a1.37,1.37,0,0,1-.56,1.11,2.09,2.09,0,0,1-.29.19l-24,24-11.59,11.59-1.11,1.05a1.38,1.38,0,0,1-1.87,0c-.38-.34-.75-.69-1.13-1.05L85.92,175.14q-11-11-22.09-22.06l-.24-.15a1.4,1.4,0,0,1-.59-1.14V151a1.38,1.38,0,0,1,1.38-1.38h8.16l11.14,0c1.54-12.27,8.86-43.64,16.64-55.52a1.37,1.37,0,0,1,1.15-.62h0a1.38,1.38,0,0,1,1.15.62c7.78,11.91,15.09,43.26,16.63,55.52l11.14,0h8.15a1.38,1.38,0,0,1,1.38,1.38Z"/></g><g id="Remove_played" data-name="Remove played"><path class="cls-1" d="M81.09-137.87a2.87,2.87,0,0,1,1.17-1.84l8.13-5.68L.43-273.83A12.87,12.87,0,0,0,0-270.58v257.7A12.88,12.88,0,0,0,12.88,0H176.64L81.56-135.74A2.88,2.88,0,0,1,81.09-137.87Z"/></g></svg>