<svg xmlns="http://www.w3.org/2000/svg" viewBox="0 0 241.23 283.46"><defs><style>.cls-1{fill:#1d1d1b;}</style></defs><title>Return from hand</title><g id="Use_played" data-name="Use played"><path class="cls-1" d="M209.2,283.46H32a12.89,12.89,0,0,0-12.88,12.89v257.7A12.88,12.88,0,0,0,32,566.93H209.2a12.88,12.88,0,0,0,12.88-12.88V296.35A12.89,12.89,0,0,0,209.2,283.46ZM102.36,386.23a1.4,1.4,0,0,1,1.12.56l.2.3q12.12,12.15,24.26,24.29l11.75,11.74,1.06,1.12a1.4,1.4,0,0,1,0,1.9c-.35.38-.69.76-1.06,1.14L126,441q-11.19,11.18-22.35,22.38c0,.07-.1.16-.16.24a1.4,1.4,0,0,1-1.14.59h-.84a1.4,1.4,0,0,1-1.4-1.39V387.63a1.4,1.4,0,0,1,1.4-1.4Z"/></g><g id="Return_from_hand" data-name="Return from hand"><path class="cls-1" d="M217.14,207.73,173.81,46l37.94-3.32A10.42,10.42,0,0,1,223,52.16l18.16,207.5A10.43,10.43,0,0,1,231.72,271L89.07,283.42A10.41,10.41,0,0,1,77.78,274l-1.14-13,129.88-34.8A15,15,0,0,0,217.14,207.73Z"/><path class="cls-1" d="M212.7,208.92,158.79,7.72A10.39,10.39,0,0,0,146,.36L7.72,37.42A10.41,10.41,0,0,0,.36,50.17l53.91,201.2A10.43,10.43,0,0,0,67,258.74l138.31-37.07A10.41,10.41,0,0,0,212.7,208.92Zm-74.47-60.34a37.62,37.62,0,0,1-13.4,23.78,1.1,1.1,0,0,1-1.06.21l-.27-.06a1.53,1.53,0,0,0-.25-.06,1.11,1.11,0,0,1-.81-.94l-.11-.79c-.09-.71-.2-1.45-.25-2.19a38.19,38.19,0,0,0-12.88-27.08,54.55,54.55,0,0,0-5-3.84l-1.55-1.12-7.94,17a1.11,1.11,0,0,1-2.06-.09q-4.9-13.37-9.82-26.68l-7.61-20.69A1.14,1.14,0,0,1,75,106a1.11,1.11,0,0,1-.54-1.48v0a1.07,1.07,0,0,1,.6-.56l.28-.11,1.21-.47q12.63-4.52,25.29-9.08l20.8-7.48a.47.47,0,0,0,.1,0l.18-.11a1.09,1.09,0,0,1,1,0l.72.34a1.12,1.12,0,0,1,.55,1.48L119.8,99.9l-2.61,5.62C133.74,115.73,140.82,130.21,138.23,148.58Z"/></g></svg>