<svg xmlns="http://www.w3.org/2000/svg" viewBox="0 0 253.04 283.46"><defs><style>.cls-1{fill:#1d1d1b;}</style></defs><title>Return to top</title><g id="Return_to_top" data-name="Return to top"><path class="cls-1" d="M22.73,258.61a11,11,0,0,0,9.75,5.84H76.67l-1.56-5.84Z"/><path class="cls-1" d="M12,247.89a11,11,0,0,0,9.74,5.85h52l-1.57-5.85Z"/><path class="cls-1" d="M34,43.64l139-37.24a11,11,0,0,0-10-6.4H11A11,11,0,0,0,0,11V232a11,11,0,0,0,11,11H70.93L22.73,63.13A15.93,15.93,0,0,1,34,43.64Z"/><path class="cls-1" d="M252.66,230.25,195.48,16.84a11.07,11.07,0,0,0-10.67-8.19A10.87,10.87,0,0,0,182,9L35.24,48.34a11.05,11.05,0,0,0-7.81,13.53l57.18,213.4a11.06,11.06,0,0,0,10.67,8.19,11.28,11.28,0,0,0,2.86-.37l146.71-39.32A11,11,0,0,0,252.66,230.25Zm-81.48-58.12A39.89,39.89,0,0,1,157,197.35a1.19,1.19,0,0,1-1.13.23,2.76,2.76,0,0,0-.27-.08l-.27-.06a1.19,1.19,0,0,1-.87-1l-.11-.83c-.1-.76-.21-1.55-.26-2.34a40.53,40.53,0,0,0-13.67-28.71,56.67,56.67,0,0,0-5.31-4.08l-1.65-1.18L125,177.37a1.18,1.18,0,0,1-2.18-.09q-5.22-14.17-10.41-28.31l-8.09-22a.78.78,0,0,1-.27-.09,1.17,1.17,0,0,1-.57-1.57h0a1.16,1.16,0,0,1,.64-.61l.29-.11c.43-.17.85-.34,1.29-.49l26.82-9.64,22.07-7.93.1-.06.19-.11a1.18,1.18,0,0,1,1.08,0l.76.35a1.19,1.19,0,0,1,.58,1.57q-2.83,6.1-5.68,12.21l-2.77,6C166.42,137.28,173.93,152.64,171.18,172.13Z"/></g><g id="Discard_top" data-name="Discard top"><path class="cls-1" d="M197.4-20.82A15.24,15.24,0,0,1,182.17-5.59H37.77A10.56,10.56,0,0,0,47.09,0H192.42A10.58,10.58,0,0,0,203-10.57V-88.92L197.4-68Z"/></g></svg>