<svg xmlns="http://www.w3.org/2000/svg" viewBox="0 0 283.46 184.7"><defs><style>.cls-1{fill:#1d1d1b;}</style></defs><title>Right</title><g id="Right"><path class="cls-1" d="M282.64,1.92q-91.72-.09-183.7-.16L150.15,53c-10.24,6.69-19.18,13.56-29,18.77C86.08,90.32,49.35,93.23,11.41,81.82c-3.36-1-6.86-1.68-10.27-2.48C.75,79.9.38,80.49,0,81.06c11.77,31.54,32.27,56.38,62,72.29,60.12,32.17,116.43,23.47,168.76-19.06a1.38,1.38,0,0,1,.5.27q25.13,25,50.23,50.14l2-2a10.49,10.49,0,0,1-.28-1.8q0-87.67,0-175.32c0-1.85-.09-3.7-.16-5.56C282.91.64,282.79,1.28,282.64,1.92Z"/></g><g id="Left"><path class="cls-1" d="M-282.64,1.92q91.72-.09,183.7-.16L-150.15,53c10.24,6.69,19.18,13.56,29,18.77,35.06,18.59,71.79,21.5,109.73,10.09,3.36-1,6.86-1.68,10.27-2.48.39.56.76,1.15,1.14,1.72-11.77,31.54-32.27,56.38-61.95,72.29-60.12,32.17-116.43,23.47-168.76-19.06a1.47,1.47,0,0,0-.5.27q-25.13,25-50.23,50.14l-2-2a10.49,10.49,0,0,0,.28-1.8q0-87.67,0-175.32c0-1.85.09-3.7.16-5.56C-282.91.64-282.79,1.28-282.64,1.92Z"/></g></svg>