<svg xmlns="http://www.w3.org/2000/svg" viewBox="0 0 261.35 283.46"><defs><style>.cls-1{fill:#1d1d1b;}</style></defs><title>Sea</title><g id="Sea"><path id="Sea-2" data-name="Sea" class="cls-1" d="M131.37,55.14a16.07,16.07,0,1,1,16.06-16.06,16.08,16.08,0,0,1-16.06,16.06ZM261.06,195.71l-8.55-53.3A10.77,10.77,0,0,0,234,137.13l-39.41,37a11.81,11.81,0,0,0-1.88,2,11.54,11.54,0,0,0,2.42,16,13.85,13.85,0,0,0,3.09,1.62l9.88,3.3a82.37,82.37,0,0,1-61.45,53.1l0-175a39.18,39.18,0,1,0-30.39,0l0,175.3A82.89,82.89,0,0,1,53.13,197l10-3.3a14.71,14.71,0,0,0,3.08-1.62,11.43,11.43,0,0,0,2.39-16,10.54,10.54,0,0,0-1.84-2l-39.42-37a10.79,10.79,0,0,0-18.55,5.28L.23,195.73A12.07,12.07,0,0,0,0,198.4a11.44,11.44,0,0,0,11.41,11.43,10.14,10.14,0,0,0,3.36-.51l9.29-3a112.22,112.22,0,0,0,213.21-.05l9.26,3.08a10.63,10.63,0,0,0,3.36.49,11.44,11.44,0,0,0,11.45-11.43,9.81,9.81,0,0,0-.24-2.67Z"/></g></svg>