<svg xmlns="http://www.w3.org/2000/svg" viewBox="0 0 210.03 283.46"><defs><style>.cls-1{fill:#1d1d1b;}</style></defs><title>Search hand 4</title><g id="Random_from_hand_4" data-name="Random from hand 4"><path class="cls-1" d="M143.59,283.46H45.11A7.16,7.16,0,0,0,38,290.63V433.87a7.17,7.17,0,0,0,7.15,7.18h7.83l19.29-72a10.34,10.34,0,0,1,10-7.65,10,10,0,0,1,2.67.35l65.9,17.66V290.63A7.17,7.17,0,0,0,143.59,283.46ZM97.24,355.37A6.2,6.2,0,0,1,92.68,357a6.36,6.36,0,0,1-4.62-1.6,5.91,5.91,0,0,1-1.63-4.46,6,6,0,0,1,1.6-4.52,6.45,6.45,0,0,1,4.65-1.52,6.34,6.34,0,0,1,4.58,1.56,6.94,6.94,0,0,1,0,8.91ZM109,323c-1.19,1.9-3.44,4-6.76,6.4a21.46,21.46,0,0,0-4.33,3.84,6.15,6.15,0,0,0-.9,3.46v2.13H87.57v-2.63A11.67,11.67,0,0,1,89,330.21a19.35,19.35,0,0,1,5.33-5.38,22.8,22.8,0,0,0,4.94-4.33,6.34,6.34,0,0,0,1.18-3.74,4.06,4.06,0,0,0-1.7-3.52A8.13,8.13,0,0,0,94,312q-5.34,0-12.17,3.48L78,307.72a33.92,33.92,0,0,1,16.83-4.44q7.32,0,11.65,3.52a11.48,11.48,0,0,1,4.31,9.39A12.55,12.55,0,0,1,109,323Z"/></g><g id="Search_hand_4" data-name="Search hand 4"><path class="cls-1" d="M46,160.74a10.34,10.34,0,0,1-10.32-10.33V72.8L5.31,80.92A7.18,7.18,0,0,0,.24,89.69L36.1,223.5l16.82-62.76Z"/><path class="cls-1" d="M108.64,97.83a10.31,10.31,0,0,1,14.1-3.77l59,34.05,3.35-12.52a7.17,7.17,0,0,0-5.06-8.77L84.88,81.33A6.87,6.87,0,0,0,83,81.08a7.19,7.19,0,0,0-6.92,5.31L42.22,212.87Z"/><path class="cls-1" d="M117.59,95.82a7.07,7.07,0,0,1,3.57,1L206.45,146a7.16,7.16,0,0,1,2.62,9.79L137.45,279.88a7.18,7.18,0,0,1-6.22,3.58,7.08,7.08,0,0,1-3.56-1l-85.3-49.24a7.16,7.16,0,0,1-2.62-9.79L111.37,99.41a7.2,7.2,0,0,1,6.22-3.59"/><path class="cls-1" d="M88.58,25a15.12,15.12,0,1,0,10.71,4.42A15,15,0,0,0,88.58,25Z"/><path class="cls-1" d="M144.44,0H46a7.16,7.16,0,0,0-7.16,7.17V150.41A7.16,7.16,0,0,0,46,157.58h7.82l19.3-72a10.31,10.31,0,0,1,10-7.65,10,10,0,0,1,2.67.35l65.9,17.65V7.17A7.17,7.17,0,0,0,144.44,0ZM121.81,67.91c-.83,2-4.41,5.62-6.45,5.62a1.39,1.39,0,0,1-1-.42s-13.06-13-13.65-13.64-.21-1.73.23-2.42l-.2-.2a20.59,20.59,0,0,1-11.94,3.84A20.44,20.44,0,1,1,103.23,25.8a20.5,20.5,0,0,1,2.15,26.37l.19.2a3.08,3.08,0,0,1,1.56-.57,1.21,1.21,0,0,1,.86.33l13.64,13.64A1.83,1.83,0,0,1,121.81,67.91Z"/></g></svg>