<svg xmlns="http://www.w3.org/2000/svg" viewBox="0 0 241.22 283.47"><defs><style>.cls-1{fill:#1d1d1b;}</style></defs><title>Search hand 2</title><g id="Random_from_hand_2" data-name="Random from hand 2"><path class="cls-1" d="M233.5,320.88,95.19,283.83a10.15,10.15,0,0,0-2.7-.37,10.42,10.42,0,0,0-10,7.73L28.53,492.39a10.4,10.4,0,0,0,7.36,12.75L174.2,542.2A10.39,10.39,0,0,0,187,534.84l53.92-201.2A10.43,10.43,0,0,0,233.5,320.88ZM141.81,449.71a9,9,0,0,1-6.63,2.35,9.26,9.26,0,0,1-6.72-2.3,8.61,8.61,0,0,1-2.38-6.49c0-2.89.77-5.09,2.32-6.57s3.82-2.22,6.78-2.22a9.13,9.13,0,0,1,6.65,2.28,10.06,10.06,0,0,1,0,12.95Zm17.06-47.15q-2.58,4.14-9.83,9.31-5,3.67-6.28,5.59a8.66,8.66,0,0,0-1.32,5v3.1h-13.7v-3.83a16.86,16.86,0,0,1,2.12-8.63q2.12-3.67,7.75-7.82,5.43-3.87,7.17-6.31a9.17,9.17,0,0,0,1.73-5.43,5.89,5.89,0,0,0-2.48-5.12,11.88,11.88,0,0,0-6.93-1.76q-7.77,0-17.69,5.07l-5.64-11.32A49.27,49.27,0,0,1,138.23,374q10.67,0,16.94,5.12a16.72,16.72,0,0,1,6.29,13.65A18.11,18.11,0,0,1,158.87,402.56Z"/></g><g id="Search_hand_2" data-name="Search hand 2"><path class="cls-1" d="M24.09,207.73,67.42,46,29.48,42.69a10.43,10.43,0,0,0-11.29,9.47L0,259.66A10.42,10.42,0,0,0,9.51,271l142.65,12.48A10.42,10.42,0,0,0,163.44,274l1.14-13L34.7,226.11A15,15,0,0,1,24.09,207.73Z"/><path class="cls-1" d="M128,98a22,22,0,1,0,15.55,6.43A21.82,21.82,0,0,0,128,98Z"/><path class="cls-1" d="M233.5,37.42,95.19.36A10.39,10.39,0,0,0,82.44,7.72L28.52,208.92a10.41,10.41,0,0,0,7.37,12.75L174.2,258.74A10.43,10.43,0,0,0,187,251.37L240.87,50.18A10.43,10.43,0,0,0,233.5,37.42Zm-57.18,123c-1.23,2.93-6.42,8.18-9.39,8.18a2.15,2.15,0,0,1-1.54-.6l-19.83-19.84c-1-1-.29-2.51.33-3.52l-.29-.29a29.91,29.91,0,0,1-17.35,5.58A29.72,29.72,0,1,1,149.3,99.2a29.78,29.78,0,0,1,3.11,38.34l.29.29A4.46,4.46,0,0,1,155,137a1.76,1.76,0,0,1,1.25.49l19.84,19.84C176.56,157.82,177,158.76,176.32,160.42Z"/></g><g id="Play_from_hand_2" data-name="Play from hand 2"><path class="cls-1" d="M24.09-75.73,67.42-237.45l-37.94-3.32a10.43,10.43,0,0,0-11.29,9.47L0-23.8A10.41,10.41,0,0,0,9.51-12.52L152.16,0a10.41,10.41,0,0,0,11.27-9.47l1.15-13L34.7-57.36A15,15,0,0,1,24.09-75.73Z"/></g></svg>