<svg xmlns="http://www.w3.org/2000/svg" viewBox="0 0 240.82 281.81"><defs><style>.cls-1{fill:#1d1d1b;}</style></defs><title>Search hand 5</title><g id="Search_hand_5" data-name="Search hand 5"><path class="cls-1" d="M29.22,90a10.27,10.27,0,0,1,3-10.21L3.56,96.31A7.14,7.14,0,0,0,1,106L61.73,211.3Z"/><path class="cls-1" d="M67.42,59.44,36.05,77.56a2.92,2.92,0,0,1,.42-.13l31-8.3Z"/><path class="cls-1" d="M77.69,159.8a10.28,10.28,0,0,1-10.27-10.26V72.38L37.29,80.46a7.11,7.11,0,0,0-5,8.71l35.65,133L84.62,159.8Z"/><path class="cls-1" d="M140,97.27a10.27,10.27,0,0,1,14-3.76l58.64,33.85L216,114.92a7.13,7.13,0,0,0-5-8.71L116.4,80.86a7.42,7.42,0,0,0-1.86-.24,7.14,7.14,0,0,0-6.87,5.27L74,211.63Z"/><path class="cls-1" d="M148.9,95.28a7,7,0,0,1,3.56,1l84.79,48.94a7.12,7.12,0,0,1,2.61,9.73L168.65,278.25a7.12,7.12,0,0,1-6.18,3.56,7,7,0,0,1-3.55-1L74.13,231.91a7.13,7.13,0,0,1-2.6-9.74l71.2-123.33a7.13,7.13,0,0,1,6.17-3.56"/><path class="cls-1" d="M175.6,0H77.69a7.13,7.13,0,0,0-7.12,7.12V149.54a7.13,7.13,0,0,0,7.12,7.13h7.77l19.18-71.59a10.27,10.27,0,0,1,9.9-7.6,10,10,0,0,1,2.67.35l65.51,17.55V7.12A7.13,7.13,0,0,0,175.6,0ZM153.1,67.51c-.83,2-4.38,5.59-6.41,5.59a1.45,1.45,0,0,1-1.05-.4L132.07,59.13c-.67-.68-.19-1.71.23-2.4l-.19-.2a20.5,20.5,0,0,1-11.86,3.81,20.32,20.32,0,1,1,16.51-8.47l.19.19a3.28,3.28,0,0,1,1.57-.57,1.22,1.22,0,0,1,.85.34l13.57,13.56A1.83,1.83,0,0,1,153.1,67.51Z"/><path class="cls-1" d="M120.07,24.81a14.88,14.88,0,0,0-10.62,4.4,15.05,15.05,0,1,0,10.62-4.4Z"/></g></svg>