<svg xmlns="http://www.w3.org/2000/svg" viewBox="0 0 209.45 283.46"><defs><style>.cls-1{fill:#1d1d1b;}</style></defs><title>Search deck</title><g id="Shuffle_deck" data-name="Shuffle deck"><path class="cls-1" d="M177.52,282.17V517.94A17.07,17.07,0,0,1,160.47,535H-1.29a11.83,11.83,0,0,0,10.44,6.27H172a11.84,11.84,0,0,0,11.84-11.84V292.61A11.83,11.83,0,0,0,177.52,282.17Z"/><path class="cls-1" d="M160.46,269.29H-2.34a11.84,11.84,0,0,0-11.83,11.84V517.94A11.84,11.84,0,0,0-2.34,529.78h162.8a11.85,11.85,0,0,0,11.85-11.84V281.13A11.85,11.85,0,0,0,160.46,269.29ZM27.84,364.43c-1.77-2.13-2.67-4.56-1.57-7.26a10.14,10.14,0,0,1,2.31-3.37q6.22-6,12.61-11.73c1.65-1.5,3.11-3.27,5.28-4.1l1.55-.6H50.4c3.55.83,5.85,3.56,8.53,5.68,3.9,3.11,7.67,6.35,11.53,9.49a7.75,7.75,0,0,1,1.72,9.55,7.51,7.51,0,0,1-9,4,13.13,13.13,0,0,1-4.66-2.7c-.19-.16-.41-.3-.8-.58A32.53,32.53,0,0,0,63.2,378.6c3.18,4.68,7.6,8.1,12.14,11.58-.8.56-1.46,1-2.14,1.46q-5.73,3.78-11.5,7.52a.92.92,0,0,1-.88-.07c-2.54-2.4-5.16-4.73-7.53-7.29A41.72,41.72,0,0,1,45,378.57a48.66,48.66,0,0,1-3.06-12.67c-.07-.72-.16-1.43-.25-2.3-1,.83-1.83,1.55-2.68,2.24C35.41,368.75,30.52,367.63,27.84,364.43Zm93.23,89.31a7.82,7.82,0,0,1-6.14,7.65c-.28.08-.55.2-.83.3h-2.77a21.21,21.21,0,0,1-3.24-1.39c-2.5-1.61-3.09-4.11-3-6.91a53,53,0,0,0-.71-11.66A32.25,32.25,0,0,0,96.22,425a65.14,65.14,0,0,0-11.07-9.07L83,414.44c1-.65,1.87-1.23,2.74-1.83,3.53-2.43,7.06-4.84,10.56-7.31a.9.9,0,0,1,1.34,0,75.58,75.58,0,0,1,10.15,9.52,54.16,54.16,0,0,1,9.53,15.29A55.52,55.52,0,0,1,121.07,453.74ZM128.58,366c-3.57,2.42-7.28,2-10.42-1-.47-.45-1-.88-1.62-1.47-.16,1.43-.29,2.65-.45,3.87a44.26,44.26,0,0,1-9.41,22.34,73,73,0,0,1-16,14.45c-5.35,3.67-10.81,7.19-16.22,10.76a75.29,75.29,0,0,0-11.21,8.76,32.4,32.4,0,0,0-9.27,17.15A60.93,60.93,0,0,0,53,453.79a11,11,0,0,1-.63,3.77,6.28,6.28,0,0,1-4.53,3.78l-1,.35H44.07a23,23,0,0,1-3.28-1.35c-2.55-1.5-3.58-3.92-3.71-6.81a58,58,0,0,1,1.88-18,50.42,50.42,0,0,1,4.74-11.39,60.3,60.3,0,0,1,11.7-14.5,93.12,93.12,0,0,1,12.12-9.35c5.44-3.6,10.93-7.13,16.26-10.88a45.2,45.2,0,0,0,10.66-10.09,32.21,32.21,0,0,0,5.82-15c0-.42.08-.84.16-1.52l-1.74,1.34c-2.26,1.76-4.76,2.77-7.64,2a8.06,8.06,0,0,1-5.73-9.86,6.59,6.59,0,0,1,2.25-3.63c5-4.12,10-8.17,15-12.34a14.33,14.33,0,0,1,5.26-3h2.38c3.4.88,5.53,3.57,8,5.78,3.82,3.45,7.51,7.05,11.34,10.48C134.13,357.79,132.6,363.26,128.58,366Z"/></g><g id="Search_deck" data-name="Search deck"><path class="cls-1" d="M203.18,24.37V260.14a17.08,17.08,0,0,1-17.06,17.06H24.37a11.82,11.82,0,0,0,10.44,6.26h162.8a11.84,11.84,0,0,0,11.84-11.84V34.81A11.83,11.83,0,0,0,203.18,24.37Z"/><path class="cls-1" d="M191.7,12.88V248.65a17.08,17.08,0,0,1-17.06,17.06H12.88A11.83,11.83,0,0,0,23.33,272H186.12A11.84,11.84,0,0,0,198,260.14V23.32A11.83,11.83,0,0,0,191.7,12.88Z"/><path class="cls-1" d="M174.64,0H11.84A11.84,11.84,0,0,0,0,11.84V248.65a11.84,11.84,0,0,0,11.84,11.84h162.8a11.84,11.84,0,0,0,11.84-11.84V11.84A11.84,11.84,0,0,0,174.64,0ZM137.23,165.34c-1.38,3.33-7.29,9.3-10.66,9.3a2.4,2.4,0,0,1-1.75-.68L102.27,151.4c-1.11-1.12-.33-2.85.37-4l-.32-.33a34,34,0,0,1-19.72,6.34,33.79,33.79,0,1,1,23.93-57.67,33.85,33.85,0,0,1,3.53,43.58l.33.33a5.07,5.07,0,0,1,2.58-.95,1.94,1.94,0,0,1,1.42.56L137,161.83C137.51,162.39,138,163.46,137.23,165.34Z"/><path class="cls-1" d="M82.32,94.33A25,25,0,1,0,100,101.65,24.81,24.81,0,0,0,82.32,94.33Z"/></g></svg>