<svg xmlns="http://www.w3.org/2000/svg" viewBox="0 0 202.6 283.46"><defs><style>.cls-1{fill:#1d1d1b;}</style></defs><title>Search hand 3</title><g id="Search_hand_3" data-name="Search hand 3"><path class="cls-1" d="M50.24,175.73A11.28,11.28,0,0,1,39,164.45V79.6L5.81,88.48A7.81,7.81,0,0,0,.27,98.06l39.2,146.3,18.39-68.63Z"/><path class="cls-1" d="M90.77,88.65a7.79,7.79,0,0,1,2,.27l104,27.87a7.81,7.81,0,0,1,5.53,9.58L161.8,277.66a7.84,7.84,0,0,1-7.56,5.8,7.46,7.46,0,0,1-2-.27l-104-27.85a7.84,7.84,0,0,1-5.53-9.61L83.21,94.46a7.82,7.82,0,0,1,7.56-5.81"/><path class="cls-1" d="M96.85,22.49a16.53,16.53,0,1,0,11.68,4.83A16.42,16.42,0,0,0,96.85,22.49Z"/><path class="cls-1" d="M157.9,0H50.24A7.83,7.83,0,0,0,42.4,7.82V164.45a7.83,7.83,0,0,0,7.84,7.83h8.55L79.87,93.56a11.31,11.31,0,0,1,10.9-8.37,11.6,11.6,0,0,1,2.92.39l72,19.32V7.82A7.83,7.83,0,0,0,157.9,0ZM133.17,69.46c-.93,2.21-4.83,6.15-7,6.15a1.58,1.58,0,0,1-1.17-.46L110,60.23c-.72-.73-.21-1.89.26-2.63l-.22-.22a22.44,22.44,0,0,1-13,4.2,22.36,22.36,0,1,1,18.16-9.33l.23.23a3.22,3.22,0,0,1,1.7-.63,1.25,1.25,0,0,1,.94.37L133,67.14C133.35,67.5,133.69,68.21,133.17,69.46Z"/></g><g id="Play_from_hand_3" data-name="Play from hand 3"><path class="cls-1" d="M90.77-194.81a8.29,8.29,0,0,1,2,.26l104,27.87a7.83,7.83,0,0,1,5.53,9.59L161.8-5.81A7.85,7.85,0,0,1,154.24,0a7.63,7.63,0,0,1-2-.27l-104-27.86a7.83,7.83,0,0,1-5.54-9.6L83.21-189a7.82,7.82,0,0,1,7.56-5.81"/></g></svg>