<svg xmlns="http://www.w3.org/2000/svg" viewBox="0 0 236.94 283.46"><defs><style>.cls-1{fill:#1d1d1b;fill-rule:evenodd;}</style></defs><title>Shield</title><g id="Shield"><path class="cls-1" d="M27.79,66.29c-1.12,48.49,9.84,84.82,25.07,115.2a188.63,188.63,0,0,0,27.31,40.79,113.9,113.9,0,0,0,38.18,28.49l.13-.06.12.06a114,114,0,0,0,38.17-28.49,188.3,188.3,0,0,0,27.32-40.79c15.23-30.38,26.2-66.71,25.06-115.2-36.61-3.91-67.83-14-90.67-33.61C95.64,52.26,64.4,62.38,27.79,66.29Z"/><path class="cls-1" d="M233.94,42.72c-49.69-5.34-86.76-19.07-113.35-42a3.32,3.32,0,0,0-4.23,0C89.77,23.65,52.7,37.38,3,42.72A3.26,3.26,0,0,0,.11,45.88C-1.18,100.36,9,147.33,32.22,193.71A243.92,243.92,0,0,0,67.4,246.19a148.91,148.91,0,0,0,49.53,37,3.18,3.18,0,0,0,1.36.3,1.62,1.62,0,0,0,.19,0,1.29,1.29,0,0,0,.19,0,3.24,3.24,0,0,0,1.36-.3,149,149,0,0,0,49.52-37,244.7,244.7,0,0,0,35.19-52.48c23.18-46.38,33.38-93.35,32.1-147.83A3.27,3.27,0,0,0,233.94,42.72ZM192.83,186.79a216.52,216.52,0,0,1-31,46.18,129.16,129.16,0,0,1-43.22,32.29l-.16-.08-.17.08A129.29,129.29,0,0,1,75.08,233a216.52,216.52,0,0,1-31-46.18C26.9,152.33,14.52,111.18,15.77,56.27c41.5-4.44,76.87-15.85,102.71-38.07,25.84,22.22,61.2,33.63,102.7,38.07C222.44,111.18,210.06,152.33,192.83,186.79Z"/></g></svg>