<svg xmlns="http://www.w3.org/2000/svg" viewBox="0 0 209.45 283.46"><defs><style>.cls-1{fill:#1d1d1b;}</style></defs><title>Shuffle deck</title><g id="Shuffle_deck" data-name="Shuffle deck"><path class="cls-1" d="M203.18,24.37V260.14a17.07,17.07,0,0,1-17.05,17.06H24.37a11.82,11.82,0,0,0,10.44,6.26h162.8a11.84,11.84,0,0,0,11.84-11.84V34.81A11.83,11.83,0,0,0,203.18,24.37Z"/><path class="cls-1" d="M191.7,12.88V248.65a17.08,17.08,0,0,1-17.06,17.06H12.88A11.83,11.83,0,0,0,23.32,272H186.13A11.84,11.84,0,0,0,198,260.14V23.32A11.82,11.82,0,0,0,191.7,12.88Z"/><path class="cls-1" d="M174.64,0H11.84A11.84,11.84,0,0,0,0,11.84V248.65a11.84,11.84,0,0,0,11.84,11.84h162.8a11.85,11.85,0,0,0,11.84-11.84V11.84A11.85,11.85,0,0,0,174.64,0ZM42,95.14c-1.77-2.13-2.67-4.56-1.57-7.26a10,10,0,0,1,2.32-3.37c4.14-4,8.36-7.88,12.61-11.73,1.65-1.5,3.1-3.27,5.27-4.1l1.55-.6h2.38c3.55.83,5.85,3.56,8.54,5.68,3.89,3.11,7.67,6.35,11.52,9.49a7.73,7.73,0,0,1,1.72,9.55,7.5,7.5,0,0,1-8.95,4,13.09,13.09,0,0,1-4.67-2.7c-.19-.16-.4-.3-.8-.58a32.53,32.53,0,0,0,5.44,15.76c3.18,4.68,7.6,8.1,12.15,11.58-.81.56-1.47,1-2.15,1.46q-5.73,3.78-11.5,7.52a.92.92,0,0,1-.88-.07c-2.54-2.4-5.15-4.73-7.53-7.29a41.52,41.52,0,0,1-8.33-13.23,47.87,47.87,0,0,1-3.06-12.67c-.08-.72-.16-1.43-.26-2.3-1,.83-1.83,1.55-2.68,2.24C49.59,99.46,44.7,98.34,42,95.14Zm93.24,89.31a7.84,7.84,0,0,1-6.14,7.65c-.29.08-.56.2-.83.3h-2.77a20.39,20.39,0,0,1-3.24-1.39c-2.51-1.61-3.1-4.11-3-6.91a52.4,52.4,0,0,0-.71-11.66,32.18,32.18,0,0,0-8.19-16.75,64.76,64.76,0,0,0-11.07-9.07l-2.12-1.47c1-.65,1.86-1.23,2.73-1.83,3.53-2.43,7.07-4.84,10.56-7.31a.9.9,0,0,1,1.34,0A75.66,75.66,0,0,1,122,145.55a54.61,54.61,0,0,1,9.53,15.29A55.68,55.68,0,0,1,135.25,184.45Zm7.5-87.75c-3.57,2.42-7.28,2-10.42-1-.47-.45-1-.88-1.61-1.47-.17,1.43-.29,2.65-.46,3.87a44.17,44.17,0,0,1-9.41,22.34,73,73,0,0,1-16,14.45c-5.36,3.67-10.82,7.19-16.22,10.76a74.86,74.86,0,0,0-11.22,8.76,32.39,32.39,0,0,0-9.26,17.15,60.29,60.29,0,0,0-.94,12.93,10.74,10.74,0,0,1-.63,3.77A6.28,6.28,0,0,1,62,192.05l-1,.35H58.24A23,23,0,0,1,55,191.05c-2.55-1.5-3.58-3.92-3.71-6.81a58.34,58.34,0,0,1,1.88-18,50,50,0,0,1,4.75-11.39,60,60,0,0,1,11.69-14.5A93.9,93.9,0,0,1,81.7,131c5.43-3.6,10.92-7.13,16.25-10.88A45.64,45.64,0,0,0,108.62,110a32.3,32.3,0,0,0,5.81-15c0-.42.09-.84.16-1.52l-1.74,1.34c-2.26,1.76-4.76,2.77-7.64,2A8.07,8.07,0,0,1,99.48,87a6.65,6.65,0,0,1,2.25-3.63c5-4.12,10-8.17,15-12.34a14.41,14.41,0,0,1,5.26-3h2.38c3.41.88,5.53,3.57,8,5.78,3.82,3.45,7.51,7,11.35,10.47C148.3,88.5,146.77,94,142.75,96.7Z"/></g><g id="Search_deck" data-name="Search deck"><path class="cls-1" d="M217.36-244.92V-9.15A17.08,17.08,0,0,1,200.29,7.91H38.54A11.82,11.82,0,0,0,49,14.17h162.8A11.84,11.84,0,0,0,223.62,2.33V-234.48A11.84,11.84,0,0,0,217.36-244.92Z"/><path class="cls-1" d="M205.87-256.41V-20.64A17.08,17.08,0,0,1,188.81-3.58H27.06A11.81,11.81,0,0,0,37.5,2.69H200.29A11.85,11.85,0,0,0,212.14-9.15V-246A11.83,11.83,0,0,0,205.87-256.41Z"/></g></svg>