<svg xmlns="http://www.w3.org/2000/svg" viewBox="0 0 283.46 146.17"><defs><style>.cls-1{fill:#1d1d1b;}</style></defs><title>Siege</title><g id="Siege"><path class="cls-1" d="M247.58,74.41a35.37,35.37,0,0,0-9.3,1.24L197.75,35.12h33.68a6.37,6.37,0,0,0,6.4,6.26,6.3,6.3,0,0,0,3.12-.81,6.49,6.49,0,0,0,3.13.82,6.37,6.37,0,0,0,6.39-6.27h3.36a3.24,3.24,0,0,0,3.25-3.26V19.35a3.25,3.25,0,0,0-3.25-3.26h-3.36A6.39,6.39,0,0,0,241,10.64a6.4,6.4,0,0,0-9.52,5.45H178.71L163.58,1a3,3,0,0,0-1.69-.81,3.25,3.25,0,0,0-3.27.81L143.48,16.09H3.24A3.26,3.26,0,0,0,0,19.35,37.72,37.72,0,0,0,37.68,57a37.4,37.4,0,0,0,34.19-21.9h52.57L84.15,75.41a35.88,35.88,0,1,0,24.56,49H214.64a35.86,35.86,0,1,0,32.94-50ZM75.77,129.86a19.57,19.57,0,1,1,19.57-19.57A19.59,19.59,0,0,1,75.77,129.86Zm147.06-35.3a29.48,29.48,0,0,0-2.91,5.94,3.25,3.25,0,0,1-3.07,2.17H106.5a3.27,3.27,0,0,1-3.08-2.17,29.18,29.18,0,0,0-3.28-6.59,3.28,3.28,0,0,1,.39-4.13L158.8,31.53a3.33,3.33,0,0,1,4.6,0l59,59A3.27,3.27,0,0,1,222.83,94.56Zm24.75,35.3a19.57,19.57,0,1,1,19.58-19.57A19.59,19.59,0,0,1,247.58,129.86Z"/></g></svg>