<svg xmlns="http://www.w3.org/2000/svg" viewBox="0 0 100 100"><defs><style>.cls-1{fill:#1d1d1b;}</style></defs><title>Skull</title><g id="Melee"><path class="cls-1" d="M282.51.94A3.31,3.31,0,0,0,279.72,0L247.9,4.75a3.25,3.25,0,0,0-1.81.92L69,182.76l-7.4-7.37a3.23,3.23,0,0,0-2.29-.95h-31A3.26,3.26,0,0,0,26,180l28.66,28.66L18.91,244.43,8,248.05a3.27,3.27,0,0,0-2.07,2.06L.16,267.52a3.28,3.28,0,0,0,.78,3.32l11.59,11.67a3.29,3.29,0,0,0,2.3,1,3.39,3.39,0,0,0,1.05-.17l17.45-5.84a3.23,3.23,0,0,0,2.05-2.06L39,264.57l35.77-35.8,28.73,28.68a3.25,3.25,0,0,0,5.54-2.31v-31a3.22,3.22,0,0,0-1-2.3l-7.37-7.38,177.1-177a3.41,3.41,0,0,0,.92-1.83l4.7-31.87A3.33,3.33,0,0,0,282.51.94ZM25,270,16.33,273l-5.87-5.83,3-8.73,8.71-2.87,5.79,5.8Zm69.07-42-3.86,0L55.41,193.17l0-3.83,3.81-.06,34.85,34.87ZM269,37.28l-175,175.05-2-1.92L265.54,36.86l3.27-22.17-22.18,3.25L73.08,191.44l-1.94-1.91,175-175,26.73-4Z"/></g></svg>