<svg xmlns="http://www.w3.org/2000/svg" viewBox="0 0 283.5 283.46"><defs><style>.cls-1{fill:#1d1d1b;}</style></defs><title>Slam</title><g id="Slam"><path class="cls-1" d="M197.24,137.83a63,63,0,0,1,8-6.06,139.83,139.83,0,0,1-21.32-47.55,138.81,138.81,0,0,1-20,45.42l8.21,8.21Z"/><polygon class="cls-1" points="183.26 149 218.66 184.41 218.69 169.41 198.27 149 183.26 149"/><polygon class="cls-1" points="184.41 218.66 149.01 183.27 149.03 198.25 169.43 218.66 184.41 218.66"/><path class="cls-1" d="M137.86,197.2l0-25.07-8.24-8.25a140.37,140.37,0,0,1-45.39,20,138,138,0,0,1,47.55,21.32A61.91,61.91,0,0,1,137.86,197.2Z"/><path class="cls-1" d="M139,209.45a64.41,64.41,0,0,1-10.13-1.34A141.43,141.43,0,0,1,110,257.71a141.11,141.11,0,0,1,49.61-18.87,57.35,57.35,0,0,1-1.34-10.14Z"/><path class="cls-1" d="M170.47,229.83a58.74,58.74,0,0,1-7.91,6.08,139.52,139.52,0,0,1,21.34,47.55,139,139,0,0,1,19.91-45.38l-8.22-8.24Z"/><path class="cls-1" d="M229.89,170.49v25.13l8.19,8.19a138.94,138.94,0,0,1,45.42-20A137.83,137.83,0,0,1,236,162.52,67.83,67.83,0,0,1,229.89,170.49Z"/><path class="cls-1" d="M228.72,158.24a59.64,59.64,0,0,1,10.13,1.35A142.2,142.2,0,0,1,257.73,110a141.52,141.52,0,0,1-49.57,18.87A61,61,0,0,1,209.48,139Z"/><path class="cls-1" d="M262,232.05,95,65.07l6.94-7a3.17,3.17,0,0,0,.9-2.16l0-29.22a3.09,3.09,0,0,0-1.89-2.84,3,3,0,0,0-1.15-.23,3.14,3.14,0,0,0-2.19.91l-27,27L36.81,17.81,33.4,7.55A3.06,3.06,0,0,0,31.45,5.6L15,.14a3.08,3.08,0,0,0-1-.14A3.12,3.12,0,0,0,11.9.88L.91,11.82A3,3,0,0,0,0,14a2.52,2.52,0,0,0,.16,1L5.67,31.42a3.07,3.07,0,0,0,1.94,1.94l10.2,3.41L51.59,70.5l-27,27.08a3.06,3.06,0,0,0,2.15,5.23H55.94a3,3,0,0,0,2.16-.89l7-7L232,262a3.45,3.45,0,0,0,1.72.87l30.06,4.41a2.12,2.12,0,0,0,.44,0,3.06,3.06,0,0,0,3.05-3.51l-4.46-30A3,3,0,0,0,262,232.05ZM20.88,26.33l-8.2-2.74L9.91,15.38l5.5-5.52,8.24,2.8,2.69,8.2ZM55.94,88.74H52.3l0-3.63L85.15,52.25l3.62,0,0,3.61ZM232.15,253.62,67.09,88.58l1.81-1.86L232.56,250.39l20.9,3.08-3.06-20.9L86.79,68.91l1.79-1.83,165,165.05,3.75,25.2Z"/></g></svg>