<svg xmlns="http://www.w3.org/2000/svg" viewBox="0 0 283.46 283.46"><defs><style>.cls-1{fill:#1d1d1b;}</style></defs><title>Spear</title><g id="Double_spear" data-name="Double spear"><path class="cls-1" d="M211.42,326.18a.28.28,0,0,0,.16.12.65.65,0,0,0,.66,0,7.78,7.78,0,0,1,1.64-.68A20.77,20.77,0,0,1,241.31,353a7.25,7.25,0,0,1-.67,1.68.69.69,0,0,0,0,.68.73.73,0,0,0,.57.36,87.34,87.34,0,0,1,13.61,1.77.66.66,0,0,0,.53-.09.72.72,0,0,0,.3-.47,205.13,205.13,0,0,1,27.71-72.42.71.71,0,0,0-.1-.86.7.7,0,0,0-.86-.1A205.89,205.89,0,0,1,210,311.3a.71.71,0,0,0-.46.29.76.76,0,0,0-.1.55,92.08,92.08,0,0,1,1.78,13.6A.7.7,0,0,0,211.42,326.18Z"/><path class="cls-1" d="M27.81,357A205.32,205.32,0,0,0,.1,284.53a.68.68,0,0,1,.11-.86.69.69,0,0,1,.86-.1A205.72,205.72,0,0,0,73.46,311.3a.67.67,0,0,1,.46.29.76.76,0,0,1,.1.55,94.84,94.84,0,0,0-1.78,13.6.61.61,0,0,1-.2.44.4.4,0,0,1-.15.12.69.69,0,0,1-.68,0,7.71,7.71,0,0,0-1.63-.68A20.77,20.77,0,0,0,42.14,353a7.38,7.38,0,0,0,.69,1.68.74.74,0,0,1,0,.68.67.67,0,0,1-.56.36,87,87,0,0,0-13.6,1.77.68.68,0,0,1-.54-.09A.72.72,0,0,1,27.81,357Z"/></g><g id="Spear"><path class="cls-1" d="M255.65,73.49A205.32,205.32,0,0,1,283.36,1.07a.7.7,0,0,0-.11-.86.68.68,0,0,0-.86-.11A205.53,205.53,0,0,1,210,27.84a.63.63,0,0,0-.45.29.69.69,0,0,0-.11.54,93.3,93.3,0,0,1,1.79,13.61.62.62,0,0,0,.2.44.57.57,0,0,0,.15.12.69.69,0,0,0,.68,0,8.31,8.31,0,0,1,1.63-.69,20.79,20.79,0,0,1,27.44,27.41,7.79,7.79,0,0,1-.68,1.68.7.7,0,0,0,.57,1,87.26,87.26,0,0,1,13.61,1.78.69.69,0,0,0,.83-.56Z"/><path class="cls-1" d="M20.31,274.36,9.1,263.15a.71.71,0,0,0-1,0l-4.3,4.3c-3.85,3.85-5,8.79-2.51,11.22l3.49,3.5c2.44,2.44,7.37,1.33,11.22-2.52l4.3-4.3A.71.71,0,0,0,20.31,274.36Z"/><path class="cls-1" d="M214.32,80.91a.69.69,0,0,0-.41-.51,20.61,20.61,0,0,1-10.85-10.84.67.67,0,0,0-.51-.41.65.65,0,0,0-.62.19l-189,189a.71.71,0,0,0,0,1l11.22,11.21a.69.69,0,0,0,1,0l189-189A.73.73,0,0,0,214.32,80.91Z"/><path class="cls-1" d="M232.52,50.94a14.57,14.57,0,1,0-.05,20.54A14.52,14.52,0,0,0,232.52,50.94Z"/></g></svg>