<svg xmlns="http://www.w3.org/2000/svg" viewBox="0 0 283.46 193.83"><defs><style>.cls-1{fill:#1d1d1b;}</style></defs><title>Stick</title><g id="Stick"><path class="cls-1" d="M282.68,72.74a3.28,3.28,0,0,1,.78-.32,5.75,5.75,0,0,1-.3-2.21q0-11.4,0-22.79,0-13.74-.05-27.49,0-4.61,0-9.21L127.53,95.33Q95.22,112.9,62.91,130.48a3.62,3.62,0,0,1-.77.32,6.15,6.15,0,0,1,.28,2.21q0,11.38,0,22.79,0,18.33.08,36.69L214,110.08Z"/><path class="cls-1" d="M277.81,8,262.89,5.87c-9-1.27-18-2.52-27-3.81C233.14,1.69,222.49.93,224.22,0Q146.65,42.17,69.12,84.37L5.26,119.1c5,.71,9.91,1.42,14.89,2.1l39.29,5.53,154.48-84Q245.84,25.33,277.81,8Z"/><path class="cls-1" d="M1,185.88c2.36.32,4.73.65,7.08,1l21.45,3,28.09,3.94-.12-62.41-.87-.13-7.07-1-21.46-3L0,123.33q.06,31.21.1,62.41C.35,185.77.61,185.82,1,185.88Z"/></g><g id="Clay"><path class="cls-1" d="M-168.37,152.13l-.15,55.92,168-97.67.07-.06,0-.07.09-.14a.29.29,0,0,1,0-.09c0-.18.08-.28.11-.36a3.61,3.61,0,0,0,.05-.59L0,54.29Z"/></g></svg>