<svg xmlns="http://www.w3.org/2000/svg" viewBox="0 0 217.61 283.46"><defs><style>.cls-1{fill:#1d1d1b;}</style></defs><title>Stone</title><g id="Stone"><path class="cls-1" d="M191.37,111.24a2,2,0,0,0-2-1.86,1.8,1.8,0,0,0-.6.1c-3.48,1.11-7.26,2-10.91,2.81-3.07.7-6,1.36-8.64,2.15l-20.28,6-26.29,7.79a2,2,0,0,0-1.41,1.89q-.17,62.7-.34,125.42l-.07,25.24a2,2,0,0,0,2,2,1.85,1.85,0,0,0,.56-.08l64.55-19.14,1.73-.51a2,2,0,0,0,1.42-1.89l.1-36.6q.15-55.19.32-110.37c0-.74,0-1.53-.1-2.37Z"/><path class="cls-1" d="M113.75,128.6Q80,122.26,46.32,116L42,115.15a2.46,2.46,0,0,0-.37,0,2,2,0,0,0-2,2l-.2,69.69q-.11,40.64-.23,81.28A2,2,0,0,0,40.85,270l71.74,13.44.36,0a1.93,1.93,0,0,0,1.26-.45,2,2,0,0,0,.72-1.51l.09-32.41q.15-59.28.33-118.55A2,2,0,0,0,113.75,128.6Z"/><path class="cls-1" d="M216.13,74a2.07,2.07,0,0,0-.5-.06,2,2,0,0,0-1.72,1c-.92,1.65-1.82,3.29-2.73,4.93l-1.56,2.81-4.41,8q-2.13,3.87-4.28,7.73c-.37.67-.72,1.43-1.1,2.24a32.13,32.13,0,0,1-2.05,3.9,1.94,1.94,0,0,0-.32,1.07q0,10.7-.06,21.37,0,10.21-.05,20.43-.15,49.11-.29,98.25a2,2,0,0,0,1.47,1.91,1.77,1.77,0,0,0,.5.07,2,2,0,0,0,1.72-1l3.28-5.93,1-1.82q4.35-7.84,8.68-15.69,1.42-2.55,2.83-5.11a6.22,6.22,0,0,0,.41-.82l.06-.12a2,2,0,0,0,.18-.83l0-14q0-14.06.09-28.09l.08-31.32q.09-33.47.2-66.93A2,2,0,0,0,216.13,74Z"/><path class="cls-1" d="M208.77,71.94l7.57-13.68a2,2,0,0,0-.25-2.26L180.28,15.67a2,2,0,0,0-1.11-.63L162.9,12q-20-3.75-40-7.49L99.24.07h0l-.18,0L98.7,0a2,2,0,0,0-1.78,1.13c-.29.07-.58.14-.88.23L89,3.44,83,5.25,63,11.17,26.44,22a1.94,1.94,0,0,0-1.09.81c-.2.31-.41.67-.72,1.23-.92,1.67-1.85,3.33-2.78,5l-.34.6q-1.7,3.06-3.38,6.12l-5.52,10Q7.2,55.58,1.77,65.34A2,2,0,0,0,2,67.59l.16.19c.2.23.4.45.59.68,2.06,2.3,4.09,4.59,6.12,6.88q12.5,14.1,25,28.17l3.57,4c.11.13.23.25.34.37l.09.08a1.93,1.93,0,0,0,1.07.59l25.35,4.76,20.81,3.9,2.92.54,3.63.67,4.29.81,2.34.44,4.12.77,14.87,2.78.52.08.27,0a2.1,2.1,0,0,0,.56-.08L129,120.19q15.87-4.71,31.72-9.42,7.68-2.25,15.35-4.54l12.22-3.62.86-.26.45-.13c.72-.21,1.43-.42,2.16-.65a2,2,0,0,0,1.14-.93l.87-1.58,7-12.7Z"/><path class="cls-1" d="M31.68,109.94l-.26-.29h0c-.59-.68-1.22-1.38-1.85-2.09l-.7-.79h0l-6.51-7.34h0L16.48,92.8,10,85.48l-.21-.23L3.87,78.6h0l-.05,0a3,3,0,0,0-.26-.24l-.29-.17-.07,0A1.73,1.73,0,0,0,2.88,78L2.8,78a1.58,1.58,0,0,0-.38,0h0a2.06,2.06,0,0,0-.69.13h0a3,3,0,0,0-.46.26s-.05,0-.08.07l-.06,0a2.3,2.3,0,0,0-.3.33s0,0,0,.08a1.73,1.73,0,0,0-.2.41.3.3,0,0,0,0,.1,1.75,1.75,0,0,0-.08.51s0,0,0,0L.27,132.1Q.2,160.87.11,189.64L.05,210.1l0,8.5v2.24c0,1.75,0,3.49,0,5.24a2,2,0,0,0,.5,1.31L3,230.19q13.46,15.15,26.89,30.31a2,2,0,0,0,1.48.66,2,2,0,0,0,.69-.12,2,2,0,0,0,1.28-1.83c0-3.18,0-6.37,0-9.55v-2.89q.2-63.09.36-126.18l0-7.45h0V113a2,2,0,0,0-.48-1.29C32.75,111.13,32.22,110.53,31.68,109.94Z"/></g></svg>