<svg xmlns="http://www.w3.org/2000/svg" viewBox="0 0 283.46 283.46"><defs><style>.cls-1,.cls-2{fill:#1d1d1b;}.cls-2{font-size:35px;font-family:Verdana-Bold, Verdana;font-weight:700;}</style></defs><title>Strategy rating</title><g id="Strategy_rating" data-name="Strategy rating"><path class="cls-1" d="M262.27,283.46H21.19A21.22,21.22,0,0,1,0,262.28V21.19A21.22,21.22,0,0,1,21.19,0H262.27a21.21,21.21,0,0,1,21.19,21.19V262.28A21.21,21.21,0,0,1,262.27,283.46ZM259.79,12.38H23.67A12.42,12.42,0,0,0,11.25,24.81V258.67a12.42,12.42,0,0,0,12.42,12.42H259.79a12.42,12.42,0,0,0,12.42-12.42V24.81A12.42,12.42,0,0,0,259.79,12.38Z"/><text class="cls-2" transform="translate(57.72 243.21)">Strategy</text><path class="cls-1" d="M155.37,146.27a3.64,3.64,0,0,1-.41-.3,1.31,1.31,0,0,0-1.32-1.25H129.82A1.31,1.31,0,0,0,128.5,146a3.64,3.64,0,0,1-.41.3,2.86,2.86,0,0,0-1.58,2.42c0,1.16,1,2.09,2.5,3.49a19.51,19.51,0,0,1,4.26,5,1.31,1.31,0,0,0,1.18.73H149a1.31,1.31,0,0,0,1.18-.73,19.31,19.31,0,0,1,4.26-5c1.5-1.4,2.5-2.33,2.5-3.49A2.88,2.88,0,0,0,155.37,146.27Z"/><path class="cls-1" d="M141.73,39.84c-21,0-38.18,16.47-38.18,36.71,0,7.58,4.39,14.75,8.63,21.69,3.87,6.33,7.52,12.3,7.52,18,0,3.87.82,7.26,4.79,11.26a1.46,1.46,0,0,0,1,.43h32.42a1.46,1.46,0,0,0,1-.43c4-4,4.78-7.39,4.78-11.26,0-5.66,3.66-11.63,7.53-18,4.24-6.94,8.63-14.11,8.63-21.69C179.91,56.31,162.78,39.84,141.73,39.84Z"/><path class="cls-1" d="M157.64,132.7a2.4,2.4,0,0,1-2.39,2.4h-27a2.4,2.4,0,0,1-2.39-2.4h0a2.39,2.39,0,0,1,2.39-2.39h27a2.39,2.39,0,0,1,2.39,2.39Z"/><path class="cls-1" d="M157.64,139.91a2.39,2.39,0,0,1-2.39,2.39h-27a2.39,2.39,0,0,1-2.39-2.39h0a2.4,2.4,0,0,1,2.39-2.4h27a2.4,2.4,0,0,1,2.39,2.4Z"/><text class="cls-2" transform="translate(104.78 199.94)">5/5</text></g></svg>