<svg xmlns="http://www.w3.org/2000/svg" viewBox="0 0 155.34 283.46"><defs><style>.cls-1{fill:#1d1d1b;}</style></defs><title>Strike</title><g id="Strike"><polygon class="cls-1" points="49.6 214.72 3.7 144.03 0 157.79 36.86 214.53 31.48 218.02 58.97 260.35 58.97 240.93 44.22 218.21 49.6 214.72"/><polygon class="cls-1" points="49.6 152.85 3.7 82.16 0 95.94 36.86 152.66 31.48 156.17 58.98 198.49 58.98 179.07 44.22 156.34 49.6 152.85"/><polygon class="cls-1" points="151.66 144.03 105.74 214.72 111.12 218.21 96.33 240.98 96.33 260.41 123.87 218.02 118.49 214.53 155.34 157.79 151.66 144.03"/><polygon class="cls-1" points="111.12 156.34 96.33 179.12 96.33 198.54 123.87 156.17 118.49 152.66 155.34 95.94 151.66 82.16 105.74 152.85 111.12 156.34"/><path class="cls-1" d="M103.22,79.57l15.92-15.92a2.36,2.36,0,0,0-1.66-4H88V22.84l3.74-7.46a2.39,2.39,0,0,0,0-2.12l-6-11.92A2.35,2.35,0,0,0,83.66,0l-12,0A2.37,2.37,0,0,0,70,.69a2.33,2.33,0,0,0-.46.61l-6,12a2.31,2.31,0,0,0,0,2.11l3.71,7.44V59.6l-29.49,0a2.36,2.36,0,0,0-1.66,4L52.11,79.58a2.31,2.31,0,0,0,1.65.71h7.61l0,182a2.4,2.4,0,0,0,.47,1.4l14,18.79a2.36,2.36,0,0,0,3.8,0L93.5,263.73a2.4,2.4,0,0,0,.46-1.41v-182l7.59,0A2.41,2.41,0,0,0,103.22,79.57ZM74.66,6.85h6l3,6-3,5.94h-6l-3-5.95Zm14.7,251L77.67,273.58,66,257.83l0-179.93,2,0V256.29l9.7,13.07,9.73-13.07,0-178.37,2,0ZM95.61,71.93l-35.83,0-2-2,2-2H95.59l2,2Z"/></g></svg>