<svg xmlns="http://www.w3.org/2000/svg" viewBox="0 0 283.46 193.96"><defs><style>.cls-1{fill:#1d1d1b;}</style></defs><title>Swamp</title><g id="Swamp"><path class="cls-1" d="M239.29,194H39.36a6.59,6.59,0,0,1-6.3-4.82c-3-11.11-5.84-22.45-8.61-33.41C17.21,127.24,9.73,97.77.32,69.46A6,6,0,0,1,1.17,64a7,7,0,0,1,5.59-2.87,6,6,0,0,1,4.48,2A366.86,366.86,0,0,1,44,104.37c-3.27-19.51-6.23-40.77-5.19-62a6.35,6.35,0,0,1,6.39-6.28A7,7,0,0,1,50.86,39,164.28,164.28,0,0,1,62.4,57.17a7,7,0,0,1,6.76-6.08,5.83,5.83,0,0,1,4.49,2.16c1.16,1.4,2.28,2.85,3.42,4.37-2.86-17-5-33.78-4.48-51A6.44,6.44,0,0,1,79.1.25a6.74,6.74,0,0,1,5.57,3C92.72,15,99,28.32,103.87,40.11c.58-6.75,1.38-13,2.39-19.06a6.1,6.1,0,0,1,6.24-5,6.54,6.54,0,0,1,5.78,3.22,207.89,207.89,0,0,1,12.6,28c2.47-13.62,5.91-28.58,11.66-42.78a9,9,0,0,1,.4-.82A6.17,6.17,0,0,1,148.76,0a6.49,6.49,0,0,1,3.91,1.34,5.58,5.58,0,0,1,2.77,4.9c6.22,23.2,8.15,47.89,9,71.58,10.72-19.43,22.81-39.22,37.93-56a6,6,0,0,1,4.55-2A7,7,0,0,1,212,22.05a5.81,5.81,0,0,1,1.58,4.48c-1.72,22.94-8.41,45.16-15.4,66.7,9.58-9.53,19.16-18.43,28.58-26.56,9.93-8.56,21.19-18.28,33.47-25.49a6.34,6.34,0,0,1,3.15-.84A7.07,7.07,0,0,1,269,43.29a5.86,5.86,0,0,1,.68,5.45C264.67,62.37,257.82,74.88,251,86c2.71-1.85,5.34-3.52,7.91-5a6.54,6.54,0,0,1,3.25-.89,6.69,6.69,0,0,1,5.76,3.43,6.32,6.32,0,0,1-.06,6.4c-6.72,11.27-12.91,23.1-18.91,34.54-1.19,2.25-2.36,4.51-3.55,6.76,2.17-1.43,4.29-2.75,6.43-4,4.29-2.44,8.78-4.53,13.12-6.54,2.89-1.34,5.86-2.72,8.71-4.18a6.58,6.58,0,0,1,3-.71,7,7,0,0,1,6.1,3.58,5.93,5.93,0,0,1-.34,6.22c-5.37,8.2-10.62,17.13-17,29-1.85,3.4-3.66,6.82-5.49,10.24-3.78,7.1-7.7,14.44-11.77,21.56-.25.43-.49.88-.72,1.31C246,190.29,244,194,239.29,194ZM44.39,180.9H236.14c4.21-7.34,8.27-14.91,12.21-22.25,3.73-6.94,7.55-14,11.52-21-.5.27-1,.56-1.48.85-12.71,7.48-23.47,17.37-31.42,25.15a6.2,6.2,0,0,1-4.43,1.84,6.89,6.89,0,0,1-5.94-3.5,6.08,6.08,0,0,1,.17-6.3c7.56-12.34,14.4-25.37,21-38l4.57-8.68c-5.62,4.7-11,9.6-16.37,14.38A6.43,6.43,0,0,1,221.6,125a7.08,7.08,0,0,1-6.15-3.6,5.83,5.83,0,0,1,.43-6.19q3.41-5.07,6.89-10.12c8.61-12.59,17.48-25.52,24.79-39.09-5.45,4.4-10.71,9-15.74,13.49-15.16,13.49-29.91,28-43.84,43.09a6,6,0,0,1-4.5,2,7,7,0,0,1-5.48-2.79,6.1,6.1,0,0,1-1-5.53c2.06-6.66,4.27-13.44,6.43-20,5-15.27,10.22-31,13.59-46.86-12.28,17.41-22.47,36.7-32.38,55.45l-.53,1a6.09,6.09,0,0,1-5.44,3.31,6.7,6.7,0,0,1-6.76-6.47c-.38-22.25-.8-47.09-4.48-70.77-3.53,14.16-5.72,28.78-7.85,43l-.06.46a5.68,5.68,0,0,1-5.87,5,7,7,0,0,1-6.74-4.6l-.19-.59c-3.2-9.69-6.49-19.62-10.34-29.24-.54,7.59-.82,15.93-.89,25.93a6.2,6.2,0,0,1-6.35,6.39,6.77,6.77,0,0,1-6.41-4.47l-.71-2C97.4,59.17,92.64,46.16,86.84,33.78c1.39,12.76,3.71,25.52,6,38,1,5.29,1.93,10.59,2.81,15.87a6.87,6.87,0,0,1-1.53,5.59A6.79,6.79,0,0,1,89,95.66a6.15,6.15,0,0,1-5.35-3.29c-2.39-4.25-4.68-8.25-7-12.09.35,2.84.79,5.75,1.29,8.77a6.8,6.8,0,0,1-1.6,5.55A7,7,0,0,1,71,97.18a5.67,5.67,0,0,1-5.23-3.55L65.53,93C61.35,84,57.05,74.64,52.21,65.7c1.17,16.54,4,33.06,6.86,49.14,1.15,6.59,2.34,13.4,3.39,20.13a7,7,0,0,1-1.62,5.62A6.8,6.8,0,0,1,55.78,143a6,6,0,0,1-5.34-3.34A347.81,347.81,0,0,0,22.25,96.47c5.35,18.74,10.19,37.74,14.89,56.24C39.51,162,41.93,171.51,44.39,180.9Z"/></g></svg>