<svg xmlns="http://www.w3.org/2000/svg" viewBox="0 0 260.27 283.46"><defs><style>.cls-1{fill:#1d1d1b;}</style></defs><title>Swing</title><g id="Swing"><path class="cls-1" d="M223.56,64.13c13.07,18.61,21.62,49.73,21.62,85,0,47.55-15.57,87.48-36.74,99.43l-9.85-9.85c17.51-18.77,29.48-56.56,29.48-100.14,0-49.37-15.32-91.32-36.69-106.59,13.05,18.61,21.59,49.71,21.59,85,0,47.54-15.57,87.46-36.73,99.41l-9.57-9.56c17.51-18.77,29.49-56.57,29.47-100.15,0-49.37-15.33-91.31-36.69-106.59,13.05,18.61,21.6,49.73,21.6,85,0,47.55-15.58,87.47-36.74,99.41L77.19,117.27l5.65-5.68a2.46,2.46,0,0,0,.72-1.76V86.1a2.48,2.48,0,0,0-4.25-1.77l-22,22L29.92,78.87l-2.78-8.35a2.44,2.44,0,0,0-1.58-1.58L12.21,64.51a2.52,2.52,0,0,0-2.54.6L.73,74a2.47,2.47,0,0,0-.6,2.56L4.6,89.94a2.53,2.53,0,0,0,1.58,1.58l8.31,2.77L41.92,121.7l-22,22A2.51,2.51,0,0,0,21.72,148H45.47a2.47,2.47,0,0,0,1.76-.74l5.65-5.66,57.87,57.88s83.56,84,95,84c30.11,0,54.52-50.48,54.52-112.75C260.27,121.35,244.93,79.41,223.56,64.13ZM17,85.79,10.3,83.58,8.06,76.89l4.47-4.49,6.69,2.28,2.2,6.68Zm28.5,50.72h-3l0-2.95,26.73-26.71,2.94,0,0,2.93Z"/></g></svg>