<svg xmlns="http://www.w3.org/2000/svg" viewBox="0 0 172.2 283.46"><defs><style>.cls-1,.cls-2{fill:#1d1d1b;}.cls-1{fill-rule:evenodd;}</style></defs><title>Sword in shield</title><g id="Sword_in_shield" data-name="Sword in shield"><path class="cls-1" d="M67.44,82.66H62.23a4.68,4.68,0,0,1-3.35-1.4L56.66,79A159,159,0,0,1,20.2,86.9c-.81,35.24,7.15,61.65,18.21,83.73a137.58,137.58,0,0,0,19.86,29.64,86.41,86.41,0,0,0,9.15,8.81Z"/><path class="cls-1" d="M115.55,79l-2.22,2.22A4.8,4.8,0,0,1,110,82.64h-5.22V209.08a84.5,84.5,0,0,0,9.15-8.81,136.85,136.85,0,0,0,19.86-29.64c11.07-22.08,19-48.49,18.22-83.73A158.92,158.92,0,0,1,115.55,79Z"/><path class="cls-1" d="M98.82,47.49v9.76h18.74A118.12,118.12,0,0,1,98.82,47.49Z"/><path class="cls-1" d="M73.43,57.24l0-9.78a117.74,117.74,0,0,1-18.77,9.79Z"/><path class="cls-1" d="M67.42,220.09a96.79,96.79,0,0,1-12.85-12,157.61,157.61,0,0,1-22.51-33.57c-12.51-25-21.5-54.95-20.6-94.86A185.74,185.74,0,0,0,49.4,71.8l-6.46-6.46A4.76,4.76,0,0,1,41.59,62,211.21,211.21,0,0,1,2.2,69.78,2.37,2.37,0,0,0,.08,72.07c-.94,39.59,6.48,73.73,23.33,107.44A177.4,177.4,0,0,0,49,217.65a109.74,109.74,0,0,0,18.43,16.57Z"/><path class="cls-1" d="M170,69.78A210.27,210.27,0,0,1,130.61,62a4.77,4.77,0,0,1-1.35,3.37l-6.46,6.46a184.93,184.93,0,0,0,37.94,7.83c.92,39.91-8.08,69.81-20.59,94.86a157.94,157.94,0,0,1-22.5,33.57,98.19,98.19,0,0,1-12.87,12v14.13a109.32,109.32,0,0,0,18.44-16.57,177.4,177.4,0,0,0,25.58-38.14c16.85-33.71,24.26-67.85,23.33-107.44A2.36,2.36,0,0,0,170,69.78Z"/><path class="cls-2" d="M128.1,61.07a2.36,2.36,0,0,0-2.19-1.46H96.46V22.84l3.74-7.46a2.48,2.48,0,0,0,0-2.13l-6-11.91A2.38,2.38,0,0,0,92.11,0l-12,0h0a2.37,2.37,0,0,0-1.67.69,2.85,2.85,0,0,0-.46.62l-6,12a2.37,2.37,0,0,0,0,2.11l3.71,7.43V59.6l-29.49,0a2.38,2.38,0,0,0-1.67,4.05L60.55,79.6a2.37,2.37,0,0,0,1.68.69h7.58l0,182a2.4,2.4,0,0,0,.46,1.41l14,18.79a2.39,2.39,0,0,0,1.91.95,2.41,2.41,0,0,0,1.9-.95l13.92-18.78a2.37,2.37,0,0,0,.47-1.41v-182l7.58,0a2.42,2.42,0,0,0,1.68-.7l15.92-15.92A2.36,2.36,0,0,0,128.1,61.07Zm-45-54.22h6l3,6-3,5.94h-6l-3-5.95Zm14.69,251L86.11,273.59,74.4,257.84V77.9l2,0V256.29l9.72,13.08,9.72-13.07,0-178.38h2Zm6.25-185.88H68.23l-2-2,2-2H104l1.95,2Z"/></g><g id="Frost"><path class="cls-2" d="M208.74,441.57a20.17,20.17,0,0,0-27.56-7.37l-19.84,11.45L125.92,425.2l35.42-20.45,19.84,11.45a20.17,20.17,0,0,0,20.38-34.81,20.16,20.16,0,0,0-11.79-36.53,20.06,20.06,0,0,0-8.28,1.79,20.17,20.17,0,0,0-40.33.21V369.8l-34.08,19.67V346.4l19.85-11.47a20.17,20.17,0,0,0-20-35.05,20.28,20.28,0,0,0-20-18.16c-.28,0-.55,0-.82,0s-.54,0-.82,0a20.28,20.28,0,0,0-20,18.16,20.17,20.17,0,0,0-20,35.05L65.12,346.4v43.07L31,369.8l0-22.94a20.17,20.17,0,0,0-40.34-.21,20.06,20.06,0,0,0-8.28-1.79A20.21,20.21,0,0,0-35,355a20.27,20.27,0,0,0,5.69,26.44,20.19,20.19,0,0,0-7.18,27.43A20.27,20.27,0,0,0-19,418.91,20.14,20.14,0,0,0-9,416.2l19.85-11.45L46.28,425.2,10.87,445.65-9,434.2A20,20,0,0,0-19,431.49a20.26,20.26,0,0,0-17.49,10.08A20.21,20.21,0,0,0-29.36,469,20.27,20.27,0,0,0-35,495.45a20.23,20.23,0,0,0,17.48,10.09,20.22,20.22,0,0,0,8.28-1.79,20.17,20.17,0,0,0,40.34-.21l0-23,34.09-19.67V504L45.27,515.46a20.17,20.17,0,0,0,20,35,20.27,20.27,0,0,0,20,18.16c.28,0,.55,0,.82,0s.54,0,.82,0a20.27,20.27,0,0,0,20-18.16,20.17,20.17,0,0,0,20-35L107.08,504V460.92l34.08,19.67v23a20.17,20.17,0,0,0,40.33.21A20.16,20.16,0,0,0,201.56,469,20.21,20.21,0,0,0,208.74,441.57Zm-13,35.55a10.16,10.16,0,0,1-10.11,17.51l-14-6.29-.15,15.31a10.17,10.17,0,0,1-20.33-.1V474.82l-5-2.89-34.09-19.67a10,10,0,0,0-15,8.66v48.85l5,2.89,19.85,11.46a10.16,10.16,0,0,1-5.1,19,10.11,10.11,0,0,1-5-1.31l-13.31-7.46L97,549.51a10.25,10.25,0,0,1-10.1,9.16c-.28,0-.55,0-.82,0s-.54,0-.82,0a10.26,10.26,0,0,1-10.1-9.16l-1.53-15.18-13.31,7.46a10.14,10.14,0,0,1-5,1.31,10.16,10.16,0,0,1-5.1-19l19.85-11.46,5-2.89V460.92a10,10,0,0,0-15-8.66L26,471.93l-5,2.89v5.78l0,22.95a10.17,10.17,0,0,1-20.34.1L.56,488.34l-14,6.29a10.23,10.23,0,0,1-4.17.91,10.22,10.22,0,0,1-8.82-5.08,10.28,10.28,0,0,1,2.88-13.34l12.37-8.91-13.11-7.8a10.21,10.21,0,0,1-3.63-13.83A10.23,10.23,0,0,1-19,441.49,10.1,10.1,0,0,1-14,442.86L5.87,454.31l5,2.88,5-2.88,35.67-20.6a9.75,9.75,0,0,0,0-17l-35.67-20.6-5-2.89-5,2.89L-14,407.53A10,10,0,0,1-19,408.91a10.23,10.23,0,0,1-8.83-5.09A10.22,10.22,0,0,1-24.25,390l13.11-7.79-12.37-8.92a10.26,10.26,0,0,1-2.88-13.33,10.22,10.22,0,0,1,8.82-5.08,10.22,10.22,0,0,1,4.17.9l14,6.3.15-15.32a10.17,10.17,0,0,1,20.34.1l0,23v5.78l5,2.88,34.09,19.67a10,10,0,0,0,15-8.66V340.62l-5-2.88L50.27,326.27A10.17,10.17,0,0,1,60.34,308.6l13.31,7.47,1.53-15.19a10.27,10.27,0,0,1,10.1-9.16c.28,0,.55,0,.82,0s.54,0,.82,0A10.26,10.26,0,0,1,97,300.88l1.54,15.19,13.31-7.47a10.17,10.17,0,0,1,10.06,17.67l-19.85,11.47-5,2.88v48.85a10,10,0,0,0,15,8.66l34.09-19.67,5-2.88V346.84a10.17,10.17,0,0,1,20.33-.1l.15,15.32,14-6.3a10.16,10.16,0,0,1,10.11,17.51l-12.37,8.92L196.45,390a10.17,10.17,0,0,1-5.19,18.93,10,10,0,0,1-5.08-1.38l-19.85-11.44-5-2.89-5,2.89-35.68,20.6a9.75,9.75,0,0,0,0,17l35.68,20.6,5,2.88,5-2.88,19.85-11.45a10.11,10.11,0,0,1,5.08-1.37,10.17,10.17,0,0,1,5.19,18.92l-13.11,7.8Z"/></g></svg>