<svg xmlns="http://www.w3.org/2000/svg" viewBox="0 0 283.46 31.18"><defs><style>.cls-1{fill:#1d1d1b;}</style></defs><title>Track middle</title><g id="Track_middle" data-name="Track middle"><path class="cls-1" d="M283.46,15.59v-14h0V0H0V31.18H283.46V29.64h0ZM31.18,29.76H2.83V1.42H31.18v.13h0V29.63h0v.13Zm31.18,0H34v-.13h0V1.55h0V1.42H62.36v.13h0V29.63h0v.13Zm31.18,0H65.2v-.13h0V1.55h0V1.42H93.54v.13h0V29.63h0v.13Zm31.18,0H96.38v-.13h0V1.55h0V1.42h28.34v.13h0V29.63h0v.13Zm31.19,0H127.56v-.13h0V1.55h0V1.42h28.35v.13h0V29.63h0v.13Zm31.18,0H158.74v-.13h0V1.55h0V1.42h28.35v.13h0V29.63h0v.13Zm31.18,0H189.92v-.13h0V1.55h0V1.42h28.35v.13h0V29.63h0v.13Zm31.18,0H221.1v-.13h0V1.55h0V1.42h28.35v.13h0V29.63h0v.13Zm31.18,0H252.28v-.13h0V1.55h0V1.42h28.35V29.76Z"/></g></svg>