<svg xmlns="http://www.w3.org/2000/svg" viewBox="0 0 283.46 34.02"><defs><style>.cls-1{fill:#1d1d1b;}</style></defs><title>Track single line</title><g id="Track_single_line" data-name="Track single line"><path class="cls-1" d="M280.49,0H3A3,3,0,0,0,0,3V31a3,3,0,0,0,3,3H280.49a3,3,0,0,0,3-3V3A3,3,0,0,0,280.49,0ZM31.18,31.18H2.83V2.83H31.18V31.18Zm31.18,0H34v-.13h0V3h0V2.83H62.36V31.18Zm31.18,0H65.2v-.13h0V3h0V2.83H93.54V31.18Zm31.18,0H96.38v-.13h0V3h0V2.83h28.34V31.18Zm31.19,0H127.56v-.13h0V3h0V2.83h28.35V31.18Zm31.18,0H158.74v-.13h0V3h0V2.83h28.35V31.18Zm31.18,0H189.92v-.13h0V3h0V2.83h28.35V31.18Zm31.18,0H221.1v-.13h0V3h0V2.83h28.35V31.18Zm31.18,0H252.28v-.13h0V3h0V2.83h28.35Z"/></g><g id="Banner_dual" data-name="Banner dual"><path class="cls-1" d="M-22.26,20.48l22-27.74A1.1,1.1,0,0,0-.11-8.44a1.13,1.13,0,0,0-1-.63H-41.2V42a5.76,5.76,0,0,1-5.75,5.75h-5.83v1.2A1.11,1.11,0,0,0-51.67,50H-1.11a1.11,1.11,0,0,0,1-.63,1.09,1.09,0,0,0-.13-1.17Z"/></g></svg>