<svg xmlns="http://www.w3.org/2000/svg" viewBox="0 0 283.46 32.6"><defs><style>.cls-1{fill:#1d1d1b;}</style></defs><title>Track end</title><g id="Track_end" data-name="Track end"><path class="cls-1" d="M283.46,3a3,3,0,0,0-3-3H3A3,3,0,0,0,0,3V32.6H283.46ZM31.18,3V31.18H2.83V2.83H31.18ZM62.36,3V31.18H34v-.13h0V3h0V2.83H62.36ZM93.54,3V31.18H65.2v-.13h0V3h0V2.83H93.54Zm31.18,0V31.18H96.38v-.13h0V3h0V2.83h28.34Zm31.19,0V31.18H127.56v-.13h0V3h0V2.83h28.35Zm31.18,0V31.18H158.74v-.13h0V3h0V2.83h28.35Zm31.18,0V31.18H189.92v-.13h0V3h0V2.83h28.35Zm31.18,0V31.18H221.1v-.13h0V3h0V2.83h28.35Zm31.18,28.21H252.28v-.13h0V3h0V2.83h28.35Z"/></g></svg>