<svg xmlns="http://www.w3.org/2000/svg" viewBox="0 0 240.95 283.46"><defs><style>.cls-1{fill:#1d1d1b;}</style></defs><title>Transmute</title><g id="Transmute"><path class="cls-1" d="M239.53,138.32c-.09-.09-9.06-9.07-12.36-12.33l-51.3-50.68L117.89,18c0-.07-.09-.14-.14-.2a4.7,4.7,0,0,0-1.41-1.33L115,15.21l-.28-.28a4.83,4.83,0,0,0-8.22,3.44v.57a4.83,4.83,0,0,0-.29,1.66q0,20.42,0,40.85V75.08c-34-10.53-60-32.08-77.43-64-1.22-2.24-2.6-4.37-3.94-6.43L23.31,2.25A4.86,4.86,0,0,0,18.39.07L17.13.32l-.74.15a4.81,4.81,0,0,0-3.47,2.72C-1.38,34.08-3.82,65.46,5.67,96.45a159.47,159.47,0,0,0,21.71,45.28A159.47,159.47,0,0,0,5.67,187c-9.5,31-7,62.36,7.25,93.25A4.82,4.82,0,0,0,16.39,283l.73.15c.43.09.85.18,1.28.25a4.73,4.73,0,0,0,.83.07,4.84,4.84,0,0,0,4.09-2.25c.5-.8,1-1.59,1.53-2.39,1.32-2.05,2.69-4.16,3.91-6.41,17.42-32,43.47-53.49,77.43-64q0,13.86,0,27.72l0,26.77a4.83,4.83,0,0,0,.29,1.66v.57a4.82,4.82,0,0,0,3,4.45,4.66,4.66,0,0,0,1.86.38,4.83,4.83,0,0,0,3.39-1.39l1.58-1.56a4.74,4.74,0,0,0,1.48-1.41c0-.06.07-.1.1-.16q32.31-31.92,64.54-63.76l42.23-41.72c4.12-4.06,14.74-14.67,14.85-14.78a4.88,4.88,0,0,0,1.42-3.41A4.82,4.82,0,0,0,239.53,138.32Z"/></g></svg>