<svg xmlns="http://www.w3.org/2000/svg" viewBox="0 0 283.46 283.48"><defs><style>.cls-1{fill:#1d1d1b;}</style></defs><title>Triangle</title><g id="Pentagon"><path class="cls-1" d="M556.35,94.94,440.27,10.6a25.62,25.62,0,0,0-30.14,0L294,94.94a25.57,25.57,0,0,0-9.31,28.66l44.34,136.47a25.57,25.57,0,0,0,24.38,17.71H496.94a25.57,25.57,0,0,0,24.38-17.71L565.66,123.6A25.56,25.56,0,0,0,556.35,94.94ZM372.07,226.51l-32.83-101L425.2,63l85.95,62.45-32.83,101Z"/></g><g id="Triangle"><path class="cls-1" d="M281.39,6.59A13.88,13.88,0,0,0,269.57,0H13.9A13.89,13.89,0,0,0,1.47,20.11L129.33,275.8a13.9,13.9,0,0,0,12.43,7.68h0a13.9,13.9,0,0,0,12.43-7.68L282,20.11A13.91,13.91,0,0,0,281.39,6.59ZM219.68,38.21,141.76,194.12,63.84,38.21Z"/></g><g id="DNA"><path class="cls-1" d="M200.09-93.2c-8.57-26.65-39-56.82-48.91-65.54S126.94-185.66,120.7-208c-5.67-20.32-3.94-44.77,1.58-57.12a14.66,14.66,0,0,0-14-17.59h0c-6.42-.18-13.38,4-16.75,14.74-6.19,20.25-7.12,47.31.9,72.16,9.68,30,30.1,56.65,39.54,64.12s33.59,28.17,39.52,46.84c4.38,13.78,1.6,27.6-2.9,57-6.26,27.71,22.95,40.5,29.29,11.17C204.14-42.3,207.67-69.64,200.09-93.2Z"/></g></svg>