<svg xmlns="http://www.w3.org/2000/svg" viewBox="0 0 279.97 283.46"><defs><style>.cls-1{fill:#1d1d1b;}</style></defs><title>Underling</title><g id="Underling"><path class="cls-1" d="M275.89,75.21C253.71,21.9,200-.31,145.77,0h-.07c-1.87,0-3.73.15-5.6.21h-.21C138,.15,136.16,0,134.26,0h-.07C80-.31,26.29,21.9,4.06,75.21c-9.46,23-.24,65.86,6,82,9.85,6.38,12.55,18.49,16,26.64,4.56,11.39-9.12,36.21-8.89,45.85.28,12.41,2.22,19.26,10,20.26s15.8,0,17.17-3.09c1.42-2.94,36.06-3.5,35.5,12.66-3.87,7-2.21,12,4.81,12,1.8,0,2.1-4.24,2.75-8.85,1-7.14,6.19-6.13,6.19-4.22a27.1,27.1,0,0,1,.73,9.21c-.13,2.38-2.55,4.22-1.93,6.87-1.08,4.25,3.56,3,6.42,4.7,3.91,2.25,5.67,4.75,10.2,4.08,2-.32,1-9.51,2.18-13.09,1.24-3.32,8.39-3.51,8.78.63.24,3.5-.87,6,0,7.71,3.08,7.56,11,4.43,13.49,1.4,1.42-1.74,1.62-11.61,2.46-12.65,1.16-1.66,3.62-2.87,4.14-2.47h.21c.52-.4,3,.81,4.15,2.47.79,1,1,10.91,2.42,12.65,2.55,3,10.44,6.16,13.51-1.4.79-1.75-.31-4.21-.08-7.71.39-4.14,7.57-3.95,8.82-.63,1.21,3.58.18,12.77,2.18,13.09,4.52.67,6.29-1.83,10.16-4.08,2.91-1.73,7.5-.45,6.47-4.7.62-2.65-1.8-4.49-2-6.87a28.29,28.29,0,0,1,.73-9.21c0-1.91,5.18-2.92,6.22,4.22.65,4.61,1,8.85,2.77,8.85,7,0,8.64-5,4.76-12-.52-16.16,34.11-15.6,35.53-12.66,1.39,3.11,9.26,3.95,17.17,3.09,7.71-1,9.69-7.85,10-20.26.24-9.64-13.48-34.46-8.92-45.85,3.42-8.15,6.16-20.26,16-26.64C276.13,141.07,285.39,98.23,275.89,75.21ZM114,177.57c-13,14.62-33.63,18.81-54.53,12.74-27.38-8.05-24.36-51.57,2.52-52.76,3.14-.09,6.42-.27,9.81-.23,10,.14,20.71,1.42,29.49,6.64C126,158.31,124.65,165.41,114,177.57Zm37,42.6c-3.32-2.89-2.77-9.19-10.09-9.1h-1.84c-7.32-.09-6.77,6.21-10.1,9.1-2.31,3.15-16,5.9-11.47-6.15,1.35-3.12,15.93-28.17,15.72-27.81,1.88-2.42,3.19-2.65,5.85-2.65.31,0,.55,0,.83,0h.21c.27,0,.52,0,.8,0,2.69,0,4,.23,5.84,2.65-.21-.36,14.37,24.69,15.72,27.81C167,226.07,153.33,223.32,151,220.17Zm69.54-29.86c-20.92,6.07-41.55,1.88-54.55-12.74-10.68-12.16-12-19.26,12.73-33.61,8.74-5.22,19.42-6.5,29.49-6.64,3.37,0,6.62.14,9.8.23C244.89,138.74,247.9,182.26,220.53,190.31Z"/></g></svg>