<svg xmlns="http://www.w3.org/2000/svg" viewBox="0 0 202.93 283.47"><defs><style>.cls-1{fill:#1d1d1b;}</style></defs><title>Use played</title><g id="Play_with_symbol" data-name="Play with symbol"><path class="cls-1" d="M158.64,558.48a11.38,11.38,0,0,1-13.95,8.06L-6.64,526a11.38,11.38,0,0,1-8-14l59-220.13a11.39,11.39,0,0,1,14-8.05L209.57,324.4a11.39,11.39,0,0,1,8.05,14ZM82.37,386.23a1.4,1.4,0,0,0-1.39,1.4v8.26c0,3.76,0,54.85,0,58.61v8.27a1.39,1.39,0,0,0,1.39,1.39h.84a1.4,1.4,0,0,0,1.15-.59c.06-.08.1-.17.15-.24q11.16-11.2,22.35-22.38l13.67-13.67c.37-.38.71-.76,1.07-1.14a1.41,1.41,0,0,0,0-1.9c-.36-.38-.7-.76-1.06-1.12L108.8,411.38q-12.14-12.15-24.27-24.29c-.08-.13-.13-.21-.19-.29a1.4,1.4,0,0,0-1.13-.57Z"/></g><g id="Use_played" data-name="Use played"><path class="cls-1" d="M190.05,0H12.88A12.88,12.88,0,0,0,0,12.88v257.7a12.89,12.89,0,0,0,12.88,12.89H190.05a12.88,12.88,0,0,0,12.88-12.89V12.88A12.88,12.88,0,0,0,190.05,0ZM83.21,102.77a1.38,1.38,0,0,1,1.13.56c.06.08.11.17.19.3l24.27,24.28,11.74,11.74c.36.37.7.75,1.06,1.13a1.41,1.41,0,0,1,0,1.9c-.36.37-.7.75-1.07,1.13l-13.67,13.68q-11.17,11.17-22.35,22.37c-.05.08-.09.16-.15.24a1.39,1.39,0,0,1-1.15.6h-.83a1.4,1.4,0,0,1-1.4-1.4V171c0-3.77,0-54.85,0-58.62v-8.26a1.39,1.39,0,0,1,1.4-1.39Z"/></g><g id="Return_from_hand" data-name="Return from hand"><path class="cls-1" d="M198-75.73,154.66-237.45l37.94-3.32a10.43,10.43,0,0,1,11.29,9.47L222-23.8a10.41,10.41,0,0,1-9.47,11.28L69.92,0A10.43,10.43,0,0,1,58.64-9.5l-1.14-13,129.88-34.8A15,15,0,0,0,198-75.73Z"/></g></svg>