<svg xmlns="http://www.w3.org/2000/svg" viewBox="0 0 283.46 283.46"><defs><style>.cls-1{fill:#1d1d1b;fill-rule:evenodd;}</style></defs><title>VP other</title><g id="VP_other" data-name="VP other"><path class="cls-1" d="M211.33,258.43a70.86,70.86,0,0,1-9.24-1.56c-15-4.21-26.66-.83-37.73,10.83-20.07,21.11-25,21-45.41-.2-10.56-10.94-21.57-14.07-36.32-11.13-28.69,5.74-32.52,3.33-36.76-25.69-2.17-14.8-9.06-23.33-22.93-29.36-26.33-11.44-28.48-16.86-14.1-40.48,8.77-14.4,7.17-25.77-1-39.43C-4.93,99.92-3,93,20.28,84c17.92-6.9,24.41-18.52,26.28-35.78C48.89,26.69,54.5,21.69,76.29,26.7c20.84,4.8,34.84-.84,48.26-16.11,12.37-14.07,21.6-14.15,33.81-.08,13.9,16,28.87,20.9,49.93,16,19.85-4.62,25.76-.05,27.89,19.84,2.07,19.32,10,31.56,29.42,38.74,19.77,7.3,22.47,15.91,11.35,33.05-10.59,16.3-11,30.25-.35,46.78,11.27,17.49,8.64,26.37-10.59,33.32-21,7.61-28.44,21.55-30.19,41.79C234.5,255.25,228.2,259.3,211.33,258.43Zm35.31-119.81A104.91,104.91,0,0,0,141.16,34.13C82.55,34.24,35.77,81.91,36.24,141c.47,57.63,48,103.85,106.45,103.52C200.56,244.21,247,197,246.64,138.62Z"/><path class="cls-1" d="M140.85,235.59c-54.29-.29-96.1-43-95.55-97.56.55-54.29,43.3-95.87,97.88-95.18,53.18.66,95,43.3,94.87,96.66C237.89,193.58,195.1,235.88,140.85,235.59Z"/></g></svg>