<svg xmlns="http://www.w3.org/2000/svg" viewBox="0 0 283.46 283.46"><defs><style>.cls-1{fill:#1d1d1b;}</style></defs><title>VP</title><g id="VP"><path class="cls-1" d="M271.85,141.74c0-5.79,12-14.39,11.57-20.18S268.24,111,266.63,105.44s7.75-17.33,5.29-22.6S254.37,77,251.24,72.06s2.53-18.77-1.31-23.13-18.54-.76-23-4.58-2.9-18.71-7.83-21.85-18,4.46-23.31,2S187.66,7.4,182.08,5.73s-16,9.28-21.83,8.48S147.61,0,141.72,0,129,13.36,123.17,14.21,107,4.14,101.39,5.73,93,22.13,87.67,24.53s-18.43-5.18-23.35-2-3.39,18-7.81,21.85-19.15.17-22.94,4.58,1.85,18.25-1.34,23.13S14,77.6,11.53,82.84s7,17.06,5.33,22.6S.44,115.79,0,121.56,11.62,136,11.62,141.75-.83,156.19,0,161.9,15.2,172.44,16.86,178s-7.78,17.32-5.33,22.6,17.6,5.9,20.7,10.79-2.53,18.78,1.34,23.13,18.5.77,22.94,4.56,2.89,18.78,7.81,21.85,18-4.41,23.35-2,8.1,17.15,13.72,18.77,16-9.26,21.83-8.44,12.65,14.2,18.5,14.2,12.71-13.39,18.53-14.2,16.21,10.12,21.83,8.44,8.39-16.36,13.73-18.77,18.39,5.15,23.31,2,3.4-18.05,7.83-21.85,19.11-.19,23-4.56-1.9-18.29,1.31-23.13,18.26-5.52,20.68-10.79-7-17.05-5.29-22.6,16-10.38,16.79-16.11S271.85,147.53,271.85,141.74ZM141.74,259.57a117.85,117.85,0,1,1,117.8-117.82A117.88,117.88,0,0,1,141.74,259.57Z"/><path class="cls-1" d="M141.74,32.64a109.12,109.12,0,1,0,109.1,109.11A109.07,109.07,0,0,0,141.74,32.64Z"/></g></svg>