<svg xmlns="http://www.w3.org/2000/svg" viewBox="0 0 161.78 283.46"><defs><style>.cls-1,.cls-2{fill:#1d1d1b;}.cls-2{fill-rule:evenodd;}</style></defs><title>Water</title><g id="Water_hex" data-name="Water hex"><path class="cls-1" d="M205.15,354.49h0v0a5.65,5.65,0,0,0-2.28-2.17l-119.32-68a6,6,0,0,0-6,0l-118.74,68a5.78,5.78,0,0,0-2.19,2.12h0s-.05.06-.07.07v0a5.6,5.6,0,0,0-.77,3V493.57a5.91,5.91,0,0,0,3,5.1L77.53,566.09a5.84,5.84,0,0,0,3,.82h.06a5.69,5.69,0,0,0,3-.82l119.33-67.42a5.88,5.88,0,0,0,3-5.1V357.51A5.75,5.75,0,0,0,205.15,354.49ZM81.62,508.57l-.72,0-.75,0c-34.9,0-47.78-32.06-46.79-45.19C36,429,79,375.46,80.9,341.83c1.85,33.63,44.91,87.13,47.52,121.55C129.39,476.51,116.5,508.57,81.62,508.57Z"/></g><g id="Water"><path class="cls-2" d="M82.13,283.46c-.42,0-.79,0-1.22,0s-.87,0-1.28,0C20.3,283.46-1.59,229,.09,206.65,4.54,148.13,77.67,57.17,80.91,0c3.15,57.17,76.34,148.13,80.79,206.65C163.33,229,141.42,283.46,82.13,283.46ZM51.88,263.37C30.38,217.8,55.52,94.28,55.52,94.28c-8,28.86-41.84,85.09-44.3,117.2C10.29,223.72,20.82,254.22,51.88,263.37Z"/></g></svg>