<svg xmlns="http://www.w3.org/2000/svg" viewBox="0 0 283.46 184.81"><defs><style>.cls-1{fill:#1d1d1b;}</style></defs><title>Water</title><g id="Water"><path class="cls-1" d="M64,184.81c-22.81,0-43-9-61.89-27.65L0,155.08V121l12.13,12c16,15.82,33,23.53,51.88,23.53,24.25,0,48.7-12.08,74.58-24.85,26.2-12.94,53.28-26.32,80.88-26.32,22.8,0,43,9,61.87,27.64l2.12,2.08v34.08l-12.13-12c-16-15.82-33-23.52-51.88-23.52-24.26,0-48.68,12.08-74.57,24.84-26.21,13-53.3,26.33-80.87,26.33Z"/><path class="cls-1" d="M64,132.16c-22.81,0-43-9-61.89-27.65L0,102.42V68.34l12.13,12c16,15.85,33,23.53,51.88,23.53,24.25,0,48.69-12.06,74.57-24.84,26.2-13,53.29-26.32,80.87-26.32,22.82,0,43.07,9,61.89,27.63l2.12,2.1v34.09l-12.13-12c-16-15.84-33-23.53-51.88-23.53-24.26,0-48.69,12.07-74.57,24.85-26.21,12.93-53.3,26.31-80.87,26.33Z"/><path class="cls-1" d="M64,79.47c-22.81,0-43-9-61.89-27.63L0,49.76V15.68l12.13,12c16,15.83,33,23.52,51.88,23.52,24.25,0,48.69-12.08,74.57-24.85C164.79,13.4,191.87,0,219.45,0c22.82,0,43.07,9.05,61.89,27.66l2.12,2.08V63.82l-12.13-12c-16-15.82-33-23.53-51.88-23.53-24.26,0-48.68,12.06-74.57,24.84C118.67,66.1,91.58,79.47,64,79.47Z"/></g><g id="Desert"><path class="cls-1" d="M-1.33,134.29H-282.71A13,13,0,0,1-275,117.75c32.57-12.11,62.46-28.6,92.4-46.06,16.84-9.84,34.52-20,54.43-21.07a15.14,15.14,0,0,1,2.05-.1,13.12,13.12,0,0,1,2.48.2c19.51,1.69,33.18,15.84,46.55,29.08,19.81,19.61,40.32,33.63,68.46,38C-.18,119.06,1.64,127.78-1.33,134.29Zm-262.27-8.36H-113c-9.92-8.69-21.53-18.52-23.69-27.47-2.25-9.34,3.81-19.63,13.34-35.87C-148,62.59-207.32,98.27-263.6,125.93Z"/></g></svg>