<svg xmlns="http://www.w3.org/2000/svg" viewBox="0 0 283.48 283.45"><defs><style>.cls-1,.cls-2{fill:#1d1d1b;}.cls-2{fill-rule:evenodd;}</style></defs><title>Web</title><g id="Web"><path class="cls-1" d="M283.06,142.85a118.83,118.83,0,0,0-36.49-18.22c-3.67-2.78-6.78-8.51-9-16.56-2.29-8.27-3.65-18.86-4-31.47a153.76,153.76,0,0,1,31.24-3.23.67.67,0,0,0,.66-.63.68.68,0,0,0-.6-.7,121,121,0,0,0-32.82.83c-7.43-1.87-14.72-5.89-21.66-12S197,47,191.11,37.28a155.14,155.14,0,0,1,23-16.27.67.67,0,0,0-.61-1.18A121.63,121.63,0,0,0,186.7,36a73.88,73.88,0,0,1-28,1.4A74.71,74.71,0,0,1,132,28,151.93,151.93,0,0,1,145.17,1,.65.65,0,0,0,145,.13a.65.65,0,0,0-.9.12A105.39,105.39,0,0,0,127.54,28a84,84,0,0,1-24.68,15.36,72.57,72.57,0,0,1-26.33,5.08,151.34,151.34,0,0,1-2.17-30.29.66.66,0,0,0-.6-.67h-.07A.66.66,0,0,0,73,18a104.59,104.59,0,0,0-.43,32.59C66.77,63.85,60.72,74.18,54.67,81.32,49.15,87.82,43.58,91.71,38.1,92.9A150.36,150.36,0,0,1,21.59,68.39a.67.67,0,0,0-.86-.28.67.67,0,0,0-.35.84,106.34,106.34,0,0,0,14.77,27c2.76,14.83,3.55,25.73,2.43,34.26-1.22,9.38-4.76,16.18-10.85,20.79A152,152,0,0,1,1,138.28a.7.7,0,0,0-.9.19.66.66,0,0,0,.13.9A106,106,0,0,0,25,154.67c5.63,8,12.64,18.43,17,28.45,3.93,9.17,5.25,17.1,4,24.22a157,157,0,0,1-27.87,1.76h0a.66.66,0,0,0-.1,1.32,105.34,105.34,0,0,0,29.67.8l2.89,1.39c19.08,9.06,37.1,17.63,42.58,32.53a152.2,152.2,0,0,1-24.77,16.73.66.66,0,0,0,.55,1.2,105.43,105.43,0,0,0,27.77-15.42,86.07,86.07,0,0,1,55,7.87,155.83,155.83,0,0,1-12.26,26.93.68.68,0,0,0,.22.89.64.64,0,0,0,.37.11.65.65,0,0,0,.53-.28,121,121,0,0,0,15.38-28,57.5,57.5,0,0,1,22.73-13.34A77.4,77.4,0,0,1,207.9,239a159.27,159.27,0,0,1,2.18,25.81.66.66,0,0,0,.62.66.6.6,0,0,0,.7-.59,122.21,122.21,0,0,0-.11-27.91,51.75,51.75,0,0,1,14.8-22.85c7-6.26,16-11.07,27-14.32a165.84,165.84,0,0,1,9.39,14.35.67.67,0,0,0,1.19-.6,125.75,125.75,0,0,0-8.44-15.92c-3.11-22.78,4.19-41.79,21.74-56.55,1.84,1,3.7,2,5.52,3a.68.68,0,0,0,.33.09h0a.66.66,0,0,0,.68-.66A.66.66,0,0,0,283.06,142.85ZM210.23,230a114,114,0,0,0-7.2-23.89,32.18,32.18,0,0,1,8.67-16.8c4.87-5.07,11.64-9.25,20.14-12.4a126,126,0,0,1,19,19.86c-10.83,3.39-19.92,8.33-27,14.7A54.74,54.74,0,0,0,210.23,230Zm-84.71,13.61a89.46,89.46,0,0,0-23.63-.28,108.92,108.92,0,0,0,18.44-21.44,34.49,34.49,0,0,1,18.29-2.72,69.55,69.55,0,0,1,19.18,5.32,116.53,116.53,0,0,1-5.06,27.67A90.84,90.84,0,0,0,125.52,243.63ZM45.19,181.76C42.12,174.63,37.69,167,30.91,157a107.48,107.48,0,0,0,28.54,6.11c4.87,5.53,9.52,11,13.08,16.64,3.78,6,5.86,11.59,6.36,17.09a110.43,110.43,0,0,1-29.27,9.83C50.63,199.24,49.18,191.08,45.19,181.76Zm-5.56-80.41a108.08,108.08,0,0,0,19.56,17.38c2.26,10.37,3.33,19.09,3.18,25.92-.16,5.81-1.18,10.31-3,13.39a109.63,109.63,0,0,1-28.75-5.73c5.81-5.12,9.23-12.24,10.46-21.72C42,122.9,41.59,113.55,39.63,101.35ZM158.16,40.78a75,75,0,0,0,10.81.78,79.11,79.11,0,0,0,12.33-1,115.33,115.33,0,0,0-17.84,20.59A42.5,42.5,0,0,1,146,64a58.81,58.81,0,0,1-20.54-4.93,110,110,0,0,1,5.46-27.74A77.86,77.86,0,0,0,158.16,40.78Zm-.45,118a15.6,15.6,0,0,0-1.81.38,12.73,12.73,0,0,0-2.68,1.08c-.95-2.55-2-5.09-3-7.57C153,154.88,155.41,156.87,157.71,158.79Zm-47.85,23.8a40.8,40.8,0,0,1,9.83,3.22,32,32,0,0,1,8.78,6.26,119.4,119.4,0,0,1-11.1,24.86,39.28,39.28,0,0,0-15.32-13.09,75.14,75.14,0,0,0-15.29-5.28A138.54,138.54,0,0,0,109.86,182.59Zm-44-37.86a109.26,109.26,0,0,0-2.53-23.26,135.54,135.54,0,0,0,24.91,12.28,38.49,38.49,0,0,1,3.53,11.8,32.05,32.05,0,0,1-.34,9.88,119.37,119.37,0,0,1-28.23,2.78C64.81,154.75,65.7,150.22,65.83,144.73Zm104.82,5a21.08,21.08,0,0,0-2.64,2.08,15.6,15.6,0,0,0-3,3.68c-3.32-2.9-6.77-5.71-10.48-8.53C159.27,147.68,164.91,148.59,170.65,149.74Zm-.29,4.62a20.13,20.13,0,0,1,5.52-3.51,157.37,157.37,0,0,1,25.51,7.83,32.83,32.83,0,0,0-10.86,7.77,24.08,24.08,0,0,0-5.35,10,158.67,158.67,0,0,0-17.48-18.59A12.3,12.3,0,0,1,170.36,154.36Zm-14.92-14.51c6.88-2.69,14.77-5.64,23.06-8.1a26.79,26.79,0,0,0-2.19,7.15,23.78,23.78,0,0,0-.23,4.7A194.37,194.37,0,0,0,155.44,139.85Zm-2.77-6.61a264.75,264.75,0,0,1,20-22.7,30.47,30.47,0,0,0,1.81,8.81,18.76,18.76,0,0,0,3.06,5.4A188.17,188.17,0,0,0,152.67,133.24ZM140.41,124c-.21,1.39-.39,2.8-.58,4.22-.58-1.48-1.16-3-1.73-4.43.3.06.6.11.89.14A13.24,13.24,0,0,0,140.41,124Zm2.4,36.1c.25-1.62.49-3.23.71-4.82q1,2.5,1.94,5a11.74,11.74,0,0,0-2.19-.2Zm-9.28-2c1-1.27,2.06-2.57,3.1-3.92q-.39,2.64-.81,5.26L135,159C134.55,158.75,134.05,158.44,133.53,158.11Zm-5.15-14.56c-1.64.64-3.29,1.29-4.93,1.91-.19-.54-.37-1.1-.53-1.64-.1-.37-.21-.75-.3-1.13C124.54,143,126.45,143.28,128.38,143.55Zm-6.47-8.07c0-.78.09-1.54.18-2.26a18.82,18.82,0,0,1,.41-2c2.2,1.83,4.43,3.62,6.76,5.42Q125.57,136.07,121.91,135.48Zm-26.72,9.66a40.56,40.56,0,0,0-2.51-9.79A179.86,179.86,0,0,0,119,142.07a25.26,25.26,0,0,0,.64,2.72c.19.63.4,1.27.62,1.9a214.79,214.79,0,0,1-25.15,7.91A34.82,34.82,0,0,0,95.19,145.14Zm31.58,6.55c1.41-.54,2.83-1.1,4.3-1.71-.94,1.18-1.89,2.36-2.82,3.54-.3-.34-.59-.68-.86-1S127,152,126.77,151.69ZM123.43,153q.61.9,1.23,1.68c.42.53.88,1.07,1.37,1.6a217.67,217.67,0,0,1-17.82,19.52c-2.35-6.93-6.8-11.52-11-15.26A185.4,185.4,0,0,0,123.43,153Zm-4.77-20.24a21.54,21.54,0,0,0-.21,2.18,207.74,207.74,0,0,1-24-5.49,30.72,30.72,0,0,0,5.36-6.57,25.5,25.5,0,0,0,3.4-10.31,178.34,178.34,0,0,0,16.47,16.23A20.86,20.86,0,0,0,118.66,132.72Zm12.66,28.08c.66.44,1.34.86,2,1.24s1.25.69,1.9,1a214.77,214.77,0,0,1-5.63,25.33,35.9,35.9,0,0,0-8.41-5.67,42.58,42.58,0,0,0-8.1-2.94A181,181,0,0,0,131.32,160.8Zm36.62-55.21a175.22,175.22,0,0,0-18.51,20.14,13.45,13.45,0,0,1-1.56-2.54,222.42,222.42,0,0,1,6.21-28.06,34.85,34.85,0,0,0,8.23,7.92A18.65,18.65,0,0,0,167.94,105.59Zm-3.73-5.45a33.77,33.77,0,0,1-8.84-9.1,123.43,123.43,0,0,1,11.5-25.35,58.49,58.49,0,0,0,14.54,15.58,34.46,34.46,0,0,0,11.92,5.52,137.34,137.34,0,0,0-22,15.79A13.62,13.62,0,0,1,164.21,100.14Zm-26.39-5a35.41,35.41,0,0,0,9.8-1.7,171.1,171.1,0,0,0-6.65,27,5.23,5.23,0,0,1-1.58,0,9.32,9.32,0,0,1-2.88-.88,209.94,209.94,0,0,1-7.93-25.67A28.08,28.08,0,0,0,137.82,95.15Zm-10.15,31.26.59-.44a24.81,24.81,0,0,0,2.39-2.13c.88,2.36,1.8,4.75,2.82,7.23C131.28,129.33,129.42,127.83,127.67,126.41ZM145,188a39.73,39.73,0,0,0-9.25,1.56,180.7,180.7,0,0,0,6.47-26,8.72,8.72,0,0,1,2.59.08,11.93,11.93,0,0,1,2.13.61,207.77,207.77,0,0,1,7.67,25.25A24.15,24.15,0,0,0,145,188Zm34.62-43.51a20.91,20.91,0,0,1,.12-5.08,25.49,25.49,0,0,1,3.32-9,138.42,138.42,0,0,1,26.77-4.68,36.49,36.49,0,0,0-5.52,13.15,38.38,38.38,0,0,0,0,14.45A148.43,148.43,0,0,0,179.63,144.5Zm1.75-20.7a14.53,14.53,0,0,1-3.7-5.67A30.36,30.36,0,0,1,176,107.29a126.21,126.21,0,0,1,23.24-17.54c1.09,8.58,2.31,14.67,3.94,19.62A31,31,0,0,0,208.71,120,142.1,142.1,0,0,0,181.38,123.8ZM149.13,89.21a32.22,32.22,0,0,1-11.39,2.47h-.67a23.61,23.61,0,0,1-9.37-1.81,117.83,117.83,0,0,1-2.45-27.12,61.47,61.47,0,0,0,20.58,4.7,47.07,47.07,0,0,0,14.63-1.62A134.44,134.44,0,0,0,149.13,89.21Zm-23,34c-.43.33-.85.63-1.24.88A202.56,202.56,0,0,1,106,106.38a26,26,0,0,0,7.42-3.58,66.47,66.47,0,0,0,9.16-7.68,177.2,177.2,0,0,0,6.79,25.07A25.43,25.43,0,0,1,126.14,123.23Zm-14.7-23.32a19.3,19.3,0,0,1-8.18,3.48A117.14,117.14,0,0,1,88.18,82a51.31,51.31,0,0,0,14.94-4.35A62.82,62.82,0,0,0,120,65.82,137.58,137.58,0,0,0,121.8,91,67.52,67.52,0,0,1,111.44,99.91ZM96.79,121.07a30.26,30.26,0,0,1-6.2,7.14,119.43,119.43,0,0,1-25.13-11.47,37.65,37.65,0,0,0,11.67-11.85,60.51,60.51,0,0,0,7.5-18.62,137.88,137.88,0,0,0,15.28,22.46A23.36,23.36,0,0,1,96.79,121.07ZM68.85,163.5a139.06,139.06,0,0,0,24-2.17c5.43,4.61,10.46,9.42,12.57,17.07a118.94,118.94,0,0,1-23.22,16.75c-.74-5.6-3-11.23-6.7-17.23a121.63,121.63,0,0,0-11.18-14.5C65.8,163.47,67.33,163.5,68.85,163.5Zm86.66,30.21A123.58,123.58,0,0,1,158,220.82a71.48,71.48,0,0,0-19-5.08,46.73,46.73,0,0,0-4.68-.24,37.7,37.7,0,0,0-11,1.57,138,138,0,0,0,11-23.44,39.26,39.26,0,0,1,10.78-2.16A21.22,21.22,0,0,1,155.51,193.71Zm1.31-31.19a16.39,16.39,0,0,1,4.38-.52h.27a181,181,0,0,1,18.79,18.56,34.48,34.48,0,0,0-9.34,1.94,29.18,29.18,0,0,0-9.77,6,166.68,166.68,0,0,0-6.74-24.89A9.4,9.4,0,0,1,156.82,162.52Zm15.29,23.24a33.48,33.48,0,0,1,11-1.86,117.7,117.7,0,0,1,14.24,22H197a52.38,52.38,0,0,0-19.12,3.45,48.28,48.28,0,0,0-14.43,8.86,134,134,0,0,0-1.55-25.58A25.62,25.62,0,0,1,172.11,185.76Zm21-17c3-3.36,7.25-6.1,12.7-8.16a113.67,113.67,0,0,1,22.91,13.82c-8.11,3.25-14.67,7.45-19.53,12.51A36.06,36.06,0,0,0,200.71,201a129.76,129.76,0,0,0-12.7-20.9A21,21,0,0,1,193.12,168.75Zm38.82-16.55a76.63,76.63,0,0,0-1.19,17.59,122.05,122.05,0,0,0-22.41-14.52,35.24,35.24,0,0,1-.61-15.69,33.82,33.82,0,0,1,6.54-14.05,112,112,0,0,1,28.37,2.66A61.65,61.65,0,0,0,231.94,152.2ZM213.59,120c-2.94-2.24-5.27-6.06-7.11-11.66-1.64-5-2.86-11.35-4-20.39a114.65,114.65,0,0,1,27.57-10.52c.41,12.6,1.81,23.23,4.12,31.61a45.33,45.33,0,0,0,6.14,14A118.49,118.49,0,0,0,213.59,120ZM198.38,84.05a29.22,29.22,0,0,1-15-5.63c-5.17-3.63-10-9-14.49-16a115.29,115.29,0,0,1,19.55-22.84A104.38,104.38,0,0,0,208,63.5a60,60,0,0,0,17,10.75A116.12,116.12,0,0,0,198.38,84.05ZM120.24,60.66a61.75,61.75,0,0,1-18.57,13.8,49,49,0,0,1-15.21,4.22A109.52,109.52,0,0,1,77.22,51.9a75.81,75.81,0,0,0,26.91-5.32,85,85,0,0,0,21.08-12.15A107.59,107.59,0,0,0,120.24,60.66ZM74.21,103a33.68,33.68,0,0,1-12,11.63A110.15,110.15,0,0,1,40.62,95.83C46.26,94.09,51.86,90,57.3,83.56S68.35,68,73.68,56.63a108,108,0,0,0,8.44,24.7C80.51,90,77.86,97.28,74.21,103ZM82,201c6.13,1.4,12.57,3,18.47,6a35.89,35.89,0,0,1,14.86,13.21,109.36,109.36,0,0,1-19.42,22.55c-6.26-15-24.2-23.9-42.09-32.41A107.66,107.66,0,0,0,82,201Zm81.07,22.3a46.15,46.15,0,0,1,16-10.69A49.93,49.93,0,0,1,199,209.42a120.38,120.38,0,0,1,8.28,26,81.53,81.53,0,0,0-29.67,3.06,61.29,61.29,0,0,0-19.38,10.11A114.7,114.7,0,0,0,163.1,223.3Zm88-31.8a113.43,113.43,0,0,0-16.78-18.65c-.27-6.5-.39-12.93,1-20a58.68,58.68,0,0,1,11-23.82,140.63,140.63,0,0,1,29.2,11.23C258.08,152.49,249.89,169.71,251.11,191.5Z"/></g><g id="Magic"><polygon class="cls-2" points="0.01 104.55 -158.01 107.3 -161.42 119.59 -36.59 118.09 -88.96 158.65 -85.68 171.67 0.01 104.55"/></g></svg>