<svg xmlns="http://www.w3.org/2000/svg" viewBox="0 0 283.46 283.46"><defs><style>.cls-1{fill:#1d1d1b;}</style></defs><title>White 2</title><g id="White_2" data-name="White 2"><path class="cls-1" d="M262.28,0H21.19A21.22,21.22,0,0,0,0,21.21V262.3a21.2,21.2,0,0,0,21.19,21.16H262.28a21.19,21.19,0,0,0,21.18-21.16V21.21A21.21,21.21,0,0,0,262.28,0Zm10,258.68a12.43,12.43,0,0,1-12.44,12.42H23.67a12.42,12.42,0,0,1-12.42-12.42V24.81A12.42,12.42,0,0,1,23.67,12.39H259.79a12.43,12.43,0,0,1,12.44,12.42Z"/><path class="cls-1" d="M106.37,106.39a23.62,23.62,0,1,1,0-33.41A23.62,23.62,0,0,1,106.37,106.39Z"/><path class="cls-1" d="M210.49,210.51a23.62,23.62,0,1,1,0-33.42A23.62,23.62,0,0,1,210.49,210.51Z"/></g></svg>