<svg xmlns="http://www.w3.org/2000/svg" viewBox="0 0 283.46 268.29"><defs><style>.cls-1{fill:#1d1d1b;}</style></defs><title>White dice</title><g id="White_dice" data-name="White dice"><path class="cls-1" d="M127,33a14,14,0,1,1-9.87,17.1A14,14,0,0,1,127,33Z"/><path class="cls-1" d="M72.66,166.63a14,14,0,1,1,9.89-17.09A14,14,0,0,1,72.66,166.63Z"/><path class="cls-1" d="M45.69,104.12a14,14,0,1,1,5.1,19.07A13.95,13.95,0,0,1,45.69,104.12Z"/><path class="cls-1" d="M50.13,82.54A14,14,0,1,1,60,65.42,14,14,0,0,1,50.13,82.54Z"/><path class="cls-1" d="M274.18,106,181.59,81.14h0L162.33,9.28A12.52,12.52,0,0,0,147,.43L9.29,37.31A12.55,12.55,0,0,0,.43,52.67l36.89,137.7a12.55,12.55,0,0,0,15.35,8.85l38.74-10.37h0l-7.18,26.78A12.55,12.55,0,0,0,93.09,231L230.8,267.86A12.55,12.55,0,0,0,246.15,259L283,121.3A12.53,12.53,0,0,0,274.18,106ZM93.59,180.69l-41.4,11.09a7.34,7.34,0,0,1-9-5.19L7.41,53a7.35,7.35,0,0,1,5.19-9L147.46,7.88a7.35,7.35,0,0,1,9,5.19l17.7,66.09h0l-37.69-10.1a12.55,12.55,0,0,0-15.35,8.86L93.59,180.69Zm182.47-59L240.27,255.23a7.34,7.34,0,0,1-9,5.18L96.41,224.29a7.36,7.36,0,0,1-5.19-9L127,81.71a7.36,7.36,0,0,1,9-5.21l134.87,36.15A7.33,7.33,0,0,1,276.06,121.64Z"/><path class="cls-1" d="M133.93,185.76a14,14,0,1,0,9.88,17.11A14,14,0,0,0,133.93,185.76Z"/><path class="cls-1" d="M156.47,101.66a14,14,0,1,0,9.88,17.1A14,14,0,0,0,156.47,101.66Z"/><path class="cls-1" d="M218,208.29a14,14,0,1,0,9.88,17.11A14,14,0,0,0,218,208.29Z"/><path class="cls-1" d="M240.57,124.19a14,14,0,1,0,9.87,17.11A14,14,0,0,0,240.57,124.19Z"/></g></svg>