<svg xmlns="http://www.w3.org/2000/svg" viewBox="0 0 283.46 283.46"><defs><style>.cls-1{fill:#1d1d1b;}</style></defs><title>White 4</title><g id="White_4" data-name="White 4"><path class="cls-1" d="M262.27,0H21.2A21.23,21.23,0,0,0,0,21.21V262.3a21.21,21.21,0,0,0,21.2,21.16H262.27a21.21,21.21,0,0,0,21.19-21.16V21.21A21.23,21.23,0,0,0,262.27,0Zm10,258.68a12.43,12.43,0,0,1-12.45,12.42H23.67a12.42,12.42,0,0,1-12.42-12.42V24.81A12.42,12.42,0,0,1,23.67,12.39h236.1a12.43,12.43,0,0,1,12.45,12.42Z"/><path class="cls-1" d="M68.12,239a23.63,23.63,0,1,1,23.62-23.62A23.62,23.62,0,0,1,68.12,239Z"/><path class="cls-1" d="M68.12,91.75A23.63,23.63,0,1,1,91.74,68.12,23.62,23.62,0,0,1,68.12,91.75Z"/><path class="cls-1" d="M215.35,239A23.63,23.63,0,1,1,239,215.37,23.63,23.63,0,0,1,215.35,239Z"/><path class="cls-1" d="M215.35,91.75A23.63,23.63,0,1,1,239,68.12,23.63,23.63,0,0,1,215.35,91.75Z"/></g></svg>