<svg xmlns="http://www.w3.org/2000/svg" viewBox="0 0 283.46 283.46"><defs><style>.cls-1{fill:#1d1d1b;}</style></defs><title>White 5</title><g id="White_5" data-name="White 5"><path class="cls-1" d="M262.29,0H21.21A21.22,21.22,0,0,0,0,21.21V262.3a21.2,21.2,0,0,0,21.21,21.16H262.29a21.18,21.18,0,0,0,21.17-21.16V21.21A21.21,21.21,0,0,0,262.29,0Zm9.92,258.68a12.42,12.42,0,0,1-12.42,12.42H23.67a12.43,12.43,0,0,1-12.42-12.42V24.81A12.43,12.43,0,0,1,23.67,12.39H259.79a12.42,12.42,0,0,1,12.42,12.42Z"/><path class="cls-1" d="M68.12,239a23.63,23.63,0,1,1,23.63-23.62A23.63,23.63,0,0,1,68.12,239Z"/><path class="cls-1" d="M68.12,91.75A23.63,23.63,0,1,1,91.75,68.12,23.63,23.63,0,0,1,68.12,91.75Z"/><path class="cls-1" d="M158.43,158.45a23.62,23.62,0,1,1,0-33.41A23.62,23.62,0,0,1,158.43,158.45Z"/><path class="cls-1" d="M215.37,239A23.63,23.63,0,1,1,239,215.37,23.61,23.61,0,0,1,215.37,239Z"/><path class="cls-1" d="M215.37,91.75A23.63,23.63,0,1,1,239,68.12,23.62,23.62,0,0,1,215.37,91.75Z"/></g></svg>