<svg xmlns="http://www.w3.org/2000/svg" viewBox="0 0 283.46 283.46"><defs><style>.cls-1{fill:#1d1d1b;}</style></defs><title>White 3</title><g id="White_3" data-name="White 3"><path class="cls-1" d="M262.26,0H21.2A21.23,21.23,0,0,0,0,21.21V262.3a21.2,21.2,0,0,0,21.2,21.16H262.26a21.19,21.19,0,0,0,21.2-21.16V21.21A21.21,21.21,0,0,0,262.26,0Zm9.95,258.68a12.42,12.42,0,0,1-12.42,12.42H23.67a12.42,12.42,0,0,1-12.42-12.42V24.81A12.42,12.42,0,0,1,23.67,12.39H259.79a12.42,12.42,0,0,1,12.42,12.42Z"/><path class="cls-1" d="M101.46,101.47a23.62,23.62,0,1,1,0-33.4A23.64,23.64,0,0,1,101.46,101.47Z"/><path class="cls-1" d="M158.44,158.45a23.63,23.63,0,1,1,0-33.41A23.65,23.65,0,0,1,158.44,158.45Z"/><path class="cls-1" d="M215.42,215.43a23.63,23.63,0,1,1,0-33.42A23.65,23.65,0,0,1,215.42,215.43Z"/></g></svg>