<svg xmlns="http://www.w3.org/2000/svg" viewBox="0 0 283.46 283.46"><defs><style>.cls-1{fill:#1d1d1b;}</style></defs><title>White 1</title><g id="White_1" data-name="White 1"><g id="White_1-2" data-name="White 1"><path class="cls-1" d="M262.28,0H21.2A21.23,21.23,0,0,0,0,21.21V262.3a21.2,21.2,0,0,0,21.2,21.16H262.28a21.19,21.19,0,0,0,21.18-21.16V21.21A21.22,21.22,0,0,0,262.28,0Zm9.93,258.68a12.42,12.42,0,0,1-12.42,12.42H23.67a12.42,12.42,0,0,1-12.42-12.42V24.81A12.42,12.42,0,0,1,23.67,12.39H259.79a12.42,12.42,0,0,1,12.42,12.42Z"/><path class="cls-1" d="M141.73,118.12a23.63,23.63,0,1,0,23.62,23.63A23.62,23.62,0,0,0,141.73,118.12Z"/></g></g></svg>