<svg xmlns="http://www.w3.org/2000/svg" viewBox="0 0 283.46 283.46"><defs><style>.cls-1{fill:#1d1d1b;}</style></defs><title>White 6</title><g id="White_6" data-name="White 6"><path class="cls-1" d="M262.27,0H21.18A21.22,21.22,0,0,0,0,21.21V262.3a21.19,21.19,0,0,0,21.18,21.16H262.27a21.19,21.19,0,0,0,21.19-21.16V21.21A21.21,21.21,0,0,0,262.27,0Zm10,258.68A12.42,12.42,0,0,1,259.8,271.1H23.67a12.42,12.42,0,0,1-12.42-12.42V24.81A12.42,12.42,0,0,1,23.67,12.39H259.8a12.42,12.42,0,0,1,12.42,12.42Z"/><path class="cls-1" d="M215.36,44.5a23.63,23.63,0,1,1-23.63,23.62A23.62,23.62,0,0,1,215.36,44.5Z"/><path class="cls-1" d="M68.1,239a23.63,23.63,0,1,1,23.62-23.62A23.63,23.63,0,0,1,68.1,239Z"/><path class="cls-1" d="M51.4,125a23.62,23.62,0,1,1,0,33.41A23.62,23.62,0,0,1,51.4,125Z"/><path class="cls-1" d="M68.1,91.75A23.63,23.63,0,1,1,91.72,68.12,23.64,23.64,0,0,1,68.1,91.75Z"/><path class="cls-1" d="M215.36,239A23.63,23.63,0,1,1,239,215.37,23.63,23.63,0,0,1,215.36,239Z"/><path class="cls-1" d="M232.07,158.45a23.63,23.63,0,1,1,0-33.41A23.65,23.65,0,0,1,232.07,158.45Z"/></g></svg>