<svg xmlns="http://www.w3.org/2000/svg" viewBox="0 0 283.47 224.33"><defs><style>.cls-1{fill:#1d1d1b;}</style></defs><title>Wood</title><g id="Wood"><path class="cls-1" d="M87.74,201.16c0,.25,0,.48,0,.73,0,.48,0,1-.09,1.43,0,.28,0,.56-.08.84s-.08.84-.13,1.25l-.12.86-.18,1.16c0,.29-.11.57-.16.85s-.14.74-.23,1.1-.12.55-.19.82-.17.71-.27,1.06-.14.52-.22.78-.22.69-.33,1l-.24.72-.39,1c-.09.22-.17.44-.26.65s-.32.72-.49,1.07l-.24.51c-.25.51-.52,1-.8,1.49a.35.35,0,0,0,0,.08c-.27.45-.54.89-.83,1.32-.1.15-.21.29-.32.44l-.63.86-.41.49-.62.73-.46.47c-.21.22-.42.43-.65.64l-.49.45-.38.32L11.81,185.86C4.15,171.68,0,156.74,0,143.69c0-13.77,4.85-23.65,13-27.8l.36-.17c.56-.27,1.13-.51,1.72-.73.24-.09.49-.16.74-.24.51-.16,1-.32,1.55-.44s.84-.16,1.26-.24.8-.15,1.22-.2a25.9,25.9,0,0,1,2.67-.15h0c5.92,0,12.66,2.08,19.5,6,25.29,14.6,45.8,50.12,45.72,79.18C87.79,199.69,87.77,200.43,87.74,201.16Z"/><path class="cls-1" d="M283,92.72c-.14.89-.29,1.77-.47,2.61,0,.15-.06.31-.1.46-.2.92-.44,1.8-.7,2.67l-.18.55c-.28.87-.58,1.72-.91,2.53v0c-.34.8-.71,1.56-1.1,2.3l-.25.47c-.4.71-.82,1.4-1.27,2a3.55,3.55,0,0,1-.23.31q-.63.89-1.32,1.68c-.09.09-.16.19-.25.29a20.26,20.26,0,0,1-1.62,1.59l-.37.31a17.19,17.19,0,0,1-1.83,1.38L93,216.15c0-.15.09-.31.14-.47.28-.82.53-1.66.76-2.52.06-.2.12-.4.17-.61a2.45,2.45,0,0,0,.08-.29.29.29,0,0,0,0-.09c.23-.91.42-1.85.6-2.81,0-.25.08-.51.13-.77,0,0,0-.07,0-.1l.12-.71c.1-.66.18-1.32.26-2,0-.27.07-.52.09-.79s.06-.71.1-1.07,0-.51,0-.77c0-.56.08-1.13.1-1.7a1.49,1.49,0,0,1,0-.21l-.26-9c0-.31-.07-.62-.1-.93l-.12-1.09c0-.15,0-.3,0-.45-.05-.41-.11-.82-.17-1.23s-.11-.8-.17-1.2l-.06-.44-.09-.5-.12-.68c-.07-.39-.13-.77-.2-1.15,0-.19-.07-.38-.11-.57-.06-.34-.13-.67-.2-1a1.29,1.29,0,0,1,0-.19l-.21-1c0-.24-.11-.47-.16-.71l-.27-1.13c0-.1,0-.2-.07-.31s-.1-.43-.15-.64-.16-.58-.23-.87-.21-.76-.31-1.14-.13-.52-.21-.78-.15-.52-.23-.78c0-.1-.06-.19-.08-.29-.11-.36-.21-.73-.33-1.09-.06-.21-.13-.43-.19-.65s-.23-.7-.34-1l-.12-.34c-.09-.29-.18-.59-.28-.88l-.18-.52c-.13-.38-.27-.77-.41-1.16l-.09-.25-3-7.45c-.1-.23-.21-.45-.31-.68-.23-.52-.46-1-.7-1.54l-.27-.59-.3-.62q-.36-.76-.75-1.53c-.12-.26-.25-.52-.38-.78l-.22-.43c-.26-.51-.52-1-.79-1.51l-.5-.95c-.06-.11-.12-.23-.19-.34-.25-.48-.52-1-.79-1.42s-.39-.72-.6-1.07c0-.05,0-.09-.07-.14l-.08-.13c-.26-.46-.54-.92-.81-1.37l-.58-1c-.08-.12-.16-.25-.23-.38s-.34-.53-.5-.8-.29-.45-.43-.68l-.44-.7-.33-.5-.64-1c-.23-.35-.46-.71-.7-1.06-.08-.13-.17-.25-.26-.37l-.16-.24-.69-1-.62-.88-.55-.76L74,139l-5-6.29L68.5,132c-.27-.3-.53-.61-.8-.92l-.38-.42c-.26-.3-.53-.59-.8-.89l-.88-1-.45-.49c-.22-.23-.45-.46-.67-.7l-1-1L63,126.1l-.54-.52c-.37-.37-.75-.73-1.13-1.09l-.57-.55-.39-.35-1.23-1.12-.66-.59-.18-.16-.06,0c-.43-.38-.87-.75-1.31-1.11l-.78-.66-.16-.13q-.69-.56-1.38-1.08l-.73-.58L53.7,118l-.6-.43c-.48-.36-1-.72-1.45-1.06L44,111.75c-.14-.07-.28-.13-.42-.21-.94-.49-1.87-1-2.8-1.37-.22-.1-.44-.22-.66-.31-1.14-.51-2.28-1-3.41-1.39-.3-.11-.58-.19-.87-.29-.84-.3-1.69-.57-2.52-.8l-1.14-.31c-.76-.19-1.52-.37-2.28-.52l-.68-.15L207.71,2.67c6.23-3.62,14.61-3.55,23.69.18l8.34,4.33c.75.47,1.49,1,2.24,1.47l.74.53c.49.34,1,.68,1.47,1l.89.68,1.29,1,.93.77,1.21,1,1,.84c.39.34.77.67,1.15,1l1,.9c.37.35.74.69,1.1,1l1,.94c.36.36.72.72,1.07,1.09s.62.65.93,1l1.05,1.13.91,1,.28.32,5.05,6.24.22.29.92,1.25.82,1.16.88,1.28c.27.39.53.78.79,1.18s.57.86.85,1.3.51.8.76,1.21.55.88.82,1.32.49.82.73,1.23.53.89.78,1.35.47.83.7,1.24l.75,1.37.66,1.26c.24.46.48.92.71,1.39l.63,1.27.66,1.4c.21.43.4.86.6,1.29s.42.94.62,1.41c.09.19.17.38.25.58l2.88,7.5,0,.13c.15.44.3.87.44,1.31l.45,1.45.39,1.31c.14.48.27,1,.4,1.44s.24.88.35,1.32.24,1,.36,1.45l.3,1.29c.11.49.2,1,.3,1.47s.18.85.26,1.28.17,1,.25,1.46.15.85.21,1.27.14,1,.2,1.45.11.85.16,1.26.1,1,.15,1.46.08.83.11,1.24.06,1,.09,1.44.05.82.06,1.22c0,.08,0,.15,0,.22L283,92.39C283,92.5,283,92.61,283,92.72Z"/></g><g id="Log"><path class="cls-1" d="M-.34,96.6c-1.3,11.63-6,20.25-13.46,24.61l-165.79,96.34a51.65,51.65,0,0,0,3.31-13.87c0-.17,0-.34.05-.51.06-.53.1-1.07.14-1.61s.06-.85.08-1.28,0-.77.07-1.16c0-.16,0-.32,0-.48l-.2-8.48c0-.07,0-.13,0-.2,0-.34-.07-.68-.1-1-.06-.62-.11-1.23-.18-1.86,0-.13,0-.26-.05-.4-.05-.39-.1-.78-.16-1.17s-.13-1-.2-1.56c0-.2-.07-.4-.1-.6-.06-.39-.13-.77-.19-1.17s-.15-.92-.24-1.38l-.15-.8c-.07-.37-.15-.74-.22-1.12s-.17-.83-.26-1.25-.15-.66-.22-1-.16-.71-.25-1.06-.18-.75-.27-1.13-.2-.8-.31-1.2-.16-.64-.25-1l-.28-1c-.13-.45-.26-.9-.4-1.36l0-.13-.23-.77c-.09-.31-.19-.62-.29-.93s-.28-.9-.43-1.35l-.33-1c-.07-.19-.14-.38-.2-.57a1.55,1.55,0,0,1-.08-.23c-.16-.45-.31-.9-.47-1.34-.1-.28-.19-.55-.29-.82l-2.79-7c-.12-.3-.25-.59-.38-.88s-.23-.52-.34-.77l-.69-1.5-.48-1-.27-.56c-.27-.56-.55-1.12-.82-1.67-.18-.35-.34-.7-.52-1.05-.06-.12-.12-.24-.19-.36-.33-.65-.67-1.29-1-1.94l-.5-.93-.09-.17c-.52-1-1.06-1.92-1.61-2.87l-.07-.14c-.58-1-1.18-2-1.79-3l-.08-.13-.53-.85-1.22-1.93-.2-.31c-.22-.33-.44-.65-.65-1-.35-.52-.7-1.05-1.06-1.57l-.32-.48-.69-1-.95-1.35-.47-.64-.59-.79-4.64-5.89-.59-.69-.93-1.08-.57-.65c-.23-.27-.48-.53-.72-.8s-.65-.73-1-1.09l-.6-.66c-.19-.21-.4-.41-.59-.61l-.08-.09c-.34-.35-.68-.71-1-1.05l-.69-.71-.74-.73-.91-.89-.79-.75-.82-.77-.78-.71-.89-.8-.9-.79-.64-.55-1-.85-1-.79-.49-.4c-.39-.31-.78-.6-1.17-.9l-1-.77-.34-.26-1.4-1-1-.68-.19-.14-7.2-4.41-1-.51-.87-.44c-1-.5-2-1-3-1.42l-.1,0c-1-.42-1.91-.81-2.86-1.17l-.86-.32c-.77-.28-1.53-.53-2.29-.77l-.7-.22c-1-.29-1.91-.54-2.85-.77l-.65-.13c-.76-.17-1.52-.32-2.27-.45l-.81-.12c-.2,0-.41-.08-.6-.1L-86.26-3.48c7.52-4.36,17.71-4.1,28.65.75l7.73,4.1C-49,1.9-48.17,2.46-47.32,3l.87.61c.55.38,1.11.76,1.65,1.16l1,.76c.5.37,1,.74,1.49,1.13l1.05.86c.47.38.94.76,1.4,1.15s.71.62,1.07.93.89.77,1.33,1.17l1.07,1L-35.1,13-34,14.07c.42.41.84.82,1.26,1.25l1,1.1c.41.43.82.85,1.22,1.29l1,1.15c.38.43.77.86,1.14,1.3L-23.66,26l.48.64c.36.48.72,1,1.07,1.45s.61.85.91,1.28.7,1,1,1.49.59.87.88,1.31l1,1.52.84,1.33,1,1.55.81,1.36.92,1.57.77,1.38.87,1.6.73,1.4c.29.54.56,1.08.84,1.62l.69,1.41c.27.54.53,1.09.78,1.64s.44.95.66,1.42.49,1.1.74,1.66c.18.41.35.83.53,1.25l2.7,7L-5.06,61c.16.48.32,1,.47,1.46s.36,1.12.53,1.68.29,1,.43,1.46.32,1.12.47,1.68.26,1,.39,1.46.28,1.12.41,1.68.23,1,.34,1.46.23,1.12.35,1.67.19,1,.28,1.46.2,1.11.29,1.67.16,1,.23,1.44.16,1.11.23,1.66.13,1,.18,1.44.11,1.09.16,1.63.09,1,.13,1.44.07,1.07.09,1.61.06,1,.07,1.42c0,.17,0,.33,0,.5Z"/></g></svg>